<?xml version="1.0" encoding="UTF-8" standalone="no"?>
<!-- Generator: Adobe Illustrator 15.0.0, SVG Export Plug-In . SVG Version: 6.00 Build 0)  -->

<svg
   xmlns:dc="http://purl.org/dc/elements/1.1/"
   xmlns:cc="http://creativecommons.org/ns#"
   xmlns:rdf="http://www.w3.org/1999/02/22-rdf-syntax-ns#"
   xmlns:svg="http://www.w3.org/2000/svg"
   xmlns="http://www.w3.org/2000/svg"
   xmlns:xlink="http://www.w3.org/1999/xlink"
   xmlns:sodipodi="http://sodipodi.sourceforge.net/DTD/sodipodi-0.dtd"
   xmlns:inkscape="http://www.inkscape.org/namespaces/inkscape"
   version="1.1"
   id="Layer_1"
   x="0px"
   y="0px"
   width="335.645px"
   height="314.83px"
   viewBox="9.1 10.605 335.645 314.83"
   enable-background="new 9.1 10.605 335.645 314.83"
   xml:space="preserve"
   sodipodi:docname="aboutImg_v1.svg"
   inkscape:version="0.92.1 r15371"><metadata
     id="metadata4246"><rdf:RDF><cc:Work
         rdf:about=""><dc:format>image/svg+xml</dc:format><dc:type
           rdf:resource="http://purl.org/dc/dcmitype/StillImage" /></cc:Work></rdf:RDF></metadata><defs
     id="defs4244" /><sodipodi:namedview
     pagecolor="#ffffff"
     bordercolor="#666666"
     borderopacity="1"
     objecttolerance="10"
     gridtolerance="10"
     guidetolerance="10"
     inkscape:pageopacity="0"
     inkscape:pageshadow="2"
     inkscape:window-width="1280"
     inkscape:window-height="680"
     id="namedview4242"
     showgrid="false"
     inkscape:zoom="1.0601099"
     inkscape:cx="-23.204304"
     inkscape:cy="145.59814"
     inkscape:window-x="0"
     inkscape:window-y="26"
     inkscape:window-maximized="1"
     inkscape:current-layer="Layer_1" /><linearGradient
     id="SVGID_1_"
     gradientUnits="userSpaceOnUse"
     x1="80.8462"
     y1="221.7891"
     x2="266.3457"
     y2="221.7891"
     gradientTransform="matrix(1 0 0 -1 4 325.1445)"><stop
       offset="0"
       style="stop-color:#39B54A"
       id="stop4056" /><stop
       offset="0.4286"
       style="stop-color:#34AE49"
       id="stop4058" /><stop
       offset="0.7584"
       style="stop-color:#21A247"
       id="stop4060" /><stop
       offset="1"
       style="stop-color:#009444"
       id="stop4062" /></linearGradient><circle
     fill="url(#SVGID_1_)"
     cx="177.596"
     cy="103.355"
     r="92.75"
     id="circle4065"
     style="fill:#39b54a;fill-opacity:1" /><circle
     fill="#FFFFFF"
     cx="177.596"
     cy="103.355"
     r="57.479"
     id="circle4067" /><circle
     fill="#D76727"
     cx="251.995"
     cy="232.684"
     r="92.75"
     id="circle4069"
     style="fill:#f4ff26;fill-opacity:1" /><circle
     fill="#05509E"
     cx="101.851"
     cy="232.684"
     r="92.751"
     id="circle4071"
     style="fill:#0c8fb2;fill-opacity:1" /><circle
     fill="#FFFFFF"
     cx="101.85"
     cy="232.684"
     r="57.479"
     id="circle4073" /><circle
     fill="#FFFFFF"
     cx="251.995"
     cy="232.684"
     r="57.479"
     id="circle4075" /><polygon
     fill="#FFFFFF"
     points="117.194,236.197 177.674,123.532 238.152,236.197 "
     id="polygon4077" /><g
     id="g4085"><path
       d="M167.297,214.745h-14.952c0-6.647,0-13.325,0-19.974h14.952v3.651h-11.214v4.595h10.814v3.51h-10.814v4.508h11.214V214.745   z"
       id="path4079" /><path
       d="M183.813,214.773v-8.075h-9.814v8.075h-3.767V194.8h3.767v8.417h9.814V194.8h3.738v19.974H183.813L183.813,214.773z"
       id="path4081" /><path
       d="M203.409,199.594c-0.685-1.142-2.567-2.226-4.736-2.226c-2.797,0-4.138,1.17-4.138,2.653c0,1.74,2.055,2.226,4.451,2.511   c4.166,0.514,8.047,1.598,8.047,6.362c0,4.453-3.938,6.363-8.389,6.363c-4.082,0-7.221-1.255-8.703-4.908l3.139-1.625   c0.885,2.196,3.195,3.166,5.621,3.166c2.367,0,4.594-0.826,4.594-2.996c0-1.883-1.969-2.652-4.622-2.938   c-4.08-0.485-7.847-1.569-7.847-6.049c0-4.108,4.052-5.792,7.732-5.821c3.109,0,6.334,0.885,7.846,3.966L203.409,199.594z"
       id="path4083" /></g><g
     display="none"
     id="g4109"><path
       display="inline"
       fill="#333333"
       d="M147.518,123.266h-6.285c0-2.794,0-5.601,0-8.396h6.285v1.535h-4.713v1.931h4.545v1.475   h-4.545v1.895h4.713V123.266z"
       id="path4087" /><path
       display="inline"
       fill="#333333"
       d="M152.991,123.266v-3.094c0-0.899-0.492-1.583-1.427-1.583   c-0.899,0-1.511,0.755-1.511,1.655v3.022h-1.451v-5.925h1.307l0.096,0.804c0.6-0.588,1.199-0.888,1.943-0.888   c1.391,0,2.506,1.043,2.506,2.902v3.106L152.991,123.266L152.991,123.266z"
       id="path4089" /><path
       display="inline"
       fill="#333333"
       d="M161.474,117.341l-2.518,5.949h-1.584l-2.53-5.949h1.595l0.816,1.955l0.911,2.495   l0.899-2.471l0.815-1.979H161.474z"
       id="path4091" /><path
       display="inline"
       fill="#333333"
       d="M163.78,115.686c0,1.139-1.727,1.139-1.727,0   C162.054,114.546,163.78,114.546,163.78,115.686z M162.185,117.329v5.937h1.464v-5.937H162.185z"
       id="path4093" /><path
       display="inline"
       fill="#333333"
       d="M166.325,117.353l0.107,0.684c0.455-0.732,1.067-0.84,1.667-0.84   c0.612,0,1.2,0.24,1.523,0.564l-0.659,1.271c-0.301-0.251-0.576-0.384-1.057-0.384c-0.768,0-1.475,0.408-1.475,1.5v3.118h-1.463   v-5.913H166.325z"
       id="path4095" /><path
       display="inline"
       fill="#333333"
       d="M176.054,120.315c0,1.703-1.162,3.082-3.082,3.082c-1.918,0-3.07-1.379-3.07-3.082   c0-1.691,1.176-3.083,3.059-3.083C174.844,117.232,176.054,118.624,176.054,120.315z M171.364,120.315   c0,0.899,0.541,1.739,1.607,1.739c1.068,0,1.607-0.839,1.607-1.739c0-0.888-0.623-1.751-1.607-1.751   C171.917,118.564,171.364,119.428,171.364,120.315z"
       id="path4097" /><path
       display="inline"
       fill="#333333"
       d="M181.419,123.266v-3.094c0-0.899-0.492-1.583-1.428-1.583   c-0.898,0-1.511,0.755-1.511,1.655v3.022h-1.451v-5.925h1.308l0.097,0.804c0.6-0.588,1.198-0.888,1.942-0.888   c1.392,0,2.506,1.043,2.506,2.902v3.106L181.419,123.266L181.419,123.266z"
       id="path4099" /><path
       display="inline"
       fill="#333333"
       d="M188.079,123.266v-3.167c0-0.779-0.408-1.487-1.211-1.487   c-0.792,0-1.261,0.708-1.261,1.487v3.167h-1.463v-5.925h1.355l0.107,0.72c0.313-0.6,0.996-0.815,1.559-0.815   c0.708,0,1.416,0.288,1.752,1.103c0.527-0.839,1.211-1.079,1.979-1.079c1.681,0,2.508,1.031,2.508,2.806v3.19h-1.465v-3.19   c0-0.779-0.322-1.439-1.114-1.439c-0.791,0-1.283,0.684-1.283,1.463v3.167L188.079,123.266L188.079,123.266z"
       id="path4101" /><path
       display="inline"
       fill="#333333"
       d="M196.145,120.831c0.098,0.731,0.731,1.259,1.764,1.259c0.54,0,1.248-0.204,1.584-0.552   l0.936,0.923c-0.623,0.648-1.644,0.959-2.543,0.959c-2.039,0-3.25-1.259-3.25-3.154c0-1.799,1.223-3.094,3.143-3.094   c1.979,0,3.214,1.224,2.986,3.658L196.145,120.831L196.145,120.831z M199.357,119.62c-0.096-0.768-0.694-1.151-1.534-1.151   c-0.791,0-1.439,0.384-1.654,1.151H199.357z"
       id="path4103" /><path
       display="inline"
       fill="#333333"
       d="M206.247,123.266v-3.094c0-0.899-0.492-1.583-1.429-1.583c-0.897,0-1.51,0.755-1.51,1.655   v3.022h-1.451v-5.925h1.308l0.096,0.804c0.601-0.588,1.199-0.888,1.943-0.888c1.392,0,2.506,1.043,2.506,2.902v3.106   L206.247,123.266L206.247,123.266z"
       id="path4105" /><path
       display="inline"
       fill="#333333"
       d="M210.784,115.686v1.679h1.631v1.259h-1.644v2.555c0,0.564,0.313,0.839,0.769,0.839   c0.228,0,0.492-0.072,0.707-0.18l0.407,1.248c-0.42,0.167-0.768,0.24-1.211,0.251c-1.282,0.048-2.123-0.684-2.123-2.159v-2.555   h-1.104v-1.259h1.104v-1.523L210.784,115.686z"
       id="path4107" /></g><g
     display="none"
     id="g4123"><path
       display="inline"
       fill="#333333"
       d="M86.979,262.611v-3.396h-4.126v3.396H81.27v-8.396h1.583v3.538h4.126v-3.538h1.571v8.396   H86.979z"
       id="path4111" /><path
       display="inline"
       fill="#333333"
       d="M91.181,260.165c0.096,0.731,0.731,1.259,1.763,1.259c0.54,0,1.247-0.203,1.583-0.552   l0.936,0.923c-0.624,0.648-1.643,0.959-2.542,0.959c-2.039,0-3.25-1.259-3.25-3.154c0-1.799,1.224-3.094,3.143-3.094   c1.979,0,3.214,1.225,2.986,3.658L91.181,260.165L91.181,260.165z M94.396,258.953c-0.096-0.768-0.696-1.151-1.535-1.151   c-0.792,0-1.439,0.384-1.655,1.151H94.396z"
       id="path4113" /><path
       display="inline"
       fill="#333333"
       d="M101.619,256.688h1.403v5.912h-1.379l-0.072-0.863c-0.336,0.695-1.259,1.031-1.919,1.043   c-1.751,0.012-3.046-1.067-3.046-3.143c0-2.039,1.355-3.105,3.083-3.094c0.792,0,1.547,0.372,1.883,0.959L101.619,256.688z    M98.069,259.637c0,1.127,0.779,1.799,1.751,1.799c2.303,0,2.303-3.586,0-3.586C98.849,257.85,98.069,258.509,98.069,259.637z"
       id="path4115" /><path
       display="inline"
       fill="#333333"
       d="M105.713,254.216v8.384h-1.452v-8.384H105.713z"
       id="path4117" /><path
       display="inline"
       fill="#333333"
       d="M109.061,255.02v1.68h1.631v1.259h-1.643v2.556c0,0.563,0.312,0.838,0.768,0.838   c0.228,0,0.492-0.072,0.708-0.18l0.408,1.248c-0.42,0.167-0.768,0.24-1.211,0.251c-1.283,0.048-2.123-0.685-2.123-2.159v-2.555   h-1.104v-1.259h1.104v-1.523L109.061,255.02z"
       id="path4119" /><path
       display="inline"
       fill="#333333"
       d="M113.249,254.204v3.286c0.528-0.684,1.175-0.887,1.847-0.887   c1.679,0,2.422,1.139,2.422,2.877v3.119h-1.463v-3.106c0-1.079-0.564-1.535-1.343-1.535c-0.864,0-1.463,0.731-1.463,1.619v3.022   h-1.463v-8.396L113.249,254.204L113.249,254.204z"
       id="path4121" /></g><g
     display="none"
     id="g4137"><path
       display="inline"
       fill="#333333"
       d="M238.771,256.23c-0.287-0.479-1.078-0.937-1.989-0.937c-1.177,0-1.739,0.492-1.739,1.116   c0,0.73,0.863,0.936,1.87,1.055c1.752,0.217,3.383,0.672,3.383,2.676c0,1.87-1.655,2.674-3.524,2.674   c-1.717,0-3.035-0.528-3.658-2.063l1.318-0.685c0.371,0.925,1.344,1.332,2.362,1.332c0.995,0,1.931-0.348,1.931-1.258   c0-0.793-0.826-1.117-1.941-1.235c-1.715-0.204-3.299-0.66-3.299-2.544c0-1.727,1.703-2.434,3.25-2.445   c1.308,0,2.662,0.372,3.299,1.667L238.771,256.23z"
       id="path4125" /><path
       display="inline"
       fill="#333333"
       d="M246.488,256.688h1.402v5.912h-1.379l-0.072-0.863c-0.336,0.695-1.258,1.031-1.918,1.043   c-1.752,0.012-3.047-1.067-3.047-3.143c0-2.039,1.355-3.105,3.082-3.094c0.793,0,1.547,0.372,1.883,0.959L246.488,256.688z    M242.938,259.637c0,1.127,0.779,1.799,1.752,1.799c2.304,0,2.304-3.586,0-3.586C243.718,257.85,242.938,258.509,242.938,259.637z"
       id="path4127" /><path
       display="inline"
       fill="#333333"
       d="M249.611,262.6v-4.545h-1.104v-1.283h1.104v-0.396c0-1.583,1.066-2.314,2.255-2.314   c0.516,0,1.055,0.168,1.534,0.479l-0.539,1.091c-0.313-0.204-0.601-0.313-0.899-0.313c-0.504,0-0.887,0.336-0.887,1.056v0.396   h1.737v1.283h-1.737v4.545h-1.464V262.6z"
       id="path4129" /><path
       display="inline"
       fill="#333333"
       d="M255.215,260.165c0.098,0.731,0.73,1.259,1.764,1.259c0.539,0,1.248-0.203,1.584-0.552   l0.936,0.923c-0.624,0.648-1.645,0.959-2.543,0.959c-2.039,0-3.25-1.259-3.25-3.154c0-1.799,1.223-3.094,3.143-3.094   c1.979,0,3.213,1.225,2.986,3.658L255.215,260.165L255.215,260.165z M258.43,258.953c-0.097-0.768-0.695-1.151-1.535-1.151   c-0.791,0-1.439,0.384-1.654,1.151H258.43z"
       id="path4131" /><path
       display="inline"
       fill="#333333"
       d="M262.773,255.02v1.68h1.631v1.259h-1.643v2.556c0,0.563,0.313,0.838,0.768,0.838   c0.229,0,0.492-0.072,0.707-0.18l0.408,1.248c-0.42,0.167-0.768,0.24-1.211,0.251c-1.283,0.048-2.123-0.685-2.123-2.159v-2.555   h-1.104v-1.259h1.104v-1.523L262.773,255.02z"
       id="path4133" /><path
       display="inline"
       fill="#333333"
       d="M271.593,256.688l-3.61,8.383h-1.606l1.104-2.567l-2.362-5.815h1.702l0.898,2.555   l0.564,1.667l0.611-1.632l1.08-2.59H271.593L271.593,256.688z"
       id="path4135" /></g><g
     id="g4145"
     transform="translate(2)"><path
       d="m 171.878,79.836 c -2.95,-2.949 -8.724,-3.291 -12.808,-3.291 -0.424,0 -0.767,0.343 -0.767,0.767 0,4.086 0.342,9.859 3.29,12.81 1.385,1.233 3.194,1.879 5.046,1.802 1.91,0.075 3.779,-0.567 5.238,-1.802 2.198,-2.199 2.602,-7.685 10e-4,-10.286 z"
       id="path4139"
       inkscape:connector-curvature="0"
       style="fill:#00ad56" /><path
       d="m 191.305,79.579 c -4.087,0 -9.859,0.342 -12.811,3.291 -2.606,2.606 -2.197,8.085 0,10.284 1.46,1.234 3.329,1.877 5.238,1.801 1.854,0.077 3.662,-0.569 5.047,-1.801 2.951,-2.95 3.291,-8.724 3.291,-12.81 0,-0.423 -0.343,-0.765 -0.765,-0.765 z"
       id="path4141"
       inkscape:connector-curvature="0"
       style="fill:#00ad56" /><path
       d="m 174.403,107.213 c -0.423,0 -0.767,-0.343 -0.767,-0.767 0,-16.261 -5.963,-20.341 -8.208,-21.876 -0.271,-0.173 -0.527,-0.367 -0.767,-0.581 -0.294,-0.305 -0.286,-0.79 0.019,-1.084 0.297,-0.287 0.769,-0.287 1.065,0 0.173,0.146 0.356,0.28 0.549,0.4 1.993,1.363 6.688,4.576 8.313,15.113 1.255,-5.509 4.975,-10.134 10.086,-12.541 0.392,-0.184 0.858,-0.037 1.074,0.339 0.192,0.342 0.072,0.776 -0.27,0.97 -0.014,0.007 -0.025,0.014 -0.039,0.021 l -0.124,0.059 c -8.405,3.951 -10.17,12.612 -10.17,19.182 0.002,0.42 -0.339,0.762 -0.761,0.765 z"
       id="path4143"
       inkscape:connector-curvature="0"
       style="fill:#00934b" /></g><g
     id="g4163"><g
       id="g4157"><g
         id="g4155"><defs
           id="defs4148"><rect
             id="SVGID_2_"
             x="238.861"
             y="213.521"
             width="24.621"
             height="34" /></defs><clipPath
           id="SVGID_3_"><use
             xlink:href="#SVGID_2_"
             overflow="visible"
             id="use4150" /></clipPath><path
           clip-path="url(#SVGID_3_)"
           fill="#0076B4"
           d="M251.945,213.995l-0.772-0.474l-0.772,0.474     c-3.445,2.124-7.571,2.854-11.537,2.046v18.021c-0.002,2.209,0.587,4.381,1.703,6.289c1.281,2.192,3.22,3.926,5.543,4.949     l5.063,2.221l5.063-2.221c0.271-0.117,0.537-0.246,0.799-0.386v-0.003c1.973-1.051,3.613-2.63,4.742-4.561     c1.117-1.908,1.707-4.08,1.705-6.291v-18.019C259.518,216.852,255.391,216.119,251.945,213.995L251.945,213.995z"
           id="path4153" /></g></g><path
       fill="#0A5F88"
       d="M251.173,217.038l-0.612,0.376c-2.733,1.684-6.006,2.263-9.15,1.621v14.292   c-0.002,1.754,0.463,3.478,1.348,4.991c1.016,1.738,2.555,3.113,4.396,3.927l4.02,1.758L251.173,217.038L251.173,217.038z"
       id="path4159" /><polygon
       fill="#00AF4D"
       points="245.311,231.693 250,236.383 259.966,226.417 257.62,224.073 250,231.693 247.654,229.35  "
       id="polygon4161" /></g><g
     id="g4177"><g
       id="g4175"><defs
         id="defs4166"><path
           id="SVGID_4_"
           d="M99.3,248.061c-0.341,0-0.681-0.086-0.988-0.259c-0.044-0.024-0.09-0.051-0.137-0.077     c0.047,0.026,0.093,0.053,0.137,0.077C98.62,247.975,98.959,248.061,99.3,248.061c0.34,0,0.68-0.086,0.986-0.259l0,0l0,0     C99.98,247.975,99.64,248.061,99.3,248.061 M98.173,247.725c0-0.002-0.001-0.002-0.002-0.002     C98.173,247.723,98.173,247.723,98.173,247.725 M98.167,247.721L98.167,247.721L98.167,247.721" /></defs><clipPath
         id="SVGID_5_"><use
           xlink:href="#SVGID_4_"
           overflow="visible"
           id="use4168" /></clipPath><g
         transform="matrix(1 0 0 1 -7.678746e-006 -4.066038e-006)"
         clip-path="url(#SVGID_5_)"
         id="g4173"><image
           sodipodi:absref="/home/bruce/Desktop/5A0B08ED.jpg"
           xlink:href="5A0B08ED.jpg"
           id="image4171"
           transform="matrix(0.0241 0 0 0.025 98.1402 247.5088)"
           height="30"
           width="89"
           enable-background="new    "
           overflow="visible" /></g></g></g><path
     fill="#FFFFFF"
     d="M114.91,235.087h-7.932c-0.869,0-1.664,0.438-2.129,1.171l-0.908,1.432l-2.102-5.209  c-0.162-0.401-0.543-0.649-0.979-0.633c-0.432,0.019-0.795,0.297-0.924,0.709l-1.995,6.379l-2.096-8.521  c-0.11-0.45-0.497-0.76-0.96-0.77c-0.469-0.011-0.863,0.282-0.992,0.729l-1.086,3.73c-0.168,0.58-0.707,0.983-1.31,0.983h-7.808  c0.24,0.392,0.496,0.776,0.766,1.156h7.042c1.114,0,2.108-0.747,2.42-1.816l0.935-3.21l2.09,8.502  c0.109,0.445,0.492,0.756,0.951,0.77c0.011,0.001,0.021,0.001,0.033,0.001c0.444,0,0.829-0.281,0.963-0.709l2.029-6.489l2.055,5.096  c0.143,0.354,0.467,0.594,0.846,0.629c0.381,0.034,0.742-0.145,0.947-0.466l1.059-1.672c0.252-0.397,0.682-0.634,1.152-0.634h7.164  C114.412,235.863,114.667,235.479,114.91,235.087L114.91,235.087z"
     id="path4179" /><g
     id="g4239"><path
       fill="#E64625"
       d="M96.517,226.083c0.074-0.205,0.28-0.332,0.497-0.304c0.216,0.029,0.383,0.203,0.402,0.421l0.741,8.653   l1.387-5c0.056-0.203,0.244-0.345,0.457-0.338c0.211,0.004,0.393,0.152,0.441,0.358l0.772,3.351l1.319-5.541   c0.051-0.217,0.25-0.365,0.472-0.355c0.223,0.01,0.406,0.178,0.437,0.398l0.984,7.018l0.441-1.426   c0.06-0.194,0.24-0.326,0.443-0.326h10.438v-2.391c0-2.205-1.789-3.994-3.996-3.994h-6.341v-6.342c0-2.207-1.789-3.994-3.995-3.994   h-2.671c-2.206,0-3.995,1.787-3.995,3.994v6.342h-6.342c-2.205,0-3.994,1.789-3.994,3.994v2.44h9.604L96.517,226.083z"
       id="path4233" /><path
       fill="#E64625"
       d="M104.698,237c-0.063,0.208-0.264,0.343-0.479,0.325c-0.216-0.019-0.392-0.183-0.422-0.398l-0.931-6.639   l-1.208,5.076c-0.049,0.209-0.237,0.356-0.451,0.356h-0.001c-0.215,0-0.402-0.15-0.45-0.359l-0.807-3.5l-1.588,5.723   c-0.056,0.202-0.24,0.339-0.445,0.339c-0.015,0-0.029,0-0.044-0.001c-0.223-0.021-0.4-0.199-0.419-0.422l-0.779-9.105l-1.89,5.269   c-0.066,0.185-0.24,0.308-0.436,0.308h-9.869c0.329,1.875,1.964,3.299,3.932,3.299h6.341v6.342c0,2.207,1.789,3.994,3.995,3.994   h2.671c2.207,0,3.995-1.789,3.995-3.994v-6.342h6.342c1.987,0,3.634-1.451,3.942-3.351h-10.044L104.698,237z"
       id="path4235" /><path
       fill="#F7F1E6"
       d="M117.367,232.991h-12.056c-0.203,0-0.383,0.132-0.442,0.325l-0.441,1.427l-0.985-7.017   c-0.03-0.222-0.214-0.39-0.437-0.399c-0.222-0.009-0.421,0.139-0.472,0.356l-1.319,5.541l-0.772-3.352   c-0.048-0.207-0.229-0.354-0.441-0.359c-0.213-0.005-0.401,0.135-0.457,0.34l-1.387,5l-0.741-8.654   c-0.019-0.217-0.186-0.393-0.402-0.42c-0.216-0.028-0.423,0.098-0.497,0.303l-2.497,6.959H82.974c-0.256,0-0.464,0.208-0.464,0.463   c0,0.256,0.208,0.463,0.464,0.463h11.373c0.195,0,0.37-0.123,0.436-0.307l1.89-5.268l0.779,9.104   c0.019,0.224,0.196,0.401,0.419,0.422c0.015,0.001,0.029,0.001,0.043,0.001c0.206,0,0.39-0.138,0.446-0.339l1.587-5.724l0.807,3.5   c0.048,0.211,0.235,0.359,0.45,0.359h0.001c0.214,0,0.402-0.146,0.451-0.355l1.208-5.076l0.931,6.639   c0.03,0.215,0.206,0.38,0.422,0.398c0.215,0.018,0.415-0.117,0.479-0.325l0.954-3.082h11.715c0.256,0,0.463-0.207,0.463-0.463   C117.828,233.195,117.623,232.991,117.367,232.991L117.367,232.991z"
       id="path4237" /></g><text
     xml:space="preserve"
     style="font-style:normal;font-weight:normal;font-size:22.58073425px;line-height:1.25;font-family:sans-serif;letter-spacing:0px;word-spacing:0px;fill:#000000;fill-opacity:1;stroke:none;stroke-width:0.56451839"
     x="153.75793"
     y="129.37537"
     id="text5055"><tspan
       sodipodi:role="line"
       id="tspan5053"
       x="153.75793"
       y="129.37537"
       style="stroke-width:0.56451839">环境</tspan></text>
<text
     xml:space="preserve"
     style="font-style:normal;font-weight:normal;font-size:22.58073425px;line-height:1.25;font-family:sans-serif;letter-spacing:0px;word-spacing:0px;fill:#000000;fill-opacity:1;stroke:none;stroke-width:0.56451839"
     x="78.012909"
     y="268.64844"
     id="text5055-3"><tspan
       sodipodi:role="line"
       id="tspan5053-6"
       x="78.012909"
       y="268.64844"
       style="stroke-width:0.56451839">健康</tspan></text>
<text
     xml:space="preserve"
     style="font-style:normal;font-weight:normal;font-size:22.58073425px;line-height:1.25;font-family:sans-serif;letter-spacing:0px;word-spacing:0px;fill:#000000;fill-opacity:1;stroke:none;stroke-width:0.56451839"
     x="228.75778"
     y="268.71616"
     id="text5055-7"><tspan
       sodipodi:role="line"
       id="tspan5053-5"
       x="228.75778"
       y="268.71616"
       style="stroke-width:0.56451839">安全</tspan></text>
</svg>