<svg width="12.875mm" height="12.7mm" version="1.1" viewBox="0 0 12.875 12.7" xmlns="http://www.w3.org/2000/svg">
 <g transform="translate(-88.057 -142.48)">
  <path d="m88.057 155.18h12.875v-12.7h-12.875z" fill="#fff"/>
  <path d="m94.302 142.84c-3.3486 0-6.062 2.7161-6.062 6.0661 0 3.3486 2.7134 6.0634 6.062 6.0634 3.35 0 6.0648-2.7147 6.0648-6.0634 0-3.35-2.7147-6.0661-6.0648-6.0661m4.8521 6.0661c0 1.1217-0.38447 2.1484-1.0211 2.9711l-6.802-6.802c0.82131-0.63803 1.8493-1.0225 2.971-1.0225 2.6803 0 4.8521 2.1718 4.8521 4.8534m-9.7028 0c0-1.1217 0.3831-2.1525 1.0225-2.9738l6.8006 6.802c-0.82131 0.64079-1.8507 1.0225-2.9724 1.0225-2.6775 0-4.8507-2.1718-4.8507-4.8507"/>
  <g fill="none" stroke="#000">
   <path d="m89.407 151.49h9.3968" stroke-width=".57044"/>
   <path d="m89.407 151.2h3.0923" stroke-linecap="round" stroke-width="1.1409"/>
   <path d="m93.345 151.03 4.8218-3.4658m-3.1047 1.542 3.0565-2.22c0.13229-0.0965 0.31695-0.0675 0.41341 0.0648l0.32246 0.44372c0.09509 0.1323 0.06615 0.31695-0.06615 0.41341l-2.5025 1.819m1.0914-2.7671-0.89986 0.6532c-0.13229 0.0965-0.31695 0.0675-0.41341-0.0648l-0.68902-0.94947c-0.09508-0.13091-0.06615-0.31695 0.06615-0.41341l0.89986-0.65319m-1.571 3.3211 0.89986-0.65319c0.13229-0.0965 0.16123-0.28112 0.06614-0.41341l-0.68902-0.94809c-0.09646-0.13229-0.28112-0.16261-0.41341-0.0661 0 0-1.1079 1.2485-0.18604 2.2682" stroke-linecap="round" stroke-linejoin="round" stroke-width=".2854"/>
  </g>
  <path d="m95.286 147.65c0.113 0.15434 0.07855 0.37069-0.07579 0.48231-0.15434 0.113-0.37069 0.0786-0.48369-0.0758-0.11162-0.15572-0.07717-0.37069 0.07717-0.48369 0.15434-0.11162 0.37069-0.0772 0.48231 0.0772"/>
  <path d="m95.853 149.09-0.53881-0.74001" fill="none" stroke="#000" stroke-width=".41769"/>
  <path d="m95.853 149.09-0.26872-0.37069" fill="none" stroke="#000" stroke-width=".62689"/>
 </g>
</svg>
