<svg width="25.8mm" height="29.633mm" version="1.1" viewBox="0 0 25.8 29.633" xmlns="http://www.w3.org/2000/svg">
 <defs>
  <clipPath id="clipPath31685">
   <path d="m73.559 529.89h73.134v84h-73.134z"/>
  </clipPath>
  <clipPath id="clipPath31669">
   <path d="m97.781 609.05c-6.279-2.354-10.706-9.585-11.702-20.257h25.484l-0.081 18.529c-3.175 1.738-6.216 2.562-9.021 2.562-1.648 0-3.214-0.284-4.68-0.834"/>
  </clipPath>
  <clipPath id="clipPath31625">
   <path d="m86.088 588.88c-0.146-1.527-0.221-3.124-0.221-4.788 0-20.137 10.992-42.558 24.728-50.755h18.433c3.57 2.929 6.176 7.859 7.36 14.373l-16.503 14.929c-0.901-4.953-4.272-7.156-8.294-4.955-4.711 2.578-8.529 10.221-8.529 17.07 0 4.41 1.582 7.416 3.966 8.31 1.319 0.495 2.885 0.343 4.563-0.575l-0.028 6.391z"/>
  </clipPath>
  <clipPath id="clipPath31613">
   <path d="m110.44 533.43c0.345-0.209 0.692-0.409 1.04-0.599 6.844-3.746 13.062-3.245 17.657 0.599z"/>
  </clipPath>
  <clipPath id="clipPath31597">
   <path d="m73.559 529.89h73.134v84h-73.134z"/>
  </clipPath>
  <clipPath id="clipPath31585">
   <path d="m138.54 548.32 7.709 2.805-7.709 6.954z"/>
  </clipPath>
  <clipPath id="clipPath31569">
   <path d="m119.86 562.64 16.691-15.052 2.083 0.758v9.641l-9.073 8.183z"/>
  </clipPath>
  <clipPath id="clipPath31553">
   <path d="m73.559 529.89h73.134v84h-73.134z"/>
  </clipPath>
  <clipPath id="clipPath31541">
   <path d="m111.64 607.39 0.011-18.599h9.702l-0.013 22.129z"/>
  </clipPath>
  <clipPath id="clipPath31529">
   <path d="m111.65 588.88 4e-3 -6.177 9.699 3.531-2e-3 2.646z"/>
  </clipPath>
  <clipPath id="clipPath31513">
   <path d="m73.559 529.89h73.134v84h-73.134z"/>
  </clipPath>
  <clipPath id="clipPath31501">
   <path d="m138.54 548.33v-11.713c3.752 2.85 6.503 7.835 7.752 14.504z"/>
  </clipPath>
  <clipPath id="clipPath31489">
   <path d="m136.42 547.57c-1.201-6.447-3.804-11.326-7.357-14.228h2.263l3.866 1.408c1.221 0.465 2.371 1.116 3.439 1.94v11.676z"/>
  </clipPath>
  <clipPath id="clipPath31477">
   <path d="m129.18 533.43c-1.221-1.017-2.557-1.798-3.988-2.327l6.392 2.327zm-4.109-2.372c0.04 0.015 0.081 0.03 0.121 0.045z"/>
  </clipPath>
  <clipPath id="clipPath31465">
   <path d="m73.559 529.89h73.134v84h-73.134z"/>
  </clipPath>
  <clipPath id="clipPath31453">
   <path d="m107.71 612.66-9.632-3.506c3.913 1.383 8.529 0.892 13.47-1.812l9.879 3.595c-3.175 1.738-6.216 2.562-9.022 2.562-1.653 0-3.225-0.286-4.695-0.839m-9.863-3.59 0.231 0.084c-0.077-0.028-0.154-0.056-0.231-0.084"/>
  </clipPath>
  <clipPath id="clipPath31429">
   <path d="m136.35 547.54c-1.603-8.607-5.705-14.419-11.233-16.462l10.004 3.643c5.456 2.079 9.504 7.853 11.099 16.371zm-11.355-16.507c0.04 0.015 0.082 0.03 0.122 0.045z"/>
  </clipPath>
  <linearGradient id="linearGradient31443" x1=".020004" x2="1" gradientTransform="matrix(27.511 -77.924 -26.623 -9.3994 123.38 618.1)" gradientUnits="userSpaceOnUse">
   <stop stop-color="#fff" offset="0"/>
   <stop stop-color="#bcbdc0" offset=".10001"/>
   <stop stop-color="#bcbec0" offset=".89999"/>
   <stop offset="1"/>
  </linearGradient>
  <clipPath id="clipPath31395">
   <path d="m107.64 612.63-9.634-3.507c3.914 1.384 8.53 0.893 13.473-1.812l9.879 3.596c-3.175 1.738-6.216 2.562-9.022 2.562-1.653 0-3.225-0.286-4.696-0.839m-9.862-3.59 0.228 0.083c-0.076-0.027-0.152-0.055-0.228-0.083"/>
  </clipPath>
  <linearGradient id="linearGradient31409" x1=".020004" x2="1" gradientTransform="matrix(27.511 -77.924 -23.005 -8.122 120.05 616.92)" gradientUnits="userSpaceOnUse">
   <stop stop-color="#fff" offset="0"/>
   <stop stop-color="#bcbdc0" offset=".10001"/>
   <stop stop-color="#bcbec0" offset=".89999"/>
   <stop offset="1"/>
  </linearGradient>
  <clipPath id="clipPath31381">
   <path d="m73.559 529.89h73.134v84h-73.134z"/>
  </clipPath>
  <clipPath id="clipPath31365">
   <path d="m107.36 612.53c-6.94-2.603-11.617-11.163-11.899-23.744h25.697l-0.096 22.015c-3.176 1.738-6.216 2.562-9.023 2.562-1.647 0-3.213-0.284-4.679-0.833"/>
  </clipPath>
  <clipPath id="clipPath31353">
   <path d="m138.54 536.77c3.605 2.922 6.236 7.873 7.427 14.428l-7.427 6.718z"/>
  </clipPath>
  <clipPath id="clipPath31313">
   <path d="m95.462 588.88c-0.011-0.43-0.016-0.863-0.016-1.302 0-20.569 11.468-43.521 25.614-51.263 6.802-3.723 12.985-3.251 17.572 0.529v20.986l-9.17 8.295c-0.899-4.954-4.271-7.157-8.293-4.955-4.712 2.578-8.53 10.221-8.53 17.07 0 4.41 1.583 7.416 3.968 8.31 1.319 0.495 2.883 0.343 4.562-0.575l-0.013 2.905z"/>
  </clipPath>
  <clipPath id="clipPath31291">
   <path d="m107.36 612.53c-7.16-2.686-11.912-11.712-11.912-24.954 0-20.569 11.468-43.521 25.614-51.263 12.078-6.61 22.204 4e-3 24.906 14.881l-16.504 14.929c-0.899-4.954-4.271-7.157-8.293-4.955-4.712 2.578-8.53 10.221-8.53 17.07 0 4.41 1.583 7.416 3.968 8.31 1.319 0.495 2.883 0.343 4.562-0.575l-0.109 24.828c-3.176 1.738-6.216 2.562-9.023 2.562-1.647 0-3.213-0.284-4.679-0.833"/>
  </clipPath>
  <linearGradient id="linearGradient31303" x1=".39327" x2=".61798" gradientTransform="matrix(-30.176 82.909 40.976 14.914 111.38 520.97)" gradientUnits="userSpaceOnUse">
   <stop stop-color="#fff" offset="0"/>
   <stop stop-color="#bcbec0" offset=".5"/>
   <stop offset="1"/>
  </linearGradient>
 </defs>
 <g transform="translate(-107.41 -139.16)">
  <path d="m107.41 168.79h25.8v-29.633h-25.8z" fill="#fff"/>
  <g transform="matrix(.35278 0 0 -.35278 81.464 355.72)">
   <g clip-path="url(#clipPath31291)">
    <path d="m107.36 612.53c-7.16-2.686-11.912-11.712-11.912-24.954 0-20.569 11.468-43.521 25.614-51.263 12.078-6.61 22.204 4e-3 24.906 14.881l-16.504 14.929c-0.899-4.954-4.271-7.157-8.293-4.955-4.712 2.578-8.53 10.221-8.53 17.07 0 4.41 1.583 7.416 3.968 8.31 1.319 0.495 2.883 0.343 4.562-0.575l-0.109 24.828c-3.176 1.738-6.216 2.562-9.023 2.562-1.647 0-3.213-0.284-4.679-0.833" fill="url(#linearGradient31303)"/>
   </g>
  </g>
  <g transform="matrix(.35278 0 0 -.35278 81.464 355.72)">
   <g clip-path="url(#clipPath31313)">
    <g transform="translate(94.819 583.63)">
     <path d="m0 0v0m0.048 4.05v0m3.038 0.241v0m1.543-4.677v0m-3.375-0.144v0m1.928-0.531v0m1.977 2.363v0m-4.822 0.53v0m4.918 2.122v0m-3.664 0.482v0m-1.398-5.545v0m1.253-0.386v0m3.134 4.484v0m-0.192-0.916v0m-3.472 1.157v0m1.591-1.253v0m0.434 0.868v0m-0.868-2.363v0m1.254-0.53v0m0.289 1.061v0m0.53-2.363v0m-3.567-18.659v0m-0.531 3.52v0m3.038 0.241v0m1.543-4.677v0m-3.375-0.145v0m1.928-0.53v0m1.977 2.362v0m-4.822 0.531v0m4.918 2.121v0m-3.664 0.482v0m-1.398-5.544v0m3.664 6.219v0m-2.411-6.605v0m3.134 4.484v0m-0.192-0.916v0m-3.472 1.157v0m1.205-1.205v0m0.82 0.819v0m-0.868-2.362v0m1.254-0.531v0m0.289 1.061v0m0.53-2.362v0m-3.567 13.451v0m-0.531 3.52v0m3.038 0.241v0m1.543-4.677v0m-3.375-0.144v0m1.928-0.531v0m1.977 2.363v0m-4.822 0.53v0m4.484 2.122v0m-2.989 0v0m-1.639-5.063v0m3.664 6.22v0m-2.411-6.606v0m3.134 4.484v0m-0.192-0.916v0m-3.472 1.157v0m1.591-1.253v0m0.434 0.868v0m-0.868-2.363v0m0.723-0.096v0m0.82 0.627v0m0.53-2.363v0m1.447-1.253v0m-0.193 1.301v0m1.205-0.482v0m0.965-0.723v0m-0.724 7.184v0m-0.433-4.773v0m1.687-1.784v0m-1.302 3.519v0m1.688 0.579v0m1.061-3.761v0m-0.82-1.109v0m2.411 0.82v0m0.385-0.771v0m-1.543 4.821v0m1.109 1.736v0m0.049-1.543v0m0.626-2.507v0m-0.626-0.29v0m-4.677 4.436v0m-0.29 2.363v0m-0.53-5.497v0m1.784 1.398v0m-1.639 0.868v0m1.253 4.484v0m0.338 0.627v0m1.784-5.014v0m1.302 3.857v0m-0.675 2.218v0m-3.52-0.531v0m-0.241 3.038v0m3.086-3.616v0m1.591 5.159v0m0.144-3.375v0m0.482-2.797v0m-1.205-2.459v0m0.723 0.675v0m0.531 6.509v0m-2.363 1.977v0m-0.53-4.821v0m-3.568 4.773v0m0.964-3.52v0m4.532-7.087v0m-4.532 4.387v0m0-2.411v0m5.545 3.713v0m0.337-4.87v0m0.049 6.124v0m-4.484 3.134v0m2.121-14.272v0m-0.578 2.025v0m-0.917-1.543v0m2.218 1.109v0m1.157 0.53v0m-3.085 3.906v0m0.096-1.013v0m0.579 2.604v0m-0.868 0.241v0m-0.627-0.82v0m2.266-0.482v0m-1.446 7.522v0m-1.157-3.472v0m1.253 1.591v0m-0.868 0.434v0m2.363-0.868v0m0.53 1.254v0m-1.061 0.289v0m2.363 0.531v0m0.53-15.333v0m-0.193 1.302v0m1.206-0.482v0m0.964-0.723v0m-0.723 7.184v0m-0.434-4.773v0m1.687-1.784v0m-0.916 2.941v0m1.158 1.687v0m0.385-5.4v0m-2.266 6.702v0m-0.289 2.363v0m-0.53-5.497v0m1.783 1.398v0m-1.639 0.868v0m1.254 4.484v0m0.337 0.627v0m1.784-5.014v0m-2.893 5.544v0m-0.241 3.038v0m3.086-3.616v0m-0.096 5.689v0m-0.531-4.821v0m-2.121 4.917v0m-0.482-3.664v0m0-2.7v0m0-2.411v0m0.434 7.474v0m1.012 0.626v0m1.543-12.246v0m-0.916-1.543v0m0.289 5.545v0m0.097-1.013v0m0.578 2.604v0m-0.868 0.241v0m-0.627-0.82v0m0.82 7.04v0m-1.157-3.472v0m1.254 1.591v0m-0.868 0.434v0m1.832 0.675v0m-9.065-25.65v0m-0.675 1.736v0m0.868 1.253v0m0.338 0.627v0m3.086-1.157v0m-0.675 2.218v0m-3.52-0.531v0m-0.193 3.713v0m3.038-4.291v0m1.591 5.159v0m0.144-3.375v0m0.482-2.797v0m-1.205-2.459v0m0.723 0.675v0m0.531 6.509v0m-2.363 1.977v0m-0.53-4.821v0m-2.122 4.918v0m-0.482-3.665v0m0-2.7v0m0-2.411v0m5.545 3.713v0m0.386 1.254v0m-4.484 3.134v0m0.916-8.245v0m0.675 1.591v0m-0.868 0.241v0" fill="none" stroke="#000" stroke-linecap="round" stroke-width=".386"/>
    </g>
    <g transform="translate(102.24 563.04)">
     <path d="m0 0v0m2.266-0.482v0m-1.446 7.521v0m-1.157-3.471v0m1.205 0.916v0m-0.82 1.109v0m2.363-0.868v0m0.53 1.254v0m-1.205-0.049v0m2.507 0.868v0m1.784-8.052v0m-0.386-0.626v0m-0.289 2.362v0m0.868 1.254v0m0.337 0.627v0m-1.109 0.53v0m-0.241 3.037v0m3.086-3.616v0m-0.096 5.69v0m-0.531-4.822v0m-2.121 4.918v0m-0.482-3.664v0m0-2.7v0m0-2.411v0m-0.049 7.763v0m1.495 0.337v0m0.916-8.245v0m0.096-1.012v0m0.579 2.603v0m-0.868 0.242v0m-0.627-0.82v0m0.82 7.039v0m-1.157-3.471v0m1.253 1.591v0m-0.867 0.434v0m1.832 0.675v0m-15.815-1.109v0m0.772 2.796v0m0.964-1.494v0m1.639-0.531v0m1.109 1.736v0m0.049-1.543v0m-4.677 1.639v0m0.964-1.735v0m1.736 0.964v0m0.964 1.495v0m0.723 0.675v0m-0.434-2.17v0m1.35 0.82v0m-3.519 1.012v0m0.096-1.012v0m0.868 1.591v0m-2.363 7.184v0m4.388 0.819v0m-3.568-0.289v0m0.964 1.495v0m0.29-1.495v0m1.35 0.82v0m-3.424 0v0m14.609 7.811v0m0.676-27.965v0m-2.652 0.096v0m0.096 27.82v0m-3.559-55.276v0m-0.193 1.302v0m1.206-0.482v0m0.964-0.724v0m-0.723 7.184v0m-0.434-4.773v0m1.687-1.784v0m-0.964 2.941v0m1.206 1.688v0m1.205-4.291v0m-0.82-1.109v0m2.411 0.819v0m0.386-0.771v0m-1.543 4.822v0m1.109 1.735v0m0.048-1.543v0m0.627-2.507v0m-0.627-0.289v0m-4.677 4.436v0m-0.289 2.362v0m-0.531-5.496v0m1.784 1.398v0m-1.253 0.578v0m0.868 4.774v0m0.337 0.627v0m1.784-5.015v0m1.302 3.857v0m-0.675 2.218v0m-3.52-0.53v0m-0.241 3.037v0m3.086-3.616v0m1.591 5.159v0m0.145-3.375v0m0.482-2.796v0m-1.206-2.459v0m0.724 0.675v0m0.53 6.509v0m-2.362 1.977v0m-0.531-4.822v0m-2.121 4.918v0m-0.482-3.664v0m4.532-7.088v0m-4.532 4.388v0m0-2.411v0m5.544 3.713v0m0.338-4.87v0m-6.557 8.534v0m6.605-2.411v0m-4.484 3.134v0m2.121-14.271v0m-0.578 2.025v0m-0.916-1.543v0m2.218 1.109v0m1.157 0.53v0m-3.086 3.905v0m0.097-1.012v0m0.578 2.603v0m-0.868 0.241v0m-0.627-0.819v0m2.267-0.482v0m-1.447 7.521v0m-1.157-3.471v0m1.205 1.205v0m-0.819 0.82v0m2.362-0.868v0m0.531 1.253v0m-1.061 0.29v0m2.362 0.53v0m-15.669-15.429v0m0.53 0.627v0m0.241 4.629v0m1.205-4.291v0m-0.819-1.109v0m2.41 0.819v0m0.386-0.771v0m-1.543 4.822v0m1.109 1.735v0m0.048-1.543v0m0.627-2.507v0m-0.627-0.289v0m-3.519 3.278v0m1.543 0.386v0m1.301 3.857v0m-0.675 2.218v0m-0.675-1.109v0m1.591 5.159v0m0.145-3.375v0m0.482-2.796v0m-1.205-2.459v0m0.723 0.675v0m0.531 6.509v0m-2.363 1.977v0m-0.53-4.822v0m1.928-5.834v0m1.013 5.69v0m0.337-4.87v0m0.048 6.123v0m-2.362-11.137v0m-0.579 2.025v0m-0.916-1.543v0m2.218 1.109v0m1.157 0.53v0m-3.085 3.905v0m0.096-1.012v0m0.579 2.603v0m-0.868 0.241v0m1.639-1.301v0m-1.446 7.521v0m0.096-1.88v0m-0.868 0.434v0m2.363-0.868v0m0.096 0.723v0m-0.627 0.82v0m2.363 0.53v0m1.253 1.447v0m-1.301-0.193v0m0.482 1.205v0m0.723 0.964v0m-2.411-1.157v0m1.784 1.688v0m-3.52-1.302v0m-0.578 1.687v0m3.761 1.061v0m1.109-0.819v0m-0.82 2.41v0m0.771 0.386v0m-4.821-1.543v0m-0.193 1.157v0m2.507 0.627v0m0.289-0.627v0m-1.301-5.496v0m-1.399 1.784v0m3.231 2.025v0m-2.025-0.579v0m1.543-0.916v0m-1.109 2.218v0m-0.531 1.157v0" fill="none" stroke="#000" stroke-linecap="round" stroke-width=".386"/>
    </g>
    <g transform="translate(99.89 557.23)">
     <path d="m0 0v0m-1.302-0.193v0m0.482 1.206v0m0.724 0.964v0m-2.411-1.157v0m1.784 1.687v0m-2.941-0.916v0m3.712 1.543v0m-3.568-3.086v0m-1.398 1.784v0m1.205 1.447v0m1.543-0.916v0m12.825-7.715v0m-1.735-0.675v0m-1.254 0.868v0m-0.627 0.338v0m1.158 3.085v0m-2.218-0.675v0m0.53-3.519v0m-3.713-0.193v0m4.292 3.037v0m-5.159 1.591v0m3.375 0.145v0m2.796 0.482v0m2.459-1.205v0m-0.675 0.723v0m-6.509 0.53v0m-1.977-2.362v0m4.822-0.531v0m-4.918-2.121v0m3.664-0.482v0m2.7 0v0m2.411 0v0m-3.713 5.545v0m-1.253 0.385v0m-3.134-4.484v0m8.245 0.916v0m-1.592 0.675v0m-0.241-0.867v0m0.82-0.627v0m0.482 2.266v0m-7.521-1.447v0m3.471-1.157v0m-0.916 1.206v0m-1.109-0.82v0m0.868 2.362v0m-1.254 0.531v0m0.049-1.206v0m-0.868 2.508v0m8.052 1.784v0m0.626-0.386v0m-2.362-0.289v0m-1.254 0.867v0m-0.627 0.338v0m-0.53-1.109v0m-3.037-0.241v0m3.616 3.086v0m-5.69-0.097v0m4.822-0.53v0m-4.918-2.122v0m3.664-0.482v0m2.7 0v0m2.411 0v0m-7.763-0.048v0m-0.337 1.495v0m8.245 0.916v0m1.012 0.096v0m-2.603 0.579v0m-0.241-0.868v0m0.819-0.627v0m-7.039 0.82v0m3.471-1.157v0m-1.591 1.253v0m-0.434-0.868v0m-0.675 1.833v0m-1.591-24.783v0m1.543-0.868v0m-0.337 2.749v0m1.494 7.087v0m-2.844-3.52v0m2.458-2.748v0m-1.735 3.568v0m-0.868-2.314v0m0-2.7v0m0-2.411v0m-0.675 7.377v0m2.121 0.723v0m0.724-6.412v0m-1.302-2.363v0m1.494 8.582v0m-1.157-3.471v0m1.254 1.591v0m-0.868 0.434v0m-1.398 4.436v0m1.494 0.964v0m0.531 1.639v0m-1.736 1.109v0m1.543 0.048v0m-1.639-4.677v0m1.735 0.965v0m-0.868-1.64v0m-0.096 3.375v0m-1.495 0.965v0m-0.675 0.723v0m2.17-0.434v0m-1.977-4.532v0m1.157 5.882v0m-1.012-3.52v0m1.012 0.097v0m-1.591 0.868v0m0.386-11.572v0m0.338 2.17v0m-0.483-3.664v0m-0.675 2.266v0m1.881-2.942v0m-0.965 4.967v0m-0.916 2.459v0m3.568-8.245v0m8.486 27.482v0m-0.096-2.652v0m27.456-24.001v0m-1.301-0.193v0m0.482 1.205v0m0.723 0.964v0m-7.184-0.723v0m4.773-0.434v0m1.784 1.688v0m-3.52-1.302v0m-1.108 1.543v0m4.291 1.205v0m1.109-0.82v0m-0.82 2.411v0m0.771 0.386v0m-4.821-1.543v0m-1.736 1.109v0m1.543 0.048v0m2.507 0.627v0m0.482-1.157v0m-3.953-3.664v0m-3.038-0.772v0m5.497-0.53v0m-0.916 1.977v0m-1.35-1.833v0m-4.484 1.254v0m-0.627 0.337v0m5.014 1.784v0m-3.857 1.302v0m-1.639-0.144v0m-0.048-4.05v0m-3.038-0.242v0m3.616 3.086v0m-5.159 1.591v0m3.375 0.145v0m2.797 0.482v0m2.459-1.205v0m-0.675 0.723v0m-6.509 0.53v0m-1.977-2.362v0m4.821-0.531v0m-4.918-2.121v0m3.665-0.482v0m7.087 4.532v0m-4.387-4.532v0m2.362-0.482v0m-3.664 6.027v0m4.243 0.53v0m-5.497-0.145v0m-3.134-4.484v0m14.272 2.122v0m-2.025-0.579v0m1.543-0.916v0m-1.109 2.218v0m-0.531 1.157v0m-3.905-3.086v0m1.013 0.097v0m-2.749 1.012v0m-0.096-1.301v0m0.82-0.627v0m0.482 2.266v0m-7.522-1.447v0m3.472-1.157v0m-1.591 1.254v0m-0.434-0.868v0m0.868 2.362v0m-1.254 0.531v0m-0.289-1.061v0m-0.531 2.363v0m15.525 14.464v0m-1.301-0.193v0m0.482 1.206v0m0.723 0.964v0m-7.184-0.723v0m4.773-0.434v0m1.784 1.687v0m-2.941-0.964v0m-1.687 1.205v0m4.291 1.206v0m1.109-0.82v0m-0.82 2.411v0m0.771 0.385v0" fill="none" stroke="#000" stroke-linecap="round" stroke-width=".386"/>
    </g>
    <g transform="translate(133.66 558.93)">
     <path d="m0 0v0m-1.736 1.109v0m1.543 0.048v0m2.507 0.627v0m0.29-0.627v0m-4.436-4.677v0m-2.363-0.289v0m5.497-0.53v0m-1.398 1.784v0m-0.579-1.254v0m-4.773 0.868v0m-0.627 0.337v0m5.014 1.784v0m-3.857 1.302v0m-2.218-0.675v0m0.531-3.52v0m-3.038-0.241v0m3.616 3.086v0m-5.159 1.591v0m3.375 0.145v0m2.797 0.482v0m2.459-1.205v0m-0.675 0.723v0m-6.509 0.53v0m-1.977-2.362v0m4.821-0.531v0m-4.918-2.121v0m3.665-0.482v0m7.087 4.532v0m-4.387-4.532v0m2.41 0v0m-3.712 5.544v0m4.87 0.338v0m-8.534-6.557v0m2.41 6.605v0m-3.134-4.484v0m14.272 2.122v0m-2.025-0.579v0m1.543-0.916v0m-1.109 2.218v0m-0.53 1.157v0m-3.906-3.086v0m1.013 0.097v0m-2.604 0.578v0m-0.241-0.868v0m0.82-0.626v0m0.482 2.266v0m-7.522-1.447v0m3.472-1.157v0m-1.206 1.205v0m-0.819-0.819v0m0.868 2.362v0m-1.254 0.531v0m-0.289-1.061v0m-0.531 2.363v0m15.525-17.647v0m-1.301-0.193v0m0.482 1.205v0m0.723 0.965v0m-7.184-0.723v0m4.773-0.434v0m1.784 1.687v0m-3.327-0.675v0m-1.301 0.916v0m4.291 1.206v0m1.109-0.82v0m-0.82 2.411v0m0.771 0.385v0m-4.821-1.543v0m-1.736 1.109v0m1.543 0.049v0m2.507 0.626v0m0.29-0.626v0m-4.436-4.677v0m-2.363-0.289v0m4.966-0.193v0m-1.446 1.639v0m-0.289-1.832v0m-4.484 1.253v0m-0.627 0.338v0m5.014 1.784v0m-3.857 1.302v0m-2.218-0.675v0m0.531-3.52v0m-3.038-0.241v0m3.616 3.086v0m-5.159 1.591v0m3.375 0.144v0m2.797 0.482v0m2.459-1.205v0m-0.675 0.723v0m-6.509 0.531v0m-1.977-2.363v0m4.821-0.53v0m-4.484-2.122v0m2.99 0v0m7.328 4.05v0m-4.387-4.532v0m2.41 0v0m-3.712 5.545v0m4.87 0.337v0m-8.534-6.557v0m2.41 6.606v0m-3.134-4.484v0m14.272 2.121v0m-2.025-0.578v0m1.543-0.917v0m-1.109 2.218v0m-0.53 1.157v0m-3.906-3.085v0m1.013 0.096v0m-2.604 0.579v0m-0.241-0.868v0m0.82-0.627v0m0.482 2.266v0m-7.522-1.446v0m3.472-1.157v0m-1.591 1.253v0m-0.434-0.868v0m0.868 2.363v0m-0.724 0.096v0m-0.819-0.627v0m-0.531 2.363v0m-1.446 1.254v0m0.193-1.302v0m-1.206 0.482v0m-0.964 0.723v0m0.723-7.184v0m0.434 4.773v0m-1.687 1.784v0m1.302-3.519v0m-1.688-0.579v0m-1.061 3.761v0m0.82 1.109v0m-2.411-0.82v0m-0.386 0.772v0m1.543-4.822v0m-1.109-1.736v0m-0.048 1.543v0m-0.627 2.507v0m0.627 0.29v0m4.677-4.436v0m0.289-2.363v0m0.531 5.497v0m-1.784-1.398v0m1.639-0.868v0m-1.254-4.484v0m-0.337-0.627v0m-1.784 5.014v0m-1.302-3.857v0m0.675-2.218v0m3.52 0.531v0m0.241-3.038v0m-3.086 3.616v0m-1.591-5.159v0m-0.145 3.375v0m-0.482 2.797v0m1.206 2.459v0m-0.724-0.675v0m-0.53-6.509v0m2.363-1.977v0m0.53 4.821v0m3.568-4.773v0m-0.964 3.52v0m-4.533 7.087v0m4.533-4.387v0m0 2.411v0m-5.545-3.713v0m-0.338 4.87v0m18.418-9.113v0m-18.466 2.989v0m4.484-3.133v0m-2.121 14.271v0m0.578-2.025v0m0.916 1.543v0m-2.217-1.109v0m-1.158-0.53v0m3.086-3.906v0m-0.096 1.013v0m-0.579-2.604v0m0.868-0.241v0m0.627 0.82v0m-2.266 0.482v0m1.446-7.522v0m1.157 3.472v0m-1.253-1.591v0m0.868-0.434v0m-2.363 0.868v0m-0.53-1.254v0m1.06-0.289v0m-2.362-0.531v0m-0.531 15.333v0m0.193-1.302v0m-1.205 0.482v0m-0.964 0.723v0m0.723-7.184v0m0.434 4.774v0m-1.688 1.783v0m0.916-2.941v0m-1.157-1.687v0" fill="none" stroke="#000" stroke-linecap="round" stroke-width=".386"/>
    </g>
    <g transform="translate(111.77 550.15)">
     <path d="m0 0v0m2.266-6.702v0m0.289-2.362v0m0.531 5.496v0m-1.784-1.398v0m1.639-0.868v0m-1.253-4.484v0m-0.338-0.627v0m-1.784 5.015v0m2.893-5.545v0m0.241-3.038v0m-3.086 3.616v0m0.097-5.689v0m0.53 4.822v0m2.122-4.918v0m0.482 3.664v0m0 2.7v0m0 2.411v0m-0.434-7.473v0m-1.013-0.627v0m-1.543 12.246v0m0.916 1.543v0m-0.289-5.545v0m-0.096 1.013v0m-0.579-2.604v0m0.868-0.241v0m0.627 0.82v0m-0.82-7.039v0m1.157 3.471v0m-1.253-1.591v0m0.868-0.434v0m-1.833-0.675v0m9.065 25.65v0m0.675-1.736v0m-0.868-1.253v0m-0.338-0.627v0m-3.085 1.157v0m0.675-2.218v0m3.519 0.531v0m0.193-3.713v0m-3.037 4.291v0m-1.591-5.159v0m-0.145 3.375v0m-0.482 2.797v0m1.205 2.459v0m-0.723-0.675v0m-0.53-6.509v0m2.362-1.977v0m0.53 4.821v0m2.122-4.917v0m0.482 3.664v0m0 2.7v0m0 2.411v0m-5.545-3.713v0m-0.385-1.253v0m4.484-3.134v0m-0.916 8.244v0m-0.675-1.591v0m0.867-0.241v0m0.627 0.82v0m-2.266 0.482v0m1.447-7.522v0m1.157 3.472v0m-1.206-0.916v0m0.82-1.109v0m-2.363 0.868v0m-0.53-1.254v0m1.205 0.048v0m-2.507-0.868v0m-1.784 8.052v0m0.386 0.627v0m0.289-2.362v0m-0.867-1.254v0m-0.338-0.627v0m1.109-0.53v0m0.241-3.038v0m-3.086 3.616v0m0.097-5.689v0m0.53 4.822v0m2.122-4.918v0m0.482 3.664v0m0 2.7v0m0 2.411v0m0.048-7.763v0m-1.495-0.337v0m-0.916 8.244v0m-0.096 1.013v0m-0.579-2.604v0m0.868-0.241v0m0.627 0.82v0m-0.82-7.039v0m1.157 3.471v0m-1.253-1.591v0m0.868-0.434v0m-1.833-0.675v0m24.783-1.591v0m0.868 1.543v0m-2.749-0.338v0m-7.087 1.495v0m3.52-2.845v0m2.748 2.459v0m-3.568-1.735v0m2.314-0.868v0m2.7 0v0m2.411 0v0m-7.377-0.675v0m-0.723 2.121v0m6.412 0.723v0m2.363-1.301v0m-8.582 1.494v0m3.471-1.157v0m-1.591 1.254v0m-0.434-0.868v0m-4.436-1.399v0m-0.964 1.495v0m-1.639 0.53v0m-1.109-1.735v0m-0.048 1.543v0m4.677-1.64v0m-0.965 1.736v0m1.639-0.868v0m-3.375-0.096v0m-0.964-1.495v0m-0.723-0.675v0m0.434 2.17v0m4.532-1.977v0m-5.882 1.157v0m3.52-1.012v0m-0.097 1.012v0m-0.868-1.591v0m13.066-8.582v0m-1.253 0.868v0m-0.627 0.337v0m-0.53-1.109v0m-3.038-0.241v0m-2.121-0.048v0m3.616-0.096v0m2.7 0v0m2.411 0v0m-8.1 1.446v0m7.232 0.096v0m-3.568-0.337v0m-2.025 0.386v0m-3.906-1.833v0m-1.494 1.929v0m-4.388-0.82v0m5.786-0.192v0m1.157 0.578v0m-3.375-0.096v0m-0.964-1.495v0m-0.289 1.495v0m-1.35-0.82v0m3.423 0v0m9.209 8.92v0m-2.17 0.337v0m3.664-0.482v0m-2.266-0.675v0m2.941 1.88v0m-4.966-0.964v0m-2.459-0.916v0m-18.562-15.911v0m26.807 1.736v0m0 17.743v0m-27.482 8.486v0m2.652-0.097v0m-0.097-27.82v0m24.098 55.277v0m0.193-1.302v0m-1.205 0.482v0m-0.964 0.724v0m0.723-7.184v0m0.434 4.773v0m-1.688 1.784v0m1.302-3.52v0m-1.543-1.109v0m-1.205 4.291v0m0.819 1.109v0m-2.41-0.819v0m-0.386 0.771v0m1.543-4.821v0m-1.109-1.736v0m-0.048 1.543v0m-0.627 2.507v0m1.157 0.482v0m3.664-3.953v0m0.772-3.038v0m0.53 5.496v0m-1.977-0.916v0m1.833-1.35v0m-1.254-4.484v0m-0.338-0.626v0m-1.783 5.014v0m-1.302-3.857v0m0.144-1.64v0m4.05-0.048v0m0.241-3.037v0m-3.085 3.616v0m-1.591-5.159v0m-0.145 3.375v0m-0.482 2.796v0" fill="none" stroke="#000" stroke-linecap="round" stroke-width=".386"/>
    </g>
    <g transform="translate(133.61 581.32)">
     <path d="m0 0v0m-0.723-0.675v0m-0.531-6.509v0m2.363-1.977v0m0.53 4.822v0m2.122-4.918v0m0.482 3.664v0m-4.532 7.088v0m4.532-4.388v0m0.482 2.363v0m-6.027-3.665v0m-0.53 4.243v0m0.144-5.496v0m4.484-3.134v0m-2.121 14.271v0m0.579-2.025v0m0.916 1.543v0m-2.218-1.109v0m-1.157-0.53v0m3.085-3.905v0m-0.096 1.012v0m-1.013-2.748v0m1.302-0.097v0m0.627 0.82v0m-2.266 0.482v0m1.446-7.521v0m1.158 3.471v0m-1.254-1.591v0m0.868-0.434v0m-2.363 0.868v0m-0.53-1.254v0m1.061-0.289v0m-2.363-0.53v0m-14.464 15.525v0m0.193-1.302v0m-1.206 0.482v0m-0.964 0.723v0m0.723-7.184v0m0.434 4.774v0m-1.687 1.784v0m0.964-2.941v0m-1.206-1.688v0m-1.205 4.291v0m0.82 1.109v0m-2.411-0.82v0m-0.386 0.772v0m1.543-4.822v0m-1.109-1.735v0m-0.048 1.543v0m-0.627 2.507v0m0.627 0.289v0m4.677-4.436v0m0.289-2.362v0m0.53 5.496v0m-1.783-1.398v0m1.253-0.579v0m-0.868-4.773v0m-0.337-0.627v0m-1.784 5.015v0m-1.302-3.857v0m0.675-2.218v0m3.52 0.53v0m0.241-3.038v0m-3.086 3.617v0m-1.591-5.159v0m-0.145 3.375v0m-0.482 2.796v0m1.206 2.459v0m-0.724-0.675v0m-0.53-6.509v0m2.362-1.977v0m0.531 4.822v0m2.121-4.918v0m0.482 3.664v0m-4.532 7.088v0m4.532-4.388v0m0 2.411v0m-5.544-3.713v0m-0.338 4.87v0m6.557-8.534v0m-6.605 2.411v0m4.484-3.134v0m-2.121 14.271v0m0.578-2.025v0m0.916 1.543v0m-2.218-1.109v0m-1.157-0.53v0m3.086-3.905v0m-0.097 1.012v0m-0.578-2.604v0m0.868-0.241v0m0.627 0.82v0m-2.267 0.482v0m1.447-7.521v0m1.157 3.471v0m-1.205-1.205v0m0.819-0.82v0m-2.362 0.868v0m-0.531-1.254v0m1.061-0.289v0m-2.362-0.53v0m17.646 15.525v0m0.193-1.302v0m-1.205 0.482v0m-0.965 0.723v0m0.724-7.184v0m0.434 4.774v0m-1.688 1.784v0m0.675-3.327v0m-0.916-1.302v0m-1.205 4.291v0m0.819 1.109v0m-2.41-0.82v0m-0.386 0.772v0m1.543-4.822v0m-1.109-1.735v0m-0.048 1.543v0m-0.627 2.507v0m0.627 0.289v0m4.676-4.436v0m0.29-2.362v0m0.193 4.966v0m-1.64-1.447v0m1.832-0.289v0m-1.253-4.484v0m-0.338-0.627v0m-1.784 5.015v0m-1.301-3.857v0m0.675-2.218v0m3.519 0.53v0m0.241-3.038v0m-3.085 3.617v0m-1.592-5.159v0m-0.144 3.375v0m-0.482 2.796v0m1.205 2.459v0m-0.723-0.675v0m-0.531-6.509v0m2.363-1.977v0m0.53 4.822v0m2.122-4.484v0m0 2.989v0m-4.05 7.329v0m4.532-4.388v0m0 2.411v0m-5.545-3.713v0m-0.337 4.87v0m6.557-8.534v0m-6.605 2.411v0m4.484-3.134v0m-2.122 14.271v0m0.579-2.025v0m0.916 1.543v0m-2.218-1.109v0m-1.157-0.53v0m3.085-3.905v0m-0.096 1.012v0m-0.579-2.604v0m0.868-0.241v0m0.627 0.82v0m-2.266 0.482v0m1.446-7.521v0m1.158 3.471v0m-1.254-1.591v0m0.868-0.434v0m-2.363 0.868v0m-0.096-0.723v0m0.627-0.82v0m-2.363-0.53v0m-1.253-1.447v0m1.301 0.193v0m-0.482-1.205v0m-0.723-0.965v0m7.184 0.724v0m-4.773 0.434v0m-1.784-1.688v0m3.519 1.302v0m0.579-1.688v0m-3.761-1.06v0m-1.109 0.819v0m0.82-2.41v0m-0.771-0.386v0m4.821 1.543v0m1.736-1.109v0m-1.543-0.048v0m-2.507-0.627v0m-0.29 0.627v0m4.436 4.676v0m2.363 0.29v0m-5.497 0.53v0m1.399-1.784v0m0.867 1.639v0m4.484-1.253v0m0.627-0.338v0m-5.014-1.784v0m3.857-1.301v0m2.218 0.675v0m-0.531 3.519v0m3.038 0.241v0m-3.616-3.085v0" fill="none" stroke="#000" stroke-linecap="round" stroke-width=".386"/>
    </g>
    <g transform="translate(137.85 566.62)">
     <path d="m0 0v0m-3.375-0.145v0m-2.796-0.482v0m-2.459 1.206v0m0.675-0.724v0m6.509-0.53v0m1.976 2.363v0m-4.821 0.53v0m4.773 3.568v0m-3.52-0.964v0m-7.087-4.533v0m4.387 4.533v0m-2.41 0v0m3.712-5.545v0m-4.869-0.338v0m9.112 18.418v0m-2.989-18.466v0m3.134 4.484v0m-14.272-2.121v0m2.025 0.578v0m-1.543 0.916v0m1.109-2.218v0m0.531-1.157v0m3.905 3.086v0m-1.012-0.096v0m2.603-0.579v0m0.241 0.868v0m-0.819 0.627v0m-0.483-2.266v0m7.522 1.446v0m-3.472 1.157v0m1.592-1.253v0m0.433 0.867v0m-0.867-2.362v0m1.253-0.53v0m0.29 1.06v0m0.53-2.362v0m-15.332-0.531v0m1.301 0.193v0m-0.482-1.205v0m-0.723-0.964v0m7.184 0.723v0m-4.773 0.434v0m-1.784-1.688v0m2.941 0.916v0m1.687-1.157v0m-5.4-0.386v0m6.702 2.267v0m2.363 0.289v0m-5.497 0.53v0m1.398-1.784v0m0.868 1.639v0m4.484-1.253v0m0.627-0.338v0m-5.014-1.784v0m5.544 2.893v0m3.038 0.241v0m-3.616-3.085v0m5.689 0.096v0m-4.821 0.53v0m4.918 2.122v0m-3.665 0.482v0m-2.7 0v0m-2.41 0v0m7.473-0.434v0m0.627-1.012v0m-12.247-1.543v0m-1.543 0.916v0m5.545-0.289v0m-1.013-0.097v0m2.604-0.578v0m0.241 0.867v0m-0.82 0.627v0m7.04-0.819v0m-3.472 1.157v0m1.591-1.254v0m0.434 0.868v0m0.675-1.832v0m-25.65 9.064v0m1.736 0.675v0m1.253-0.868v0m0.627-0.337v0m-1.157-3.086v0m2.218 0.675v0m-0.53 3.52v0m3.712 0.193v0m-4.291-3.038v0m5.159-1.591v0m-3.375-0.145v0m-2.796-0.482v0m-2.459 1.206v0m0.675-0.724v0m6.509-0.53v0m1.976 2.363v0m-4.821 0.53v0m4.918 2.121v0m-3.665 0.483v0m-2.7 0v0m-2.41 0v0m3.712-5.545v0m1.254-0.386v0m3.134 4.484v0m-8.245-0.916v0m1.591-0.675v0m0.241 0.868v0m-0.819 0.627v0m-0.483-2.266v0m7.522 1.446v0m-3.472 1.157v0m0.917-1.205v0m1.108 0.819v0m-0.867-2.362v0m1.253-0.53v0m-0.048 1.205v0m0.868-2.507v0m-8.052-1.784v0m-0.627 0.386v0m2.363 0.289v0m1.253-0.868v0m0.627-0.338v0m0.53 1.109v0m3.038 0.241v0m-3.616-3.085v0m5.689 0.096v0m-4.821 0.53v0m4.918 2.122v0m-3.665 0.482v0m-2.7 0v0m-2.41 0v0m7.762 0.048v0m0.338-1.494v0m-8.245-0.916v0m-1.013-0.097v0m2.604-0.578v0m0.241 0.867v0m-0.82 0.627v0m7.04-0.819v0m-3.472 1.157v0m1.591-1.254v0m0.434 0.868v0m0.675-1.832v0m1.591 24.782v0m-1.542 0.868v0m0.337-2.748v0m-1.495-7.088v0m2.845 3.52v0m-2.459 2.748v0m1.736-3.568v0m0.868 2.315v0m0 2.7v0m0 2.41v0m0.675-7.377v0m-2.122-0.723v0m-0.723 6.413v0m1.302 2.362v0m-1.495-8.582v0m1.157 3.472v0m-1.253-1.591v0m0.868-0.434v0m1.398-4.436v0m-1.495-0.964v0m-0.53-1.64v0m1.736-1.109v0m-1.543-0.048v0m1.639 4.677v0m-1.736-0.964v0m0.868 1.639v0m0.097-3.375v0m1.494-0.964v0m0.675-0.724v0m-2.169 0.434v0m1.976 4.532v0m-1.157-5.882v0m1.013 3.52v0m-1.013-0.096v0m1.591-0.868v0m8.583 13.066v0m-0.868-1.254v0m-0.338-0.627v0m1.109-0.53v0m0.241-3.037v0m0.048-2.122v0m0.097 3.616v0m0 2.7v0m0 2.411v0m-1.447-8.1v0m-0.096 7.232v0m0.337-3.568v0m-0.385-2.025v0m1.832-3.905v0m-1.929-1.495v0m0.82-4.387v0m0.193 5.785v0m-0.579 1.158v0m0.097-3.375v0m1.494-0.965v0m-1.494-0.289v0m0.819-1.35v0m0 3.423v0m-8.919 9.209v0" fill="none" stroke="#000" stroke-linecap="round" stroke-width=".386"/>
    </g>
    <g transform="translate(121.7 584.02)">
     <path d="m0 0v0m0.482 3.664v0m0.675-2.266v0m-1.88 2.941v0m0.964-4.966v0m0.916-2.459v0m15.911-18.562v0m-1.736 26.807v0m-17.743 0v0m-8.486-27.482v0m0.097 2.651v0m27.82-0.096v0" fill="none" stroke="#000" stroke-linecap="round" stroke-width=".386"/>
    </g>
   </g>
  </g>
  <g transform="matrix(.35278 0 0 -.35278 81.464 355.72)">
   <g clip-path="url(#clipPath31353)">
    <g transform="translate(140.49 540.94)">
     <path d="m0 0v0m-0.434-4.773v0m0.386 1.735v0m1.543 1.109v0m1.639-0.53v0m1.109 1.736v0m0.048-1.543v0m0.627-2.507v0m-4.822 3.471v0m-0.771 3.038v0m-0.53-5.497v0m1.976 0.916v0m-1.832 1.35v0m1.254 4.484v0m0.337 0.627v0m1.784-5.014v0m1.302 3.857v0m-0.145 1.639v0m-4.05 0.048v0m-0.241 3.038v0m3.086-3.616v0m1.591 5.159v0m0.145-3.375v0m0.482-2.797v0m-1.205-2.459v0m0.723 0.675v0m0.53 6.509v0m-2.362 1.977v0m-0.531-4.821v0m-2.121 4.918v0m-0.482-3.665v0m4.532-7.087v0m-4.532 4.387v0m-0.482-2.362v0m6.026 3.664v0m0.531-4.243v0m-0.145 5.497v0m-4.484 3.134v0m1.543-12.247v0m1.302-0.434v0m1.157 0.531v0m-3.086 3.905v0m0.097-1.013v0m1.012 2.749v0m-1.302 0.096v0m-0.626-0.82v0m2.266-0.482v0m-1.447 7.522v0m-1.157-3.472v0m1.254 1.591v0m-0.868 0.434v0m2.362-0.868v0m0.531 1.254v0m-1.061 0.289v0m2.362 0.531v0m1.206 2.025v0m-1.254 0.868v0m-0.627 0.337v0m1.158 3.086v0m-2.218-0.675v0m0.53-3.52v0m-3.037-0.241v0m3.616 3.086v0m-5.159 1.591v0m3.375 0.145v0m2.796 0.482v0m-4.725 0.048v0m-1.977-2.363v0m4.822-0.53v0m-4.773-3.568v0m3.519 0.964v0m2.7 0v0m-1.302 5.545v0m-4.242-18.08v0m2.989 18.466v0m-3.134-4.484v0m6.654 1.591v0m-0.242-0.868v0m-6.219 0.193v0m3.471-1.157v0m-1.591 1.253v0m-0.434-0.867v0m0.868 2.362v0m-1.253 0.53v0m-0.29-1.06v0m-0.53 2.362v0m6.316 1.109v0m-1.254 0.868v0m-1.157-0.771v0m-3.037-0.241v0m-2.17 0.337v0m3.664-0.482v0m2.7 0v0m-5.062 0.434v0m3.037 0.771v0m3.424-21.648v0m-0.241 3.037v0m-0.049 2.122v0m-0.096-3.616v0m0-2.7v0m-0.241 7.955v0m0.916 0.097v0m-1.013 3.182v0m0.675 1.639v0m0-3.423v0m-7.762 12.728v0" fill="none" stroke="#000" stroke-linecap="round" stroke-width=".386"/>
    </g>
   </g>
  </g>
  <g transform="matrix(.35278 0 0 -.35278 81.464 355.72)">
   <g clip-path="url(#clipPath31365)">
    <g transform="translate(104.33 589.11)">
     <path d="m0 0v0m-0.193 1.302v0m1.205-0.482v0m0.965-0.724v0m-0.723 7.184v0m-0.434-4.773v0m1.687-1.784v0m-0.964 2.941v0m1.205 1.688v0m1.206-4.291v0m-0.82-1.109v0m2.411 0.819v0m0.385-0.771v0m-1.542 4.822v0m1.108 1.735v0m0.049-1.543v0m0.626-2.507v0m-0.626-0.289v0m-4.677 4.436v0m-0.289 2.362v0m-0.531-5.496v0m1.784 1.398v0m-1.253 0.578v0m0.867 4.774v0m0.338 0.627v0m1.784-5.015v0m1.302 3.857v0m-0.675 2.218v0m-3.52-0.53v0m-0.241 3.037v0m3.086-3.616v0m1.591 5.159v0m0.144-3.375v0m0.483-2.796v0m-1.206-2.459v0m0.723 0.675v0m0.531 6.509v0m-2.363 1.977v0m-0.53-4.822v0m-2.122 4.918v0m-0.482-3.664v0m4.532-7.088v0m-4.532 4.388v0m0-2.411v0m5.545 3.713v0m0.337-4.87v0m-6.557 8.534v0m6.606-2.411v0m-4.484 3.134v0m2.121-14.271v0m-0.578 2.025v0m-0.916-1.543v0m2.217 1.109v0m1.158 0.53v0m-3.086 3.905v0m0.096-1.012v0m0.579 2.603v0m-0.868 0.242v0m-0.627-0.82v0m2.266-0.482v0m-1.446 7.521v0m-1.157-3.471v0m1.205 1.205v0m-0.82 0.82v0m2.363-0.868v0m0.53 1.254v0m-1.06 0.289v0m2.362 0.53v0m-15.67-15.429v0m0.531 0.627v0m0.241 4.629v0m1.205-4.291v0m-0.82-1.109v0m2.411 0.819v0m0.386-0.771v0m-1.543 4.822v0m1.109 1.735v0m0.048-1.543v0m0.627-2.507v0m-0.627-0.289v0m-3.52 3.278v0m1.543 0.386v0m1.302 3.857v0m-0.675 2.218v0m-0.675-1.109v0m1.591 5.159v0m0.145-3.375v0m0.482-2.796v0m-1.205-2.459v0m0.723 0.675v0m0.53 6.509v0m-2.362 1.977v0m-0.531-4.822v0m1.929-5.834v0m1.012 5.69v0m0.338-4.87v0m0.048 6.123v0m-2.362-11.137v0m-0.579 2.025v0m-0.916-1.543v0m2.218 1.109v0m1.157 0.53v0m-3.086 3.905v0m0.097-1.012v0m0.578 2.603v0m-0.868 0.242v0m1.64-1.302v0m-1.447 7.521v0m0.097-1.88v0m1.494-0.434v0m0.097 0.723v0m-0.627 0.82v0m2.363 0.53v0m1.253 1.447v0m-1.302-0.193v0m0.482 1.205v0m0.724 0.964v0m-2.411-1.157v0m1.784 1.688v0m-3.52-1.302v0m-0.578 1.688v0m3.76 1.06v0m1.109-0.819v0m-0.819 2.41v0m0.771 0.386v0m-4.821-1.543v0m-0.193 1.157v0m2.507 0.627v0m0.289-0.627v0m-1.302-5.496v0m-1.398 1.784v0m3.231 2.025v0m-2.025-0.579v0m1.542-0.916v0m-1.108 2.218v0m-0.531 1.157v0m3.616 0.868v0m-1.302-0.193v0m0.483 1.206v0m-1.688-0.193v0m-1.012-0.772v0m14.175-5.4v0m-1.736-0.675v0m-1.254 0.868v0m-0.626 0.338v0m1.157 3.085v0m-2.218-0.675v0m0.53-3.519v0m-3.712-0.193v0m4.291 3.037v0m-5.159 1.591v0m3.375 0.145v0m2.796 0.482v0m2.459-1.205v0m-0.675 0.723v0m-6.509 0.53v0m-1.977-2.362v0m4.822-0.53v0m-4.918-2.122v0m3.664-0.482v0m2.7 0v0m2.411 0v0m-3.712 5.545v0m-1.254 0.385v0m-3.134-4.484v0m8.245 0.916v0m-1.591 0.675v0m-0.241-0.867v0m0.819-0.627v0m0.482 2.266v0m-7.521-1.447v0m3.471-1.157v0m-0.916 1.206v0m-1.109-0.82v0m0.868 2.362v0m-1.253 0.531v0m0.048-1.206v0m-0.868 2.508v0m8.052 1.784v0m0.627-0.386v0m-2.363-0.289v0m-1.253 0.867v0m-1.158-0.771v0m-3.037-0.241v0m-2.17 0.338v0m3.664-0.483v0m2.701 0v0m2.41 0v0m-7.762-0.048v0m-0.965-21.311v0m1.543-0.868v0m-0.337 2.749v0m1.494 7.087v0m-2.844-3.52v0m2.459-2.748v0m-1.736 3.568v0m-0.868-2.314v0m0-2.7v0m0-2.411v0m-0.675 7.377v0" fill="none" stroke="#000" stroke-linecap="round" stroke-width=".386"/>
    </g>
    <g transform="translate(102.2 598.56)">
     <path d="m0 0v0m0.723-6.412v0m-1.302-2.363v0m1.495 8.582v0m-1.157-3.471v0m1.254 1.591v0m-0.868 0.434v0m-1.399 4.436v0m1.495 0.964v0m0.53 1.639v0m-1.735 1.109v0m1.543 0.048v0m-1.64-4.677v0m1.736 0.965v0m-0.868-1.64v0m-0.096 3.375v0m-1.495 0.965v0m-0.675 0.723v0m2.17-0.434v0m-1.977-4.532v0m1.157 5.882v0m-1.012-3.52v0m1.012 0.097v0m-1.591 0.868v0m0.386-11.572v0m0.337 2.17v0m-0.482-3.665v0m-0.675 2.267v0m1.88-2.942v0m-0.964 4.967v0m-0.916 2.458v0m3.568-8.244v0m8.389 24.83v0m10.823-23.23v0m0 20.539v0m-0.338-5.014v0m0.193-1.302v0m-1.205 0.482v0m-0.964 0.724v0m0.723-7.184v0m0.434 4.773v0m-1.688 1.784v0m1.302-3.52v0m-1.687-0.578v0m-1.061 3.76v0m0.82 1.109v0m-2.411-0.819v0m-0.386 0.771v0m1.543-4.821v0m-1.109-1.736v0m-0.048 1.543v0m-0.627 2.507v0m0.627 0.289v0m4.677-4.436v0m0.289-2.362v0m0.53 5.496v0m-1.784-1.398v0m1.64-0.868v0m-1.254-4.484v0m-0.337-0.626v0m-1.784 5.014v0m-1.302-3.857v0m0.675-2.218v0m3.519 0.53v0m0.242-3.037v0m-3.086 3.616v0m-1.591-5.159v0m-0.145 3.375v0m-0.482 2.796v0m1.205 2.459v0m-0.723-0.675v0m-0.53-6.509v0m2.362-1.977v0m0.531 4.822v0m2.603-1.254v0m-4.532 7.088v0m4.532-4.388v0m0 2.411v0m-5.544-3.712v0m-0.338 4.869v0m-0.048-6.123v0m4.484-3.134v0m-2.122 14.272v0m0.579-2.025v0m0.916 1.542v0m-2.218-1.109v0m-1.157-0.53v0m3.086-3.905v0m-0.097 1.012v0m-0.578-2.603v0m0.868-0.241v0m0.626 0.819v0m-2.266 0.482v0m1.447-7.521v0m1.157 3.471v0m-1.254-1.591v0m0.868-0.434v0m-2.362 0.868v0m-0.531-1.253v0m1.061-0.29v0m-2.363-0.53v0m-0.53 15.332v0m0.193-1.302v0m-1.205 0.483v0m-0.965 0.723v0m0.723-7.184v0m0.434 4.773v0m-1.687 1.784v0m0.916-2.941v0m-1.157-1.688v0m-0.386 5.4v0m2.266-6.701v0m0.29-2.363v0m0.53 5.497v0m-1.784-1.399v0m1.639-0.868v0m-1.253-4.484v0m-0.338-0.626v0m-1.784 5.014v0m2.893-5.545v0m0.241-3.037v0m-3.086 3.616v0m0.097-5.689v0m0.53 4.821v0m2.122-4.918v0m0.482 3.664v0m0 2.7v0m0 2.411v0m-0.434-7.473v0m-1.013-0.627v0m-1.543 12.247v0m0.917 1.543v0m-0.29-5.545v0m-0.096 1.012v0m-0.579-2.603v0m0.868-0.241v0m0.627 0.819v0m-0.82-7.039v0m1.157 3.471v0m-1.253-1.591v0m0.868-0.434v0m-1.832-0.675v0m8.871 22.661v0m-0.337-0.626v0m-3.086 1.157v0m0.675-2.218v0m3.519 0.53v0m0.193-3.712v0m-3.037 4.291v0m-1.591-5.159v0m-0.145 3.375v0m-0.482 2.796v0m-0.048-4.725v0m2.362-1.977v0m0.531 4.822v0m2.121-4.918v0m0.482 3.664v0m0 2.7v0m-5.544-1.301v0m-0.386-1.254v0m4.484-3.134v0m-0.723 6.413v0m-0.193-6.22v0m1.157 3.471v0m-1.206-0.916v0m0.82-1.109v0m-2.362 0.868v0m-0.531-1.253v0m1.206 0.048v0m-2.508-0.868v0m-1.976 5.063v0m-0.338-0.627v0m1.109-0.531v0m0.241-3.037v0m-3.086 3.616v0m0.097-5.689v0m0.53 4.821v0m2.122-4.918v0m0.482 3.664v0m0 2.701v0m0.048-5.352v0m-1.495-0.338v0m-1.591 6.654v0m0.868-0.241v0m-0.193-6.22v0m1.157 3.471v0m-1.253-1.591v0m0.868-0.434v0m-1.832-0.675v0m10.655-1.542v0m-9.691-17.936v0m1.88 0.048v0" fill="none" stroke="#000" stroke-linecap="round" stroke-width=".386"/>
    </g>
   </g>
  </g>
  <g transform="matrix(.35278 0 0 -.35278 81.464 355.72)">
   <g clip-path="url(#clipPath31381)">
    <g transform="translate(129.46 566.13)">
     <path d="m0 0c-0.899-4.954-4.272-7.157-8.293-4.956-4.712 2.579-8.53 10.221-8.53 17.071 0 4.409 1.582 7.416 3.967 8.309 1.32 0.495 2.884 0.343 4.563-0.575l-0.109 24.828c-5.04 2.759-9.739 3.215-13.702 1.729-7.16-2.685-11.913-11.712-11.913-24.953 0-20.569 11.468-43.521 25.615-51.263 12.078-6.61 22.203 3e-3 24.905 14.881z" fill="none" stroke="#000" stroke-linecap="round" stroke-linejoin="round" stroke-width=".77"/>
    </g>
   </g>
  </g>
  <g transform="matrix(.35278 0 0 -.35278 81.464 355.72)">
   <g clip-path="url(#clipPath31395)">
    <path d="m107.64 612.63-9.634-3.507c3.914 1.384 8.53 0.893 13.473-1.812l9.879 3.596c-3.175 1.738-6.216 2.562-9.022 2.562-1.653 0-3.225-0.286-4.696-0.839m-9.862-3.59 0.228 0.083c-0.076-0.027-0.152-0.055-0.228-0.083" fill="url(#linearGradient31409)"/>
   </g>
  </g>
  <g transform="matrix(.35278 0 0 -.35278 81.464 355.72)">
   <g clip-path="url(#clipPath31429)">
    <path d="m136.35 547.54c-1.603-8.607-5.705-14.419-11.233-16.462l10.004 3.643c5.456 2.079 9.504 7.853 11.099 16.371zm-11.355-16.507c0.04 0.015 0.082 0.03 0.122 0.045z" fill="url(#linearGradient31443)"/>
   </g>
  </g>
  <g transform="matrix(.35278 0 0 -.35278 81.464 355.72)">
   <g clip-path="url(#clipPath31453)">
    <g transform="translate(99.264 607.09)">
     <path d="m0 0v0m0.723 0.964v0m-2.411-1.157v0m1.784 1.688v0m-0.337 1.446v0m1.109-0.82v0m-0.82 2.411v0m0.772 0.386v0m-2.508 0.241v0m0.29-0.627v0m0.53-1.687v0m-0.482-1.495v0m1.977 4.243v0m-1.302-0.193v0m0.482 1.205v0m-1.687-0.192v0m13.162-6.172v0m-1.735-0.675v0m-1.254 0.868v0m-0.627 0.337v0m1.157 3.086v0m-2.218-0.675v0m0.531-3.52v0m-3.713-0.192v0m4.291 3.037v0m-5.159 1.591v0m3.375 0.145v0m2.797 0.482v0m2.459-1.205v0m-0.675 0.723v0m-6.509 0.53v0m-1.977-2.362v0m4.821-0.531v0m-4.917-2.121v0m5.062 5.062v0m-1.253 0.386v0m-3.134-4.484v0m8.244 0.916v0m-1.591 0.675v0m-0.241-0.868v0m0.82-0.626v0m0.482 2.266v0m-7.522-1.447v0m3.472-1.157v0m-0.916 1.206v0m-1.109-0.82v0m0.868 2.362v0m-1.254 0.531v0m0.048-1.206v0m-0.867 2.508v0m8.051 1.783v0m0.627-0.385v0m-2.362-0.29v0m-1.254 0.868v0m-1.157-0.771v0m-3.038-0.241v0m-2.169 0.337v0m3.664-0.482v0m2.7 0v0m2.411 0v0m-7.763-0.048v0m3.327 1.254v0m5.689-0.724v0m10.92-0.039v0m-0.097-2.652v0m-1.784 2.459v0m-0.337-0.627v0m-3.086 1.158v0m0.675-2.218v0m3.52 0.53v0m0.192-3.712v0m-3.037 4.291v0m-1.591-5.159v0m-0.145 3.375v0m-0.482 2.796v0m-0.048-4.725v0m2.362-1.977v0m0.531 4.822v0m2.121-4.918v0m0.482 3.664v0m0 2.7v0m-5.544-1.302v0m-0.386-1.253v0m4.484-3.134v0m-1.591 6.654v0m0.868-0.242v0m-0.193-6.219v0m1.157 3.471v0m-1.205-0.916v0m0.819-1.109v0m-2.362 0.868v0m-0.531-1.253v0m1.206 0.048v0m-2.507-0.868v0m-1.109 6.316v0m-0.868-1.254v0m-0.338-0.626v0m1.109-0.531v0m0.241-3.037v0m-3.086 3.616v0m0.097-5.689v0m0.53 4.821v0m2.122-4.918v0m0.482 3.664v0m0 2.7v0m0.048-5.351v0m-1.495-0.338v0m-1.591 6.654v0m0.868-0.241v0m-0.193-6.22v0m1.158 3.471v0m-1.254-1.591v0m0.868-0.434v0m-1.832-0.675v0m10.655-1.542v0" fill="none" stroke="#000" stroke-linecap="round" stroke-width=".386"/>
    </g>
   </g>
  </g>
  <g transform="matrix(.35278 0 0 -.35278 81.464 355.72)">
   <g clip-path="url(#clipPath31465)">
    <g transform="translate(121.42 610.94)">
     <path d="m0 0c-5.047 2.762-9.752 3.216-13.718 1.723l-9.863-3.59c3.963 1.485 8.662 1.03 13.701-1.729z" fill="none" stroke="#000" stroke-linecap="round" stroke-linejoin="round" stroke-width=".385"/>
    </g>
   </g>
  </g>
  <g transform="matrix(.35278 0 0 -.35278 81.464 355.72)">
   <g clip-path="url(#clipPath31477)">
    <g transform="translate(132.21 533.25)">
     <path d="m0 0v0m-0.241-2.507v0m-2.797 2.507v0m0.193-1.302v0m-1.205 0.482v0m-0.964 0.724v0m1.157-2.411v0m-1.688 1.784v0m-1.446-0.338v0m0.82 1.109v0m-0.724-1.736v0m1.495-0.482v0m4.195 1.157v0m-0.868-1.253v0m-0.338-0.627v0m1.495 0.627v0m0 2.411v0m-1.543-0.868v0" fill="none" stroke="#000" stroke-linecap="round" stroke-width=".386"/>
    </g>
   </g>
  </g>
  <g transform="matrix(.35278 0 0 -.35278 81.464 355.72)">
   <g clip-path="url(#clipPath31489)">
    <g transform="translate(138.48 534)">
     <path d="m0 0v0m-1.302-0.193v0m0.482 1.206v0m0.724 0.964v0m-7.184-0.723v0m4.773-0.434v0m1.784 1.687v0m-3.52-1.302v0m-1.109 1.543v0m4.291 1.206v0m1.109-0.82v0m-0.819 2.411v0m0.771 0.385v0m-4.821-1.542v0m-1.736 1.108v0m1.543 0.049v0m2.507 0.627v0m0.482-1.158v0m-3.954-3.664v0m-3.037-0.771v0m5.496-0.531v0m-0.916 1.977v0m-1.35-1.832v0m-0.096 3.375v0m-3.857 1.302v0m-0.097 0.868v0m2.459-1.206v0m-0.675 0.723v0m2.17-0.434v0m-2.025-5.014v0m0.578 6.557v0m5.641-2.507v0m-2.025-0.578v0m1.543-0.916v0m-1.109 2.217v0m-0.53 1.158v0m-3.905-3.086v0m1.012 0.096v0m-2.748 1.013v0m-0.097-1.302v0m0.82-0.627v0m0.482 2.266v0m8.245 4.87v0m-1.302-0.193v0m0.482 1.205v0m0.724 0.965v0m-7.184-0.723v0m4.773-0.434v0m1.784 1.687v0m-3.327-0.675v0m-1.302 0.916v0m4.291 1.206v0m1.109-0.82v0m-0.819 2.411v0m0.771 0.385v0m-4.821-1.543v0m-1.736 1.109v0m1.543 0.049v0m2.507 0.626v0m0.289-0.626v0m-4.436-4.677v0m-2.362-0.289v0m4.966-0.193v0m-1.446 1.639v0m-0.29-1.832v0m-0.096 3.375v0m-3.857 1.302v0m-0.097 0.867v0m2.459-1.205v0m-0.675 0.723v0m2.17-0.434v0m-1.977-4.532v0m1.157 5.882v0m5.014-2.314v0m-2.025-0.578v0m1.543-0.917v0m-1.109 2.218v0m-0.53 1.157v0m-3.905-3.085v0m1.012 0.096v0m-2.603 0.579v0m-0.242-0.868v0m0.82-0.627v0m0.482 2.266v0m3.52-12.584v0m3.712 6.654v0m-1.253 0.868v0m-0.627 0.337v0m-0.53-1.109v0m-3.038-0.241v0m-2.121-0.048v0m3.616-0.097v0m2.7 0v0m2.411 0v0m-8.1 1.447v0m7.232 0.096v0m-3.568-0.337v0m-2.025 0.386v0m-3.906-1.833v0m1.061 1.495v0m9.643-6.991v0" fill="none" stroke="#000" stroke-linecap="round" stroke-width=".386"/>
    </g>
   </g>
  </g>
  <g transform="matrix(.35278 0 0 -.35278 81.464 355.72)">
   <g clip-path="url(#clipPath31501)">
    <g transform="translate(140.49 540.94)">
     <path d="m0 0v0m-0.434-4.773v0m0.386 1.735v0m1.543 1.109v0m1.639-0.53v0m1.109 1.736v0m0.048-1.543v0m0.627-2.507v0m-4.822 3.471v0m-0.771 3.038v0m-0.53-5.497v0m1.976 0.916v0m-1.832 1.35v0m1.254 4.484v0m0.337 0.627v0m1.784-5.014v0m1.302 3.857v0m-0.145 1.639v0m-4.05 0.048v0m-0.241 3.038v0m3.086-3.616v0m1.591 5.159v0m0.145-3.375v0m0.482-2.797v0m-1.205-2.459v0m0.723 0.675v0m0.53 6.509v0m-2.362 1.977v0m-0.531-4.821v0m-2.121 4.918v0m-0.482-3.665v0m4.532-7.087v0m-4.532 4.387v0m-0.482-2.362v0m6.026 3.664v0m0.531-4.243v0m-0.145 5.497v0m-4.484 3.134v0m1.543-12.247v0m-0.916-1.543v0m2.218 1.109v0m1.157 0.531v0m-3.086 3.905v0m0.097-1.013v0m1.012 2.749v0m-1.302 0.096v0m-0.626-0.82v0m2.266-0.482v0m-1.447 7.522v0m-1.157-3.472v0m1.254 1.591v0m-0.868 0.434v0m2.362-0.868v0m0.531 1.254v0m-1.061 0.289v0m2.362 0.531v0m1.206 2.025v0m-2.411 0.096v0m-3.037-0.241v0m-2.025-1.109v0m3.519 0.964v0m2.7 0v0m-5.544-12.535v0m6.75-1.302v0m-0.241 3.037v0m-0.049 2.122v0m-0.096-3.616v0m0-2.7v0m-0.241 7.955v0m1.109 5.882v0m-0.193-5.785v0m-1.013 3.182v0m0.675 1.639v0m0-3.423v0" fill="none" stroke="#000" stroke-linecap="round" stroke-width=".386"/>
    </g>
   </g>
  </g>
  <g transform="matrix(.35278 0 0 -.35278 81.464 355.72)">
   <g clip-path="url(#clipPath31513)">
    <g transform="translate(136.42 547.57)">
     <path d="m0 0c-1.615-8.671-5.765-14.505-11.355-16.507l10.128 3.687c5.455 2.081 9.502 7.853 11.098 16.373z" fill="none" stroke="#000" stroke-linecap="round" stroke-linejoin="round" stroke-width=".385"/>
    </g>
    <g transform="translate(111.61 582.61)">
     <path d="m0 0 9.7 3.53-0.014 24.684-9.7-3.53z" fill="#e5e7e8"/>
    </g>
   </g>
  </g>
  <g transform="matrix(.35278 0 0 -.35278 81.464 355.72)">
   <g clip-path="url(#clipPath31529)">
    <g transform="translate(117.6 588.7)">
     <path d="m0 0v0m0.193-1.302v0m-1.206 0.482v0m-0.964 0.724v0m1.157-2.411v0m-1.687 1.784v0m0.964-2.941v0m-1.205-1.688v0m-1.206 4.291v0m0.82 1.109v0m-2.411-0.819v0m-0.385 0.771v0m1.542-4.822v0m-1.108-1.735v0m-0.049 1.543v0m-0.626 2.507v0m0.626 0.289v0m4.677-4.436v0m0.82 3.134v0m-1.784-1.398v0m1.253-0.578v0m-2.989-0.386v0m-1.253 0v0m-1.35-0.82v0m2.314 5.014v0m0.578-2.025v0m0.916 1.543v0m-2.217-1.109v0m-1.158-0.53v0m2.99-2.893v0m6.027 4.195v0m-1.543 0.868v0m0.337-2.749v0m-1.109-0.819v0m2.604-1.254v0m0 2.7v0m0 2.411v0m-2.17-1.688v0m1.302 2.363v0m-0.337-5.111v0m2.073 3.279v0m-0.338-2.17v0m0.482 3.664v0m-1.205 0.675v0m0.964-4.966v0m-2.651 5.786v0" fill="none" stroke="#000" stroke-linecap="round" stroke-width=".386"/>
    </g>
   </g>
  </g>
  <g transform="matrix(.35278 0 0 -.35278 81.464 355.72)">
   <g clip-path="url(#clipPath31541)">
    <g transform="translate(121.95 592.88)">
     <path d="m0 0v0m-0.096-2.652v0m0 20.54v0m0.096-8.92v0m-0.434 3.905v0m0.193-1.301v0m-1.205 0.482v0m-0.965 0.723v0m0.723-7.184v0m0.434 4.773v0m-1.687 1.784v0m1.302-3.52v0m-1.688-0.578v0m-1.061 3.761v0m0.82 1.109v0m-2.411-0.82v0m-0.385 0.771v0m1.543-4.821v0m-1.109-1.736v0m-0.049 1.543v0m-0.626 2.507v0m0.626 0.29v0m4.677-4.436v0m0.289-2.363v0m0.531 5.497v0m-1.784-1.399v0m1.639-0.867v0m-1.253-4.484v0m-0.338-0.627v0m-1.784 5.014v0m-1.302-3.857v0m0.675-2.218v0m3.52 0.53v0m0.241-3.037v0m-3.086 3.616v0m-1.591-5.159v0m-0.144 3.375v0m-0.482 2.797v0m1.205 2.459v0m-0.723-0.675v0m-0.531-6.51v0m2.363-1.976v0m0.53 4.821v0m3.568-4.773v0m-0.964 3.52v0m-4.532 7.087v0m4.532-4.387v0m0 2.41v0m-5.545-3.712v0m-0.337 4.87v0m-0.049-6.124v0m4.484-3.134v0m-2.121 14.272v0m0.578-2.025v0m0.917 1.543v0m-2.218-1.109v0m-1.157-0.531v0m3.085-3.905v0m-0.096 1.013v0m-0.579-2.604v0m0.868-0.241v0m0.627 0.819v0m-2.266 0.483v0m1.446-7.522v0m1.157 3.472v0m-1.253-1.591v0m0.868-0.434v0m-2.363 0.868v0m-0.53-1.254v0m1.061-0.289v0m-2.363-0.531v0m-0.53 15.333v0m0.193-1.302v0m-1.206 0.482v0m-0.964 0.723v0m0.723-7.184v0m0.434 4.773v0m-1.688 1.784v0m0.917-2.941v0m-1.158-1.687v0m-0.385 5.4v0m2.266-6.702v0m0.289-2.363v0m0.53 5.497v0m-1.784-1.398v0m1.64-0.868v0m-1.254-4.484v0m-0.337-0.627v0m-1.784 5.014v0m2.893-5.544v0m0.241-3.038v0m-3.086 3.616v0m0.096-5.689v0m0.531 4.821v0m2.121-4.918v0m0.482 3.665v0m0 2.7v0m0 2.411v0m-0.434-7.474v0m-1.012-0.627v0m-1.543 12.247v0m0.916 1.543v0m-0.289-5.545v0m-0.097 1.013v0m-0.578-2.604v0m0.868-0.241v0m0.626 0.82v0m-0.819-7.04v0m1.157 3.472v0m-1.254-1.591v0m0.868-0.434v0m-1.832-0.675v0m6.123 20.973v0m3.713-3.182v0m-4.629-0.868v0m-0.144 3.375v0m-0.531-1.928v0m2.363-1.977v0m2.652-0.097v0m0.482 3.665v0m-5.931 0.144v0m4.484-3.134v0m-0.916 0.193v0m1.157 3.472v0m-1.205-0.916v0m0.82-1.109v0m-2.363 0.867v0m-0.53-1.253v0m1.205 0.048v0m-2.507-0.868v0m-0.964 0.868v0m-2.99-2.073v0m0.531 4.821v0m2.121-4.918v0m0.482 3.665v0m0.049-2.652v0m-1.495-0.338v0m-0.916 0.193v0m1.157 3.472v0m-1.254-1.591v0m0.868-0.434v0m-1.832-0.675v0m10.656-1.543v0m-9.692-17.936v0m1.881 0.048v0" fill="none" stroke="#000" stroke-linecap="round" stroke-width=".386"/>
    </g>
   </g>
  </g>
  <g transform="matrix(.35278 0 0 -.35278 81.464 355.72)">
   <g clip-path="url(#clipPath31553)">
    <g transform="translate(111.66 582.7)">
     <path d="m0 0 9.7 3.53-0.014 24.684-9.7-3.53" fill="none" stroke="#000" stroke-linecap="round" stroke-linejoin="round" stroke-width=".385"/>
    </g>
    <g transform="translate(119.91 562.66)">
     <path d="m0 0 9.699 3.53 16.69-15.052-9.7-3.531z" fill="#fff"/>
    </g>
   </g>
  </g>
  <g transform="matrix(.35278 0 0 -.35278 81.464 355.72)">
   <g clip-path="url(#clipPath31569)">
    <g transform="translate(138.48 554.54)">
     <path d="m0 0v0m-1.302-0.193v0m0.482 1.206v0m0.724 0.964v0m-7.184-0.723v0m4.773-0.434v0m1.784 1.687v0m-2.941-0.964v0m-1.688 1.205v0m4.291 1.206v0m1.109-0.82v0m-0.819 2.411v0m0.771 0.385v0m-4.821-1.542v0m-1.736 1.109v0m1.543 0.048v0m2.507 0.627v0m0.289-0.627v0m-4.436-4.677v0m-2.362-0.289v0m5.496-0.531v0m-1.398 1.784v0m-0.578-1.253v0m-4.774 0.868v0m-0.627 0.337v0m5.015 1.784v0m-3.857 1.302v0m-2.218-0.675v0m0.53-3.52v0m-3.037-0.241v0m3.616 3.086v0m-5.159 1.591v0m3.375 0.144v0m2.796 0.483v0m2.459-1.206v0m-0.675 0.723v0m-6.509 0.531v0m-1.977-2.363v0m4.822-0.53v0m-4.918-2.122v0m3.664-0.482v0m7.088 4.533v0m-4.388-4.533v0m2.411 0v0m-3.713 5.545v0m4.87 0.338v0m-8.534-6.558v0m2.411 6.606v0m-3.134-4.484v0m14.271 2.121v0m-2.025-0.578v0m1.543-0.916v0m-1.109 2.217v0m-0.53 1.158v0m-3.905-3.086v0m1.012 0.096v0m-2.603 0.579v0m-0.242-0.868v0m0.82-0.627v0m0.482 2.266v0m-7.521-1.446v0m3.471-1.157v0m-1.205 1.205v0m-0.82-0.82v0m0.868 2.363v0m-1.253 0.53v0m-0.29-1.06v0m-0.53 2.362v0m14.464-13.693v0m0.29 1.591v0m0.771 0.386v0m-4.821-1.543v0m-1.736 1.109v0m1.543 0.048v0m2.507 0.627v0m0.289-0.627v0m-7.521-0.675v0m-2.218-0.675v0m-4.05 0.916v0m3.375 0.145v0m2.796 0.482v0m2.459-1.205v0m-0.675 0.723v0m-6.509 0.53v0m8.679-0.964v0m-5.69 1.012v0m4.87 0.338v0m-6.123 0.048v0m11.137-2.362v0m-1.591 0.723v0m-0.53 1.157v0m-4.436-1.639v0m-5.207 0.144v0m-0.723 0.097v0m-1.35 1.736v0m-1.447 1.253v0m0.193-1.302v0m-1.205 0.482v0m-0.964 0.724v0m1.157-2.411v0m-1.543 0.337v0m1.109 12.633v0m0.675-1.736v0m-0.868-1.254v0m-0.338-0.626v0m1.109-0.531v0m0.193-3.712v0m-0.289-1.495v0m0.482 3.664v0m0 2.7v0m0 2.411v0m-1.446-8.1v0m-0.724 6.413v0m0.627 0.819v0m0.338-3.568v0m-0.386-2.025v0m16.345-2.459v0m0.868 1.543v0m-2.749-0.337v0m-7.087 1.494v0m3.52-2.844v0m2.748 2.459v0m-3.568-1.736v0m2.314-0.868v0m2.7 0v0m2.411 0v0m-7.377-0.675v0m-0.723 2.122v0m6.412 0.723v0m2.363-1.302v0m-8.582 1.495v0m3.471-1.157v0m-1.591 1.253v0m-0.434-0.868v0m-4.436-1.398v0m-0.964 1.495v0m-1.639 0.53v0m-1.109-1.736v0m-0.048 1.543v0m4.677-1.639v0m-0.965 1.736v0m1.64-0.868v0m-3.375-0.097v0m-0.965-1.494v0m-0.723-0.675v0m0.434 2.169v0m4.532-1.976v0m-5.882 1.157v0m3.52-1.013v0m-0.097 1.013v0m-0.868-1.591v0m11.572 0.385v0m-2.17 0.338v0m3.664-0.482v0m-2.266-0.675v0m2.942 1.88v0m-4.967-0.964v0m-2.459-0.916v0m8.245 3.567v0m-16.354 13.33v0m-0.771-0.385v0m6.557 0.434v0m-1.543-0.049v0m-2.507-0.626v0m-0.289 0.626v0m7.521 0.675v0m6.268-0.241v0m-3.375-0.144v0m-2.796-0.482v0m-1.784 0.482v0m6.509-0.531v0m-8.679 0.965v0m5.689-1.013v0m-4.869-0.337v0m6.123-0.049v0m-9.016 0.483v0m10.896 0.964v0m0.82-1.302v0m-15.332-0.53v0m1.302 0.193v0m-0.483-1.206v0m-0.723-0.964v0m7.184 0.723v0m-4.773 0.434v0m-1.784-1.688v0m2.941 0.917v0m1.688-1.158v0m-5.4-0.385v0m6.701 2.266v0m2.363 0.289v0m-5.497 0.53v0m1.399-1.783v0m0.868 1.639v0m4.483-1.254v0m0.627-0.337v0m-5.014-1.784v0m5.545 2.893v0m3.037 0.241v0m-3.616-3.086v0m5.689 0.096v0" fill="none" stroke="#000" stroke-linecap="round" stroke-width=".386"/>
    </g>
    <g transform="translate(133.75 562.23)">
     <path d="m0 0v0m4.918 2.121v0m-3.664 0.483v0m-2.7 0v0m-2.411 0v0m7.473-0.434v0m0.627-1.013v0m-12.247-1.543v0m-1.543 0.916v0m5.545-0.289v0m-1.012-0.096v0m2.603-0.579v0m0.241 0.868v0m-0.819 0.627v0m7.039-0.82v0m-3.471 1.157v0m1.591-1.253v0m0.434 0.868v0m0.675-1.833v0m-16.924 5.208v0m-0.482-0.965v0m1.205-3.953v0m0.097 2.651v0m-1.013 0.531v0m0.338-1.495v0m-0.193-0.916v0m-0.771-1.061v0m19.478 0.965v0m-0.048 1.88v0" fill="none" stroke="#000" stroke-linecap="round" stroke-width=".386"/>
    </g>
   </g>
  </g>
  <g transform="matrix(.35278 0 0 -.35278 81.464 355.72)">
   <g clip-path="url(#clipPath31585)">
    <g transform="translate(139.67 548.12)">
     <path d="m0 0v0m4.677 1.543v0m0.675-1.447v0m-2.363 1.977v0m-2.651 0.097v0m0.964-0.675v0m0.916-0.193v0m0.096-1.881v0m-0.868 0.434v0m2.893 0.386v0m-1.06 0.289v0m2.362 0.531v0m1.205 2.025v0m-1.253 0.868v0m-0.627 0.337v0m1.157 3.086v0m-2.218-0.675v0m0.531-3.52v0m-3.038-0.241v0m3.616 3.086v0m-5.159 1.591v0m3.375 0.145v0m2.797 0.482v0m-4.725 0.048v0m-1.977-2.363v0m4.821-0.53v0m-4.773-3.568v0m3.52 0.964v0m2.7 0v0m-1.302 5.545v0m-1.253 0.386v0m-3.134-4.484v0m6.653 1.591v0m-0.241-0.868v0m0.82-0.627v0m-7.04 0.82v0m3.472-1.157v0m-1.591 1.253v0m-0.434-0.867v0m0.868 2.362v0m-1.254 0.53v0m-0.289-1.06v0m-0.53 2.362v0m6.316 1.109v0m-1.254 0.868v0m-0.627 0.337v0m-0.53-1.108v0m-3.038-0.241v0m-2.169 0.337v0m3.664-0.482v0m2.7 0v0m-5.062 0.434v0m-0.627 1.012v0m3.664-0.241v0m3.905-8.968v0m-0.53-0.964v0m-7.763 9.305v0" fill="none" stroke="#000" stroke-linecap="round" stroke-width=".386"/>
    </g>
   </g>
  </g>
  <g transform="matrix(.35278 0 0 -.35278 81.464 355.72)">
   <g clip-path="url(#clipPath31597)">
    <g transform="translate(119.86 562.64)">
     <path d="m0 0 9.7 3.53 16.69-15.052-9.7-3.531z" fill="none" stroke="#000" stroke-linecap="round" stroke-linejoin="round" stroke-width=".385"/>
    </g>
    <g transform="translate(119.88 562.64)">
     <path d="m0 0c-0.899-4.954-4.272-7.157-8.293-4.956-4.712 2.578-8.53 10.221-8.53 17.071 0 4.409 1.582 7.415 3.967 8.309 1.32 0.495 2.884 0.343 4.563-0.575l-0.109 24.828c-5.04 2.759-9.739 3.214-13.702 1.729-7.16-2.685-11.913-11.712-11.913-24.954 0-20.568 11.468-43.52 25.615-51.262 12.078-6.611 22.203 3e-3 24.905 14.881z" fill="#d1d2d4"/>
    </g>
   </g>
  </g>
  <g transform="matrix(.35278 0 0 -.35278 81.464 355.72)">
   <g clip-path="url(#clipPath31613)">
    <g transform="translate(110.44 533.34)">
     <path d="m0 0v0m-0.675-2.652v0m0.964 1.109v0m-0.964 1.736v0m7.833-0.28v0m0.193-1.302v0m-1.205 0.482v0m-0.964 0.724v0m1.157-2.411v0m-1.688 1.784v0m0.964-2.941v0m-2.41 2.603v0m0.819 1.109v0m-2.41-0.819v0m-0.386 0.771v0m-0.241-2.507v0m0.627 0.289v0m5.496-1.302v0m-3.809 1.832v0m0.579-2.025v0m0.916 1.543v0m-2.218-1.109v0m-1.157-0.53v0m17.309 3.809v0m0.193-1.302v0m-1.206 0.482v0m-0.964 0.724v0m1.157-2.411v0m-1.687 1.784v0m-1.447-0.338v0m0.82 1.109v0m-2.411-0.819v0m-0.386 0.771v0m-0.241-2.507v0m0.627 0.289v0m1.688 0.53v0m0.578-2.025v0m0.916 1.543v0m-2.217-1.109v0m-1.158-0.53v0m-2.555 1.302v0m-1.543 0.868v0m1.832-2.122v0m0 2.411v0m-2.169-1.688v0m1.301 2.363v0m9.499-2.218v0m-0.049 2.17v0m-7.714-1.784v0m0.145 1.494v0m0.675-2.266v0m-1.881 2.942v0m-1.687 0.819v0" fill="none" stroke="#000" stroke-linecap="round" stroke-width=".386"/>
    </g>
   </g>
  </g>
  <g transform="matrix(.35278 0 0 -.35278 81.464 355.72)">
   <g clip-path="url(#clipPath31625)">
    <g transform="translate(90.721 587.1)">
     <path d="m0 0v0m-4.773 0.434v0m1.735-0.386v0m1.109-1.543v0m-0.53-1.639v0m1.736-1.109v0m-1.543-0.048v0m-2.507-0.627v0m-0.482 1.157v0m3.953 3.665v0m3.038 0.771v0m-5.497 0.53v0m0.916-1.976v0m1.35 1.832v0m4.484-1.254v0m0.627-0.337v0m-5.014-1.784v0m3.857-1.302v0m1.639 0.145v0m0.048 4.05v0m3.038 0.241v0m-3.616-3.086v0m5.159-1.591v0m-3.375-0.145v0m-2.797-0.482v0m-2.459 1.205v0m0.675-0.723v0m6.509-0.53v0m1.977 2.362v0m-4.821 0.531v0m4.918 2.121v0m-3.665 0.482v0m-7.087-4.532v0m4.387 4.532v0m-2.362 0.482v0m3.664-6.026v0m-4.243-0.531v0m5.497 0.145v0m3.134 4.484v0m-14.272-2.122v0m2.025 0.579v0m-1.543 0.916v0m1.109-2.218v0m0.531-1.157v0m3.905 3.086v0m-1.013-0.097v0m2.749-1.012v0m0.096 1.302v0m-0.82 0.626v0m-0.482-2.266v0m7.522 1.447v0m-3.472 1.157v0m1.591-1.254v0m0.434 0.868v0m-0.868-2.362v0m1.254-0.531v0m0.289 1.061v0m0.531-2.362v0m-8.245-15.718v0m-4.773 0.433v0m1.157-0.723v0m1.687-1.205v0m-0.53-1.639v0m1.736-1.109v0m-1.543-0.049v0m-2.507-0.626v0m-0.29 0.626v0m4.436 4.677v0m2.363 0.29v0m-5.497 0.53v0m1.398-1.784v0m0.579 1.254v0m4.773-0.868v0m0.627-0.338v0m-5.014-1.784v0m3.857-1.302v0m2.218 0.675v0m-0.531 3.52v0m3.038 0.241v0m-3.616-3.086v0m5.159-1.591v0m-3.375-0.144v0m-2.797-0.482v0m-2.459 1.205v0m0.675-0.723v0m6.509-0.531v0m1.977 2.363v0m-4.821 0.53v0m4.918 2.122v0m-3.665 0.482v0m-7.087-4.532v0m4.387 4.532v0m-2.41 0v0m3.712-5.545v0m-4.87-0.337v0m8.534 6.557v0m-2.41-6.606v0m3.134 4.484v0m-14.272-2.121v0m2.025 0.578v0m-1.543 0.917v0m1.109-2.218v0m0.531-1.157v0m3.905 3.085v0m-1.013-0.096v0m2.604-0.579v0m0.241 0.868v0m-0.82 0.627v0m-0.482-2.266v0m7.522 1.446v0m-3.472 1.157v0m1.206-1.205v0m0.819 0.82v0m-0.868-2.363v0m1.254-0.53v0m0.289 1.061v0m0.531-2.363v0m-8.245 16.393v0m-4.773 0.434v0m1.543-1.013v0m1.301-0.916v0m-0.53-1.639v0m1.736-1.109v0m-1.543-0.048v0m-2.507-0.627v0m-0.29 0.627v0m4.436 4.677v0m2.363 0.289v0m-4.966 0.193v0m1.446-1.639v0m0.289 1.832v0m4.484-1.254v0m0.627-0.337v0m-5.014-1.784v0m3.857-1.302v0m2.218 0.675v0m-0.531 3.52v0m3.038 0.241v0m-3.616-3.086v0m5.159-1.591v0m-3.375-0.145v0m-2.797-0.482v0m-2.459 1.205v0m0.675-0.723v0m6.509-0.53v0m1.977 2.362v0m-4.821 0.531v0m4.484 2.121v0m-2.99 0v0m-7.328-4.05v0m4.387 4.532v0m-2.41 0v0m3.712-5.544v0m-4.87-0.338v0m8.534 6.557v0m-2.41-6.605v0m3.134 4.484v0m-14.272-2.122v0m2.025 0.579v0m-1.543 0.916v0m1.109-2.218v0m0.531-1.157v0m3.905 3.086v0m-1.013-0.097v0m2.604-0.578v0m0.241 0.868v0m-0.82 0.626v0m-0.482-2.266v0m7.522 1.447v0m-3.472 1.157v0m1.591-1.254v0m0.434 0.868v0m-0.868-2.362v0m0.724-0.097v0m0.819 0.627v0m0.531-2.362v0m1.446-1.254v0m-0.193 1.302v0m1.206-0.482v0m0.964-0.724v0m-0.723 7.184v0m-0.434-4.773v0m1.687-1.784v0m-1.301 3.52v0m1.687 0.579v0m1.061-3.761v0m-0.82-1.109v0m2.411 0.819v0m0.386-0.771v0m-1.543 4.822v0m1.109 1.735v0m0.048-1.543v0m0.627-2.507v0m-0.627-0.289v0m-4.677 4.436v0m-0.289 2.362v0m-0.531-5.496v0m1.784 1.398v0m-1.639 0.868v0m1.254 4.484v0" fill="none" stroke="#000" stroke-linecap="round" stroke-width=".386"/>
    </g>
    <g transform="translate(102.2 582.95)">
     <path d="m0 0v0m1.784-5.014v0m1.302 3.857v0m-0.675 2.218v0m-3.52-0.531v0m-0.241 3.038v0m3.086-3.616v0m1.591 5.159v0m0.144-3.375v0m0.483-2.797v0m-1.206-2.459v0m0.723 0.675v0m0.531 6.509v0m-2.363 1.977v0m-0.53-4.821v0m-3.568 4.773v0m0.964-3.52v0m4.533-7.087v0m-4.533 4.387v0m0-2.411v0m5.545 3.713v0m0.338-4.87v0m-18.418 9.113v0m18.466-2.989v0m-4.484 3.134v0m2.121-14.272v0m-0.578 2.025v0m-0.916-1.543v0m2.217 1.109v0m1.158 0.53v0m-3.086 3.906v0m0.096-1.013v0m0.579 2.604v0m-0.868 0.241v0m-0.627-0.82v0m2.266-0.482v0m-1.446 7.522v0m-1.157-3.472v0m1.253 1.591v0m-0.868 0.434v0m2.363-0.868v0m0.53 1.254v0m-1.06 0.289v0m2.362 0.531v0m0.53-15.333v0m-0.192 1.302v0m1.205-0.482v0m0.964-0.723v0m-0.723 7.184v0m-0.434-4.774v0m1.688-1.783v0m-0.916 2.941v0m1.157 1.687v0m0.385-5.4v0m-2.266 6.702v0m-0.289 2.362v0m-0.53-5.496v0m1.784 1.398v0m-1.64 0.868v0m1.254 4.484v0m0.337 0.627v0m1.784-5.015v0m-2.893 5.545v0m-0.241 3.038v0m3.086-3.616v0m-0.096 5.689v0m-0.531-4.822v0m-2.121 4.918v0m-0.482-3.664v0m0-2.7v0m0-2.411v0m0.434 7.474v0m1.012 0.626v0m1.543-12.246v0m-0.916-1.543v0m0.289 5.545v0m0.097-1.013v0m0.578 2.604v0m-0.868 0.241v0m-0.626-0.82v0m0.819 7.04v0m-1.157-3.472v0m1.254 1.591v0m-0.868 0.434v0m1.832 0.675v0m-9.064-25.65v0m-0.675 1.736v0m0.868 1.253v0m0.337 0.627v0m3.086-1.157v0m-0.675 2.218v0m-3.52-0.531v0m-0.193 3.713v0m3.038-4.291v0m1.591 5.159v0m0.144-3.375v0m0.483-2.797v0m-1.206-2.459v0m0.723 0.675v0m0.531 6.509v0m-2.363 1.977v0m-0.53-4.821v0m-2.121 4.918v0m-0.483-3.665v0m0-2.7v0m0-2.411v0m5.545 3.713v0m0.386 1.254v0m-4.484 3.133v0m0.916-8.244v0m0.675 1.591v0m-0.868 0.241v0m-0.627-0.82v0m2.266-0.482v0m-1.446 7.522v0m-1.157-3.472v0m1.205 0.916v0m-0.82 1.109v0m2.363-0.868v0m0.53 1.254v0m-1.205-0.048v0m2.507 0.868v0m1.784-8.052v0m-0.386-0.627v0m-0.289 2.362v0m0.868 1.254v0m0.337 0.627v0m-1.109 0.53v0m-0.241 3.038v0m3.086-3.616v0m-0.096 5.689v0m-0.531-4.822v0m-2.121 4.918v0m-0.482-3.664v0m0-2.7v0m0-2.411v0m-0.048 7.763v0m1.494 0.337v0m0.916-8.244v0m0.097-1.013v0m0.578 2.604v0m-0.868 0.241v0m-0.626-0.82v0m0.819 7.039v0m-1.157-3.471v0m1.254 1.591v0m-0.868 0.434v0m1.832 0.675v0m-24.782 1.591v0m1.88-1.205v0m7.088-1.495v0m-3.52 2.845v0m-2.748-2.459v0m3.568 1.736v0m-2.315 0.867v0m-2.7 0v0m4.966 0.675v0m0.724-2.121v0m-6.413-0.723v0m6.22-0.193v0m-3.472 1.157v0m1.591-1.254v0m0.434 0.868v0m4.436 1.399v0m0.964-1.495v0m1.64-0.53v0m1.109 1.735v0m0.048-1.543v0m-4.677 1.64v0m0.964-1.736v0m-1.639 0.868v0m3.375 0.096v0m0.964 1.495v0m0.723 0.675v0m-0.433-2.17v0m-4.533 1.977v0m5.883-1.157v0m-3.52 1.012v0m0.096-1.012v0m0.868 1.591v0m-11.812 7.714v0m0.626-0.337v0m0.531 1.109v0m3.037 0.241v0m2.122 0.048v0m-3.616 0.097v0m-2.7 0v0m5.689-1.447v0m-3.664 0.241v0m2.025-0.386v0m3.905 1.833v0m1.495-1.929v0m4.387 0.82v0m-5.786 0.193v0m-1.157-0.579v0m3.375 0.096v0m0.965 1.495v0m0.289-1.495v0m1.35 0.82v0m-3.423 0v0" fill="none" stroke="#000" stroke-linecap="round" stroke-width=".386"/>
    </g>
    <g transform="translate(85.947 572.25)">
     <path d="m0 0v0m2.17-0.338v0m-1.399 1.158v0m2.025-0.916v0m2.459 0.916v0m18.563 15.911v0m0.675-27.965v0m-2.652 0.096v0m0.097 27.82v0m-22.122-55.18v0m0.531 0.627v0m0.241 4.629v0m1.205-4.291v0m-0.82-1.109v0m2.411 0.819v0m0.386-0.771v0m-1.543 4.822v0m1.109 1.735v0m0.048-1.543v0m0.627-2.507v0m-1.157-0.482v0m-3.665 3.954v0m0.675-1.543v0m-0.578 5.834v0m0.337 0.627v0m1.784-5.015v0m1.302 3.857v0m-0.145 1.64v0m-1.205-0.531v0m1.591 5.159v0m0.145-3.375v0m0.482-2.796v0m-1.205-2.459v0m0.723 0.675v0m0.53 6.509v0m-2.362 1.977v0m-0.531-4.822v0m1.929-5.834v0m1.012 5.69v0m0.531-4.243v0m-0.145 5.496v0m-4.484 3.134v0m2.122-14.271v0m-0.579 2.025v0m-0.916-1.543v0m2.218 1.109v0m1.157 0.53v0m-3.086 3.905v0m0.097-1.012v0m1.012 2.748v0m-1.302 0.097v0m-0.626-0.82v0m2.266-0.482v0m-1.447 7.521v0m-1.157-3.471v0m1.254 1.591v0m-0.868 0.434v0m2.362-0.868v0m0.531 1.254v0m-1.061 0.289v0m2.362 0.53v0m14.465-15.525v0m-0.193 1.302v0m1.205-0.482v0m0.965-0.724v0m-0.724 7.184v0m-0.434-4.773v0m1.688-1.784v0m-0.964 2.941v0m1.205 1.688v0m1.205-4.291v0m-0.819-1.109v0m2.411 0.819v0m0.385-0.771v0m-1.543 4.822v0m1.109 1.735v0m0.049-1.543v0m0.626-2.507v0m-0.626-0.289v0m-4.677 4.436v0m-0.29 2.362v0m-0.53-5.496v0m1.784 1.398v0m-1.254 0.578v0m0.868 4.774v0m0.338 0.627v0m1.784-5.015v0m1.302 3.857v0m-0.675 2.218v0m-3.52-0.53v0m-0.241 3.037v0m3.086-3.616v0m1.591 5.159v0m0.144-3.375v0m0.482-2.796v0m-1.205-2.459v0m0.723 0.675v0m0.531 6.509v0m-2.363 1.977v0m-0.53-4.822v0m-2.122 4.918v0m-0.482-3.664v0m4.532-7.088v0m-4.532 4.388v0m0-2.411v0m5.545 3.713v0m0.337-4.87v0m-6.557 8.534v0m6.606-2.411v0m-4.484 3.134v0m2.121-14.271v0m-0.579 2.025v0m-0.916-1.543v0m2.218 1.109v0m1.157 0.53v0m-3.085 3.905v0m0.096-1.012v0m0.579 2.603v0m-0.868 0.242v0m-0.627-0.82v0m2.266-0.482v0m-1.446 7.521v0m-1.158-3.471v0m1.206 1.205v0m-0.82 0.82v0m2.363-0.868v0m0.53 1.254v0m-1.061 0.289v0m2.363 0.53v0m-17.647-15.525v0m-0.193 1.302v0m1.206-0.482v0m0.964-0.724v0m-0.723 7.184v0m-0.434-4.773v0m1.687-1.784v0m-0.675 3.327v0m0.917 1.302v0m1.205-4.291v0m-0.82-1.109v0m2.411 0.819v0m0.386-0.771v0m-1.543 4.822v0m1.109 1.735v0m0.048-1.543v0m0.627-2.507v0m-0.627-0.289v0m-4.677 4.436v0m-0.289 2.362v0m-0.193-4.966v0m1.639 1.446v0m-1.832 0.29v0m1.254 4.484v0m0.337 0.627v0m1.784-5.015v0m1.302 3.857v0m-0.675 2.218v0m-3.52-0.53v0m-0.241 3.037v0m3.086-3.616v0m1.591 5.159v0m0.145-3.375v0m0.482-2.796v0m-1.206-2.459v0m0.724 0.675v0m0.53 6.509v0m-2.362 1.977v0m-0.531-4.822v0m-2.121 4.484v0m0-2.989v0m4.05-7.329v0m-4.532 4.388v0m0-2.411v0m5.544 3.713v0m0.338-4.87v0m-6.557 8.534v0m6.605-2.411v0m-4.484 3.134v0m2.121-14.271v0m-0.578 2.025v0m-0.916-1.543v0m2.218 1.109v0m1.157 0.53v0m-3.086 3.905v0m0.097-1.012v0m0.578 2.603v0m-0.868 0.242v0m-0.627-0.82v0m2.267-0.482v0m-1.447 7.521v0m-1.157-3.471v0m1.254 1.591v0m-0.868 0.434v0m2.362-0.868v0m0.097 0.723v0m-0.627 0.82v0m2.362 0.53v0m1.254 1.447v0m-1.302-0.193v0m0.482 1.205v0" fill="none" stroke="#000" stroke-linecap="round" stroke-width=".386"/>
    </g>
    <g transform="translate(99.987 552.6)">
     <path d="m0 0v0m-7.184-0.723v0m4.773-0.434v0m1.784 1.687v0m-3.519-1.301v0m-0.579 1.687v0m3.761 1.061v0m1.109-0.82v0m-0.82 2.411v0m0.771 0.386v0m-4.821-1.543v0m-1.736 1.109v0m1.543 0.048v0m2.507 0.627v0m0.29-0.627v0m-4.436-4.677v0m-2.363-0.289v0m5.497-0.531v0m-1.398 1.784v0m-0.868-1.639v0m-4.484 1.254v0m-0.627 0.337v0m5.014 1.784v0m-3.857 1.302v0m-2.218-0.675v0m0.531-3.52v0m-3.038-0.241v0m3.616 3.086v0m-1.784 1.736v0m2.797 0.482v0m2.459-1.206v0m-0.675 0.724v0m-6.509 0.53v0m2.844-2.893v0m-1.253-2.604v0m7.087 4.533v0m-4.387-4.533v0m2.41 0v0m-3.712 5.545v0m4.87 0.338v0m-6.124 0.048v0m11.138-2.363v0m-2.025-0.578v0m1.543-0.916v0m-1.109 2.218v0m-0.531 1.157v0m-3.905-3.086v0m1.013 0.096v0m-2.604 0.579v0m-0.241-0.868v0m0.82-0.627v0m0.482 2.266v0m-4.05-2.603v0m-1.591 1.253v0m-0.434-0.867v0m0.868 2.362v0m-1.254 0.53v0m14.513 1.833v0m-1.302-0.193v0m0.482 1.205v0m0.723 0.964v0m-7.184-0.723v0m4.773-0.434v0m1.784 1.688v0m-2.941-0.916v0m-1.687 1.157v0m5.4 0.386v0m-6.702-2.267v0m-2.363-0.289v0m5.497-0.53v0m-1.398 1.784v0m-0.868-1.64v0m-4.484 1.254v0m-0.627 0.338v0m5.014 1.783v0m-5.544-2.892v0m-3.038-0.241v0m3.616 3.085v0m-0.868-0.627v0m-1.253-2.603v0m2.7 0v0m2.411 0v0m4.146 2.989v0m1.543-0.916v0m-5.545 0.289v0m1.013 0.097v0m-2.604 0.578v0m-0.241-0.867v0m0.82-0.627v0m-3.568-0.338v0m-1.591 1.254v0m-0.434-0.868v0m24.975-7.232v0m-1.736-0.675v0m-1.253 0.868v0m-0.627 0.337v0m1.157 3.086v0m-2.218-0.675v0m0.531-3.52v0m-3.713-0.193v0m4.291 3.038v0m-5.159 1.591v0m3.375 0.145v0m2.797 0.482v0m2.459-1.206v0m-0.675 0.724v0m-6.509 0.53v0m-1.977-2.363v0m4.821-0.53v0m-4.918-2.121v0m3.665-0.483v0m2.7 0v0m2.41 0v0m-3.712 5.545v0m-1.254 0.386v0m-3.134-4.484v0m8.245 0.916v0m-1.591 0.675v0m-0.241-0.868v0m0.82-0.627v0m0.482 2.266v0m-7.522-1.446v0m3.472-1.157v0m-0.916 1.205v0m-1.109-0.819v0m0.868 2.362v0m-1.254 0.53v0m0.048-1.205v0m-0.868 2.507v0m8.052 1.784v0m0.627-0.386v0m-2.363-0.289v0m-1.253 0.868v0m-0.627 0.338v0m-0.53-1.109v0m-3.038-0.241v0m3.616 3.085v0m-5.689-0.096v0m4.821-0.531v0m-4.917-2.121v0m3.664-0.482v0m2.7 0v0m2.411 0v0m-7.763-0.048v0m-0.337 1.494v0m8.244 0.916v0m1.013 0.097v0m-2.604 0.578v0m-0.241-0.867v0m0.82-0.627v0m-7.04 0.819v0m3.472-1.157v0m-1.591 1.254v0m-0.434-0.868v0m-0.675 1.832v0m-1.591-24.782v0m1.543-0.868v0m-0.338 2.748v0m1.495 7.088v0m-2.845-3.52v0m2.459-2.748v0m-1.736 3.568v0m-0.868-2.315v0m0-2.7v0m0-2.41v0m-0.675 7.377v0m2.122 0.723v0m0.723-6.413v0m-1.302-2.362v0m1.495 8.582v0m-1.157-3.472v0m1.253 1.591v0m-0.867 0.434v0m-1.399 4.436v0m1.495 0.964v0m0.53 1.64v0m-1.735 1.109v0m1.542 0.048v0m-1.639-4.677v0m1.736 0.964v0m-0.868-1.639v0m-0.096 3.375v0m-1.495 0.964v0m-0.675 0.724v0m2.17-0.434v0m-1.977-4.533v0m1.157 5.883v0m-1.013-3.52v0m1.013 0.096v0m-1.591 0.868v0m-8.582-13.066v0m0.868 1.254v0m0.337 0.627v0m-1.109 0.53v0m-0.241 3.037v0m-0.048 2.122v0m-0.097-3.616v0m0-2.7v0m0-2.411v0m1.447 8.1v0" fill="none" stroke="#000" stroke-linecap="round" stroke-width=".386"/>
    </g>
    <g transform="translate(92.176 534.38)">
     <path d="m0 0v0m-0.338 3.568v0m0.386 2.025v0m-1.832 3.905v0m1.929 1.495v0m-0.82 4.387v0m-0.193-5.785v0m0.579-1.157v0m-0.097 3.375v0m-1.494 0.964v0m1.494 0.289v0m-0.819 1.35v0m0-3.423v0m8.919-9.209v0m0.338 2.17v0m-0.482-3.665v0m-0.675 2.266v0m1.88-2.941v0m-0.964 4.966v0m-0.916 2.459v0m3.568-8.244v0m8.485 27.482v0m-0.096-2.652v0m26.155-24.195v0m-5.979 1.447v0m4.774-0.434v0m-1.736 0.386v0m-1.109 1.543v0m0.53 1.639v0m-1.735 1.109v0m1.542 0.048v0m2.508 0.627v0m0.482-1.157v0m-3.954-3.665v0m-3.037-0.771v0m5.496-0.53v0m-0.916 1.976v0m-1.35-1.832v0m-4.484 1.254v0m-0.627 0.337v0m5.015 1.784v0m-3.858 1.302v0m-1.639-0.145v0m-0.048-4.05v0m-3.038-0.241v0m3.616 3.086v0m-5.159 1.591v0m3.375 0.145v0m2.797 0.482v0m2.459-1.205v0m-0.675 0.723v0m-6.509 0.53v0m-1.977-2.362v0m4.822-0.531v0m-4.918-2.121v0m3.664-0.482v0m7.088 4.532v0m-4.388-4.532v0m2.363-0.483v0m-3.665 6.027v0m4.243 0.531v0m-5.496-0.145v0m-3.134-4.484v0m14.271 2.121v0m-2.025-0.578v0m1.543-0.916v0m-1.109 2.218v0m-0.53 1.157v0m-3.906-3.086v0m1.013 0.097v0m-2.748 1.012v0m-0.097-1.302v0m0.82-0.627v0m0.482 2.267v0m-7.521-1.447v0m3.471-1.157v0m-1.591 1.254v0m-0.434-0.868v0m0.868 2.362v0m-1.254 0.531v0m-0.289-1.061v0m-0.53 2.362v0m14.223 14.272v0m-5.979 1.446v0m4.774-0.434v0m-1.158 0.724v0m-1.687 1.205v0m0.53 1.639v0m-1.735 1.109v0m1.542 0.048v0m2.508 0.627v0m0.289-0.627v0m-4.436-4.676v0m-2.362-0.29v0m5.496-0.53v0m-1.398 1.784v0m-0.579-1.254v0m-4.773 0.868v0m-0.627 0.338v0m5.015 1.784v0m-3.858 1.301v0m-2.218-0.675v0m0.531-3.519v0m-3.038-0.241v0m3.616 3.085v0m-5.159 1.592v0m3.375 0.144v0m2.797 0.482v0m2.459-1.205v0m-0.675 0.723v0m-6.509 0.53v0m-1.977-2.362v0m4.822-0.53v0m-4.918-2.122v0m3.664-0.482v0m7.088 4.532v0m-4.388-4.532v0m2.411 0v0m-3.713 5.545v0m4.87 0.337v0m-8.534-6.557v0m2.411 6.605v0m-3.134-4.484v0m14.271 2.122v0m-2.025-0.579v0m1.543-0.916v0m-1.109 2.218v0m-0.53 1.157v0m-3.906-3.085v0m1.013 0.096v0m-2.604 0.579v0m-0.241-0.868v0m0.82-0.627v0m0.482 2.266v0m-7.521-1.446v0m3.471-1.158v0m-1.205 1.206v0m-0.82-0.82v0m0.868 2.363v0m-1.254 0.53v0m-0.289-1.061v0m-0.53 2.363v0m14.223-17.84v0m-5.979 1.447v0m4.774-0.434v0m-1.543 1.012v0m-1.302 0.916v0m0.53 1.64v0m-1.735 1.109v0m1.542 0.048v0m2.508 0.627v0m0.289-0.627v0m-4.436-4.677v0m-2.362-0.289v0m4.966-0.193v0m-1.447 1.639v0m-0.289-1.832v0m-4.484 1.254v0m-0.627 0.337v0m5.015 1.784v0m-3.858 1.302v0m-2.218-0.675v0m0.531-3.52v0m-3.038-0.241v0m3.616 3.086v0m-5.159 1.591v0m3.375 0.145v0m2.797 0.482v0m2.459-1.206v0m-0.675 0.724v0m-6.509 0.53v0m-1.977-2.363v0m4.822-0.53v0m-4.484-2.121v0m2.989 0v0m7.329 4.05v0m-4.388-4.533v0m2.411 0v0m-3.713 5.545v0m4.87 0.338v0m-8.534-6.557v0m2.411 6.605v0m-3.134-4.484v0m14.271 2.121v0m-2.025-0.578v0m1.543-0.916v0m-1.109 2.218v0m-0.53 1.157v0m-3.906-3.086v0m1.013 0.096v0m-2.604 0.579v0m-0.241-0.868v0m0.82-0.627v0m0.482 2.266v0m-7.521-1.446v0m3.471-1.157v0m-1.591 1.253v0m-0.434-0.867v0m0.868 2.362v0m-0.723 0.097v0" fill="none" stroke="#000" stroke-linecap="round" stroke-width=".386"/>
    </g>
    <g transform="translate(123.49 546.68)">
     <path d="m0 0v0m-0.53 2.362v0m-1.447 1.254v0m0.193-1.302v0m-1.205 0.482v0m-0.965 0.724v0m0.724-7.184v0m0.434 4.773v0m-1.688 1.784v0m1.302-3.52v0m-1.688-0.578v0m-1.06 3.76v0m0.819 1.109v0m-2.41-0.819v0m-0.386 0.771v0m1.543-4.821v0m-1.109-1.736v0m-0.048 1.543v0m-0.627 2.507v0m0.627 0.289v0m4.676-4.436v0m0.29-2.362v0m0.53 5.496v0m-1.784-1.398v0m1.639-0.868v0m-1.253-4.484v0m-0.338-0.626v0m-1.784 5.014v0m-1.301-3.857v0m0.675-2.218v0m3.519 0.53v0m0.241-3.037v0m-3.085 3.616v0m-1.592-5.159v0m-0.144 3.375v0m-0.482 2.796v0m1.205 2.459v0m-0.723-0.675v0m-0.531-6.509v0m2.363-1.977v0m0.53 4.822v0m3.568-4.773v0m-0.964 3.519v0m-4.532 7.088v0m4.532-4.388v0m0 2.411v0m-5.545-3.712v0m-0.337 4.869v0m18.418-9.112v0m-18.467 2.989v0m4.484-3.134v0m-2.121 14.272v0m0.579-2.025v0m0.916 1.542v0m-2.218-1.109v0m-1.157-0.53v0m3.085-3.905v0m-0.096 1.012v0m-0.579-2.603v0m0.868-0.241v0m0.627 0.819v0m-2.266 0.482v0m1.446-7.521v0m1.158 3.471v0m-1.254-1.591v0m0.868-0.434v0m-2.363 0.868v0m-0.53-1.253v0m1.061-0.29v0m-2.363-0.53v0m-0.53 15.332v0m0.193-1.302v0m-1.206 0.483v0m-0.964 0.723v0m0.723-7.184v0m0.434 4.773v0m-1.687 1.784v0m0.916-2.941v0m-1.157-1.688v0m-0.386 5.4v0m2.266-6.701v0m0.289-2.363v0m0.531 5.497v0m-1.784-1.399v0m1.639-0.867v0m-1.254-4.484v0m-0.337-0.627v0m-1.784 5.014v0m2.893-5.545v0m0.241-3.037v0m-3.086 3.616v0m0.097-5.689v0m0.53 4.821v0m2.121-4.918v0m0.482 3.664v0m0 2.701v0m0 2.41v0m-0.433-7.473v0m-1.013-0.627v0m-1.543 12.247v0m0.916 1.543v0m-0.289-5.545v0m-0.096 1.012v0m-0.579-2.603v0m0.868-0.241v0m0.627 0.819v0m-0.82-7.039v0m1.157 3.471v0m-1.253-1.591v0m0.867-0.434v0m-1.832-0.675v0m9.065 25.651v0m0.675-1.736v0m-0.868-1.254v0m-0.338-0.626v0m-3.085 1.157v0m0.675-2.218v0m3.519 0.53v0m0.193-3.712v0m-3.037 4.291v0m-1.592-5.159v0m-0.144 3.375v0m-0.482 2.796v0m1.205 2.459v0m-0.723-0.675v0m-0.531-6.509v0m2.363-1.977v0m0.53 4.822v0m2.122-4.918v0m0.482 3.664v0m0 2.7v0m0 2.411v0m-5.545-3.712v0m-0.386-1.254v0m4.484-3.134v0m-0.916 8.245v0m-0.675-1.591v0m0.868-0.241v0m0.627 0.819v0m-2.266 0.482v0m1.446-7.521v0m1.158 3.471v0m-1.206-0.916v0m0.82-1.109v0m-2.363 0.868v0m-0.53-1.253v0m1.205 0.048v0m-2.507-0.868v0m-1.784 8.052v0m0.386 0.627v0m0.289-2.363v0m-0.868-1.253v0m-0.337-0.627v0m1.109-0.531v0m0.241-3.037v0m-3.086 3.616v0m0.097-5.689v0m0.53 4.821v0m2.121-4.918v0m0.482 3.664v0m0 2.701v0m0 2.41v0m0.049-7.762v0m-1.495-0.338v0m-0.916 8.245v0m-0.096 1.012v0m-0.579-2.603v0m0.868-0.241v0m0.627 0.819v0m-0.82-7.039v0m1.157 3.472v0m-1.253-1.592v0m0.867-0.434v0m-1.832-0.675v0m24.783-1.591v0m0.867 1.543v0m-2.748-0.337v0m-7.087 1.494v0m3.519-2.844v0m2.749 2.459v0m-3.568-1.736v0m2.314-0.868v0m2.7 0v0m2.411 0v0m-7.377-0.675v0m-0.723 2.122v0m6.412 0.723v0m-6.219 0.193v0m3.471-1.158v0m-1.591 1.254v0m-0.434-0.868v0m-4.436-1.398v0m-0.964 1.495v0m-1.639 0.53v0m-1.109-1.736v0m-0.049 1.543v0m4.677-1.639v0m-0.964 1.736v0m1.639-0.868v0m-3.375-0.097v0" fill="none" stroke="#000" stroke-linecap="round" stroke-width=".386"/>
    </g>
    <g transform="translate(123.49 550.64)">
     <path d="m0 0v0m-0.723-0.675v0m0.434 2.17v0m4.532-1.977v0m-5.882 1.157v0m3.519-1.013v0m-0.096 1.013v0m-0.868-1.591v0m11.813-7.714v0m-0.627 0.337v0m-0.53-1.109v0m-3.038-0.241v0m-2.121-0.048v0m3.616-0.097v0m2.7 0v0m-5.69 1.447v0m3.665-0.241v0m-2.025 0.385v0m-3.906-1.832v0m-1.494 1.929v0m-4.388-0.82v0m5.786-0.193v0m1.157 0.579v0m-3.375-0.096v0m-0.964-1.495v0m-0.29 1.495v0m-1.35-0.82v0m3.424 0v0m9.209 8.92v0m-2.17 0.337v0m1.398-1.157v0m-2.025 0.916v0m-2.459-0.916v0m-18.562-15.911v0m-0.675 27.965v0m2.651-0.097v0m-0.096-27.82v0m23.086 54.457v0m-0.965 0.724v0m0.724-7.184v0m-1.254 6.557v0m1.302-3.52v0m-1.543-1.109v0m-1.205 4.291v0m0.819 1.109v0m-2.41-0.819v0m-0.386 0.771v0m1.543-4.822v0m-1.109-1.735v0m-0.048 1.543v0m-0.627 2.507v0m1.157 0.482v0m3.664-3.954v0m-0.675 1.543v0m0.579-5.834v0m-0.338-0.627v0m-1.784 5.015v0m-1.301-3.857v0m0.144-1.64v0m1.206 0.531v0m-1.592-5.159v0m-0.144 3.375v0m-0.482 2.796v0m1.205 2.459v0m-0.723-0.675v0m-0.531-6.509v0m2.363-1.977v0m0.53 4.822v0m-1.928 5.834v0m-1.013-5.69v0m-0.53 4.243v0m0.145-5.496v0m4.484-3.134v0m-2.122 14.271v0m0.579-2.024v0m0.916 1.542v0m-2.218-1.109v0m-1.157-0.53v0m3.085-3.905v0m-0.096 1.012v0m-1.012-2.748v0m1.301-0.096v0m0.627 0.819v0m-2.266 0.482v0m1.446-7.521v0m1.158 3.471v0m-1.254-1.591v0m0.868-0.434v0m-2.363 0.868v0m-0.53-1.253v0m1.061-0.29v0m-2.363-0.53v0m-14.464 15.525v0m0.193-1.302v0m-1.206 0.482v0m-0.964 0.724v0m0.723-7.184v0m0.434 4.773v0m-1.687 1.784v0m0.964-2.941v0m-1.205-1.688v0m-1.206 4.291v0m0.82 1.109v0m-2.411-0.819v0m-0.386 0.771v0m1.543-4.822v0m-1.109-1.735v0m-0.048 1.543v0m-0.627 2.507v0m0.627 0.289v0m4.677-4.436v0m0.289-2.362v0m0.531 5.496v0m-1.784-1.398v0m1.253-0.578v0m-0.868-4.774v0m-0.337-0.627v0m-1.784 5.015v0m-1.302-3.857v0m0.675-2.218v0m3.52 0.53v0m0.241-3.037v0m-3.086 3.616v0m-1.591-5.159v0m-0.145 3.375v0m-0.482 2.796v0m1.206 2.459v0m-0.724-0.675v0m-0.53-6.509v0m2.363-1.977v0m0.53 4.822v0m2.121-4.918v0m0.482 3.664v0m-4.532 7.088v0m4.532-4.388v0m0 2.411v0m-5.544-3.713v0m-0.338 4.87v0m6.557-8.534v0m-6.605 2.411v0m4.484-3.134v0m-2.121 14.271v0m0.578-2.024v0m0.916 1.542v0m-2.218-1.109v0m-1.157-0.53v0m3.086-3.905v0m-0.096 1.012v0m-0.579-2.603v0m0.868-0.241v0m0.627 0.819v0m-2.266 0.482v0m1.446-7.521v0m1.157 3.471v0m-1.205-1.205v0m0.819-0.82v0m-2.362 0.868v0m-0.53-1.253v0m1.06-0.29v0m-2.362-0.53v0m17.646 15.525v0m0.193-1.302v0m-1.205 0.482v0m-0.964 0.724v0m0.723-7.184v0m0.434 4.773v0m-1.688 1.784v0m0.675-3.327v0m-0.916-1.302v0m-1.205 4.291v0m0.819 1.109v0m-2.41-0.819v0m-0.386 0.771v0m1.543-4.822v0m-1.109-1.735v0m-0.048 1.543v0m-0.627 2.507v0m0.627 0.289v0m4.676-4.436v0m0.29-2.362v0m0.193 4.966v0m-1.64-1.446v0m1.832-0.29v0m-1.253-4.484v0m-0.338-0.627v0m-1.784 5.015v0m-1.301-3.857v0m0.675-2.218v0m3.519 0.53v0m0.241-3.037v0m-3.085 3.616v0m-1.591-5.159v0m-0.145 3.375v0m-0.482 2.796v0m1.205 2.459v0m-0.723-0.675v0m-0.53-6.509v0m2.362-1.977v0m0.53 4.822v0m2.122-4.484v0" fill="none" stroke="#000" stroke-linecap="round" stroke-width=".386"/>
    </g>
    <g transform="translate(128.4 575.49)">
     <path d="m0 0v0m-4.05 7.329v0m4.532-4.388v0m0 2.411v0m-5.545-3.713v0m-0.337 4.87v0m6.557-8.534v0m-6.605 2.411v0m4.484-3.134v0m-2.122 14.271v0m0.579-2.025v0m0.916 1.543v0m-2.218-1.109v0m-1.157-0.53v0m3.086-3.905v0m-0.097 1.012v0m-0.578-2.604v0m0.867-0.241v0m0.627 0.82v0m-2.266 0.482v0m1.447-7.521v0m1.157 3.471v0m-1.254-1.591v0m0.868-0.434v0m-2.362 0.868v0m-0.097-0.723v0m0.627-0.82v0m-2.363-0.53v0m-1.253-1.447v0m1.302 0.193v0m-0.483-1.205v0m-0.723-0.965v0m7.184 0.724v0m-4.773 0.434v0m-1.784-1.688v0m3.52 1.302v0m0.578-1.688v0m-3.76-1.06v0m-1.109 0.819v0m0.819-2.41v0m-0.771-0.386v0m4.821 1.543v0m1.736-1.109v0m-1.543-0.048v0m-2.507-0.627v0m-0.289 0.627v0m4.435 4.676v0m2.363 0.29v0m-5.497 0.53v0m1.399-1.784v0m0.868 1.639v0m4.484-1.253v0m0.626-0.338v0m-5.014-1.784v0m3.857-1.301v0m2.218 0.675v0m-0.53 3.519v0m3.037 0.241v0m-3.616-3.085v0m1.784-1.736v0m-2.796-0.482v0m-2.459 1.205v0m0.675-0.723v0m6.509-0.53v0m-2.845 2.892v0m1.254 2.604v0m-7.088-4.532v0m4.388 4.532v0m-2.411 0v0m3.712-5.545v0m-4.869-0.337v0m6.123-0.048v0m-11.138 2.362v0m2.025 0.579v0m-1.543 0.916v0m1.109-2.218v0m0.531-1.157v0m3.905 3.085v0m-1.012-0.096v0m2.603-0.579v0m0.241 0.868v0m-0.819 0.627v0m-0.482-2.266v0m4.05 2.604v0m1.591-1.254v0m0.434 0.868v0m-0.868-2.363v0m1.253-0.53v0m0.29 1.061v0m-14.802-2.893v0m1.301 0.193v0m-0.482-1.206v0m-0.723-0.964v0m7.184 0.723v0m-4.773 0.434v0m-1.784-1.687v0m2.941 0.916v0m1.688-1.157v0m-5.401-0.386v0m6.702 2.266v0m2.363 0.289v0m-5.497 0.531v0m1.399-1.784v0m0.867 1.639v0m4.484-1.254v0m0.627-0.337v0m-5.014-1.784v0m5.545 2.893v0m3.037 0.241v0m-3.616-3.086v0m0.868 0.627v0m1.253 2.604v0m-2.7 0v0m-2.41 0v0m-4.147-2.99v0m-1.543 0.916v0m5.545-0.289v0m-1.012-0.096v0m2.603-0.579v0m0.241 0.868v0m-0.819 0.627v0m3.567 0.337v0m1.591-1.253v0m0.434 0.867v0m0.675-1.832v0m-25.65 9.065v0m1.736 0.675v0m1.254-0.868v0m0.626-0.338v0m-1.157-3.085v0m2.218 0.675v0m-0.53 3.519v0m3.712 0.193v0m-4.291-3.037v0m5.159-1.592v0m-3.375-0.144v0m-2.796-0.482v0m-2.459 1.205v0m0.675-0.723v0m6.509-0.53v0m1.976 2.362v0m-4.821 0.53v0m4.918 2.122v0m-3.664 0.482v0m-2.7 0v0m-2.411 0v0m3.712-5.545v0m1.254-0.385v0m3.134 4.484v0m-8.245-0.917v0m1.591-0.675v0m0.241 0.868v0m-0.819 0.627v0m-0.482-2.266v0m7.521 1.446v0m-3.471 1.158v0m0.916-1.206v0m1.109 0.82v0m-0.868-2.363v0m1.253-0.53v0m-0.048 1.205v0m0.868-2.507v0m-8.052-1.784v0m-0.627 0.386v0m2.363 0.289v0m1.253-0.868v0m0.627-0.337v0m0.531 1.109v0m3.037 0.241v0m-3.616-3.086v0m5.689 0.097v0m-4.821 0.53v0m4.918 2.121v0m-3.665 0.483v0m-2.7 0v0m-2.41 0v0m7.762 0.048v0m0.338-1.495v0m-8.245-0.916v0m-1.013-0.096v0m2.604-0.579v0m0.241 0.868v0m-0.819 0.627v0m7.039-0.82v0m-3.472 1.157v0m1.591-1.253v0m0.434 0.867v0m0.675-1.832v0m1.592 24.783v0m-1.543 0.868v0m0.337-2.749v0m-1.495-7.087v0m2.845 3.519v0m-2.459 2.749v0m1.736-3.568v0m0.868 2.314v0m0 2.7v0m0 2.411v0m0.675-7.377v0m-2.122-0.723v0" fill="none" stroke="#000" stroke-linecap="round" stroke-width=".386"/>
    </g>
    <g transform="translate(119 585.66)">
     <path d="m0 0v0m1.302 2.362v0m-1.495-8.582v0m1.157 3.472v0m-1.253-1.591v0m0.868-0.434v0m1.398-4.436v0m-1.495-0.964v0m-0.53-1.64v0m1.736-1.109v0m-1.543-0.048v0m1.639 4.677v0m-1.736-0.964v0m0.868 1.639v0m0.096-3.375v0m1.495-0.964v0m0.675-0.723v0m-2.17 0.433v0m1.977 4.533v0m-1.157-5.883v0m1.013 3.52v0m-1.013-0.096v0m1.591-0.868v0m8.582 13.066v0m-0.867-1.254v0m-0.338-0.626v0m1.109-0.531v0m0.241-3.037v0m0.048-2.122v0m0.097 3.616v0m0 2.7v0m0 2.411v0m-1.447-8.1v0m-0.096 7.232v0m0.337-3.568v0m-0.385-2.025v0m1.832-3.905v0m-1.929-1.495v0m0.82-4.387v0m0.193 5.786v0m-0.579 1.157v0m0.097-3.375v0m1.494-0.965v0m-1.494-0.289v0m0.819-1.35v0m0 3.423v0m-8.919 9.209v0m-0.338-2.169v0m0.482 3.664v0m0.675-2.266v0m-1.88 2.941v0m0.964-4.966v0m0.916-2.459v0m14.175 8.245v0m-17.743 0v0m-8.486-27.483v0m0.097 2.652v0" fill="none" stroke="#000" stroke-linecap="round" stroke-width=".386"/>
    </g>
   </g>
  </g>
  <g transform="matrix(.35278 0 0 -.35278 81.464 355.72)">
   <g clip-path="url(#clipPath31669)">
    <g transform="translate(85.764 589.2)">
     <path d="m0 0v0m0.53 0.627v0m0.241 4.628v0m1.206-4.291v0m-0.82-1.109v0m2.411 0.82v0m0.386-0.771v0m-1.543 4.821v0m1.109 1.736v0m0.048-1.543v0m0.627-2.507v0m-1.157-0.482v0m-2.99 2.41v0m-0.241 6.461v0m1.784-5.014v0m1.302 3.857v0m-0.145 1.639v0m-1.205-0.53v0m1.591 5.159v0m0.145-3.375v0m0.482-2.797v0m-1.206-2.459v0m0.724 0.675v0m0.53 6.509v0m-2.363 1.977v0m-0.53-4.821v0m1.929-5.834v0m1.012 5.689v0m0.531-4.243v0m-0.145 5.497v0m-4.484 3.134v0m2.121-14.272v0m-0.578 2.025v0m-0.916-1.543v0m2.218 1.109v0m1.157 0.531v0m-3.086 3.905v0m0.096-1.013v0m1.013 2.749v0m-1.302 0.096v0m-0.627-0.82v0m2.266-0.482v0m-1.446 7.522v0m-1.157-3.472v0m1.253 1.591v0m-0.867 0.434v0m2.362-0.867v0m0.53 1.253v0m-1.06 0.289v0m2.362 0.531v0m14.465-15.525v0m-0.193 1.301v0m1.205-0.482v0m0.964-0.723v0m-0.723 7.184v0m-0.434-4.773v0m1.688-1.784v0m-0.964 2.941v0m1.205 1.687v0m1.205-4.291v0m-0.819-1.109v0m2.41 0.82v0m0.386-0.771v0m-1.543 4.821v0m1.109 1.736v0m0.048-1.543v0m0.627-2.507v0m-0.627-0.29v0m-4.676 4.436v0m-0.29 2.363v0m-0.53-5.497v0m1.784 1.399v0m-1.254 0.578v0m0.868 4.773v0m0.338 0.627v0m1.784-5.014v0m1.301 3.857v0m-0.675 2.218v0m-3.519-0.531v0m-0.241 3.038v0m3.085-3.616v0m1.591 5.159v0m0.145-3.375v0m0.482-2.797v0m-1.205-2.459v0m0.723 0.675v0m0.53 6.509v0m-2.362 1.977v0m-0.53-4.821v0m-2.122 4.918v0m-0.482-3.665v0m4.532-7.087v0m-4.532 4.387v0m0-2.41v0m5.545 3.712v0m0.337-4.87v0m-6.557 8.534v0m6.605-2.41v0m-4.484 3.134v0m2.122-14.272v0m-0.579 2.025v0m-0.916-1.543v0m2.218 1.109v0m1.157 0.531v0m-3.086 3.905v0m0.097-1.013v0m0.578 2.604v0m-0.867 0.241v0m-0.627-0.82v0m2.266-0.482v0m-1.447 7.522v0m-1.157-3.472v0m1.206 1.206v0m-0.82 0.819v0m2.363-0.867v0m0.53 1.253v0m-1.061 0.289v0m2.363 0.531v0m-17.647-15.525v0m-0.193 1.301v0m1.206-0.482v0m0.964-0.723v0m-0.723 7.184v0m-0.434-4.773v0m1.687-1.784v0m-0.675 3.327v0m0.916 1.301v0m1.206-4.291v0m-0.82-1.109v0m2.411 0.82v0m0.386-0.771v0m-1.543 4.821v0m1.109 1.736v0m0.048-1.543v0m0.627-2.507v0m-0.627-0.29v0m-4.677 4.436v0m-0.289 2.363v0m-0.193-4.966v0m1.639 1.446v0m-1.832 0.289v0m1.254 4.484v0m0.337 0.627v0m1.784-5.014v0m1.302 3.857v0m-0.675 2.218v0m-3.52-0.531v0m-0.241 3.038v0m3.086-3.616v0m1.591 5.159v0m0.145-3.375v0m0.482-2.797v0m-1.206-2.459v0m0.724 0.675v0m0.53 6.509v0m-2.363 1.977v0m-0.53-4.821v0m-2.121 4.484v0m0-2.99v0m4.05-7.328v0m-4.533 4.387v0m0-2.41v0m5.545 3.712v0m0.338-4.87v0m-6.558 8.534v0m6.606-2.41v0m-4.484 3.134v0m2.121-14.272v0m-0.578 2.025v0m-0.916-1.543v0m2.218 1.109v0m1.157 0.531v0m-3.086 3.905v0m0.096-1.013v0m0.579 2.604v0m-0.868 0.241v0m-0.627-0.82v0m2.266-0.482v0m-1.446 7.522v0m-1.157-3.472v0m1.253 1.591v0m-0.867 0.434v0m2.362-0.867v0m0.096 0.723v0m-0.626 0.819v0m2.362 0.531v0m1.254 1.446v0m-1.302-0.193v0m0.482 1.206v0m0.723 0.964v0m-7.184-0.723v0m4.774-0.434v0m1.784 1.687v0m-3.52-1.301v0m-0.579 1.687v0m3.761 1.061v0m1.109-0.82v0m-4.87 1.254v0m-1.832-3.52v0m-2.362-0.289v0" fill="none" stroke="#000" stroke-linecap="round" stroke-width=".386"/>
    </g>
    <g transform="translate(96.564 606.13)">
     <path d="m0 0v0m-1.398 1.784v0m-0.868-1.639v0m-4.484 1.253v0m-0.627 0.338v0m5.014 1.784v0m-6.075 0.626v0m0.531-3.519v0m-3.038-0.241v0m3.616 3.085v0m3.472 1.013v0m-4.34-1.639v0m-1.253-2.604v0m2.7 0v0m2.411 0v0m6.171 3.568v0m-2.025-0.579v0m1.543-0.916v0m-1.109 2.218v0m-4.436-1.928v0m1.013 0.096v0m-2.604 0.579v0m-0.241-0.868v0m0.82-0.627v0m0.482 2.266v0m-4.05-2.604v0m-1.591 1.254v0m-0.434-0.868v0m0.868 2.363v0m23.914-2.99v0m-1.735-0.675v0m-1.254 0.868v0m-0.627 0.338v0m-1.061 2.41v0m0.531-3.519v0m-3.713-0.193v0m4.291 3.037v0m3.472 1.013v0m-9.161-1.109v0m4.822-0.53v0m-4.918-2.122v0m3.664-0.482v0m2.7 0v0m2.411 0v0m-8.1 1.447v0m8.244 0.916v0m-1.591 0.675v0m-0.241-0.868v0m0.82-0.627v0m0.482 2.266v0m-7.522-1.446v0m3.472-1.158v0m-0.916 1.206v0m-1.109-0.82v0m0.868 2.363v0m-1.206-0.675v0m-2.121-18.033v0m1.543-0.867v0m-0.338 2.748v0m1.495 7.087v0m-2.845-3.519v0m2.459-2.749v0m-1.735 3.568v0m-0.868-2.314v0m0-2.7v0m0-2.411v0m-0.675 7.377v0m2.121 0.723v0m0.723-6.412v0m-1.301-2.363v0m1.494 8.582v0m-1.157-3.471v0m1.254 1.591v0m-0.868 0.434v0m-1.398 4.436v0m1.494 0.964v0m0.531 1.639v0m-1.736 1.109v0m1.543 0.048v0m-1.64-4.676v0m1.736 0.964v0m-0.868-1.639v0m-0.096 3.375v0m-1.495 0.964v0m-0.675 0.723v0m2.17-0.434v0m-1.977-4.532v0m1.157 5.882v0m-1.012-3.519v0m1.012 0.096v0m-1.591 0.868v0m-8.582-13.066v0m0.868 1.253v0m0.337 0.627v0m-1.109 0.53v0m-0.241 3.038v0m-0.048 2.121v0m-0.096-3.616v0m0-2.7v0m0-2.41v0m1.446 8.1v0m0.096-7.233v0m-0.337 3.568v0m0.386 2.025v0m-1.832 3.906v0m1.928 1.494v0m-0.82 4.388v0m-0.192-5.786v0m0.578-1.157v0m-0.096 3.375v0m-1.495 0.964v0m1.495 0.29v0m-0.82 1.35v0m0-3.424v0m8.92-9.209v0m0.337 2.17v0m-0.482-3.664v0m-0.675 2.266v0m1.881-2.941v0m-0.965 4.966v0m-0.916 2.459v0m3.568-8.245v0m9.762 16.209v0m-0.241-4.628v0m-0.386 5.4v0m-0.434-5.931v0m0.049-4.966v0m0.096-5.689v0m0.53 4.821v0m-0.385 8.004v0m0.626-4.002v0m-0.096 1.013v0m-0.579-2.604v0m0.675-6.461v0m-0.096 1.881v0m-0.964-1.109v0m0.289 16.2v0m0.771 0.771v0m-0.096 1.881v0m-0.964-1.109v0m0.964-19.479v0" fill="none" stroke="#000" stroke-linecap="round" stroke-width=".386"/>
    </g>
   </g>
  </g>
  <g transform="matrix(.35278 0 0 -.35278 81.464 355.72)">
   <g clip-path="url(#clipPath31685)">
    <g transform="translate(119.88 562.64)">
     <path d="m0 0c-0.899-4.954-4.272-7.157-8.293-4.956-4.712 2.578-8.53 10.221-8.53 17.071 0 4.409 1.582 7.415 3.967 8.309 1.32 0.495 2.884 0.343 4.563-0.575l-0.109 24.828c-5.04 2.759-9.739 3.214-13.702 1.729-7.16-2.685-11.913-11.712-11.913-24.954 0-20.568 11.468-43.52 25.615-51.262 12.078-6.611 22.203 3e-3 24.905 14.881z" fill="none" stroke="#000" stroke-linecap="round" stroke-linejoin="round" stroke-width=".385"/>
    </g>
    <g transform="translate(103.97 611.3)">
     <path d="m0 0c3.965 1.493 8.671 1.039 13.717-1.722l-0.082-0.03 0.013-24.673 0.725 0.264-0.014 24.673 0.083 0.03c-5.047 2.761-9.752 3.215-13.718 1.722z" fill="#59595b"/>
    </g>
    <g transform="translate(131.45 533.38)">
     <path d="m0 0c5.455 2.08 9.503 7.854 11.099 16.373l-0.044 2e-3 -16.69 15.052 0.725 0.264 16.69-15.052 0.043-2e-3c-1.596-8.519-5.643-14.293-11.098-16.373z" fill="#59595b"/>
    </g>
    <g transform="translate(101.16 610.28)">
     <path d="m0 0c3.965 1.493 8.671 1.039 13.717-1.722l-0.082-0.03 0.013-24.673 0.725 0.264-0.014 24.673 0.083 0.03c-5.047 2.761-9.752 3.215-13.718 1.722z" fill="#59595b"/>
    </g>
    <g transform="translate(128.65 532.36)">
     <path d="m0 0c5.455 2.08 9.503 7.854 11.099 16.372l-0.044 3e-3 -16.69 15.052 0.725 0.264 16.69-15.053 0.043-1e-3c-1.596-8.52-5.643-14.293-11.098-16.374z" fill="#59595b"/>
    </g>
    <g transform="translate(125.08 531.06)">
     <path d="m0 0 10.127 3.688c5.455 2.081 9.503 7.853 11.099 16.372l-0.044 2e-3 -16.69 15.053-9.699-3.53 0.022-0.021c-0.905-4.941-4.273-7.136-8.29-4.938-4.711 2.578-8.53 10.221-8.53 17.071 0 4.409 1.583 7.415 3.967 8.309 1.32 0.495 2.884 0.343 4.563-0.575l0.065 0.214 9.7 3.531-0.014 24.672 0.082 0.031c-5.046 2.761-9.751 3.215-13.717 1.722l-9.863-3.59-0.063-0.023c-7.161-2.685-11.914-11.712-11.914-24.954 0-20.569 11.468-43.52 25.615-51.262 4.866-2.664 9.415-3.181 13.29-1.874" fill="none" stroke="#000" stroke-linecap="round" stroke-linejoin="round" stroke-width=".77"/>
    </g>
   </g>
  </g>
 </g>
</svg>
