<svg width="12.875mm" height="12.7mm" version="1.1" viewBox="0 0 12.875 12.7" xmlns="http://www.w3.org/2000/svg">
 <g transform="translate(-105.24 -138.63)">
  <path d="m105.24 151.33h12.875v-12.7h-12.875z" fill="#fff"/>
  <g fill="none" stroke="#000">
   <g stroke-linecap="round" stroke-width=".28258">
    <path d="m110.76 143.63-0.71245 3.39m0.71245-3.39 0.18879 3.39"/>
    <path d="m114.36 142.59-2.4074-7e-3c-0.22048 0-0.401 0.17777-0.401 0.39963l-3e-3 0.64906-0.78686-7e-3v-0.64216c0-0.65871 0.5333-1.1906 1.1906-1.1906h2.4074" stroke-linejoin="round"/>
    <path d="m113.35 140.98h-1.6013m0.79926 0.81166v-0.81166"/>
   </g>
   <path d="m107.7 148.77h7.7074" stroke-width=".56515"/>
  </g>
  <path d="m113.05 147.02c0 0.82819-0.6711 1.5007-1.5034 1.5007-0.8282 0-1.5007-0.67249-1.5007-1.5007 0-0.82959 0.67248-1.5007 1.5007-1.5007 0.83234 0 1.5034 0.6711 1.5034 1.5007" fill="#919497"/>
  <path d="m113.05 147.02c0 0.8282-0.67111 1.5007-1.5034 1.5007-0.8282 0-1.5007-0.67249-1.5007-1.5007 0-0.82958 0.67249-1.5007 1.5007-1.5007 0.83233 0 1.5034 0.6711 1.5034 1.5007z" fill="none" stroke="#000" stroke-width=".28258"/>
  <path d="m112.15 147.02c0 0.3321-0.26872 0.6022-0.60221 0.6022-0.33073 0-0.59807-0.2701-0.59807-0.6022 0-0.33211 0.26734-0.60083 0.59807-0.60083 0.33349 0 0.60221 0.26872 0.60221 0.60083" fill="#fff"/>
  <path d="m112.15 147.02c0 0.33211-0.26872 0.6022-0.6022 0.6022-0.33073 0-0.59807-0.27009-0.59807-0.6022s0.26734-0.60082 0.59807-0.60082c0.33348 0 0.6022 0.26871 0.6022 0.60082z" fill="none" stroke="#000" stroke-width=".28258"/>
  <path d="m111.55 138.98c-3.3156 0-6.0027 2.6899-6.0027 6.0082 0 3.3156 2.6872 6.0041 6.0027 6.0041 3.3183 0 6.0069-2.6886 6.0069-6.0041 0-3.3183-2.6886-6.0082-6.0069-6.0082m4.8052 6.0082c0 1.1093-0.37896 2.1277-1.0115 2.9407l-6.7358-6.7358c0.81304-0.63115 1.8328-1.0115 2.9421-1.0115 2.6541 0 4.8052 2.1497 4.8052 4.8066m-9.6091 0c0-1.1121 0.38034-2.1318 1.0129-2.9449l6.7345 6.7345c-0.81304 0.63528-1.8328 1.0129-2.9435 1.0129-2.6513 0-4.8038-2.1497-4.8038-4.8025"/>
  <path d="m110.76 143.63-2.0298 3.9743" fill="none" stroke="#000" stroke-linecap="round" stroke-width=".28258"/>
 </g>
</svg>
