<svg width="25.4mm" height="29.633mm" version="1.1" viewBox="0 0 25.4 29.633" xmlns="http://www.w3.org/2000/svg">
 <defs>
  <clipPath id="clipPath32565">
   <path d="m74.693 337.89h72v84h-72z"/>
  </clipPath>
  <clipPath id="clipPath32553">
   <path d="m131.62 370.95 2.524-2.261-2.524-3.06v-3.463l6.896-6.151 7.838 9.274-14.734 13.238z"/>
  </clipPath>
  <clipPath id="clipPath32541">
   <path d="m125.39 376.53 6.325-5.664v7.577l-0.213 0.191zm4.582-12.894 1.743-1.554v3.666z"/>
  </clipPath>
  <clipPath id="clipPath32513">
   <path d="m74.693 337.89h72v84h-72z"/>
  </clipPath>
  <clipPath id="clipPath32501">
   <path d="m112.39 406.11 7.178-1.505 0.05-7.243h6.322l-6e-3 18.78-13.498 2.556z"/>
  </clipPath>
  <clipPath id="clipPath32489">
   <path d="m119.62 397.46 0.04-5.742 6.283 2.456-1e-3 3.286z"/>
  </clipPath>
  <clipPath id="clipPath32469">
   <path d="m74.693 337.89h72v84h-72z"/>
  </clipPath>
  <clipPath id="clipPath32453">
   <path d="m98.09 420.56c-6.952-2.606-11.731-10.933-12.375-23.197h9.421c1.31 5.21 4.023 8.737 7.57 10.068 2.806 1.052 6.134 0.729 9.703-1.224v12.547c-3.319 1.816-6.496 2.677-9.429 2.677-1.721 0-3.358-0.297-4.89-0.871"/>
  </clipPath>
  <clipPath id="clipPath32441">
   <path d="m131.62 342.21c3.216 3.059 5.583 7.789 6.748 13.871l-6.748 6.016z"/>
  </clipPath>
  <clipPath id="clipPath32401">
   <path d="m85.72 397.46c-0.053-0.969-0.08-1.962-0.08-2.979 0-21.494 11.985-45.482 26.769-53.573 1.1-0.602 2.185-1.099 3.25-1.495h11.829c1.531 0.683 2.948 1.653 4.228 2.89v19.708l-1.749 1.559c-2.027-10.238-9.119-14.735-17.558-10.116-10.019 5.484-18.139 21.738-18.139 36.305 0 2.859 0.312 5.44 0.891 7.701z"/>
  </clipPath>
  <clipPath id="clipPath32389">
   <path d="m115.4 339.51c4.537-1.749 8.732-1.662 12.294 0z"/>
  </clipPath>
  <clipPath id="clipPath32365">
   <path d="m74.693 337.89h72v84h-72z"/>
  </clipPath>
  <clipPath id="clipPath32353">
   <path d="m102.75 407.45c-3.55-1.331-6.265-4.864-7.574-10.082h9.858c1.118 4.308 3.386 7.227 6.344 8.334 0.347 0.13 0.704 0.235 1.069 0.315l6e-3 0.209c-2.249 1.231-4.403 1.814-6.39 1.814-1.166 0-2.275-0.201-3.313-0.59"/>
  </clipPath>
  <clipPath id="clipPath32325">
   <path d="m95.197 397.46c-0.576-2.258-0.888-4.834-0.888-7.686 0-14.568 8.121-30.823 18.14-36.306 7.284-3.987 13.565-1.182 16.451 6.246l2e-3 3e-3c-2.584-1.493-5.826-1.45-9.346 0.478-8.448 4.623-15.295 18.323-15.295 30.605 0 2.48 0.28 4.714 0.795 6.66z"/>
  </clipPath>
  <clipPath id="clipPath32303">
   <path d="m102.75 407.45c-5.071-1.902-8.437-8.293-8.437-17.671 0-14.568 8.121-30.823 18.14-36.306 7.284-3.987 13.565-1.182 16.451 6.246l2e-3 3e-3c-2.584-1.493-5.826-1.45-9.346 0.478-8.448 4.623-15.295 18.323-15.295 30.605 0 7.905 2.835 13.295 7.113 14.897 0.347 0.13 0.704 0.235 1.069 0.315l6e-3 0.209c-2.249 1.23-4.403 1.815-6.389 1.815-1.167 0-2.276-0.202-3.314-0.591"/>
  </clipPath>
  <linearGradient id="linearGradient32315" x1=".39327" x2=".61798" gradientTransform="matrix(-21.177 58.182 27.498 10.009 105.07 343.29)" gradientUnits="userSpaceOnUse">
   <stop stop-color="#fff" offset="0"/>
   <stop stop-color="#bcbec0" offset=".5"/>
   <stop offset="1"/>
  </linearGradient>
  <clipPath id="clipPath32291">
   <path d="m74.693 337.89h72v84h-72z"/>
  </clipPath>
  <clipPath id="clipPath32279">
   <path d="m112.29 405.98c-0.308-0.075-0.611-0.167-0.906-0.278-2.956-1.111-5.225-4.029-6.343-8.338h14.525v7.307c-1.898 1.037-3.713 1.529-5.388 1.529-0.651 0-1.282-0.074-1.888-0.22"/>
  </clipPath>
  <clipPath id="clipPath32267">
   <path d="m131.62 362.16c1.237 1.629 2.17 3.79 2.707 6.402l-2.707 2.431z"/>
  </clipPath>
  <clipPath id="clipPath32247">
   <path d="m105.06 397.46c-0.514-1.945-0.794-4.178-0.794-6.658 0-12.28 6.846-25.981 15.294-30.604 4.955-2.713 9.359-1.695 12.152 2.092v8.619l-6.185 5.554c-0.791-3.267-3.163-4.654-5.968-3.12-3.453 1.889-6.251 7.491-6.251 12.512 0 3.231 1.159 5.434 2.906 6.089 0.967 0.363 2.114 0.252 3.345-0.422l1e-3 5.938z"/>
  </clipPath>
  <clipPath id="clipPath32235">
   <path d="m74.693 337.89h72v84h-72z"/>
  </clipPath>
  <clipPath id="clipPath32213">
   <path d="m116.22 391.95c-1.748-0.655-2.907-2.857-2.907-6.089 0-5.019 2.798-10.621 6.252-12.51 2.716-1.488 5.022-0.228 5.883 2.821-3.13 2.21-5.566 7.397-5.566 12.08 0 1.42 0.224 2.64 0.623 3.619l-0.94-0.343c-0.776 0.425-1.517 0.627-2.202 0.627-0.402 0-0.785-0.07-1.143-0.205"/>
  </clipPath>
  <linearGradient id="linearGradient32225" x1=".39327" x2=".61798" gradientTransform="matrix(-7.7193 21.209 11.408 4.1522 116.77 369)" gradientUnits="userSpaceOnUse">
   <stop stop-color="#949599" offset="0"/>
   <stop stop-color="#6d6e72" offset=".5"/>
   <stop offset="1"/>
  </linearGradient>
  <clipPath id="clipPath32201">
   <path d="m74.693 337.89h72v84h-72z"/>
  </clipPath>
  <clipPath id="clipPath32189">
   <path d="m106.27 421.08 0.48-0.103c-0.167 0.039-0.334 0.075-0.501 0.108zm6.098-2.375 0.034-0.015 13.497-2.556 0.046-0.012c-1.808 0.964-3.56 1.579-5.232 1.867l-13.963 2.988c1.818-0.424 3.67-1.234 5.618-2.272"/>
  </clipPath>
  <clipPath id="clipPath32177">
   <path d="m74.693 337.89h72v84h-72z"/>
  </clipPath>
  <clipPath id="clipPath32165">
   <path d="m138.08 355.98c-0.927-4.841-2.615-8.826-4.888-11.793l9.514 12.287c1.648 2.26 2.891 5.212 3.616 8.756z"/>
  </clipPath>
  <clipPath id="clipPath32153">
   <path d="m74.693 337.89h72v84h-72z"/>
  </clipPath>
 </defs>
 <g transform="translate(-112.52 -137.04)">
  <path d="m112.52 166.67h25.4v-29.633h-25.4z" fill="#fff"/>
  <g transform="matrix(.35278 0 0 -.35278 86.175 285.87)">
   <g clip-path="url(#clipPath32153)">
    <g transform="translate(133.19 344.18)">
     <path d="m0 0c2.272 2.966 3.961 6.951 4.888 11.792l8.242 9.251c-0.725-3.544-1.968-6.497-3.616-8.756z" fill="#818284"/>
    </g>
   </g>
  </g>
  <g transform="matrix(.35278 0 0 -.35278 86.175 285.87)">
   <g clip-path="url(#clipPath32165)">
    <g transform="translate(133.66 347.36)">
     <path d="m0 0v0m-0.05-3.174v0m1.612 1.158v0m1.713-0.554v0m1.159 1.814v0m0.051-1.612v0m-4.384 1.007v0m-0.806 3.175v0m-0.555-5.744v0m2.066 0.957v0m-1.915 1.411v0m1.311 4.686v0m0.352 0.655v0m1.865-5.24v0m1.36 4.031v0m-0.151 1.713v0m-4.233 0.05v0m-0.252 3.175v0m3.225-3.779v0m1.663 5.391v0m0.151-3.527v0m0.504-2.922v0m-1.26-2.57v0m0.756 0.705v0m0.554 6.803v0m-2.469 2.065v0m-0.554-5.038v0m-2.217 5.139v0m-0.504-3.829v0m4.737-7.407v0m-4.737 4.585v0m5.795 1.36v0m0.554-4.434v0m-0.151 5.745v0m-4.686 3.275v0m1.612-12.799v0m2.57 0.101v0m-3.225 4.081v0m0.101-1.058v0m1.058 2.872v0m-1.36 0.101v0m-0.655-0.856v0m2.368-0.504v0m-1.512 7.86v0m-1.209-3.628v0m1.31 1.663v0m-0.907 0.454v0m2.469-0.907v0m0.554 1.31v0m-1.108 0.302v0m2.469 0.554v0m4.333-8.616v0m0.605-3.376v0m0.957 1.36v0m1.713-0.554v0m-3.678 1.915v0m-0.302 2.469v0m-0.202-5.19v0m1.713 1.512v0m-1.914 0.302v0m1.31 4.686v0m0.352 0.655v0m1.865-5.24v0m1.36 4.031v0m-0.705 2.318v0m-3.679-0.555v0m-0.251 3.175v0m3.224-3.779v0m1.663 5.391v0m-0.604-9.019v0m-1.159 9.573v0m-0.555-5.038v0m-2.217 4.686v0m0-3.124v0m4.233-7.659v0m-4.737 4.585v0m0-2.519v0m-0.705 7.709v0m2.217 0.756v0m1.612-12.799v0m-0.655 4.182v0m0.101-1.058v0m0.605 2.721v0m-0.907 0.252v0m-0.655-0.856v0m2.368-0.504v0m-1.512 7.86v0m-1.209-3.628v0m1.31 1.663v0m-0.907 0.454v0m2.469-0.907v0m0.101 0.755v0m-0.655 0.857v0m-3.83 3.376v0m4.989-0.453v0m-1.814 0.403v0m-0.605 1.763v0m0 1.562v0m-1.814 1.159v0m1.613 0.051v0m2.62 0.655v0m0.302-0.655v0m-4.636-4.888v0m-2.469-0.302v0m5.745-0.555v0m-1.462 1.865v0m-0.907-1.713v0m-4.686 1.31v0m-0.655 0.352v0m5.241 1.865v0m-4.031 1.36v0m-2.318-0.705v0m0.554-3.679v0m-3.174-0.252v0m3.779 3.225v0m-5.392 1.663v0m3.527 0.151v0m2.923 0.504v0m2.57-1.26v0m-0.706 0.756v0m-6.802 0.555v0m2.973-3.024v0m-1.31-2.721v0m7.407 4.737v0m-4.586-4.737v0m2.52 0v0m-3.88 5.795v0m5.089 0.353v0m-9.523-19.249v0m3.124 19.299v0m-3.275-4.686v0m12.798 1.612v0m1.613-0.957v0m-1.159 2.318v0m-0.555 1.209v0m-4.081-3.225v0m1.058 0.101v0m-2.721 0.605v0m-0.252-0.907v0m0.857-0.655v0m0.504 2.368v0m-7.861-1.512v0m3.628-1.209v0m-1.663 1.31v0m-0.453-0.907v0m0.907 2.469v0m-1.31 0.554v0m-0.303-1.108v0m-0.554 2.469v0m8.415 1.864v0m4.988-0.453v0m-1.209 0.806v0m-3.124-0.756v0m-2.469-0.302v0m5.744-0.554v0m-2.368 0.151v0m-4.686 1.31v0m-1.209-0.806v0m-3.175-0.252v0m1.562-0.152v0m2.822 0v0m2.519 0v0m-7.81 0.454v0m3.175 0.806v0m3.325-19.45v0m-0.05 2.217v0m-0.101-3.779v0m1.512 3.124v0m-0.252-3.829v0m0.403 2.116v0m-1.915 4.082v0m2.016 1.562v0m-0.857 4.585v0m-0.202-6.047v0m0.605-1.209v0m-0.101 3.527v0m-1.562 1.008v0m1.562 0.302v0m-0.856 1.411v0m0-3.577v0" fill="none" stroke="#000" stroke-linecap="round" stroke-width=".403"/>
    </g>
   </g>
  </g>
  <g transform="matrix(.35278 0 0 -.35278 86.175 285.87)">
   <g clip-path="url(#clipPath32177)">
    <g transform="translate(133.19 344.18)">
     <path d="m0 0c2.272 2.966 3.961 6.951 4.888 11.792l8.242 9.251c-0.725-3.544-1.968-6.497-3.616-8.756z" fill="none" stroke="#000" stroke-linecap="round" stroke-linejoin="round" stroke-width=".402"/>
    </g>
   </g>
  </g>
  <g transform="matrix(.35278 0 0 -.35278 86.175 285.87)">
   <g clip-path="url(#clipPath32189)">
    <g transform="translate(123.95 420.84)">
     <path d="m0 0v0m0.655-0.403v0m-2.469-0.302v0m4.283 1.31v0m-0.605-1.31v0m-4.988 0.907v0m-0.655 0.352v0m-0.554-1.159v0m-3.175-0.252v0m-2.267 0.353v0m3.829-0.504v0m2.822 0v0m2.519 0v0m-7.709-0.705v0m-0.756 2.217v0m7.558 0.101v0m-3.728-0.353v0m-2.117 0.403v0m-7.155-0.353v0m3.679 0.555v0m0.201-3.88v0m-4.837-0.907v0m-0.151 3.527v0m-0.555-2.016v0m2.469-2.066v0m0.555 5.039v0m2.217-5.139v0m0.504 3.829v0m-5.795 1.461v0m-0.403-1.31v0m4.686-3.275v0m-0.957 0.202v0m1.209 3.628v0m-1.26-0.958v0m0.857-1.159v0m-2.469 0.907v0m-0.554-1.31v0m1.259 0.051v0m-2.62-0.907v0m-1.26 4.081v0m0.252-3.174v0m-0.352-2.268v0m0.504 3.83v0m0.05-2.772v0m12.899 1.814v0m3.679-2.973v0m2.872 2.57v0m-3.729-1.814v0m2.419-0.907v0m-3.124 1.512v0m0.201 0.957v0m3.628-1.209v0m-1.663 1.31v0m-0.453-0.907v0m-4.636-1.461v0m-1.008 1.562v0m-1.713 0.554v0m-1.159-1.814v0m-0.05 1.612v0m4.887-1.713v0m-1.007 1.814v0m1.713-0.907v0m-3.527-0.1v0m-1.008-1.563v0m-0.302 1.563v0m-1.411-0.857v0m3.577 0v0" fill="none" stroke="#000" stroke-linecap="round" stroke-width=".403"/>
    </g>
   </g>
  </g>
  <g transform="matrix(.35278 0 0 -.35278 86.175 285.87)">
   <g clip-path="url(#clipPath32201)">
    <g transform="translate(125.9 416.13)">
     <path d="m0 0-13.497 2.556-0.034 0.016c-2.127 1.134-4.141 1.995-6.119 2.379l0.021-4e-3 14.443-3.091c1.672-0.289 3.424-0.903 5.232-1.867" fill="none" stroke="#000" stroke-linecap="round" stroke-linejoin="round" stroke-width=".402"/>
    </g>
   </g>
  </g>
  <g transform="matrix(.35278 0 0 -.35278 86.175 285.87)">
   <g clip-path="url(#clipPath32213)">
    <path d="m116.22 391.95c-1.748-0.655-2.907-2.857-2.907-6.089 0-5.019 2.798-10.621 6.252-12.51 2.716-1.488 5.022-0.228 5.883 2.821-3.13 2.21-5.566 7.397-5.566 12.08 0 1.42 0.224 2.64 0.623 3.619l-0.94-0.343c-0.776 0.425-1.517 0.627-2.202 0.627-0.402 0-0.785-0.07-1.143-0.205" fill="url(#linearGradient32225)"/>
   </g>
  </g>
  <g transform="matrix(.35278 0 0 -.35278 86.175 285.87)">
   <g clip-path="url(#clipPath32235)">
    <g transform="translate(119.56 391.52)">
     <path d="m0 0c-1.232 0.674-2.378 0.785-3.345 0.422-1.748-0.655-2.907-2.858-2.907-6.09 0-5.021 2.798-10.622 6.252-12.511 2.804-1.535 5.177-0.148 5.968 3.12l8.795-7.899c-1.75-8.516-7.696-12.235-14.763-8.367-8.448 4.624-15.293 18.324-15.293 30.605 0 7.906 2.836 13.292 7.112 14.898 0.295 0.111 0.597 0.203 0.906 0.278 2.162 0.521 4.64 0.133 7.275-1.309z" fill="#ccc"/>
    </g>
   </g>
  </g>
  <g transform="matrix(.35278 0 0 -.35278 86.175 285.87)">
   <g clip-path="url(#clipPath32247)">
    <g transform="translate(131.56 361.57)">
     <path d="m0 0v0m-1.36-0.202v0m0.503 1.26v0m0.756 1.008v0m-7.508-0.756v0m4.989-0.453v0m1.864 1.763v0m-3.073-1.008v0m-1.764 1.26v0m4.484 1.26v0m1.159-0.857v0m-0.856 2.52v0m0.806 0.403v0m-5.039-1.613v0m-1.814 1.159v0m1.613 0.051v0m2.62 0.655v0m0.302-0.655v0m-4.636-4.888v0m-2.469-0.302v0m5.745-0.555v0m-1.462 1.865v0m-0.604-1.31v0m-4.989 0.907v0m-0.655 0.352v0m5.241 1.865v0m-4.031 1.36v0m-2.318-0.705v0m0.554-3.679v0m-3.174-0.251v0m3.779 3.224v0m-5.392 1.663v0m3.527 0.151v0m2.923 0.504v0m2.57-1.26v0m-0.706 0.756v0m-6.802 0.555v0m-2.066-2.469v0m5.039-0.555v0m-5.14-2.217v0m3.83-0.504v0m7.407 4.737v0m-4.586-4.737v0m2.52 0v0m-3.88 5.795v0m5.089 0.353v0m-8.919-6.853v0m2.52 6.903v0m-3.275-4.686v0m14.914 2.217v0m-2.116-0.605v0m1.613-0.957v0m-1.159 2.318v0m-0.555 1.209v0m-4.081-3.225v0m1.058 0.101v0m-2.721 0.605v0m-0.252-0.907v0m0.857-0.655v0m0.504 2.368v0m-7.861-1.512v0m3.628-1.209v0m-1.26 1.26v0m-0.856-0.857v0m0.907 2.469v0m-1.31 0.554v0m-0.303-1.108v0m-0.554 2.469v0m-2.822 0.151v0m0.706-1.814v0m-0.907-1.31v0m-0.353-0.655v0m-3.225 1.209v0m0.706-2.318v0m3.678 0.555v0m0.202-3.88v0m-3.175 4.484v0m-1.663-5.391v0m-0.151 3.527v0m-0.504 2.923v0m1.26 2.569v0m-0.756-0.705v0m-0.554-6.803v0m2.469-2.065v0m0.554 5.038v0m2.217-5.139v0m0.504 3.829v0m0 2.822v0m0 2.519v0m-5.795-3.879v0m-0.403-1.311v0m4.686-3.275v0m-0.957 8.617v0m-0.705-1.663v0m0.907-0.252v0m0.655 0.856v0m-2.369 0.504v0m1.512-7.86v0m1.209 3.628v0m-1.259-0.958v0m0.856-1.159v0m-2.469 0.907v0m-0.554-1.31v0m1.26 0.051v0m-2.62-0.907v0m-1.865 8.415v0m0.403 0.655v0m0.303-2.469v0m-0.907-1.311v0m-0.353-0.655v0m1.159-0.554v0m0.252-3.174v0m-2.57 2.872v0m2.217-5.14v0m0.504 3.83v0m0 2.821v0m0 2.52v0m0.05-8.113v0m-1.562-0.352v0m-0.957 8.616v0m-0.101 1.058v0m-0.604-2.721v0m0.906-0.252v0m0.656 0.857v0m-0.857-7.357v0m1.209 3.628v0m-1.31-1.663v0m0.907-0.453v0m23.985-2.368v0m0.907 1.612v0m-2.872-0.353v0m-7.407 1.562v0m3.678-2.973v0m2.872 2.57v0m-3.729-1.814v0m2.419-0.907v0m2.822 0v0m2.519 0v0m-8.465 1.512v0m6.702 0.756v0m2.469-1.361v0m-8.969 1.562v0m3.627-1.209v0m-1.662 1.31v0m-0.454-0.907v0m-4.636-1.461v0m-1.007 1.562v0m-1.714 0.554v0m-1.158-1.814v0m-0.051 1.613v0m4.888-1.714v0m-1.008 1.814v0m1.713-0.907v0m-3.527-0.1v0m-1.31 0v0m-1.411-0.857v0m3.578 0v0m13.453-0.151v0m0.857 1.763v0m-25.95 8.768v0m25.084 28.694v0m0.201-1.36v0m-1.259 0.504v0m-1.008 0.756v0m0.756-7.508v0m0.453 4.988v0m-1.763 1.865v0m1.36-3.679v0m-1.612-1.159v0m-1.26 4.485v0m0.857 1.159v0m-2.52-0.857v0m-0.403 0.806v0m1.613-5.038v0m-1.159-1.814v0m-0.051 1.612v0m-0.655 2.62v0m1.21 0.504v0m3.829-4.132v0m0.806-3.174v0m0.554 5.744v0m-2.065-0.957v0m1.914-1.411v0m-1.31-4.686v0m-0.353-0.655v0m-1.864 5.24v0m-1.36-4.031v0m0.151-1.713v0m4.232-0.051v0m0.252-3.174v0m-3.224 3.779v0m-1.663-5.391v0m-0.151 3.527v0m-0.504 2.922v0m1.259 2.57v0m-0.755-0.705v0m-0.555-6.803v0m2.469-2.066v0m0.555 5.039v0m2.217-5.14v0" fill="none" stroke="#000" stroke-linecap="round" stroke-width=".403"/>
    </g>
    <g transform="translate(130.9 383.72)">
     <path d="m0 0v0m-4.736 7.407v0m4.736-4.585v0m0.504 2.469v0m-6.299-3.83v0m-0.554 4.434v0m0.151-5.744v0m4.686-3.275v0m-2.217 14.915v0m0.605-2.117v0m0.957 1.613v0m-2.318-1.159v0m-1.209-0.554v0m3.225-4.082v0m-0.101 1.058v0m-1.058-2.872v0m1.361-0.1v0m0.655 0.856v0m-2.369 0.504v0m1.512-7.86v0m1.209 3.627v0m-1.31-1.662v0m0.907-0.454v0m-2.469 0.907v0m-0.554-1.31v0m1.108-0.302v0m-2.469-0.555v0m-15.116 16.225v0m0.202-1.36v0m-1.26 0.504v0m-1.008 0.756v0m0.756-7.508v0m0.453 4.988v0m-1.763 1.865v0m1.008-3.074v0m-1.26-1.764v0m-1.26 4.485v0m0.857 1.159v0m-2.52-0.857v0m-0.403 0.806v0m1.613-5.038v0m-1.159-1.814v0m-0.051 1.612v0m0 2.923v0m4.888-4.636v0m0.302-2.469v0m0.555 5.744v0m-1.865-1.461v0m1.31-0.605v0m-0.907-4.988v0m-0.352-0.655v0m-1.865 5.24v0m-1.36-4.031v0m0.705-2.318v0m3.679 0.554v0m0.252-3.174v0m-3.225 3.779v0m-1.663-5.391v0m-0.151 3.527v0m-0.504 2.922v0m1.26 2.57v0m-0.756-0.705v0m-0.554-6.803v0m2.469-2.066v0m0.554 5.039v0m2.217-5.139v0m0.504 3.829v0m-4.737 7.407v0m4.737-4.585v0m0 2.519v0m-5.795-3.88v0m6.5-3.829v0m-2.217-0.756v0m-2.217 14.915v0m0.605-2.117v0m0.957 1.613v0m-2.318-1.159v0m-1.209-0.554v0m3.225-4.082v0m-0.101 1.058v0m-0.605-2.721v0m0.907-0.251v0m0.655 0.856v0m-2.368 0.504v0m1.512-7.86v0m1.209 3.627v0m-1.26-1.259v0m0.857-0.857v0m-2.469 0.907v0m-0.554-1.31v0m1.108-0.302v0m-2.469-0.555v0m18.442 16.225v0m0.202-1.36v0m-1.26 0.504v0m-1.008 0.756v0m0.756-7.508v0m0.454 4.988v0m-1.764 1.865v0m0.705-3.477v0m-0.957-1.361v0m-1.26 4.485v0m0.857 1.159v0m-2.519-0.857v0m-0.404 0.806v0m1.613-5.038v0m-1.159-1.814v0m-0.05 1.612v0m-0.655 2.62v0m0.655 0.303v0m4.887-4.636v0m0.303-2.469v0m0.201 5.19v0m-1.713-1.512v0m1.915-0.302v0m-1.31-4.686v0m-0.353-0.655v0m-1.865 5.24v0m-1.36-4.031v0m0.705-2.318v0m3.679 0.554v0m0.252-3.174v0m-3.225 3.779v0m-1.663-5.391v0m-0.151 3.527v0m-0.504 2.922v0m1.26 2.57v0m-0.756-0.705v0m-0.554-6.803v0m2.469-2.066v0m0.554 5.039v0m2.217-4.686v0m0 3.124v0m-4.233 7.659v0m4.737-4.585v0m0 2.519v0m-5.795-3.88v0m-0.352 5.089v0m6.852-8.918v0m-6.903 2.519v0m4.686-3.275v0m-2.217 14.915v0m0.605-2.117v0m0.957 1.613v0m-2.318-1.159v0m-1.209-0.554v0m3.225-4.082v0m-0.101 1.058v0m-0.605-2.721v0m0.907-0.251v0m0.655 0.856v0m-2.368 0.504v0m1.512-7.86v0m1.209 3.627v0m-1.31-1.662v0m0.907-0.454v0m-2.469 0.907v0m-0.101-0.756v0m0.655-0.856v0m-2.469-0.555v0m-1.31-1.511v0m1.361 0.201v0m-0.504-1.259v0m-0.756-1.008v0m7.508 0.756v0m-4.989 0.453v0m-1.864-1.763v0m3.678 1.36v0m0.605-1.763v0m-3.93-1.109v0m-1.159 0.857v0m0.856-2.52v0m-0.806-0.403v0m5.039 1.613v0m1.814-1.159v0m-1.612-0.051v0m-2.621-0.655v0m-0.302 0.655v0m4.636 4.888v0m2.469 0.302v0m-5.744 0.554v0m1.461-1.864v0m0.907 1.713v0m4.686-1.31v0m0.655-0.353v0m-5.24-1.864v0m4.031-1.36v0m2.317 0.705v0m-0.554 3.678v0m3.175 0.252v0m-3.78-3.225v0m5.392-1.662v0m-3.527-0.151v0m-2.923-0.504v0m-2.569 1.259v0m0.705-0.755v0m6.802-0.555v0m2.066 2.469v0m-5.039 0.555v0m4.989 3.728v0" fill="none" stroke="#000" stroke-linecap="round" stroke-width=".403"/>
    </g>
    <g transform="translate(127.72 379.23)">
     <path d="m0 0v0m-7.407-4.736v0m4.585 4.736v0m-2.519 0v0m3.88-5.795v0m-5.089-0.352v0m9.523 19.248v0m-3.124-19.299v0m3.275 4.686v0m-14.915-2.217v0m2.117 0.605v0m-1.613 0.957v0m1.159-2.318v0m0.554-1.209v0m4.082 3.225v0m-1.058-0.101v0m2.721-0.604v0m0.251 0.907v0m-0.856 0.655v0m-0.504-2.369v0m7.861 1.512v0m-3.628 1.209v0m1.662-1.31v0m0.454 0.907v0m-0.907-2.469v0m1.31-0.554v0m0.302 1.108v0m0.555-2.469v0m-16.024-0.554v0m1.361 0.202v0m-0.504-1.26v0m-0.756-1.008v0m7.508 0.756v0m-4.989 0.454v0m-1.864-1.764v0m3.074 0.957v0m1.763-1.209v0m-5.643-0.403v0m7.004 2.368v0m2.469 0.302v0m-5.744 0.555v0m1.461-1.865v0m0.907 1.714v0m4.686-1.31v0m0.655-0.353v0m-5.24-1.865v0m5.794 3.024v0m3.175 0.252v0m-3.78-3.225v0m5.946 0.101v0m-5.039 0.554v0m5.14 2.217v0m-3.829 0.504v0m-2.822 0v0m-2.52 0v0m7.811-0.454v0m0.655-1.058v0m-12.799-1.612v0m-1.612 0.957v0m5.794-0.302v0m-1.058-0.101v0m2.721-0.605v0m0.252 0.907v0m-0.857 0.655v0m7.357-0.856v0m-3.628 1.209v0m1.663-1.31v0m0.453 0.907v0m0.706-1.915v0m-24.993 10.179v0m1.311-0.907v0m0.655-0.353v0m-1.21-3.225v0m2.318 0.706v0m-0.554 3.678v0m3.88 0.201v0m-4.485-3.174v0m5.392-1.663v0m-3.527-0.151v0m-2.923-0.504v0m-1.864 0.504v0m6.802-0.554v0m2.066 2.469v0m-5.039 0.554v0m5.14 2.217v0m-3.83 0.504v0m-2.821 0v0m-2.52 0v0m3.88-5.795v0m1.31-0.403v0m3.275 4.686v0m-8.616-0.957v0m1.663-0.705v0m0.252 0.907v0m-0.857 0.655v0m-0.504-2.369v0m7.861 1.512v0m-3.628 1.209v0m0.957-1.259v0m1.159 0.856v0m-0.907-2.469v0m1.31-0.554v0m-0.05 1.26v0m0.907-2.621v0m-8.415-1.864v0m1.814 0.705v0m1.31-0.906v0m0.655-0.353v0m0.554 1.159v0m3.175 0.252v0m-3.779-3.225v0m5.945 0.101v0m-5.038 0.554v0m5.139 2.217v0m-3.829 0.504v0m-2.822 0v0m-2.519 0v0m8.112 0.05v0m0.353-1.562v0m-8.616-0.957v0m1.662-0.706v0m0.252 0.907v0m-0.856 0.655v0m7.356-0.856v0m-3.628 1.209v0m1.663-1.31v0m0.454 0.907v0m0.705-1.915v0m1.663 25.9v0m-1.613 0.907v0m0.353-2.872v0m-1.562-7.407v0m2.973 3.678v0m-2.57 2.872v0m1.814-3.729v0m0.907 2.419v0m0 2.822v0m0 2.519v0m0.706-7.709v0m-2.217-0.756v0m-0.756 6.701v0m1.36 2.469v0m-1.562-8.969v0m1.21 3.628v0m-1.311-1.663v0m0.907-0.453v0m1.462-4.636v0m-1.562-1.007v0m-0.555-1.714v0m1.814-1.159v0m-1.612-0.05v0m1.713 4.888v0m-1.814-1.008v0m0.907 1.713v0m0.101-3.527v0m1.562-1.008v0m0.705-0.756v0m-2.267 0.454v0m2.066 4.736v0m-1.21-6.147v0m1.059 3.678v0m-1.059-0.1v0m1.663-0.907v0m8.969 13.655v0m-0.907-1.31v0m-0.352-0.655v0m1.159-0.555v0m0.252-3.174v0m0.05-2.217v0m0.101 3.779v0m0 2.822v0m0 2.519v0m-1.512-8.465v0m-0.101 7.558v0m0.353-3.729v0m-0.403-2.116v0m1.915-4.081v0m-2.016-1.562v0m0.857-4.586v0m0.201 6.047v0m-0.604 1.209v0m0.1-3.527v0m1.562-1.008v0m-1.562-0.302v0m0.857-1.411v0m0 3.578v0m-9.322 9.624v0m-0.353-2.268v0m0.504 3.83v0m0.706-2.369v0m-1.965 3.074v0m1.007-5.19v0m0.958-2.57v0m16.628-19.399v0m-1.814 28.016v0m-18.543 0v0m20.306-26.051v0" fill="none" stroke="#000" stroke-linecap="round" stroke-width=".403"/>
    </g>
   </g>
  </g>
  <g transform="matrix(.35278 0 0 -.35278 86.175 285.87)">
   <g clip-path="url(#clipPath32267)">
    <g transform="translate(133.1 371.31)">
     <path d="m0 0v0m-0.302-1.663v0m-0.807-0.403v0m2.621-0.252v0m-0.303 0.655v0m-0.554 1.764v0m-1.099-8.589v0m1.512 0.705v0m-0.152-1.058v0m-0.302-1.109v0m-0.554 2.469v0m0.907 1.008v0m-2.167 3.124v0m-0.101-2.771v0m1.361-0.051v0m-0.655 1.059v0m0.201 0.957v0m1.965 0.101v0m-0.453-0.907v0m-0.705 1.914v0m-1.814-1.007v0m0.05-1.965v0" fill="none" stroke="#000" stroke-linecap="round" stroke-width=".403"/>
    </g>
   </g>
  </g>
  <g transform="matrix(.35278 0 0 -.35278 86.175 285.87)">
   <g clip-path="url(#clipPath32279)">
    <g transform="translate(120.18 399.92)">
     <path d="m0 0v0m-0.504 3.074v0m-0.05-4.233v0m-3.175-0.252v0m3.779 3.225v0m-5.391 1.663v0m3.527 0.151v0m-2.015 0.554v0m-2.066-2.469v0m5.038-0.554v0m-5.139-2.217v0m3.829-0.504v0m1.462 5.795v0m-1.311 0.403v0m-3.275-4.686v0m0.202 0.957v0m3.628-1.209v0m-1.663 1.31v0m-0.454-0.907v0m0.907 2.469v0m-1.31 0.554v0m-0.302-1.108v0m-0.554 2.469v0m0.302 2.62v0m-2.419-1.361v0m-0.907-1.31v0m-0.352-0.655v0m-3.225 1.209v0m0.705-2.317v0m3.679 0.554v0m0.252-3.175v0m-3.225 3.779v0m-1.663-5.391v0m-0.151 3.527v0m-0.504 2.923v0m0.504 1.864v0m-0.554-6.802v0m2.469-2.066v0m0.554 5.039v0m3.729-4.989v0m-1.008 3.678v0m0 2.822v0m0 2.52v0m-5.795-3.88v0m-0.403-1.31v0m4.686-3.276v0m-0.957 8.617v0m-0.706-1.663v0m0.907-0.252v0m0.655 0.857v0m-2.368 0.503v0m1.512-7.86v0m1.209 3.628v0m-1.31-1.663v0m0.907-0.453v0m-2.469 0.907v0m-0.554-1.311v0m1.108-0.302v0m-2.469-0.554v0m-1.159 6.601v0m-0.907-1.31v0m-0.352-0.655v0m1.159-0.555v0m0.251-3.174v0m-0.352-2.268v0m0.504 3.83v0m0 2.822v0m0 2.519v0m-0.454-7.81v0m-1.058-0.655v0m-0.756 6.701v0m0.655 0.857v0m0.353-3.729v0m-0.403-2.116v0m14.36 7.054v0m-4.585-0.856v0m3.729 0.302v0m-1.008-1.562v0m-0.302 1.562v0m-1.411-0.857v0m3.577 0v0m-13.302-8.112v0" fill="none" stroke="#000" stroke-linecap="round" stroke-width=".403"/>
    </g>
   </g>
  </g>
  <g transform="matrix(.35278 0 0 -.35278 86.175 285.87)">
   <g clip-path="url(#clipPath32291)">
    <g transform="translate(119.56 391.52)">
     <path d="m0 0c-1.232 0.674-2.378 0.785-3.345 0.422-1.748-0.655-2.907-2.858-2.907-6.09 0-5.021 2.798-10.622 6.252-12.511 2.804-1.535 5.177-0.148 5.968 3.12l8.795-7.899c-1.75-8.516-7.696-12.235-14.763-8.367-8.448 4.624-15.293 18.324-15.293 30.605 0 7.906 2.836 13.292 7.112 14.898 0.295 0.111 0.597 0.203 0.906 0.278 2.162 0.521 4.64 0.133 7.275-1.309z" fill="none" stroke="#000" stroke-linecap="round" stroke-linejoin="round" stroke-width=".402"/>
    </g>
   </g>
  </g>
  <g transform="matrix(.35278 0 0 -.35278 86.175 285.87)">
   <g clip-path="url(#clipPath32303)">
    <path d="m102.75 407.45c-5.071-1.902-8.437-8.293-8.437-17.671 0-14.568 8.121-30.823 18.14-36.306 7.284-3.987 13.565-1.182 16.451 6.246l2e-3 3e-3c-2.584-1.493-5.826-1.45-9.346 0.478-8.448 4.623-15.295 18.323-15.295 30.605 0 7.905 2.835 13.295 7.113 14.897 0.347 0.13 0.704 0.235 1.069 0.315l6e-3 0.209c-2.249 1.23-4.403 1.815-6.389 1.815-1.167 0-2.276-0.202-3.314-0.591" fill="url(#linearGradient32315)"/>
   </g>
  </g>
  <g transform="matrix(.35278 0 0 -.35278 86.175 285.87)">
   <g clip-path="url(#clipPath32325)">
    <g transform="translate(93.84 379.98)">
     <path d="m0 0v0m0.554 0.655v0m0.403 4.283v0m1.109-3.93v0m-0.857-1.159v0m2.52 0.856v0m0.403-0.806v0m-1.613 5.039v0m1.159 1.814v0m0.051-1.612v0m0.655-2.621v0m-0.655-0.302v0m-3.88 2.822v0m-0.051 6.248v0m1.865-5.24v0m1.36 4.031v0m-0.705 2.317v0m-0.706-1.158v0m1.663 5.391v0m0.151-3.527v0m0.504-2.923v0m-1.259-2.569v0m0.755 0.705v0m0.555 6.802v0m-2.469 2.066v0m-0.555-5.038v0m2.016-6.097v0m1.058 5.945v0m0.353-5.089v0m0.05 6.399v0m-4.686 3.276v0m2.217-14.915v0m-0.605 2.116v0m-0.957-1.612v0m2.318 1.159v0m1.209 0.554v0m-3.225 4.081v0m0.101-1.058v0m0.605 2.721v0m-0.907 0.252v0m-0.655-0.857v0m2.368-0.503v0m-1.512 7.86v0m0.101-1.965v0m-0.907 0.453v0m2.469-0.907v0m0.555 1.311v0m-1.109 0.302v0m2.469 0.554v0m0.554-16.023v0m-0.201 1.36v0m1.259-0.504v0m1.008-0.755v0m-0.756 7.507v0m-0.453-4.988v0m1.763-1.864v0m-0.957 3.073v0m1.209 1.764v0m0.403-5.644v0m-2.368 7.004v0m-0.302 2.469v0m-0.554-5.744v0m1.864 1.461v0m-1.713 0.907v0m1.31 4.686v0m0.353 0.655v0m1.864-5.24v0m-3.023 5.795v0m-0.252 3.174v0m3.225-3.779v0m-0.101 5.946v0m-0.554-5.039v0m-2.218 5.14v0m-0.503-3.83v0m0-2.822v0m0-2.519v0m0.453 7.81v0m1.058 0.655v0m1.613-12.798v0m-0.958-1.613v0m0.303 5.795v0m0.1-1.058v0m0.605 2.721v0m-0.907 0.252v0m-0.655-0.857v0m0.857 7.357v0m-1.21-3.628v0m1.31 1.663v0m-0.907 0.453v0m1.915 0.705v0m-8.919-23.027v0m3.225-1.209v0m-0.705 2.318v0m-0.706-1.159v0m1.663 5.391v0m0.151-3.527v0m0.504-2.922v0m-1.259-2.57v0m0.755 0.705v0m0.555 6.803v0m-2.469 2.066v0m-0.555-5.039v0m3.074-0.151v0m0.403 1.31v0m-4.686 3.275v0m0.957-8.616v0m0.706 1.662v0m-0.907 0.252v0m-0.655-0.856v0m2.368-0.504v0m-1.512 7.86v0m0.051-2.67v0m-0.857 1.159v0m2.469-0.907v0m0.555 1.31v0m-1.26-0.051v0m2.62 0.907v0m1.864-8.414v0m-0.403-0.655v0m-0.302 2.469v0m0.907 1.31v0m0.353 0.655v0m-1.159 0.554v0m-0.252 3.174v0m3.225-3.779v0m-0.101 5.946v0m-0.554-5.039v0m-2.218 5.14v0m-0.503-3.83v0m0-2.821v0m0-2.52v0m-0.051 8.113v0m1.562 0.352v0m0.958-8.616v0m0.1-1.058v0m0.605 2.721v0m-0.907 0.252v0m-0.655-0.857v0m0.857 7.357v0m-1.21-3.628v0m1.31 1.663v0m-0.907 0.453v0m1.915 0.706v0m-1.008 20.356v0m0.706-29.225v0m-2.772 0.101v0m0.101 29.074v0m-1.855-46.38v0m2.52 1.108v0m-3.679-0.554v0m-0.252 3.175v0m3.225-3.78v0m1.663 5.392v0m0.151-3.527v0m0.555 2.015v0m-2.47 2.066v0m-0.554-5.039v0m-2.217 5.14v0m-0.504-3.829v0m5.795-1.462v0m-6.5 3.83v0m6.903-2.52v0m-4.686 3.276v0m0.957-0.202v0m-1.209-3.628v0m1.26 1.26v0m-0.857 0.856v0m2.469-0.907v0m0.554 1.311v0m-1.108 0.302v0m2.469 0.554v0m0.151 2.822v0m-1.814-0.706v0m-1.31 0.907v0m-0.655 0.353v0m1.209 3.225v0m-2.318-0.705v0m0.555-3.679v0m-3.88-0.201v0m4.484 3.174v0m-1.864 1.814v0m2.922 0.504v0m2.57-1.26v0m-0.705 0.756v0m-6.803 0.554v0m2.973-3.023v0m-1.31-2.721v0m2.822 0v0m2.519 0v0m-3.88 5.795v0m-1.31 0.403v0m5.342-3.729v0m-1.663 0.706v0m-0.252-0.907v0m0.856-0.656v0m0.504 2.369v0m-7.86-1.512v0m3.628-1.209v0m-0.958 1.26v0m-1.159-0.857v0" fill="none" stroke="#000" stroke-linecap="round" stroke-width=".403"/>
    </g>
    <g transform="translate(95.916 361.92)">
     <path d="m0 0v0m-1.31 0.554v0m0.05-1.259v0m-0.907 2.62v0m8.415 1.864v0m0.655-0.403v0m-2.469-0.302v0m-1.31 0.907v0m-0.655 0.352v0m-0.554-1.159v0m-3.175-0.251v0m3.779 3.224v0m-0.907-0.655v0m-1.31-2.721v0m2.822 0v0m2.519 0v0m-8.112-0.05v0m8.264 2.519v0m1.058 0.101v0m-2.721 0.605v0m-0.252-0.907v0m0.856-0.655v0m-3.728-0.353v0m-1.663 1.31v0m-0.454-0.907v0m-0.705 1.915v0m1.159-16.527v0m-1.361 1.814v0m0.555 1.713v0m-0.202 1.209v0m0.101-3.88v0m-0.907-1.713v0m9.523 17.082v0m-0.1-2.772v0m21.085-2.308v0m4.989-0.454v0m-1.21 0.756v0m-1.763 1.26v0m0.554 1.713v0m-1.814 1.159v0m1.613 0.05v0m2.62 0.655v0m0.302-0.655v0m-4.636-4.887v0m-2.469-0.303v0m5.745-0.554v0m-1.462 1.864v0m-0.604-1.31v0m-4.989 0.907v0m-0.655 0.353v0m5.241 1.864v0m-4.031 1.361v0m-2.318-0.706v0m0.554-3.678v0m-3.174-0.252v0m3.779 3.225v0m-5.392 1.663v0m3.527 0.151v0m2.923 0.504v0m2.57-1.26v0m-0.706 0.756v0m-6.802 0.554v0m-2.066-2.469v0m5.039-0.554v0m-5.14-2.217v0m3.83-0.504v0m7.407 4.737v0m-4.586-4.737v0m2.52 0v0m-3.88 5.795v0m5.089 0.352v0m-8.919-6.852v0m2.52 6.903v0m-3.276-4.686v0m12.799 1.612v0m1.612-0.957v0m-1.158 2.318v0m-0.555 1.209v0m-4.081-3.225v0m1.058 0.101v0m-2.721 0.605v0m-0.252-0.907v0m0.857-0.656v0m0.504 2.369v0m-7.861-1.512v0m3.628-1.209v0m-1.26 1.259v0m-0.856-0.856v0m0.907 2.469v0m-1.31 0.554v0m-0.303-1.108v0m-0.554 2.469v0m11.992-16.528v0m-1.36 0.958v0m0.554 1.713v0m-1.814 1.159v0m1.613 0.05v0m2.62 0.655v0m0.302-0.655v0m-3.426-3.678v0m-4.989-0.605v0m-0.655 0.353v0m5.241 1.864v0m-4.031 1.361v0m-2.318-0.706v0m1.159-0.705v0m-5.392 1.663v0m3.527 0.151v0m2.923 0.504v0m2.57-1.26v0m-0.706 0.756v0m-6.802 0.554v0m-2.066-2.469v0m5.039-0.554v0m6.097 2.015v0m-5.946 1.059v0m5.089 0.352v0m-6.399 0.051v0m-3.276-4.686v0m12.799 1.612v0m1.612-0.957v0m-1.158 2.317v0m-0.555 1.21v0m-4.081-3.225v0m1.058 0.101v0m-2.721 0.604v0m-0.252-0.907v0m0.857-0.655v0m0.504 2.369v0m-7.861-1.512v0m3.628-1.209v0m-1.663 1.31v0m-0.453-0.907v0m0.907 2.469v0m-0.756 0.101v0m-0.857-0.656v0m-0.554 2.47v0m-1.512 1.31v0m0.202-1.361v0m-1.26 0.504v0m-1.008 0.756v0m1.21-2.52v0m-1.764 1.865v0m1.361-3.679v0m-1.764-0.604v0m-1.108 3.93v0m0.856 1.159v0m-2.519-0.857v0m-0.403 0.807v0m1.612-5.039v0m-1.209-0.202v0m-0.655 2.62v0m0.655 0.303v0m5.744-1.361v0m-1.864-1.461v0m1.713-0.907v0m-3.527-0.101v0m-1.31 0v0m1.007 4.384v0m0.605-2.116v0m0.957 1.612v0m-2.318-1.159v0m-1.209-0.554v0m-0.907 3.779v0m0.202-1.36v0m-1.26 0.503v0m-1.008 0.756v0m1.21-2.519v0m-1.764 1.864v0m0.957-3.073v0m-1.209-1.764v0m-0.403 5.643v0m3.225-3.728v0m-1.865-1.462v0m1.714-0.907v0m-3.225 2.167v0m0.957 1.613v0m8.062 13.403v0m0.706-1.814v0m-0.907-1.31v0m-0.353-0.655v0m-3.225 1.209v0m0.706-2.318v0m3.678 0.554v0m0.201-3.879v0m-3.174 4.484v0m-1.663-5.391v0m-0.151 3.527v0m-0.504 2.922v0m1.26 2.57v0m-0.756-0.705v0m-0.554-6.803v0m2.469-2.066v0m0.554 5.039v0m2.217-5.139v0m0.504 3.829v0m0 2.822v0m0 2.519v0m-5.795-3.88v0m-0.403-1.31v0" fill="none" stroke="#000" stroke-linecap="round" stroke-width=".403"/>
    </g>
    <g transform="translate(112.01 359)">
     <path d="m0 0v0m-0.957 8.616v0m-0.706-1.662v0m0.907-0.252v0m0.655 0.856v0m-2.368 0.504v0m1.512-7.86v0m1.209 3.627v0m-1.26-0.957v0m0.857-1.159v0m-2.469 0.907v0m-0.554-1.31v0m1.259 0.05v0m-2.62-0.907v0m-1.864 8.415v0m0.403 0.655v0m0.302-2.469v0m-0.907-1.31v0m-0.353-0.655v0m1.159-0.554v0m0.252-3.175v0m-3.225 3.78v0m0.101-5.946v0m0.555 5.039v0m2.217-5.14v0m0.503 3.829v0m0 2.822v0m0 2.52v0m0.051-8.113v0m-1.562-0.353v0m-0.958 8.617v0m-0.1 1.058v0m-0.605-2.721v0m0.907-0.252v0m0.655 0.857v0m-0.857-7.357v0m1.21 3.628v0m-1.31-1.663v0m0.907-0.453v0m-1.915-0.706v0m25.899-1.663v0m-1.965 1.26v0m-7.407 1.562v0m3.679-2.973v0m2.872 2.57v0m-3.729-1.814v0m2.419-0.907v0m2.821 0v0m-5.19-0.705v0m-0.756 2.217v0m6.702 0.756v0m-6.5 0.201v0m3.628-1.209v0m-1.663 1.31v0m-0.453-0.907v0m-4.636-1.461v0m-1.008 1.562v0m-1.713 0.554v0m-1.159-1.814v0m-0.05 1.612v0m4.887-1.713v0m-1.007 1.814v0m1.713-0.907v0m-3.527-0.101v0m-1.008-1.562v0m-0.756-0.705v0m0.454 2.267v0m4.736-2.066v0m-6.147 1.21v0m3.678-1.058v0m-0.101 1.058v0m-0.907-1.663v0m12.093 0.403v0m-2.267 0.353v0m1.461-1.21v0m-2.116 0.958v0m-2.57-0.958v0m-20.105 12.597v0m2.772-0.1v0m23.017 28.593v0m-0.554-0.655v0m-0.252-4.837v0m-1.259 4.485v0m0.856 1.158v0m-2.519-0.856v0m-0.403 0.806v0m1.612-5.039v0m-1.159-1.814v0m-0.05 1.613v0m-0.655 2.62v0m1.209 0.504v0m3.124-2.52v0m0.605-6.097v0m-0.353-0.655v0m-1.864 5.241v0m-1.361-4.031v0m0.151-1.713v0m1.26 0.554v0m-1.663-5.392v0m-0.151 3.527v0m-0.504 2.923v0m1.26 2.57v0m-0.756-0.706v0m-0.554-6.802v0m2.469-2.066v0m0.554 5.039v0m-2.015 6.097v0m-1.059-5.946v0m-0.554 4.434v0m0.151-5.744v0m4.686-3.275v0m-2.217 14.915v0m0.605-2.117v0m0.957 1.613v0m-2.317-1.159v0m-1.21-0.555v0m3.225-4.081v0m-0.101 1.058v0m-1.058-2.872v0m1.361-0.101v0m0.655 0.857v0m-2.369 0.504v0m1.512-7.861v0m1.209 3.628v0m-1.31-1.663v0m0.907-0.453v0m-2.469 0.907v0m-0.554-1.31v0m1.109-0.303v0m-2.469-0.554v0m-15.117 16.225v0m0.202-1.36v0m-1.26 0.503v0m-1.008 0.756v0m0.756-7.508v0m0.454 4.989v0m-1.764 1.864v0m1.008-3.073v0m-1.26-1.764v0m-1.26 4.485v0m0.857 1.158v0m-2.52-0.856v0m-0.403 0.806v0m1.613-5.039v0m-1.159-1.814v0m-0.051 1.613v0m-0.655 2.62v0m0.655 0.302v0m4.888-4.635v0m0.302-2.469v0m0.555 5.744v0m-1.865-1.461v0m1.31-0.605v0m-0.907-4.989v0m-0.352-0.655v0m-1.865 5.241v0m-1.36-4.031v0m0.705-2.318v0m3.679 0.554v0m0.252-3.174v0m-3.225 3.779v0m-1.663-5.392v0m-0.151 3.527v0m-0.504 2.923v0m1.26 2.57v0m-0.756-0.706v0m-0.554-6.802v0m2.469-2.066v0m0.554 5.039v0m2.217-5.14v0m0.504 3.83v0m-4.737 7.407v0m4.737-4.586v0m0 2.52v0m-5.795-3.88v0m-0.353 5.089v0m6.853-8.919v0m-6.903 2.52v0m4.686-3.275v0m-2.217 14.915v0m0.605-2.117v0m0.957 1.613v0m-2.318-1.159v0m-1.209-0.555v0m3.225-4.081v0m-0.101 1.058v0m-0.605-2.721v0m0.907-0.252v0m0.655 0.857v0m-2.368 0.504v0m1.512-7.861v0m1.209 3.628v0m-1.26-1.26v0m0.857-0.856v0m-2.469 0.907v0m-0.554-1.31v0m1.108-0.303v0m-2.469-0.554v0m18.442 16.225v0m0.202-1.36v0" fill="none" stroke="#000" stroke-linecap="round" stroke-width=".403"/>
    </g>
    <g transform="translate(120.77 396.42)">
     <path d="m0 0v0m-1.008 0.756v0m0.756-7.508v0m0.454 4.988v0m-1.764 1.865v0m0.705-3.477v0m-0.957-1.36v0m-1.26 4.484v0m0.857 1.159v0m-2.519-0.857v0m-0.404 0.807v0m1.613-5.039v0m-1.159-1.814v0m-0.05 1.612v0m-0.656 2.62v0m0.656 0.303v0m4.887-4.636v0m0.302-2.469v0m0.202 5.19v0m-1.713-1.512v0m1.915-0.302v0m-1.31-4.686v0m-0.353-0.655v0m-1.865 5.24v0m-1.36-4.031v0m0.705-2.318v0m3.679 0.555v0m0.252-3.175v0m-3.225 3.779v0m-1.663-5.391v0m-0.151 3.527v0m-0.504 2.922v0m1.26 2.57v0m-0.756-0.705v0m-0.554-6.803v0m2.469-2.065v0m0.554 5.038v0m2.217-4.686v0m0 3.124v0m-4.233 7.659v0m4.737-4.585v0m0 2.519v0m-5.795-3.88v0m-0.353 5.09v0m6.853-8.919v0m-6.903 2.519v0m4.686-3.275v0m-2.217 14.915v0m0.605-2.116v0m0.957 1.612v0m-2.318-1.159v0m-1.209-0.554v0m3.225-4.081v0m-0.101 1.058v0m-0.605-2.721v0m0.907-0.252v0m0.655 0.856v0m-2.368 0.504v0m1.512-7.86v0m1.209 3.628v0m-1.31-1.663v0m0.907-0.454v0m-2.469 0.907v0m-0.101-0.755v0m0.655-0.857v0m-2.469-0.554v0m-1.31-1.512v0m1.361 0.202v0m-0.504-1.26v0m-0.756-1.008v0m7.508 0.756v0m-4.989 0.453v0m-1.864-1.763v0m3.678 1.36v0m0.605-1.763v0m-3.93-1.109v0m-1.159 0.857v0m0.856-2.52v0m-0.806-0.403v0m5.039 1.613v0m1.814-1.159v0m-1.612-0.051v0m-2.621-0.655v0m-0.302 0.655v0m4.636 4.888v0m2.469 0.302v0m-5.745 0.555v0m1.462-1.865v0m0.907 1.713v0m4.686-1.31v0m0.655-0.352v0m-5.24-1.865v0m4.031-1.36v0m2.317 0.705v0m-0.554 3.679v0m3.175 0.252v0m-3.78-3.225v0m1.865-1.814v0m-2.923-0.504v0m-2.569 1.26v0m0.705-0.756v0m6.802-0.555v0m-2.973 3.024v0m1.311 2.721v0m-7.407-4.737v0m4.585 4.737v0m-2.52 0v0m3.88-5.795v0m-5.089-0.353v0m6.399-0.05v0m-11.639 2.469v0m2.116 0.605v0m-1.612 0.957v0m1.159-2.318v0m0.554-1.209v0m4.081 3.225v0m-1.058-0.101v0m2.721-0.605v0m0.252 0.907v0m-0.857 0.655v0m-0.503-2.368v0m4.232 2.721v0m1.663-1.31v0m0.453 0.907v0m-0.907-2.469v0m1.311-0.554v0m-15.167-1.915v0m1.36 0.201v0m-0.504-1.259v0m-0.755-1.008v0m7.507 0.756v0m-4.988 0.453v0m-1.864-1.763v0m3.073 0.957v0m1.764-1.209v0m-5.644-0.403v0m7.004 2.368v0m2.469 0.302v0m-5.744 0.554v0m1.461-1.864v0m0.907 1.713v0m4.686-1.31v0m0.655-0.352v0m-5.24-1.865v0m5.795 3.023v0m3.174 0.252v0m-3.779-3.224v0m0.907 0.655v0m1.31 2.721v0m-2.822 0v0m-2.519 0v0m-4.333-3.125v0m-1.613 0.958v0m5.795-0.302v0m-1.058-0.101v0m2.721-0.605v0m0.252 0.907v0m-0.857 0.655v0m3.729 0.353v0m1.662-1.31v0m0.454 0.907v0m-26.101 7.558v0m1.814 0.705v0m1.31-0.907v0m0.655-0.352v0m-1.209-3.225v0m2.318 0.705v0m-0.555 3.679v0m3.88 0.201v0m-4.484-3.174v0m5.391-1.663v0m-3.527-0.151v0m-2.922-0.504v0m-2.57 1.26v0m0.705-0.756v0m6.803-0.555v0m2.065 2.469v0m-5.038 0.555v0m5.139 2.217v0m-3.829 0.504v0m-2.822 0v0m-2.519 0v0m3.88-5.795v0m1.31-0.403v0m3.275 4.686v0m-8.617-0.957v0m1.663-0.706v0m0.252 0.907v0m-0.856 0.655v0m-0.504-2.368v0m7.86 1.512v0m-3.628 1.209v0m0.958-1.26v0m1.159 0.857v0m-0.907-2.469v0m1.31-0.554v0m-0.051 1.259v0m0.907-2.62v0m-8.414-1.864v0m-0.655 0.403v0" fill="none" stroke="#000" stroke-linecap="round" stroke-width=".403"/>
    </g>
    <g transform="translate(105.25 372.03)">
     <path d="m0 0v0m1.31-0.907v0m0.655-0.353v0m0.554 1.159v0m3.175 0.252v0m-3.779-3.225v0m5.946 0.101v0m-5.039 0.554v0m5.139 2.217v0m-3.829 0.504v0m-2.822 0v0m-2.519 0v0m8.112 0.051v0m0.353-1.562v0m-8.616-0.958v0m-1.059-0.1v0m2.721-0.605v0m0.252 0.907v0m-0.856 0.655v0m7.356-0.857v0m-3.628 1.21v0m1.663-1.31v0m0.454 0.907v0m0.705-1.915v0m1.663 25.899v0m-1.612 0.907v0m0.352-2.872v0m-1.562-7.407v0m2.973 3.678v0m-2.57 2.872v0m1.814-3.728v0m0.907 2.418v0m0 2.822v0m0 2.519v0m0.706-7.709v0m-2.217-0.756v0m-0.756 6.702v0m1.36 2.469v0m-1.562-8.969v0m1.21 3.628v0m-1.311-1.663v0m0.907-0.453v0m1.462-4.636v0m-1.562-1.008v0m-0.555-1.713v0m1.814-1.159v0m-1.612-0.05v0m1.713 4.887v0m-1.814-1.008v0m0.907 1.714v0m0.101-3.528v0m1.562-1.007v0m0.705-0.756v0m-2.267 0.453v0m2.066 4.737v0m-1.209-6.147v0m1.058 3.678v0m-1.058-0.101v0m1.662-0.907v0m8.969 13.655v0m-0.907-1.31v0m-0.352-0.655v0m1.159-0.554v0m0.252-3.175v0m0.05-2.217v0m0.101 3.779v0m0 2.822v0m0 2.52v0m-1.512-8.466v0m-0.101 7.559v0m0.353-3.729v0m-0.403-2.116v0m1.915-4.082v0m-2.016-1.562v0m0.857-4.585v0m0.201 6.046v0m-0.604 1.21v0m0.1-3.528v0m1.562-1.007v0m-1.562-0.303v0m0.857-1.41v0m0 3.577v0m-9.322 9.624v0m-0.352-2.267v0m0.503 3.829v0m0.706-2.368v0m-1.965 3.074v0m1.007-5.19v0m0.958-2.57v0m-3.729 8.616v0m-8.868-28.721v0m0.101 2.771v0" fill="none" stroke="#000" stroke-linecap="round" stroke-width=".403"/>
    </g>
   </g>
  </g>
  <g transform="matrix(.35278 0 0 -.35278 86.175 285.87)">
   <g clip-path="url(#clipPath32353)">
    <g transform="translate(95.865 397.7)">
     <path d="m0 0v0m-0.202 1.36v0m1.26-0.503v0m1.008-0.756v0m-0.756 7.508v0m-0.453-4.989v0m1.763-1.864v0m-1.008 3.073v0m1.26 1.764v0m1.26-4.484v0m-0.857-1.159v0m2.52 0.856v0m0.403-0.806v0m-1.613 5.039v0m1.159 1.814v0m0.051-1.613v0m0.655-2.62v0m-0.655-0.302v0m-4.888 4.636v0m-0.302 2.469v0m-0.555-5.745v0m1.865 1.462v0m-1.31 0.604v0m0.907 4.989v0m2.217-4.586v0m1.36 4.031v0m0.907 0.101v0m-1.26-2.57v0m0.756 0.706v0m-0.453-2.268v0m-4.737 4.586v0m0-2.52v0m6.148-1.209v0m-2.419-5.24v0m-0.605 2.116v0m-0.957-1.613v0m2.318 1.159v0m1.209 0.555v0m-3.225 4.081v0m0.101-1.058v0m0.605 2.721v0m-0.907 0.252v0m-0.655-0.857v0m2.368-0.504v0m-5.291-3.174v0m-0.453-2.268v0m0.201 6.5v0m0.101-1.965v0m17.811 2.076v0m-4.435 0.756v0m4.838-0.101v0m0.302-2.469v0m-0.907-1.31v0m-0.353-0.655v0m-3.224 1.209v0m0.705-2.318v0m3.678 0.554v0m-2.973 0.605v0m-1.662-5.392v0m-0.152 3.528v0m-0.503 2.922v0m1.259 2.57v0m-0.756-0.706v0m-0.554-6.802v0m2.469-2.066v0m0.554 5.039v0m-3.073 0.151v0m-0.353 5.089v0m-0.05-6.399v0m4.686-3.275v0m-0.958 8.616v0m-0.1 1.058v0m-0.605-2.721v0m0.907-0.252v0m0.655 0.857v0m-2.368 0.504v0m1.511-7.861v0m1.21 3.628v0m-1.31-1.662v0m0.907-0.454v0m-2.469 0.907v0m-0.555-1.31v0m1.109-0.302v0m-2.469-0.555v0m-1.864 8.415v0m0.403 0.655v0m0.302-2.469v0m-0.907-1.31v0m-0.353-0.655v0m-1.864 5.24v0m3.023-5.794v0m0.252-3.175v0m-3.225 3.779v0m0.101-5.945v0m0.554 5.038v0m2.217-5.139v0m0.504 3.829v0m0 2.822v0m0 2.519v0m-0.453-7.81v0m-1.058-0.655v0m-0.958 8.617v0m-0.101 1.058v0m-0.604-2.721v0m0.907-0.252v0m0.655 0.857v0m-0.857-7.357v0m1.21 3.628v0m-1.311-1.663v0m0.907-0.453v0m-1.914-0.706v0m1.007-1.814v0m1.966 0.05v0" fill="none" stroke="#000" stroke-linecap="round" stroke-width=".403"/>
    </g>
   </g>
  </g>
  <g transform="matrix(.35278 0 0 -.35278 86.175 285.87)">
   <g clip-path="url(#clipPath32365)">
    <g transform="translate(112.45 406.22)">
     <path d="m0 0c-3.569 1.953-6.896 2.276-9.702 1.224-5.072-1.902-8.437-8.294-8.437-17.672 0-14.567 8.121-30.821 18.139-36.305 7.285-3.986 13.566-1.182 16.451 6.246l2e-3 3e-3c-2.584-1.493-5.826-1.449-9.346 0.478-8.448 4.623-15.294 18.323-15.294 30.605 0 7.906 2.834 13.295 7.112 14.898 0.347 0.129 0.704 0.235 1.07 0.314z" fill="none" stroke="#000" stroke-linecap="round" stroke-linejoin="round" stroke-width=".402"/>
    </g>
    <g transform="translate(127.28 374.87)">
     <path d="m0 0c-0.98-4.35-4.083-6.22-7.76-4.208-4.468 2.446-8.087 9.69-8.087 16.183 0 4.183 1.499 7.031 3.759 7.879 1.251 0.47 2.735 0.327 4.328-0.546v-2.67c-1.232 0.674-2.378 0.785-3.345 0.423-1.748-0.656-2.907-2.859-2.907-6.091 0-5.02 2.799-10.621 6.252-12.511 2.804-1.535 5.177-0.147 5.968 3.12z" fill="#4c4c4c"/>
    </g>
    <g transform="translate(127.28 374.87)">
     <path d="m0 0c-0.98-4.35-4.083-6.22-7.76-4.208-4.468 2.446-8.087 9.69-8.087 16.183 0 4.183 1.499 7.031 3.759 7.879 1.251 0.47 2.735 0.327 4.328-0.546v-2.67c-1.232 0.674-2.378 0.785-3.345 0.423-1.748-0.656-2.907-2.859-2.907-6.091 0-5.02 2.799-10.621 6.252-12.511 2.804-1.535 5.177-0.147 5.968 3.12z" fill="none" stroke="#000" stroke-linecap="round" stroke-linejoin="round" stroke-width=".402"/>
    </g>
    <g transform="translate(98.09 420.56)">
     <path d="m0 0c4.141 1.553 9.052 1.076 14.319-1.807v-12.547c-3.57 1.954-6.897 2.277-9.703 1.225-5.071-1.902-8.437-8.294-8.437-17.672 0-14.567 8.121-30.822 18.14-36.305 8.439-4.619 15.531-0.123 17.558 10.116l8.4-7.489c-2.926-15.282-13.438-22.026-25.958-15.173-14.784 8.091-26.769 32.078-26.769 53.574 0 13.838 4.966 23.272 12.45 26.078" fill="#d1d2d4"/>
    </g>
   </g>
  </g>
  <g transform="matrix(.35278 0 0 -.35278 86.175 285.87)">
   <g clip-path="url(#clipPath32389)">
    <g transform="translate(127.07 338.21)">
     <path d="m0 0v0m0.857 1.159v0m-2.52-0.857v0m-0.403 0.807v0m2.167-1.764v0m-5.341 1.764v0m0.201-1.361v0m-1.26 0.504v0m-1.007 0.756v0m-0.555-0.655v0m-1.511-0.353v0m0.856 1.159v0m-2.519-0.857v0m-0.403 0.807v0m2.167-1.764v0m5.945 0.705v0m0.303 1.21v0m-1.613-0.907v0" fill="none" stroke="#000" stroke-linecap="round" stroke-width=".403"/>
    </g>
   </g>
  </g>
  <g transform="matrix(.35278 0 0 -.35278 86.175 285.87)">
   <g clip-path="url(#clipPath32401)">
    <g transform="translate(84.77 395.4)">
     <path d="m0 0v0m0.655-0.353v0m0.504-3.073v0m0.05 4.232v0m3.175 0.252v0m-3.779-3.225v0m5.391-1.662v0m-3.527-0.152v0m2.016-0.554v0m2.065 2.469v0m-5.038 0.554v0m5.139 2.217v0m-3.829 0.504v0m-2.822 0v0m1.36-5.794v0m1.311-0.403v0m3.275 4.686v0m-0.202-0.958v0m-3.628 1.21v0m1.663-1.31v0m0.454 0.907v0m-0.907-2.469v0m1.31-0.555v0m0.302 1.109v0m0.554-2.469v0m-5.492-16.628v0m0.655-0.353v0m1.109-2.519v0m-0.555 3.678v0m3.175 0.252v0m-3.779-3.225v0m5.391-1.663v0m-3.527-0.151v0m2.016-0.554v0m2.065 2.469v0m-5.038 0.554v0m5.139 2.217v0m-3.829 0.504v0m-2.822 0v0m1.36-5.795v0m3.83 6.5v0m-2.519-6.903v0m3.275 4.686v0m-0.202-0.957v0m-3.628 1.209v0m1.26-1.259v0m0.857 0.856v0m-0.907-2.469v0m1.31-0.554v0m0.302 1.108v0m0.554-2.469v0m-5.492 16.931v0m0.655-0.353v0m1.109-2.519v0m-0.555 3.678v0m3.175 0.252v0m-3.779-3.225v0m5.391-1.663v0m-3.527-0.151v0m2.016-0.554v0m2.065 2.469v0m-5.038 0.554v0m4.686 2.217v0m-3.124 0v0m-3.074 0.504v0m1.36-5.794v0m3.83 6.5v0m-2.519-6.904v0m3.275 4.687v0m-0.202-0.958v0m-3.628 1.209v0m1.663-1.31v0m0.454 0.907v0m-0.907-2.469v0m0.755-0.1v0m0.857 0.655v0m0.554-2.469v0m1.512-1.31v0m-0.202 1.36v0m1.26-0.504v0m1.008-0.756v0m-0.756 7.508v0m-0.453-4.988v0m1.763-1.865v0m-1.36 3.679v0m1.763 0.604v0m1.109-3.93v0m-0.857-1.159v0m2.52 0.857v0m0.403-0.806v0m-1.613 5.038v0m1.159 1.814v0m0.051-1.612v0m0.655-2.62v0m-0.655-0.303v0m-4.888 4.636v0m-0.302 2.469v0m-0.555-5.744v0m1.865 1.461v0m-1.714 0.907v0m1.311 4.686v0m0.352 0.655v0m1.865-5.24v0m1.36 4.031v0m-0.705 2.318v0m-3.679-0.555v0m-0.252 3.175v0m3.225-3.779v0m1.663 5.391v0m0.151-3.527v0m0.504-2.922v0m-1.26-2.57v0m0.756 0.705v0m0.554 6.803v0m-2.469 2.066v0m-0.554-5.039v0m-3.729 4.988v0m1.008-3.678v0m4.737-7.407v0m-4.737 4.585v0m0-2.519v0m5.795 3.88v0m0.353-5.09v0m0.05 6.4v0m-4.686 3.275v0m2.217-14.915v0m-0.605 2.116v0m-0.957-1.612v0m2.318 1.159v0m1.209 0.554v0m-3.225 4.082v0m0.101-1.059v0m0.605 2.721v0m-0.907 0.252v0m-0.655-0.856v0m2.368-0.504v0m-1.512 7.86v0m-1.209-3.628v0m1.31 1.663v0m-0.907 0.454v0m2.469-0.907v0m0.554 1.31v0m-1.108 0.302v0m2.469 0.554v0m0.554-16.023v0m-0.201 1.361v0m1.259-0.504v0m1.008-0.756v0m-0.756 7.508v0m-0.453-4.989v0m1.763-1.864v0m-0.957 3.074v0m1.209 1.763v0m0.403-5.643v0m-2.368 7.004v0m-0.302 2.469v0m-0.555-5.745v0m1.865 1.462v0m-1.713 0.907v0m1.31 4.686v0m0.352 0.655v0m1.865-5.241v0m-3.023 5.795v0m-0.252 3.174v0m3.224-3.779v0m-0.1 5.946v0m-0.555-5.039v0m-2.217 5.14v0m-0.504-3.83v0m0-2.821v0m0-2.52v0m0.454 7.81v0m1.058 0.655v0m1.612-12.798v0m-0.957-1.612v0m0.302 5.794v0m0.101-1.058v0m0.605 2.721v0m-0.907 0.252v0m-0.655-0.857v0m0.856 7.357v0m-1.209-3.628v0m1.31 1.663v0m-0.907 0.453v0m1.915 0.706v0m-9.473-26.807v0m-0.705 1.814v0m0.907 1.31v0m0.352 0.655v0m3.225-1.209v0m-0.705 2.318v0m-3.679-0.554v0m-0.201 3.88v0m3.174-4.485v0m1.663 5.392v0m0.151-3.528v0m0.504-2.922v0m-1.26-2.57v0m0.756 0.706v0m0.554 6.802v0" fill="none" stroke="#000" stroke-linecap="round" stroke-width=".403"/>
    </g>
    <g transform="translate(95.352 378.62)">
     <path d="m0 0v0m-0.554-5.039v0m-2.217 5.14v0m-0.504-3.83v0m0-2.821v0m0-2.52v0m5.794 3.88v0m0.404 1.31v0m-4.687 3.275v0m0.958-8.616v0m0.705 1.663v0m-0.907 0.252v0m-0.655-0.857v0m2.368-0.504v0m-1.511 7.861v0m-1.21-3.628v0m1.26 0.957v0m-0.856 1.159v0m2.469-0.907v0m0.554 1.31v0m-1.26-0.05v0m2.62 0.907v0m1.865-8.415v0m-0.403-0.655v0m-0.303 2.469v0m0.907 1.31v0m0.353 0.655v0m-1.159 0.554v0m-0.252 3.175v0m3.225-3.779v0m-0.101 5.946v0m-0.554-5.039v0m-2.217 5.139v0m-0.504-3.829v0m0-2.822v0m0-2.519v0m-0.05 8.112v0m1.562 0.353v0m0.957-8.616v0m0.101-1.059v0m0.604 2.721v0m-0.907 0.252v0m-0.655-0.856v0m0.857 7.356v0m-1.209-3.628v0m1.31 1.663v0m-0.907 0.454v0m1.914 0.705v0m-16.527-1.159v0m0.806 2.923v0m1.008-1.562v0m1.713-0.555v0m1.159 1.814v0m0.051-1.612v0m-4.888 1.713v0m1.008-1.814v0m-1.713 0.907v0m3.527 0.101v0m1.008 1.562v0m0.755 0.705v0m-0.453-2.267v0m-4.737 2.066v0m6.148-1.209v0m-3.679 1.058v0m0.101-1.058v0m0.907 1.662v0m-2.469 7.508v0m4.585 0.857v0m-6.046 0.201v0m2.318-0.504v0m1.008 1.562v0m0.302-1.562v0m1.411 0.857v0m-3.578 0v0m15.268 8.163v0m0.705-29.225v0m-2.771 0.101v0m0.101 29.074v0m-3.72-57.768v0m-0.201 1.36v0m1.259-0.504v0m1.008-0.756v0m-0.756 7.508v0m-0.453-4.988v0m1.763-1.865v0m-1.007 3.074v0m1.259 1.764v0m1.26-4.485v0m-0.856-1.159v0m2.519 0.857v0m0.403-0.806v0m-1.612 5.038v0m1.159 1.814v0m0.05-1.612v0m0.655-2.62v0m-0.655-0.302v0m-4.888 4.635v0m-0.302 2.469v0m-0.554-5.744v0m1.864 1.461v0m-1.31 0.605v0m0.907 4.988v0m0.353 0.655v0m1.864-5.24v0m1.361 4.031v0m-0.706 2.318v0m-3.678-0.554v0m-0.252 3.174v0m3.225-3.779v0m1.662 5.391v0m0.152-3.527v0m0.503-2.922v0m-1.259-2.57v0m0.756 0.705v0m0.554 6.803v0m-2.469 2.066v0m-0.554-5.039v0m-2.217 5.14v0m-0.504-3.83v0m4.736-7.407v0m-4.736 4.585v0m0-2.519v0m5.794 3.88v0m0.353-5.089v0m-6.853 8.918v0m6.903-2.519v0m-4.686 3.275v0m2.217-14.915v0m-0.604 2.117v0m-0.958-1.613v0m2.318 1.159v0m1.209 0.554v0m-3.224 4.082v0m0.1-1.058v0m0.605 2.721v0m-0.907 0.251v0m-0.655-0.856v0m2.368-0.504v0m-1.511 7.861v0m-1.21-3.628v0m1.26 1.259v0m-0.857 0.857v0m2.469-0.907v0m0.555 1.31v0m-1.109 0.302v0m2.469 0.555v0m-17.384-15.369v0m1.008-0.756v0m-0.756 7.508v0m1.31-6.853v0m-0.705 3.477v0m0.957 1.361v0m1.26-4.485v0m-0.857-1.159v0m2.52 0.857v0m0.403-0.806v0m-1.612 5.038v0m1.158 1.814v0m0.051-1.612v0m0.655-2.62v0m-0.655-0.302v0m-3.678 3.426v0m-0.605 4.988v0m0.353 0.655v0m1.864-5.24v0m1.36 4.031v0m-0.705 2.318v0m-0.705-1.159v0m1.662 5.391v0m0.151-3.527v0m0.504-2.922v0m-1.259-2.57v0m0.755 0.705v0m0.555 6.803v0m-2.469 2.066v0m-0.555-5.039v0m2.016-6.097v0m1.058 5.946v0m0.353-5.089v0m0.05 6.399v0m-4.686 3.275v0m2.217-14.915v0m-0.604 2.117v0m-0.958-1.613v0m2.318 1.159v0m1.209 0.554v0m-3.224 4.082v0m0.1-1.058v0m0.605 2.721v0m-0.907 0.251v0m-0.655-0.856v0m2.368-0.504v0m-1.511 7.861v0m-1.21-3.628v0m1.31 1.662v0m-0.907 0.454v0m2.469-0.907v0m0.101 0.756v0m-0.655 0.856v0m2.469 0.555v0" fill="none" stroke="#000" stroke-linecap="round" stroke-width=".403"/>
    </g>
    <g transform="translate(91.431 357.48)">
     <path d="m0 0v0m-1.36-0.202v0m0.503 1.26v0m0.756 1.008v0m-2.519-1.209v0m1.864 1.763v0m-3.678-1.36v0m-0.605 1.763v0m3.93 1.109v0m1.159-0.857v0m-0.856 2.52v0m0.806 0.403v0m-5.039-1.613v0m-0.201 1.21v0m2.62 0.655v0m0.302-0.655v0m-1.36-5.745v0m-1.462 1.865v0m-0.907-1.713v0m-0.1 3.527v0m0 1.31v0m4.383-1.008v0m-2.116-0.605v0m1.613-0.957v0m-1.159 2.318v0m-0.555 1.209v0m3.779 0.907v0m-1.36-0.201v0m0.504 1.259v0m0.756 1.008v0m-2.52-1.209v0m1.865 1.763v0m-3.074-0.957v0m-1.764 1.209v0m5.644 0.403v0m-3.729-3.224v0m-1.461 1.864v0m-0.907-1.713v0m-0.101 3.527v0m2.268-0.302v0m1.612-0.958v0m13.403-8.062v0m-1.814-0.705v0m-1.31 0.907v0m-0.655 0.352v0m1.209 3.225v0m-2.317-0.705v0m0.554-3.679v0m-3.88-0.201v0m4.484 3.174v0m-5.391 1.663v0m3.527 0.151v0m2.923 0.504v0m2.569-1.26v0m-0.705 0.756v0m-6.802 0.555v0m-2.066-2.469v0m5.038-0.555v0m-5.139-2.217v0m3.829-0.504v0m2.822 0v0m2.52 0v0m-3.88 5.795v0m-1.31 0.403v0m-3.276-4.686v0m8.617 0.957v0m-1.663 0.706v0m-0.252-0.907v0m0.857-0.655v0m0.503 2.368v0m-7.86-1.512v0m3.628-1.209v0m-0.958 1.26v0m-1.158-0.857v0m0.907 2.469v0m-1.311 0.554v0m0.051-1.259v0m-0.907 2.62v0m8.415 1.864v0m0.655-0.403v0m-2.469-0.302v0m-1.31 0.907v0m-0.655 0.352v0m-0.555-1.158v0m-3.174-0.252v0m3.779 3.224v0m-5.946-0.1v0m5.039-0.555v0m-5.14-2.217v0m3.83-0.504v0m2.822 0v0m2.519 0v0m-8.112-0.05v0m-0.353 1.562v0m8.616 0.957v0m1.058 0.101v0m-2.721 0.605v0m-0.252-0.907v0m0.857-0.655v0m-7.357 0.856v0m3.628-1.209v0m-1.663 1.31v0m-0.453-0.907v0m-0.705 1.915v0m-1.663-25.899v0m1.612-0.907v0m-0.353 2.872v0m1.562 7.407v0m-2.972-3.679v0m2.569-2.872v0m-1.814 3.729v0m-0.907-2.419v0m0-2.821v0m0-2.52v0m-0.705 7.71v0m2.217 0.755v0m0.756-6.701v0m-1.361-2.469v0m1.562 8.969v0m-1.209-3.628v0m1.31 1.663v0m-0.907 0.453v0m-1.461 4.636v0m1.562 1.008v0m0.554 1.713v0m-1.814 1.159v0m1.613 0.05v0m-1.713-4.887v0m1.814 1.007v0m-0.907-1.713v0m-0.101 3.527v0m-1.562 1.008v0m-0.706 0.756v0m2.268-0.454v0m-2.066-4.736v0m1.209 6.147v0m-1.058-3.678v0m1.058 0.101v0m-1.663 0.907v0m0.403-12.093v0m0.353 2.267v0m-0.504-3.829v0m-0.705 2.368v0m1.965-3.074v0m-1.008 5.19v0m-0.957 2.57v0m3.729-8.616v0m8.868 28.721v0m-0.101-2.772v0m28.694-25.083v0m-1.36-0.202v0m0.504 1.26v0m0.756 1.007v0m-7.508-0.755v0m4.988-0.454v0m1.865 1.764v0m-3.679-1.361v0m-1.159 1.613v0m4.485 1.259v0m1.159-0.856v0m-0.857 2.519v0m0.806 0.403v0m-5.038-1.612v0m-1.814 1.159v0m1.612 0.05v0m2.62 0.655v0m0.504-1.209v0m-4.132-3.83v0m-3.174-0.806v0m5.744-0.554v0m-0.957 2.066v0m-1.411-1.915v0m-4.686 1.31v0m-0.655 0.353v0m5.24 1.864v0m-4.031 1.361v0m-1.713-0.151v0m-0.05-4.233v0m-3.175-0.252v0m3.779 3.225v0m-5.391 1.663v0m3.527 0.151v0m2.922 0.504v0m2.57-1.26v0m-0.705 0.756v0m-6.803 0.554v0m-2.066-2.469v0m5.039-0.554v0m-5.139-2.217v0m3.829-0.504v0m7.407 4.736v0m-4.585-4.736v0m2.469-0.504v0m-3.83 6.299v0m4.434 0.554v0m-5.744-0.151v0m-3.275-4.686v0m14.915 2.217v0m-2.116-0.605v0m1.612-0.957v0" fill="none" stroke="#000" stroke-linecap="round" stroke-width=".403"/>
    </g>
    <g transform="translate(128.14 344.9)">
     <path d="m0 0v0m-0.554 1.209v0m-4.082-3.225v0m1.058 0.101v0m-2.872 1.058v0m-0.1-1.36v0m0.856-0.655v0m0.504 2.368v0m-7.86-1.512v0m3.627-1.209v0m-1.662 1.31v0m-0.454-0.907v0m0.907 2.469v0m-1.31 0.555v0m-0.302-1.109v0m-0.555 2.469v0m16.225 15.116v0m-1.36-0.201v0m0.504 1.26v0m0.756 1.007v0m-7.508-0.755v0m4.988-0.454v0m1.865 1.764v0m-3.074-1.008v0m-1.764 1.26v0m4.485 1.259v0m1.159-0.856v0m-0.857 2.519v0m0.806 0.403v0m-5.038-1.612v0m-1.814 1.159v0m1.612 0.05v0m2.62 0.655v0m0.303-0.655v0m-4.636-4.888v0m-2.469-0.302v0m5.744-0.554v0m-1.461 1.864v0m-0.605-1.31v0m-4.988 0.907v0m-0.655 0.353v0m5.24 1.864v0m-4.031 1.361v0m-2.318-0.706v0m0.554-3.678v0m-3.174-0.252v0m3.779 3.225v0m-5.391 1.663v0m3.527 0.151v0m2.922 0.504v0m2.57-1.26v0m-0.705 0.756v0m-6.803 0.554v0m-2.066-2.469v0m5.039-0.554v0m-5.139-2.217v0m3.829-0.504v0m7.407 4.736v0m-4.585-4.736v0m2.519 0v0m-3.88 5.794v0m5.089 0.353v0m-8.918-6.853v0m2.519 6.903v0m-3.275-4.686v0m14.915 2.217v0m-2.116-0.604v0m1.612-0.958v0m-1.159 2.318v0m-0.554 1.21v0m-4.082-3.225v0m1.058 0.101v0m-2.721 0.604v0m-0.251-0.907v0m0.856-0.655v0m0.504 2.368v0m-7.86-1.511v0m3.627-1.21v0m-1.259 1.26v0m-0.857-0.856v0m0.907 2.469v0m-1.31 0.554v0m-0.302-1.109v0m-0.555 2.469v0m16.225-18.442v0m-1.36-0.201v0m0.504 1.259v0m0.756 1.008v0m-7.508-0.756v0m4.988-0.453v0m1.865 1.764v0m-3.477-0.706v0m-1.361 0.957v0m4.485 1.26v0m1.159-0.856v0m-0.857 2.519v0m0.806 0.403v0m-5.038-1.612v0m-1.814 1.159v0m1.612 0.05v0m2.62 0.655v0m0.303-0.655v0m-4.636-4.888v0m-2.469-0.302v0m5.19-0.202v0m-1.512 1.714v0m-0.302-1.915v0m-4.686 1.31v0m-0.655 0.353v0m5.24 1.864v0m-4.031 1.36v0m-2.318-0.705v0m0.554-3.678v0m-3.174-0.252v0m3.779 3.225v0m-5.391 1.662v0m3.527 0.152v0m2.922 0.503v0m2.57-1.259v0m-0.705 0.756v0m-6.803 0.554v0m-2.066-2.469v0m5.039-0.554v0m-4.686-2.217v0m3.124 0v0m7.659 4.232v0m-4.585-4.736v0m2.519 0v0m-3.88 5.794v0m5.089 0.353v0m-8.918-6.853v0m2.519 6.903v0m-3.275-4.686v0m14.915 2.217v0m-2.116-0.604v0m1.612-0.958v0m-1.159 2.318v0m-0.554 1.209v0m-4.082-3.224v0m1.058 0.1v0m-2.721 0.605v0m-0.251-0.907v0m0.856-0.655v0m0.504 2.368v0m-7.86-1.511v0m3.627-1.21v0m-1.662 1.31v0m-0.454-0.907v0m0.907 2.469v0m-0.756 0.101v0m-0.856-0.655v0m-0.555 2.469v0m-1.511 1.31v0m0.201-1.36v0m-1.259 0.504v0m-1.008 0.756v0m0.756-7.508v0m0.453 4.988v0m-1.763 1.864v0m1.36-3.678v0m-1.763-0.604v0m-1.109 3.93v0m0.857 1.159v0m-2.52-0.857v0m-0.403 0.806v0m1.613-5.038v0m-1.159-1.814v0m-0.051 1.612v0m-0.655 2.62v0m0.655 0.302v0m4.888-4.635v0m0.302-2.469v0m0.554 5.744v0m-1.864-1.461v0m1.713-0.907v0m-1.31-4.686v0m-0.353-0.655v0m-1.864 5.24v0m-1.36-4.031v0m0.705-2.318v0m3.678 0.554v0m0.252-3.174v0m-3.225 3.779v0m-1.662-5.391v0m-0.151 3.527v0m-0.504 2.922v0m1.259 2.57v0m-0.755-0.706v0m-0.555-6.802v0m2.469-2.066v0m0.555 5.039v0m3.728-4.988v0m-1.008 3.678v0m-4.736 7.407v0m4.736-4.585v0m0 2.519v0m-5.794-3.88v0m-0.353 5.089v0m19.248-9.523v0m-19.298 3.124v0" fill="none" stroke="#000" stroke-linecap="round" stroke-width=".403"/>
    </g>
    <g transform="translate(112.01 340.46)">
     <path d="m0 0v0m-2.217 14.915v0m0.605-2.116v0m0.957 1.612v0m-2.318-1.159v0m-1.209-0.554v0m3.225-4.082v0m-0.101 1.058v0m-0.605-2.72v0m0.907-0.252v0m0.655 0.856v0m-2.368 0.504v0m1.512-7.86v0m1.209 3.627v0m-1.31-1.662v0m0.907-0.454v0m-2.469 0.907v0m-0.554-1.31v0m1.108-0.302v0m-2.469-0.554v0m-0.554 16.023v0m0.201-1.361v0m-1.259 0.504v0m-1.008 0.756v0m0.756-7.508v0m0.453 4.989v0m-1.763 1.864v0m0.957-3.074v0m-1.209-1.763v0m-0.403 5.643v0m2.368-7.004v0m0.302-2.469v0m0.554 5.745v0m-1.864-1.462v0m1.713-0.907v0m-1.31-4.686v0m-0.353-0.655v0m-1.864 5.241v0m3.023-5.795v0m0.252-3.175v0m-3.225 3.78v0m0.101-5.946v0m0.555 5.039v0m2.217-5.14v0m0.503 3.83v0m0 2.821v0m0 2.52v0m-0.453-7.81v0m-1.058-0.656v0m-1.613 12.799v0m0.958 1.612v0m-0.303-5.794v0m-0.1 1.058v0m-0.605-2.721v0m0.907-0.252v0m0.655 0.857v0m-0.857-7.357v0m1.21 3.628v0m-1.31-1.663v0m0.907-0.453v0m-1.915-0.706v0m9.473 26.807v0m0.705-1.814v0m-0.907-1.31v0m-0.352-0.655v0m-3.225 1.209v0m0.705-2.318v0m3.679 0.554v0m0.201-3.88v0m-3.174 4.485v0m-1.663-5.392v0m-0.151 3.528v0m-0.504 2.922v0m1.259 2.57v0m-0.755-0.706v0m-0.555-6.802v0m2.469-2.066v0m0.555 5.039v0m2.217-5.14v0m0.504 3.83v0m0 2.822v0m0 2.519v0m-5.795-3.88v0m-0.403-1.31v0m4.686-3.275v0m-0.957 8.616v0m-0.706-1.663v0m0.907-0.252v0m0.655 0.857v0m-2.368 0.504v0m1.512-7.861v0m1.209 3.628v0m-1.26-0.957v0m0.857-1.159v0m-2.469 0.907v0m-0.554-1.31v0m1.259 0.05v0m-2.62-0.907v0m-1.864 8.415v0m0.403 0.655v0m0.302-2.469v0m-0.907-1.31v0m-0.353-0.655v0m1.159-0.554v0m0.252-3.175v0m-3.225 3.779v0m0.101-5.945v0m0.555 5.038v0m2.217-5.139v0m0.503 3.829v0m0 2.822v0m0 2.519v0m0.051-8.112v0m-1.562-0.353v0m-0.958 8.617v0m-0.1 1.058v0m-0.605-2.721v0m0.907-0.252v0m0.655 0.856v0m-0.857-7.356v0m1.21 3.628v0m-1.31-1.663v0m0.907-0.454v0m-1.915-0.705v0m25.899-1.663v0m0.907 1.613v0m-2.872-0.353v0m-7.407 1.562v0m3.679-2.973v0m2.872 2.57v0m-3.729-1.814v0m2.419-0.907v0m2.821 0v0m2.52 0v0m-7.71-0.706v0m-0.756 2.218v0m6.702 0.755v0m2.469-1.36v0m-8.969 1.562v0m3.628-1.209v0m-1.663 1.31v0m-0.453-0.907v0m-4.636-1.462v0m-1.008 1.562v0m-1.713 0.555v0m-1.159-1.814v0m-0.05 1.612v0m4.887-1.713v0m-1.007 1.814v0m1.713-0.907v0m-3.527-0.101v0m-1.008-1.562v0m-0.756-0.705v0m0.454 2.267v0m4.736-2.066v0m-6.147 1.21v0m3.678-1.059v0m-0.101 1.059v0m-0.907-1.663v0m13.655-8.969v0m-1.31 0.907v0m-0.655 0.352v0m-0.554-1.159v0m-3.174-0.251v0m-2.218-0.051v0m3.78-0.101v0m2.821 0v0m2.52 0v0m-8.465 1.512v0m7.558 0.101v0m-3.729-0.353v0m-2.116 0.403v0m-4.082-1.915v0m-1.562 2.016v0m-4.585-0.857v0m6.047-0.201v0m1.209 0.604v0m-3.527-0.1v0m-1.008-1.562v0m-0.302 1.562v0m-1.411-0.857v0m3.577 0v0m9.624 9.322v0m-2.267 0.353v0m3.829-0.504v0m-2.368-0.706v0m3.074 1.965v0m-5.19-1.007v0m-2.57-0.958v0m-19.399-16.628v0m28.015 1.814v0m0 18.543v0m-28.721 8.868v0m2.772-0.1v0m-0.101-29.074v0m25.184 57.768v0m0.202-1.361v0m-1.26 0.504v0m-1.008 0.756v0m0.756-7.508v0" fill="none" stroke="#000" stroke-linecap="round" stroke-width=".403"/>
    </g>
    <g transform="translate(130.34 394.65)">
     <path d="m0 0v0m-1.764 1.864v0m1.361-3.678v0m-1.613-1.159v0m-1.259 4.485v0m0.856 1.159v0m-2.519-0.857v0m-0.403 0.806v0m1.612-5.039v0m-1.159-1.814v0m-0.05 1.613v0m-0.655 2.62v0m1.209 0.504v0m3.83-4.132v0m0.806-3.174v0m0.554 5.744v0m-2.066-0.958v0m1.915-1.41v0m-1.31-4.686v0m-0.353-0.656v0m-1.864 5.241v0m-1.361-4.031v0m0.152-1.713v0m4.232-0.051v0m0.252-3.174v0m-3.225 3.779v0m-1.663-5.392v0m-0.151 3.528v0m-0.504 2.922v0m1.26 2.57v0m-0.756-0.706v0m-0.554-6.802v0m2.469-2.066v0m0.554 5.039v0m2.217-5.14v0m0.504 3.83v0m-4.736 7.407v0m4.736-4.585v0m0.504 2.469v0m-6.298-3.83v0m-0.555 4.434v0m0.152-5.744v0m4.686-3.275v0m-2.217 14.915v0m0.604-2.117v0m0.958 1.613v0m-2.318-1.159v0m-1.21-0.554v0m3.225-4.082v0m-0.101 1.058v0m-1.058-2.872v0m1.361-0.101v0m0.655 0.857v0m-2.368 0.504v0m1.511-7.861v0m1.21 3.628v0m-1.311-1.663v0m0.907-0.453v0m-2.469 0.907v0m-0.554-1.31v0m1.109-0.303v0m-2.469-0.554v0m-15.117 16.225v0m0.202-1.36v0m-1.26 0.504v0m-1.008 0.755v0m0.756-7.507v0m0.454 4.988v0m-1.764 1.864v0m1.008-3.073v0m-1.26-1.764v0m-1.259 4.485v0m0.856 1.159v0m-2.519-0.857v0m-0.403 0.806v0m1.612-5.039v0m-1.159-1.814v0m-0.05 1.613v0m-0.655 2.62v0m0.655 0.302v0m4.887-4.635v0m0.303-2.469v0m0.554 5.744v0m-1.864-1.461v0m1.31-0.605v0m-0.907-4.988v0m-0.353-0.656v0m-1.864 5.241v0m-1.361-4.031v0m0.706-2.318v0m3.678 0.554v0m0.252-3.174v0m-3.225 3.779v0m-1.663-5.392v0m-0.151 3.528v0m-0.504 2.922v0m1.26 2.57v0m-0.756-0.706v0m-0.554-6.802v0m2.469-2.066v0m0.554 5.039v0m2.217-5.14v0m0.504 3.83v0m-4.736 7.407v0m4.736-4.585v0m0 2.519v0m-5.795-3.88v0m-0.352 5.089v0m6.852-8.918v0m-6.903 2.519v0m4.686-3.275v0m-2.217 14.915v0m0.605-2.117v0m0.957 1.613v0m-2.318-1.159v0m-1.209-0.554v0m3.225-4.082v0m-0.101 1.058v0m-0.604-2.721v0m0.907-0.252v0m0.655 0.857v0m-2.369 0.504v0m1.512-7.861v0m1.209 3.628v0m-1.259-1.259v0m0.856-0.857v0m-2.469 0.907v0m-0.554-1.31v0m1.108-0.303v0m-2.469-0.554v0m18.442 16.225v0m0.202-1.36v0m-1.26 0.504v0m-1.007 0.755v0m0.755-7.507v0m0.454 4.988v0m-1.764 1.864v0m0.706-3.476v0m-0.958-1.361v0m-1.259 4.485v0m0.856 1.159v0m-2.519-0.857v0m-0.403 0.806v0m1.612-5.039v0m-1.159-1.814v0m-0.05 1.613v0m-0.655 2.62v0m0.655 0.302v0m4.887-4.635v0m0.303-2.469v0m0.201 5.19v0m-1.713-1.512v0m1.915-0.302v0m-1.31-4.686v0m-0.353-0.656v0m-1.864 5.241v0m-1.361-4.031v0m0.706-2.318v0m3.678 0.554v0m0.252-3.174v0m-3.225 3.779v0m-1.663-5.392v0m-0.151 3.528v0m-0.504 2.922v0m1.26 2.57v0m-0.756-0.706v0m-0.554-6.802v0m2.469-2.066v0m0.554 5.039v0m2.217-4.686v0m0 3.124v0m-4.232 7.659v0m4.736-4.585v0m0 2.519v0m-5.795-3.88v0m-0.352 5.089v0m6.853-8.918v0m-6.904 2.519v0m4.686-3.275v0m-2.217 14.915v0m0.605-2.117v0m0.957 1.613v0m-2.317-1.159v0m-1.21-0.554v0m3.225-4.082v0m-0.101 1.058v0m-0.604-2.721v0m0.907-0.252v0m0.655 0.857v0m-2.369 0.504v0m1.512-7.861v0m1.209 3.628v0m-1.31-1.663v0m0.907-0.453v0m-2.469 0.907v0m-0.1-0.756v0m0.655-0.857v0m-2.469-0.554v0m-1.311-1.511v0m1.361 0.201v0" fill="none" stroke="#000" stroke-linecap="round" stroke-width=".403"/>
    </g>
    <g transform="translate(115.03 378.48)">
     <path d="m0 0v0m-0.756-1.008v0m7.508 0.756v0m-4.988 0.454v0m-1.865-1.764v0m3.679 1.36v0m0.604-1.763v0m-3.93-1.109v0m-1.159 0.857v0m0.857-2.519v0m-0.807-0.404v0m5.039 1.613v0m1.814-1.159v0m-1.612-0.05v0m-2.62-0.656v0m-0.303 0.656v0m4.636 4.887v0m2.469 0.302v0m-5.744 0.555v0m1.461-1.865v0m0.907 1.714v0m4.686-1.31v0m0.655-0.353v0m-5.24-1.865v0m4.031-1.36v0m2.318 0.705v0m-0.555 3.679v0m3.175 0.252v0m-3.779-3.225v0m5.391-1.663v0m-3.527-0.151v0m-2.922-0.504v0m-2.57 1.26v0m0.705-0.756v0m6.803-0.554v0m2.065 2.469v0m-5.038 0.554v0m4.988 3.729v0m-3.678-1.008v0m-7.407-4.737v0m4.585 4.737v0m-2.519 0v0m3.88-5.795v0m-5.09-0.353v0m9.524 19.249v0m-3.124-19.299v0m3.275 4.686v0m-14.915-2.217v0m2.116 0.605v0m-1.612 0.957v0m1.159-2.318v0m0.554-1.209v0m4.081 3.225v0m-1.058-0.101v0m2.721-0.605v0m0.252 0.907v0m-0.856 0.655v0m-0.504-2.368v0m7.86 1.512v0m-3.628 1.209v0m1.663-1.31v0m0.454 0.907v0m-0.907-2.469v0m1.31-0.554v0m0.302 1.108v0m0.554-2.469v0m-16.023-0.554v0m1.36 0.202v0m-0.503-1.26v0m-0.756-1.008v0m7.508 0.756v0m-4.989 0.453v0m-1.864-1.763v0m3.073 0.957v0m1.764-1.209v0m-5.643-0.403v0m7.004 2.368v0m2.469 0.302v0m-5.745 0.555v0m1.462-1.865v0m0.907 1.713v0m4.686-1.31v0m0.655-0.352v0m-5.241-1.865v0m5.795 3.024v0m3.174 0.252v0m-3.779-3.225v0m5.946 0.1v0m-5.039 0.555v0m5.14 2.217v0m-3.83 0.504v0m-2.821 0v0m-2.52 0v0m7.81-0.454v0m0.655-1.058v0m-12.798-1.612v0m-1.613 0.957v0m5.795-0.302v0m-1.058-0.101v0m2.721-0.605v0m0.252 0.907v0m-0.857 0.655v0m7.357-0.856v0m-3.628 1.209v0m1.663-1.31v0m0.453 0.907v0m0.706-1.915v0m-26.807 9.473v0m1.814 0.705v0m1.31-0.906v0m0.655-0.353v0m-1.209-3.225v0m2.318 0.705v0m-0.554 3.679v0m3.879 0.201v0m-4.484-3.174v0m5.391-1.663v0m-3.527-0.151v0m-2.922-0.504v0m-2.57 1.26v0m0.705-0.756v0m6.803-0.554v0m2.066 2.469v0m-5.039 0.554v0m5.139 2.217v0m-3.829 0.504v0m-2.822 0v0m-2.519 0v0m3.88-5.795v0m1.31-0.403v0m3.275 4.686v0m-8.616-0.957v0m1.663-0.706v0m0.251 0.907v0m-0.856 0.655v0m-0.504-2.368v0m7.86 1.512v0m-3.627 1.209v0m0.957-1.26v0m1.159 0.857v0m-0.907-2.469v0m1.31-0.554v0m-0.05 1.259v0m0.907-2.62v0m-8.415-1.864v0m-0.655 0.403v0m2.469 0.302v0m1.31-0.907v0m0.655-0.352v0m0.554 1.159v0m3.175 0.252v0m-3.78-3.225v0m5.946 0.1v0m-5.039 0.555v0m5.14 2.217v0m-3.829 0.504v0m-2.822 0v0m-2.52 0v0m8.113 0.05v0m0.353-1.562v0m-8.617-0.957v0m-1.058-0.101v0m2.721-0.605v0m0.252 0.907v0m-0.857 0.655v0m7.357-0.856v0m-3.628 1.209v0m1.663-1.31v0m0.453 0.907v0m0.706-1.915v0m1.663 25.9v0m-1.613 0.907v0m0.353-2.873v0m-1.562-7.407v0m2.973 3.679v0m-2.57 2.872v0m1.814-3.729v0m0.907 2.419v0m0 2.821v0m0 2.52v0m0.705-7.71v0m-2.217-0.755v0m-0.755 6.701v0m1.36 2.469v0m-1.562-8.969v0m1.209 3.628v0m-1.31-1.663v0m0.907-0.453v0m1.461-4.636v0m-1.562-1.008v0m-0.554-1.713v0m1.814-1.159v0m-1.612-0.05v0m1.713 4.888v0m-1.814-1.008v0m0.907 1.713v0m0.101-3.527v0m1.562-1.008v0m0.705-0.756v0m-2.267 0.454v0" fill="none" stroke="#000" stroke-linecap="round" stroke-width=".403"/>
    </g>
    <g transform="translate(114.32 386.04)">
     <path d="m0 0v0m-1.209-6.147v0m1.058 3.678v0m-1.058-0.101v0m1.662-0.907v0m8.97 13.655v0m-0.907-1.31v0m-0.353-0.655v0m1.159-0.554v0m0.252-3.174v0m0.05-2.218v0m0.101 3.78v0m0 2.821v0m0 2.52v0m-1.512-8.465v0m-0.101 7.558v0m0.353-3.729v0m-0.403-2.116v0m1.915-4.082v0m-2.016-1.562v0m0.857-4.585v0m0.201 6.046v0m-0.604 1.21v0m0.101-3.527v0m1.562-1.008v0m-1.562-0.302v0m0.856-1.411v0m0 3.577v0m-9.322 9.624v0m-0.352-2.267v0m0.504 3.829v0m0.705-2.368v0m-1.965 3.074v0m1.008-5.19v0m0.957-2.57v0m16.628-19.399v0m-1.814 28.015v0m-18.543 0v0m-8.868-28.721v0m0.101 2.772v0m29.074-0.101v0" fill="none" stroke="#000" stroke-linecap="round" stroke-width=".403"/>
    </g>
   </g>
  </g>
  <g transform="matrix(.35278 0 0 -.35278 86.175 285.87)">
   <g clip-path="url(#clipPath32441)">
    <g transform="translate(133.66 347.36)">
     <path d="m0 0v0m-0.454-4.988v0m0.404 1.814v0m1.612 1.158v0m1.713-0.554v0m1.159 1.814v0m0.051-1.612v0m0.655-2.62v0m-1.21-0.504v0m-3.829 4.131v0m-0.806 3.175v0m-0.555-5.744v0m2.066 0.957v0m-1.915 1.411v0m1.311 4.686v0m0.352 0.655v0m1.865-5.24v0m1.36 4.031v0m-0.151 1.713v0m-4.233 0.05v0m-0.252 3.175v0m3.225-3.779v0m1.663 5.391v0m0.151-3.527v0m0.504-2.922v0m-1.26-2.57v0m0.756 0.705v0m0.554 6.803v0m-2.469 2.065v0m-0.554-5.038v0m-2.217 5.139v0m-0.504-3.829v0m4.737-7.407v0m-4.737 4.585v0m-0.504-2.469v0m6.299 3.829v0m0.554-4.434v0m-0.151 5.745v0m-4.686 3.275v0m2.217-14.915v0m-0.605 2.116v0m-0.957-1.612v0m2.318 1.159v0m1.209 0.554v0m-3.225 4.081v0m0.101-1.058v0m1.058 2.872v0m-1.36 0.101v0m-0.655-0.856v0m2.368-0.504v0m-1.512 7.86v0m-1.209-3.628v0m1.31 1.663v0m-0.907 0.454v0m2.469-0.907v0m0.554 1.31v0m-1.108 0.302v0m2.469 0.554v0m-0.051 3.024v0m-0.655 0.352v0m-1.108 2.52v0m0.554-3.679v0m-3.174-0.252v0m3.779 3.225v0m-5.392 1.663v0m3.527 0.151v0m-4.081-1.914v0m5.039-0.555v0m-4.989-3.728v0m3.679 1.007v0m2.821 0v0m-5.794-13.101v0m-0.151 14.613v0m0.201 0.957v0m3.628-1.209v0m-1.663 1.31v0m-0.453-0.907v0m0.907 2.469v0m-1.31 0.554v0m-0.303-1.108v0m5.442-7.508v0" fill="none" stroke="#000" stroke-linecap="round" stroke-width=".403"/>
    </g>
   </g>
  </g>
  <g transform="matrix(.35278 0 0 -.35278 86.175 285.87)">
   <g clip-path="url(#clipPath32453)">
    <g transform="translate(95.865 397.7)">
     <path d="m0 0v0m-0.202 1.36v0m1.26-0.503v0m1.008-0.756v0m-0.756 7.508v0m-0.453-4.989v0m1.763-1.864v0m-1.008 3.073v0m1.26 1.764v0m1.26-4.484v0m-0.857-1.159v0m2.52 0.856v0m0.403-0.806v0m-1.613 5.039v0m1.159 1.814v0m0.051-1.613v0m0.655-2.62v0m-0.655-0.302v0m-4.888 4.636v0m-0.302 2.469v0m-0.555-5.745v0m1.865 1.462v0m-1.31 0.604v0m0.907 4.989v0m0.352 0.655v0m1.865-5.241v0m1.36 4.031v0m-0.705 2.318v0m-3.679-0.554v0m-0.252 3.174v0m3.225-3.779v0m1.663 5.392v0m0.151-3.527v0m0.504-2.923v0m-1.26-2.57v0m0.756 0.706v0m0.555 6.802v0m-2.469 2.066v0m-0.555-5.039v0m-2.217 5.14v0m-0.504-3.83v0m4.737-7.407v0m-4.737 4.586v0m0-2.52v0m5.795 3.88v0m0.353-5.089v0m-6.853 8.919v0m6.903-2.52v0m-4.686 3.275v0m2.217-14.914v0m-0.605 2.116v0m-0.957-1.613v0m2.318 1.159v0m1.209 0.555v0m-3.225 4.081v0m0.101-1.058v0m0.605 2.721v0m-0.907 0.252v0m-0.655-0.857v0m2.368-0.504v0m-1.512 7.861v0m-1.209-3.628v0m1.26 1.26v0m-0.857 0.856v0m2.469-0.907v0m0.554 1.31v0m-1.108 0.303v0m2.469 0.554v0m-16.376-16.124v0m-0.756 7.508v0m1.31-6.853v0m-0.705 3.477v0m0.957 1.36v0m1.26-4.484v0m-0.857-1.159v0m2.52 0.856v0m0.403-0.806v0m-1.613 5.039v0m1.159 1.814v0m0.051-1.613v0m0.655-2.62v0m-0.655-0.302v0m-3.679 3.426v0m-0.604 4.989v0m0.352 0.655v0m1.865-5.241v0m1.36 4.031v0m-0.705 2.318v0m-0.706-1.159v0m1.663 5.392v0m0.151-3.527v0m0.504-2.923v0m-1.26-2.57v0m0.756 0.706v0m0.554 6.802v0m-2.469 2.066v0m-0.554-5.039v0m2.016-6.097v0m1.058 5.946v0m0.353-5.089v0m0.05 6.399v0m-4.686 3.275v0m2.217-14.914v0m-0.605 2.116v0m-0.957-1.613v0m2.318 1.159v0m1.209 0.555v0m-3.225 4.081v0m0.101-1.058v0m0.605 2.721v0m-0.907 0.252v0m-0.655-0.857v0m2.368-0.504v0m-1.512 7.861v0m-1.209-3.628v0m1.31 1.663v0m-0.907 0.453v0m2.469-0.907v0m0.101 0.756v0m-0.655 0.857v0m2.469 0.554v0m1.31 1.512v0m-1.361-0.202v0m0.504 1.26v0m0.756 1.007v0m-2.519-1.209v0m1.864 1.764v0m-3.678-1.361v0m-0.605 1.764v0m3.93 1.108v0m1.159-0.856v0m-0.856 2.519v0m0.806 0.403v0m-5.039-1.612v0m-0.201 1.209v0m2.62 0.655v0m0.302-0.655v0m-1.36-5.744v0m-1.462 1.864v0m-0.907-1.713v0m-0.1 3.527v0m0 1.31v0m4.383-1.007v0m-2.116-0.605v0m1.612-0.957v0m-1.159 2.317v0m-0.554 1.21v0m2.419 0.705v0m12.496-5.391v0m-1.814-0.706v0m-1.31 0.907v0m-0.655 0.353v0m1.209 3.225v0m-2.318-0.706v0m0.555-3.678v0m-3.88-0.202v0m4.484 3.175v0m-5.391 1.663v0m3.527 0.151v0m2.922 0.504v0m2.57-1.26v0m-0.705 0.756v0m-6.803 0.554v0m-2.065-2.469v0m5.038-0.554v0m-5.139-2.217v0m3.829-0.504v0m2.822 0v0m2.519 0v0m-3.879 5.794v0m-1.311 0.404v0m-3.275-4.686v0m8.617 0.957v0m-1.663 0.705v0m-0.252-0.907v0m0.856-0.655v0m0.504 2.369v0m-7.86-1.512v0m3.628-1.209v0m-0.958 1.259v0m-1.159-0.856v0m0.907 2.469v0m-1.31 0.554v0m0.051-1.26v0m-0.907 2.62v0m-1.31-21.465v0m1.612-0.907v0m-0.353 2.872v0m1.562 7.407v0m-2.973-3.678v0m2.57-2.872v0m-1.814 3.729v0m-0.907-2.419v0m0-2.822v0m0-2.519v0m-0.705 7.709v0m2.217 0.756v0m0.756-6.702v0m-1.361-2.469v0m1.562 8.969v0" fill="none" stroke="#000" stroke-linecap="round" stroke-width=".403"/>
    </g>
    <g transform="translate(93.396 403.74)">
     <path d="m0 0v0m1.31 1.663v0m-0.907 0.453v0m-1.461 4.636v0m1.562 1.008v0m0.554 1.713v0m-1.814 1.159v0m1.613 0.05v0m-1.714-4.887v0m1.814 1.007v0m-0.907-1.713v0m-0.1 3.527v0m-1.562 1.008v0m-0.706 0.756v0m2.268-0.454v0m-2.066-4.736v0m1.209 6.147v0m-1.058-3.678v0m1.058 0.101v0m-1.663 0.907v0m0.403-12.093v0m0.353 2.267v0m-0.504-3.829v0m-0.705 2.368v0m1.965-3.074v0m-1.008 5.19v0m-0.957 2.57v0m3.728-8.616v0m18.668 17.04v0m-1.008 0.756v0m0.756-7.508v0m0.453 4.989v0m-1.763 1.864v0m1.36-3.678v0m-1.764-0.605v0m-1.108 3.93v0m0.857 1.159v0m-2.52-0.856v0m-0.403 0.806v0m1.612-5.039v0m-1.158-1.814v0m-0.051 1.612v0m-0.655 2.621v0m0.655 0.302v0m4.888-4.636v0m0.302-2.469v0m-1.31 4.283v0m0.403-5.593v0m-0.353-0.655v0m-1.864 5.24v0m-1.36-4.031v0m0.705-2.317v0m3.678 0.554v0m-2.973 0.604v0m-1.662-5.391v0m-0.152 3.527v0m-0.503 2.923v0m1.259 2.569v0m-0.756-0.705v0m-0.554-6.802v0m2.469-2.066v0m0.554 5.038v0m-2.015 6.097v0m-1.058-5.945v0m-0.353 5.089v0m-0.05-6.399v0m4.686-3.276v0m-2.217 14.915v0m0.604-2.116v0m0.958 1.612v0m-2.318-1.159v0m-1.209-0.554v0m3.224-4.081v0m-0.1 1.058v0m-0.605-2.721v0m0.907-0.252v0m0.655 0.857v0m-2.368 0.503v0m1.511-7.86v0m1.21 3.628v0m-1.31-1.663v0m0.907-0.453v0m-2.469 0.907v0m-0.555-1.311v0m1.109-0.302v0m-2.469-0.554v0m-0.554 16.023v0m0.201-1.36v0m-1.26 0.504v0m-1.007 0.755v0m0.756-7.507v0m0.453 4.988v0m-1.764 1.864v0m0.958-3.073v0m-1.21-1.764v0m-0.403 5.644v0m2.369-7.004v0m0.302-2.469v0m0.554 5.744v0m-1.864-1.461v0m1.713-0.907v0m-1.31-4.686v0m-0.353-0.655v0m-1.864 5.24v0m3.023-5.795v0m0.252-3.174v0m-3.225 3.779v0m0.101-5.946v0m0.554 5.039v0m2.217-5.14v0m0.504 3.83v0m0 2.822v0m0 2.519v0m-0.453-7.81v0m-1.058-0.655v0m-1.613 12.798v0m0.958 1.613v0m-0.303-5.795v0m-0.101 1.058v0m-0.604-2.721v0m0.907-0.252v0m0.655 0.857v0m-0.857-7.357v0m1.21 3.628v0m-1.311-1.663v0m0.907-0.453v0m-1.914-0.705v0m8.918 23.027v0m-2.519-1.109v0m3.678 0.555v0m-2.973 0.604v0m-1.662-5.391v0m-0.152 3.527v0m-0.554-2.016v0m2.469-2.066v0m0.554 5.039v0m2.218-5.139v0m-5.291 5.29v0m-0.403-1.31v0m4.686-3.275v0m-0.958 0.202v0m1.21 3.628v0m-1.26-0.958v0m0.857-1.159v0m-2.469 0.907v0m-0.555-1.31v0m1.26 0.051v0m-2.62-0.907v0m-2.419 4.635v0m1.159-0.554v0m0.252-3.174v0m-3.225 3.779v0m0.101-5.946v0m0.554 5.039v0m2.217-5.14v0m0.504 3.83v0m0.051-2.772v0m-1.562-0.352v0m-0.958 0.201v0m1.21 3.628v0m-1.311-1.663v0m0.907-0.453v0m-1.914-0.706v0m1.007-20.356v0m1.966 0.05v0" fill="none" stroke="#000" stroke-linecap="round" stroke-width=".403"/>
    </g>
   </g>
  </g>
  <g transform="matrix(.35278 0 0 -.35278 86.175 285.87)">
   <g clip-path="url(#clipPath32469)">
    <g transform="translate(98.09 420.56)">
     <path d="m0 0c4.141 1.553 9.052 1.076 14.319-1.807v-12.547c-3.57 1.954-6.897 2.277-9.703 1.225-5.071-1.902-8.437-8.294-8.437-17.672 0-14.567 8.121-30.822 18.14-36.305 8.439-4.619 15.531-0.123 17.558 10.116l8.4-7.489c-2.926-15.282-13.438-22.026-25.958-15.173-14.784 8.091-26.769 32.078-26.769 53.574 0 13.838 4.966 23.272 12.45 26.078z" fill="none" stroke="#000" stroke-linecap="round" stroke-linejoin="round" stroke-width=".402"/>
    </g>
    <g transform="translate(112.39 406.11)">
     <path d="m0 0 7.285-1.466-0.018-12.928 6.283 2.456-7e-3 21.969-13.497 2.556z" fill="#e5e7e8"/>
    </g>
    <g transform="translate(112.39 406.11)">
     <path d="m0 0 7.285-1.466-0.018-12.928 6.283 2.456-7e-3 21.969-13.497 2.556z" fill="none" stroke="#000" stroke-linecap="round" stroke-linejoin="round" stroke-width=".402"/>
    </g>
   </g>
  </g>
  <g transform="matrix(.35278 0 0 -.35278 86.175 285.87)">
   <g clip-path="url(#clipPath32489)">
    <g transform="translate(125.41 396.47)">
     <path d="m0 0v0m-0.403 0.806v0m1.612-5.039v0m-1.209-0.201v0m-0.655 2.62v0m1.209 0.504v0m0.202-4.031v0m0.252 2.721v0m-1.21-0.554v0m-3.376 3.98v0m0.202-1.36v0m-1.26 0.504v0m-1.007 0.755v0m1.209-2.519v0m-1.764 1.864v0m0.706-3.476v0m-0.958-1.361v0m2.469 1.361v0m-1.713-1.512v0m1.915-0.302v0m-2.268 3.779v0m4.384 1.209v0m-0.907-1.31v0m-0.353-0.655v0m1.159-0.554v0m0.404-1.613v0m0 2.822v0m0 2.519v0m-1.613-0.907v0m0.353-3.728v0" fill="none" stroke="#000" stroke-linecap="round" stroke-width=".403"/>
    </g>
   </g>
  </g>
  <g transform="matrix(.35278 0 0 -.35278 86.175 285.87)">
   <g clip-path="url(#clipPath32501)">
    <g transform="translate(123.95 399.37)">
     <path d="m0 0v0m2.016 1.562v0m0.554 1.713v0m-1.814 1.159v0m1.612 0.051v0m-1.008-4.384v0m-3.174-0.806v0m3.376-0.404v0m-4.686 1.311v0m-0.655 0.352v0m5.24 1.865v0m-4.031 1.36v0m-1.713-0.151v0m-0.05-4.233v0m-3.175-0.252v0m3.779 3.225v0m-5.391 1.663v0m3.527 0.151v0m2.922 0.504v0m2.57-1.26v0m-0.705 0.756v0m-6.803 0.554v0m-2.065-2.469v0m5.038-0.554v0m-5.139-2.217v0m3.829-0.504v0m7.407 4.737v0m-4.585-4.737v0m2.469-0.504v0m-3.83 6.299v0m4.435 0.554v0m-5.745-0.151v0m-3.275-4.686v0m8.617 0.957v0m1.058 0.101v0m-2.872 1.058v0m-0.101-1.36v0m0.856-0.655v0m0.504 2.368v0m-7.86-1.512v0m3.628-1.209v0m-1.663 1.31v0m-0.454-0.907v0m0.907 2.469v0m-1.31 0.554v0m-0.302-1.108v0m-0.554 2.469v0m0.302 14.713v0m8.314-10.38v0m2.016 1.562v0m0.554 1.713v0m-1.814 1.159v0m1.612 0.051v0m-1.713-4.888v0m-2.469-0.302v0m3.678 1.511v0m-0.302-1.914v0m-4.686 1.31v0m-0.655 0.352v0m5.24 1.865v0m-4.031 1.36v0m-2.318-0.705v0m0.555-3.679v0m-3.175-0.251v0m3.779 3.224v0m-5.391 1.663v0m3.527 0.151v0m2.922 0.504v0m2.57-1.259v0m-0.705 0.755v0m-6.803 0.555v0m-2.065-2.469v0m5.038-0.555v0m-4.686-2.217v0m3.124 0v0m7.659 4.233v0m-4.585-4.737v0m2.519 0v0m-3.88 5.795v0m5.09 0.353v0m-8.919-6.853v0m2.519 6.903v0m-3.275-4.686v0m8.617 0.957v0m1.058 0.101v0m-2.721 0.605v0m-0.252-0.907v0m0.856-0.655v0m0.504 2.368v0m-7.86-1.512v0m3.628-1.209v0m-1.663 1.31v0m-0.454-0.907v0m0.907 2.469v0m-0.755 0.101v0m-0.857-0.655v0m-0.554 2.469v0m-1.512 1.31v0m0.202-1.36v0m-1.26 0.503v0m-1.008 0.756v0m0.756-7.508v0m0.453 4.989v0m-0.403-1.814v0m0.353-2.52v0m0.302-2.469v0m0.555 5.745v0m-1.865-1.462v0m1.713-0.907v0m-1.31-4.686v0m-0.352-0.655v0m1.159-0.554v0m0.252-3.174v0m1.158-2.117v0m-1.007 3.679v0m0 2.821v0m0 2.52v0m13.101-8.314v0m-14.613-0.151v0m-0.101 7.558v0m0.353-3.729v0m-0.403-2.116v0m1.461 17.686v0m-0.302-1.562v0m-1.008 0.705v0m-0.151 1.714v0m7.709 0.252v0m3.679-2.973v0m2.872 2.569v0m-3.729-1.814v0m2.419-0.907v0m-2.369-0.705v0m-0.755 2.217v0m0.201 0.957v0m3.628-1.209v0m-1.663 1.31v0m-0.453-0.907v0m-4.636-1.461v0m-1.008 1.562v0m-1.713 0.554v0m-1.159-1.814v0m-0.05 1.613v0m4.887-1.713v0m-1.007 1.814v0m1.713-0.907v0m-3.527-0.101v0m-1.008-1.562v0m-0.756-0.706v0m0.454 2.268v0m4.736-2.066v0m-6.147 1.209v0m3.678-1.058v0m-0.101 1.058v0m-0.907-1.663v0m7.962-9.12v0m-2.217-0.05v0m3.779-0.101v0m-3.124 1.512v0m1.713 0.151v0m-4.082-1.915v0m-1.562 2.016v0m-4.585-0.857v0m6.047-0.202v0m1.209 0.605v0m-3.527-0.101v0m-1.008-1.562v0m-0.302 1.562v0m-1.411-0.856v0m3.577 0v0m7.357 9.674v0m-0.655-0.252v0m-2.57-0.957v0" fill="none" stroke="#000" stroke-linecap="round" stroke-width=".403"/>
    </g>
   </g>
  </g>
  <g transform="matrix(.35278 0 0 -.35278 86.175 285.87)">
   <g clip-path="url(#clipPath32513)">
    <g transform="translate(112.39 406.11)">
     <path d="m0 0 7.177-1.505 0.09-12.889 6.283 2.456-7e-3 21.969-13.497 2.556z" fill="none" stroke="#000" stroke-linecap="round" stroke-linejoin="round" stroke-width=".402"/>
    </g>
    <g transform="translate(124.83 396.38)">
     <path d="m0 0-5.148-2.062-0.025-2.743 6.283 2.456-7e-3 22.114-6.296 1.193-0.042-1.215 5.235-1.013v-3.258l-5.193-4.222v-1.513l5.193 4.13z" fill="#808080"/>
    </g>
    <g transform="translate(124.83 396.38)">
     <path d="m0 0-5.148-2.062-0.025-2.743 6.283 2.456-7e-3 22.114-6.296 1.193-0.042-1.215 5.235-1.013v-3.258l-5.193-4.222v-1.513l5.193 4.13z" fill="none" stroke="#000" stroke-linecap="round" stroke-linejoin="round" stroke-width=".402"/>
    </g>
    <g transform="translate(129.97 363.64)">
     <path d="m0 0 4.17 5.055-8.753 7.84 6.112 2.103 14.85-13.343-7.836-9.273z" fill="#fff"/>
    </g>
    <g transform="translate(129.97 363.64)">
     <path d="m0 0 4.17 5.055-8.753 7.84 6.112 2.103 14.85-13.343-7.836-9.273z" fill="none" stroke="#000" stroke-linecap="round" stroke-linejoin="round" stroke-width=".402"/>
    </g>
   </g>
  </g>
  <g transform="matrix(.35278 0 0 -.35278 86.175 285.87)">
   <g clip-path="url(#clipPath32541)">
    <g transform="translate(131.56 361.57)">
     <path d="m0 0v0m-1.36-0.202v0m0.503 1.26v0m0.756 1.008v0m-2.519-1.209v0m1.864 1.763v0m-3.073-1.008v0m-1.764 1.26v0m4.484 1.26v0m1.159-0.857v0m-0.856 2.52v0m0.806 0.403v0m-5.039-1.613v0m-1.814 1.159v0m1.613 0.051v0m2.62 0.655v0m0.302-0.655v0m-4.636-4.888v0m3.276-0.857v0m-1.462 1.865v0m-0.604-1.31v0m-0.403 3.124v0m0 1.31v0m-0.857 1.411v0m5.24-2.419v0m-2.116-0.605v0m1.613-0.957v0m-1.159 2.318v0m-0.555 1.209v0m-3.023-3.124v0m0.343 13.578v0m0.655-0.353v0m1.109-2.519v0m-0.554 3.678v0m3.174 0.252v0m-3.779-3.225v0m5.392-1.662v0m-3.528-0.152v0m2.016-0.554v0m2.066 2.469v0m-5.039 0.554v0m1.31 2.721v0m-2.822 0v0m1.361-5.794v0m1.31-0.403v0m3.275 4.686v0m-0.201-0.958v0m-3.628 1.21v0m1.662-1.31v0m0.454 0.907v0m-0.907-2.469v0m1.31-0.555v0m0.302 1.109v0m0.555-2.469v0m-5.291-2.066v0m0.655-0.353v0m0.554 1.159v0m3.175 0.252v0m-3.779-3.225v0m5.945 0.101v0m-5.038 0.554v0m5.139 2.217v0m-3.829 0.504v0m-2.822 0v0m5.291-0.453v0m0.655-1.058v0m-0.202-0.958v0m-3.628 1.21v0m1.663-1.311v0m0.453 0.907v0m0.706-1.914v0m1.814 1.007v0m-0.05 1.966v0" fill="none" stroke="#000" stroke-linecap="round" stroke-width=".403"/>
    </g>
   </g>
  </g>
  <g transform="matrix(.35278 0 0 -.35278 86.175 285.87)">
   <g clip-path="url(#clipPath32553)">
    <g transform="translate(131.99 375.45)">
     <path d="m0 0v0m1.36 0.202v0m-0.503-1.26v0m-0.756-1.008v0m7.508 0.756v0m-4.989 0.453v0m-1.864-1.763v0m3.073 1.008v0m1.764-1.26v0m-4.484-1.26v0m-1.159 0.857v0m0.856-2.52v0m-0.806-0.403v0m5.039 1.613v0m1.814-1.159v0m-1.613-0.051v0m-2.62-0.655v0m-0.302 0.655v0m4.636 4.888v0m2.469 0.302v0m-5.745 0.555v0m1.462-1.865v0m0.604 1.31v0m4.989-0.907v0m0.655-0.352v0m-5.241-1.865v0m4.031-1.36v0m2.318 0.705v0m-0.554 3.679v0m3.174 0.252v0m-3.779-3.225v0m1.865-1.814v0m-2.923-0.504v0m-2.57 1.26v0m0.706-0.756v0m3.829 2.469v0m1.31 2.721v0m-7.407-4.737v0m4.586 4.737v0m-2.52 0v0m3.88-5.795v0m-5.089-0.353v0m6.399-0.05v0m-11.639 2.469v0m2.116 0.605v0m-1.613 0.957v0m1.159-2.318v0m0.555-1.209v0m4.081 3.225v0m-1.058-0.101v0m2.721-0.605v0m0.252 0.907v0m-0.857 0.655v0m-0.504-2.368v0m4.233 2.721v0m1.26-1.26v0m0.856 0.857v0m-0.907-2.469v0m-11.438 7.86v0m-0.907-1.612v0m2.872 0.353v0m7.407-1.562v0m-3.678 2.973v0m-2.872-2.57v0m3.729 1.814v0m-2.419 0.907v0m-2.822 0v0m-2.519 0v0m8.465-1.512v0m-6.702-0.756v0m-2.469 1.361v0m8.969-1.562v0m-3.627 1.209v0m1.662-1.31v0m0.454 0.907v0m4.636 1.461v0m1.007-1.562v0m-1.965 1.361v0m1.008-1.814v0m-1.713 0.907v0m3.527 0.1v0m-0.857 0.857v0m-13.453 0.151v0m-0.857-1.763v0m6.207-20.733v0m-1.763 0.554v0m-2.772 0.101v0m1.008-0.705v0m0.957-0.202v0m1.109-0.806v0m2.469 0.554v0m8.364 0.504v0m-1.763 0.554v0m-2.771-0.353v0m-1.21-1.007v0m2.217 0.756v0m0.958-0.202v0m1.108-0.806v0m-3.829 3.376v0m4.988-0.454v0m-1.814 0.403v0m-0.605 1.764v0m0 1.562v0m-1.813 1.159v0m1.612 0.05v0m2.62 0.655v0m0.302-0.655v0m-4.635-4.887v0m-2.469-0.303v0m5.744-0.554v0m-1.461 1.864v0m-0.907-1.713v0m-4.686 1.31v0m-0.655 0.353v0m5.24 1.864v0m-4.031 1.361v0m-2.318-0.706v0m0.554-3.678v0m-3.174-0.252v0m3.779 3.225v0m-5.392 1.663v0m3.528 0.151v0m2.922 0.504v0m2.57-1.26v0m-0.705 0.756v0m-6.803 0.554v0m-2.066-2.469v0m5.039-0.554v0m-4.988-3.729v0m3.678 1.008v0m7.407 4.736v0m-4.585-4.736v0m2.519 0v0m-3.88 5.795v0m5.089 0.352v0m-6.399 0.051v0m-3.275-4.686v0m12.798 1.612v0m1.613-0.957v0m-1.159 2.318v0m-0.554 1.209v0m-4.082-3.225v0m1.058 0.101v0m-2.721 0.604v0m-0.252-0.907v0m0.857-0.655v0m0.504 2.369v0m-7.861-1.512v0m3.628-1.209v0m-1.662 1.31v0m-0.454-0.907v0m0.907 2.469v0m-1.31 0.554v0m-0.302-1.108v0m-0.555 2.469v0m8.415 1.864v0m4.989-0.454v0m-1.21 0.807v0m-1.763 1.209v0m-1.361-1.965v0m-2.469-0.303v0m5.744-0.554v0m-1.461 1.865v0m-0.907-1.714v0m-4.686 1.31v0m-0.655 0.353v0m5.24 1.865v0m-5.794-3.024v0m-3.175-0.252v0m3.779 3.225v0m-5.945-0.101v0m5.038-0.554v0m-5.139-2.217v0m3.829-0.504v0m2.822 0v0m2.52 0v0m-7.811 0.454v0m-0.655 1.058v0m12.799 1.612v0m1.612-0.957v0m-5.794 0.302v0m1.058 0.101v0m-2.721 0.605v0m-0.252-0.907v0m0.857-0.655v0m-7.357 0.856v0m3.628-1.209v0m-1.663 1.31v0m-0.453-0.907v0m-0.706 1.915v0m6.903-11.69v0m-0.554-1.008v0m-8.163 11.69v0m0.05-1.965v0" fill="none" stroke="#000" stroke-linecap="round" stroke-width=".403"/>
    </g>
   </g>
  </g>
  <g transform="matrix(.35278 0 0 -.35278 86.175 285.87)">
   <g clip-path="url(#clipPath32565)">
    <g transform="translate(129.97 363.64)">
     <path d="m0 0 4.17 5.055-8.753 7.84 6.112 2.103 14.85-13.343-7.836-9.273z" fill="none" stroke="#000" stroke-linecap="round" stroke-linejoin="round" stroke-width=".402"/>
    </g>
    <g transform="translate(132.21 376.66)">
     <path d="m0 0-5.042-1.693-1.774 1.563 6.112 2.103 14.85-13.343-3.655-4.326-0.851 0.715 3.025 3.608-2.203 1.979-6.535-0.407-1.024 0.918 6.474 0.463z" fill="#808080"/>
    </g>
    <g transform="translate(132.21 376.66)">
     <path d="m0 0-5.042-1.693-1.774 1.563 6.112 2.103 14.85-13.343-3.655-4.326-0.851 0.715 3.025 3.608-2.203 1.979-6.535-0.407-1.024 0.918 6.474 0.463z" fill="none" stroke="#000" stroke-linecap="round" stroke-linejoin="round" stroke-width=".402"/>
    </g>
    <g transform="translate(119.82 391.78)">
     <path d="m0 0h1e-3l-1e-3 -0.145 6.282 2.455v0.146l-7e-3 21.951 0.016-4e-3c-5e-3 3e-3 -0.01 5e-3 -0.016 8e-3v0.014l-0.043 8e-3c-1.787 0.946-3.519 1.551-5.172 1.837l-13.969 2.99c-0.135 0.032-0.269 0.058-0.404 0.086l-0.07 0.016-0.021 4e-3c0.014-3e-3 0.027-7e-3 0.041-0.01-2.952 0.613-5.717 0.419-8.203-0.514-7.483-2.806-12.45-12.239-12.45-26.078 0-21.496 11.985-45.482 26.769-53.574 9.405-5.148 17.677-2.621 22.451 5.433l7.842 10.129c1.649 2.259 2.891 5.211 3.617 8.755l-0.407-0.455 0.441 0.52-14.851 13.343-6.111-2.103 0.095-0.086c-0.021-0.087-0.048-0.167-0.071-0.252-3.115 2.223-5.534 7.387-5.534 12.054 0 1.419 0.224 2.64 0.622 3.619l-0.94-0.342m3.687-18.44c0.01 5e-3 0.019 0.011 0.028 0.017-9e-3 -6e-3 -0.018-0.012-0.028-0.017zm-0.376-0.171c-0.016-5e-3 -0.032-9e-3 -0.047-0.013 0.069 0.023 0.135 0.055 0.202 0.083-0.052-0.022-0.102-0.05-0.155-0.07zm-0.895-0.184c0.103 7e-3 0.204 0.022 0.305 0.039-0.101-0.016-0.202-0.032-0.305-0.039zm0.434 0.058c0.105 0.02 0.208 0.05 0.309 0.081-0.101-0.031-0.204-0.061-0.309-0.081zm-0.887-0.057c0.102-6e-3 0.201-5e-3 0.301-2e-3 -0.1-3e-3 -0.199-4e-3 -0.301 2e-3zm-0.172 0.02c-0.099 0.011-0.198 0.021-0.299 0.04 0.101-0.019 0.2-0.029 0.299-0.04zm-0.482 0.085c-0.101 0.024-0.201 0.046-0.303 0.077 0.102-0.031 0.202-0.053 0.303-0.077zm-0.473 0.14c-0.11 0.039-0.22 0.076-0.331 0.123 0.111-0.047 0.221-0.084 0.331-0.123zm-13.259 47.904c-0.082 0.02-0.163 0.042-0.244 0.062 0.081-0.02 0.162-0.041 0.244-0.062z" fill="none" stroke="#000" stroke-linecap="round" stroke-linejoin="round" stroke-width=".805"/>
    </g>
   </g>
  </g>
 </g>
</svg>
