<svg width="25.8mm" height="29.633mm" version="1.1" viewBox="0 0 25.8 29.633" xmlns="http://www.w3.org/2000/svg">
 <defs>
  <clipPath id="clipPath32103">
   <path d="m73.559 433.89h73.134v84.001h-73.134z"/>
  </clipPath>
  <clipPath id="clipPath32087">
   <path d="m97.779 513.05c-6.283-2.356-10.711-9.592-11.704-20.274h25.487l-0.082 18.545c-3.176 1.738-6.217 2.562-9.023 2.562-1.647 0-3.213-0.284-4.678-0.833"/>
  </clipPath>
  <clipPath id="clipPath32043">
   <path d="m86.084 492.87c-0.145-1.523-0.219-3.115-0.219-4.774 0-20.149 11.005-42.586 24.752-50.772h18.392c3.58 2.927 6.193 7.863 7.379 14.388l-16.504 14.93c-0.9-4.954-4.273-7.157-8.295-4.956-4.71 2.578-8.53 10.222-8.53 17.071 0 4.41 1.583 7.417 3.967 8.311 1.32 0.495 2.885 0.343 4.563-0.576l-0.028 6.378z"/>
  </clipPath>
  <clipPath id="clipPath32031">
   <path d="m110.46 437.41c0.337-0.205 0.676-0.4 1.017-0.586 6.836-3.742 13.048-3.246 17.642 0.586z"/>
  </clipPath>
  <clipPath id="clipPath32015">
   <path d="m73.559 433.89h73.134v84.001h-73.134z"/>
  </clipPath>
  <clipPath id="clipPath32003">
   <path d="m138.93 452.46 7.314 2.662-7.314 6.597z"/>
  </clipPath>
  <clipPath id="clipPath31987">
   <path d="m119.86 466.64 16.691-15.053 2.478 0.901v9.143l-9.468 8.54z"/>
  </clipPath>
  <clipPath id="clipPath31971">
   <path d="m73.559 433.89h73.134v84.001h-73.134z"/>
  </clipPath>
  <clipPath id="clipPath31959">
   <path d="m111.64 511.39 0.01-18.615h9.703l-0.013 22.145z"/>
  </clipPath>
  <clipPath id="clipPath31947">
   <path d="m111.65 492.87 4e-3 -6.163 9.7 3.531-1e-3 2.632z"/>
  </clipPath>
  <clipPath id="clipPath31931">
   <path d="m73.559 433.89h73.134v84.001h-73.134z"/>
  </clipPath>
  <clipPath id="clipPath31919">
   <path d="m138.93 452.47v-11.544c3.55 2.894 6.153 7.761 7.357 14.192z"/>
  </clipPath>
  <clipPath id="clipPath31907">
   <path d="m136.42 451.56c-1.203-6.459-3.813-11.344-7.376-14.244h2.239l3.909 1.423c1.372 0.523 2.655 1.28 3.833 2.256v11.502z"/>
  </clipPath>
  <clipPath id="clipPath31895">
   <path d="m129.16 437.41c-1.215-1.009-2.542-1.785-3.965-2.311l6.347 2.311zm-4.092-2.358c0.043 0.016 0.085 0.031 0.127 0.047z"/>
  </clipPath>
  <clipPath id="clipPath31883">
   <path d="m73.559 433.89h73.134v84.001h-73.134z"/>
  </clipPath>
  <clipPath id="clipPath31871">
   <path d="m107.71 516.66-9.635-3.506c3.914 1.384 8.53 0.894 13.473-1.812l9.879 3.596c-3.175 1.738-6.216 2.562-9.022 2.562-1.653 0-3.225-0.286-4.695-0.84m-9.863-3.589 0.228 0.083c-0.076-0.027-0.152-0.054-0.228-0.083"/>
  </clipPath>
  <clipPath id="clipPath31847">
   <path d="m136.35 451.54c-1.603-8.607-5.704-14.42-11.231-16.464l10.003 3.644c5.456 2.08 9.504 7.853 11.099 16.373zm-11.354-16.508c0.041 0.014 0.082 0.029 0.123 0.044z"/>
  </clipPath>
  <linearGradient id="linearGradient31861" x1=".020004" x2="1" gradientTransform="matrix(27.513 -77.927 -26.624 -9.3995 123.38 522.1)" gradientUnits="userSpaceOnUse">
   <stop stop-color="#fff" offset="0"/>
   <stop stop-color="#bcbdc0" offset=".10001"/>
   <stop stop-color="#bcbec0" offset=".89999"/>
   <stop offset="1"/>
  </linearGradient>
  <clipPath id="clipPath31823">
   <path d="m107.64 516.63-9.632-3.504c3.913 1.382 8.528 0.89 13.469-1.814l9.88 3.596c-3.176 1.738-6.217 2.562-9.022 2.562-1.653 0-3.226-0.286-4.695-0.84m-9.864-3.589 0.232 0.085c-0.079-0.028-0.155-0.056-0.232-0.085"/>
  </clipPath>
  <linearGradient id="linearGradient31837" x1=".020004" x2="1" gradientTransform="matrix(27.513 -77.927 -23.007 -8.1226 120.05 520.92)" gradientUnits="userSpaceOnUse">
   <stop stop-color="#fff" offset="0"/>
   <stop stop-color="#bcbdc0" offset=".10001"/>
   <stop stop-color="#bcbec0" offset=".89999"/>
   <stop offset="1"/>
  </linearGradient>
  <clipPath id="clipPath31809">
   <path d="m73.559 433.89h73.134v84.001h-73.134z"/>
  </clipPath>
  <clipPath id="clipPath31793">
   <path d="m107.36 516.53c-6.944-2.603-11.623-11.169-11.901-23.759h25.699l-0.097 22.031c-3.176 1.738-6.216 2.562-9.023 2.562-1.647 0-3.213-0.284-4.678-0.834"/>
  </clipPath>
  <clipPath id="clipPath31781">
   <path d="m138.93 441.1c3.402 2.958 5.886 7.783 7.032 14.097l-7.032 6.361z"/>
  </clipPath>
  <clipPath id="clipPath31741">
   <path d="m95.458 492.87c-0.01-0.425-0.015-0.854-0.015-1.288 0-20.57 11.469-43.523 25.615-51.266 6.999-3.83 13.344-3.22 17.968 0.866v20.295l-9.564 8.651c-0.901-4.954-4.272-7.157-8.295-4.955-4.711 2.578-8.529 10.221-8.529 17.071 0 4.41 1.582 7.416 3.967 8.309 1.319 0.495 2.884 0.343 4.562-0.575l-0.013 2.892z"/>
  </clipPath>
  <clipPath id="clipPath31719">
   <path d="m107.36 516.53c-7.162-2.684-11.914-11.711-11.914-24.954 0-20.57 11.469-43.523 25.615-51.266 12.079-6.61 22.206 4e-3 24.908 14.883l-16.504 14.929c-0.901-4.954-4.272-7.157-8.295-4.955-4.711 2.578-8.529 10.221-8.529 17.071 0 4.41 1.582 7.416 3.967 8.309 1.319 0.495 2.884 0.343 4.562-0.575l-0.109 24.83c-3.176 1.738-6.216 2.562-9.022 2.562-1.647 0-3.213-0.284-4.679-0.834"/>
  </clipPath>
  <linearGradient id="linearGradient31731" x1=".39327" x2=".61798" gradientTransform="matrix(-30.178 82.913 40.978 14.915 111.38 424.96)" gradientUnits="userSpaceOnUse">
   <stop stop-color="#fff" offset="0"/>
   <stop stop-color="#bcbec0" offset=".5"/>
   <stop offset="1"/>
  </linearGradient>
 </defs>
 <g transform="translate(-111.52 -137.39)">
  <path d="m111.52 167.02h25.8v-29.633h-25.8z" fill="#fff"/>
  <g transform="matrix(.35278 0 0 -.35278 85.573 320.09)">
   <g clip-path="url(#clipPath31719)">
    <path d="m107.36 516.53c-7.162-2.684-11.914-11.711-11.914-24.954 0-20.57 11.469-43.523 25.615-51.266 12.079-6.61 22.206 4e-3 24.908 14.883l-16.504 14.929c-0.901-4.954-4.272-7.157-8.295-4.955-4.711 2.578-8.529 10.221-8.529 17.071 0 4.41 1.582 7.416 3.967 8.309 1.319 0.495 2.884 0.343 4.562-0.575l-0.109 24.83c-3.176 1.738-6.216 2.562-9.022 2.562-1.647 0-3.213-0.284-4.679-0.834" fill="url(#linearGradient31731)"/>
   </g>
  </g>
  <g transform="matrix(.35278 0 0 -.35278 85.573 320.09)">
   <g clip-path="url(#clipPath31741)">
    <g transform="translate(94.73 490.55)">
     <path d="m0 0v0m0.482-2.941v0m0.048 4.05v0m3.038 0.241v0m-3.616-3.086v0m5.159-1.591v0m-3.375-0.145v0m1.928-0.53v0m1.977 2.363v0m-4.821 0.53v0m4.918 2.122v0m-3.665 0.482v0m-1.398-5.545v0m1.254-0.386v0m3.134 4.484v0m-0.193-0.916v0m-3.472 1.157v0m1.591-1.253v0m0.434 0.868v0m-0.868-2.363v0m1.254-0.53v0m0.289 1.06v0m0.531-2.362v0m-4.629-16.249v0m1.061-2.411v0m-0.531 3.52v0m3.038 0.241v0m-3.616-3.086v0m5.159-1.591v0m-3.375-0.145v0m1.928-0.53v0m1.977 2.362v0m-4.821 0.531v0m4.918 2.121v0m-3.665 0.482v0m-1.398-5.545v0m3.665 6.22v0m-2.411-6.605v0m3.134 4.484v0m-0.193-0.916v0m-3.472 1.157v0m1.206-1.206v0m0.819 0.82v0m-0.868-2.362v0m1.254-0.531v0m0.289 1.061v0m0.531-2.363v0m-4.629 15.864v0m1.061-2.411v0m-0.531 3.52v0m3.038 0.241v0m-3.616-3.086v0m5.159-1.591v0m-3.375-0.145v0m1.928-0.53v0m1.977 2.362v0m-4.821 0.531v0m4.484 2.121v0m-2.99 0v0m-1.639-5.063v0m3.665 6.22v0m-2.411-6.605v0m3.134 4.484v0m-0.193-0.916v0m-3.472 1.157v0m1.591-1.254v0m0.434 0.868v0m-0.868-2.362v0m0.724-0.097v0m0.819 0.627v0m0.531-2.363v0m1.446-1.253v0m-0.193 1.302v0m1.206-0.483v0m0.964-0.723v0m-0.723 7.184v0m-0.434-4.773v0m1.688-1.784v0m-1.302 3.52v0m1.687 0.578v0m1.061-3.761v0m-0.82-1.109v0m2.411 0.82v0m0.386-0.771v0m-1.543 4.821v0m1.109 1.736v0m0.048-1.543v0m0.627-2.507v0m-0.627-0.289v0m-4.677 4.436v0m-0.289 2.362v0m-0.53-5.496v0m1.784 1.398v0m-1.64 0.868v0m1.254 4.484v0m0.337 0.627v0m1.784-5.015v0m1.302 3.858v0m-0.675 2.217v0m-3.52-0.53v0m-0.241 3.038v0m3.086-3.616v0m1.591 5.159v0m0.145-3.375v0m0.482-2.797v0m-1.205-2.459v0m0.723 0.675v0m0.53 6.509v0m-2.362 1.977v0m-0.531-4.822v0m-3.568 4.774v0m0.965-3.52v0m4.532-7.088v0m-4.532 4.388v0m0-2.411v0m5.545 3.713v0m0.337-4.87v0m0.048 6.123v0m-4.484 3.135v0m2.122-14.273v0m-0.579 2.025v0m-0.916-1.543v0m2.218 1.109v0m1.157 0.531v0m-3.086 3.905v0m0.097-1.012v0m0.578 2.604v0m-0.868 0.241v0m-0.626-0.82v0m2.266-0.482v0m-1.447 7.522v0m-1.157-3.472v0m1.254 1.591v0m-0.868 0.434v0m2.362-0.868v0m0.531 1.254v0m-1.061 0.289v0m2.363 0.531v0m0.53-15.333v0m-0.193 1.301v0m1.206-0.482v0m0.964-0.723v0m-0.723 7.184v0m-0.434-4.773v0m1.687-1.784v0m-0.916 2.941v0m1.157 1.688v0m0.386-5.401v0m-2.266 6.702v0m-0.289 2.363v0m-0.531-5.497v0m1.784 1.399v0m-1.639 0.868v0m1.254 4.484v0m0.337 0.627v0m1.784-5.015v0m-2.893 5.545v0m-0.241 3.038v0m3.086-3.617v0m-0.097 5.69v0m-0.53-4.822v0m-2.121 4.918v0m-0.483-3.664v0m0-2.7v0m0-2.411v0m0.434 7.474v0m1.013 0.626v0m1.543-12.247v0m-0.916-1.543v0m0.289 5.545v0m0.096-1.012v0m0.579 2.603v0m-0.868 0.242v0m-0.627-0.82v0m0.82 7.04v0m-1.157-3.472v0m1.253 1.591v0m-0.867 0.434v0m1.832 0.675v0m-9.065-25.651v0m-0.675 1.735v0m0.868 1.254v0m0.337 0.627v0m3.086-1.157v0m-0.675 2.218v0m-3.52-0.531v0m-0.193 3.713v0m3.038-4.291v0m1.591 5.159v0m0.145-3.375v0m0.482-2.797v0m-1.205-2.459v0m0.723 0.675v0m0.53 6.509v0m-2.362 1.977v0m-0.531-4.821v0m-2.121 4.918v0m-0.482-3.665v0m0-2.7v0m0-2.411v0" fill="none" stroke="#000" stroke-linecap="round" stroke-width=".386"/>
    </g>
    <g transform="translate(106.64 469.87)">
     <path d="m0 0v0m0.386 1.254v0m-4.484 3.134v0m0.916-8.245v0m0.675 1.591v0m-0.868 0.241v0m-0.627-0.82v0m2.266-0.482v0m-1.446 7.522v0m-1.158-3.472v0m1.206 0.916v0m-0.82 1.109v0m2.363-0.868v0m0.53 1.254v0m-1.205-0.048v0m2.507 0.868v0m1.784-8.052v0m-0.386-0.627v0m-0.289 2.362v0m0.868 1.254v0m0.337 0.627v0m-1.108 0.53v0m-0.242 3.038v0m3.086-3.616v0m-0.096 5.689v0m-0.531-4.821v0m-2.121 4.918v0m-0.482-3.665v0m0-2.7v0m0-2.411v0m-0.048 7.763v0m1.494 0.338v0m0.916-8.245v0m0.097-1.013v0m0.578 2.604v0m-0.867 0.241v0m-0.627-0.82v0m0.819 7.04v0m-1.157-3.472v0m1.254 1.591v0m-0.868 0.434v0m1.832 0.675v0m-15.815-1.109v0m0.771 2.797v0m0.965-1.495v0m1.639-0.53v0m1.109 1.736v0m0.048-1.543v0m-4.677 1.639v0m0.965-1.736v0m1.736 0.965v0m0.964 1.494v0m0.723 0.675v0m-0.434-2.169v0m1.35 0.819v0m-3.52 1.013v0m0.097-1.013v0m0.868 1.591v0m-2.363 7.185v0m4.388 0.819v0m-3.568-0.289v0m0.964 1.495v0m0.289-1.495v0m1.35 0.82v0m-3.423 0v0m14.61 7.811v0m0.675-27.966v0m-2.652 0.097v0m0.096 27.821v0m-3.559-55.279v0m-0.193 1.302v0m1.206-0.482v0m0.964-0.724v0m-0.723 7.185v0m-0.434-4.774v0m1.688-1.784v0m-0.965 2.941v0m1.206 1.688v0m1.205-4.291v0m-0.82-1.109v0m2.411 0.819v0m0.386-0.771v0m-1.543 4.822v0m1.109 1.735v0m0.048-1.543v0m0.627-2.507v0m-0.627-0.289v0m-4.677 4.436v0m-0.289 2.362v0m-0.53-5.496v0m1.784 1.398v0m-1.254 0.579v0m0.868 4.773v0m0.337 0.627v0m1.784-5.015v0m1.302 3.858v0m-0.675 2.218v0m-3.52-0.531v0m-0.241 3.038v0m3.086-3.616v0m1.591 5.159v0m0.145-3.375v0m0.482-2.797v0m-1.205-2.459v0m0.723 0.675v0m0.53 6.509v0m-2.362 1.977v0m-0.531-4.821v0m-2.121 4.918v0m-0.482-3.665v0m4.532-7.088v0m-4.532 4.388v0m0-2.411v0m5.545 3.713v0m0.337-4.87v0m-6.557 8.534v0m6.605-2.41v0m-4.484 3.134v0m2.122-14.273v0m-0.579 2.026v0m-0.916-1.543v0m2.218 1.109v0m1.157 0.53v0m-3.086 3.906v0m0.097-1.013v0m0.578 2.604v0m-0.868 0.241v0m-0.626-0.82v0m2.266-0.482v0m-1.447 7.522v0m-1.157-3.472v0m1.206 1.206v0m-0.82 0.819v0m2.362-0.868v0m0.531 1.254v0m-1.061 0.289v0m2.363 0.531v0m-15.671-15.43v0m0.531 0.627v0m-0.675 3.327v0m0.916 1.302v0m1.205-4.291v0m-0.82-1.109v0m2.411 0.819v0m0.386-0.771v0m-1.543 4.822v0m1.109 1.735v0m0.048-1.543v0m0.627-2.507v0m-0.627-0.289v0m-3.52 3.279v0m-0.241 5.4v0m1.784-5.015v0m1.302 3.858v0m-0.675 2.218v0m-0.675-1.109v0m1.591 5.159v0m0.145-3.375v0m0.482-2.797v0m-1.205-2.459v0m0.723 0.675v0m0.53 6.509v0m-2.362 1.977v0m-0.531-4.821v0m1.929-5.835v0m1.013 5.69v0m0.337-4.87v0m0.048 6.124v0m-4.484 3.134v0m2.122-14.273v0m-0.579 2.026v0m-0.916-1.543v0m2.218 1.109v0m1.157 0.53v0m-3.086 3.906v0m0.097-1.013v0m0.578 2.604v0m-0.868 0.241v0m-0.626-0.82v0m2.266-0.482v0m-1.447 7.522v0m-1.157-3.472v0m1.254 1.591v0m-0.868 0.434v0m2.362-0.868v0m0.097 0.724v0m-0.627 0.819v0m2.363 0.531v0m1.253 1.446v0m-1.302-0.193v0m0.483 1.206v0m0.723 0.964v0m-2.411-1.157v0m1.784 1.688v0m-3.52-1.302v0m-0.578 1.687v0m3.76 1.061v0m1.109-0.82v0m-0.819 2.411v0m0.771 0.386v0" fill="none" stroke="#000" stroke-linecap="round" stroke-width=".386"/>
    </g>
    <g transform="translate(95.655 459)">
     <path d="m0 0v0m-0.193 1.157v0m2.507 0.627v0m0.29-0.627v0m-1.302-5.497v0m-1.398 1.784v0m-0.868-1.639v0m4.098 3.665v0m-2.025-0.579v0m1.543-0.916v0m-1.109 2.218v0m-0.53 1.157v0m3.616 0.868v0m-1.302-0.193v0m0.482 1.206v0m0.723 0.964v0m-2.41-1.157v0m1.784 1.687v0m-2.942-0.916v0m-1.687 1.157v0m5.4 0.386v0m-3.568-3.086v0m-1.398 1.784v0m1.205 1.447v0m1.543-0.916v0m12.826-7.715v0m-1.736-0.675v0m-1.254 0.868v0m-0.627 0.337v0m1.158 3.086v0m-2.218-0.675v0m0.53-3.52v0m-3.713-0.193v0m4.292 3.038v0m-5.16 1.591v0m3.376 0.145v0m2.796 0.482v0m2.459-1.205v0m-0.675 0.723v0m-6.509 0.53v0m-1.977-2.362v0m4.822-0.531v0m-4.918-2.121v0m3.664-0.482v0m2.7 0v0m2.411 0v0m-3.713 5.545v0m-1.253 0.385v0m-3.134-4.484v0m8.245 0.916v0m-1.591 0.675v0m-0.241-0.868v0m0.819-0.627v0m0.482 2.267v0m-7.521-1.447v0m3.471-1.157v0m-0.916 1.205v0m-1.109-0.819v0m0.868 2.362v0m-1.254 0.531v0m0.049-1.206v0m-0.868 2.508v0m8.052 1.784v0m0.627-0.386v0m-2.363-0.289v0m-1.254 0.867v0m-0.626 0.338v0m-0.531-1.109v0m-3.037-0.241v0m3.616 3.086v0m-5.69-0.097v0m4.822-0.53v0m-4.918-2.122v0m3.664-0.482v0m2.7 0v0m2.411 0v0m-7.763-0.048v0m-0.337 1.495v0m8.245 0.916v0m1.012 0.096v0m-2.603 0.579v0m-0.241-0.868v0m0.819-0.627v0m-7.039 0.82v0m3.471-1.157v0m-1.591 1.253v0m-0.434-0.868v0m-0.675 1.833v0m-1.591-24.784v0m1.543-0.868v0m-0.338 2.749v0m1.495 7.088v0m-2.845-3.52v0m2.459-2.749v0m-1.735 3.568v0m-0.868-2.314v0m0-2.7v0m0-2.411v0m-0.675 7.377v0m2.121 0.723v0m0.723-6.412v0m-1.301-2.363v0m1.494 8.583v0m-1.157-3.472v0m1.254 1.591v0m-0.868 0.434v0m-1.398 4.436v0m1.494 0.964v0m0.531 1.64v0m-1.736 1.109v0m1.543 0.048v0m-1.64-4.677v0m1.736 0.964v0m-0.868-1.639v0m-0.096 3.375v0m-1.495 0.964v0m-0.675 0.724v0m2.17-0.434v0m-1.977-4.533v0m1.157 5.883v0m-1.012-3.52v0m1.012 0.096v0m-1.591 0.868v0m0.386-11.572v0m0.337 2.17v0m-0.482-3.665v0m-0.675 2.267v0m1.881-2.942v0m-0.965 4.967v0m-0.916 2.459v0m3.568-8.245v0m8.486 27.483v0m-0.096-2.652v0m27.458-24.003v0m-1.302-0.192v0m0.482 1.205v0m0.724 0.964v0m-7.185-0.723v0m4.774-0.434v0m1.784 1.688v0m-3.52-1.302v0m-1.109 1.543v0m4.291 1.205v0m1.109-0.819v0m-0.82 2.41v0m0.772 0.386v0m-4.822-1.543v0m-1.736 1.109v0m1.543 0.048v0m2.508 0.627v0m0.482-1.157v0m-3.954-3.664v0m-3.038-0.772v0m5.497-0.53v0m-0.916 1.977v0m-1.35-1.833v0m-4.484 1.254v0m-0.627 0.337v0m5.014 1.785v0m-3.857 1.301v0m-1.639-0.144v0m-0.048-4.051v0m-3.038-0.241v0m3.616 3.086v0m-5.159 1.591v0m3.375 0.145v0m2.797 0.482v0m2.459-1.205v0m-0.675 0.723v0m-6.51 0.53v0m-1.976-2.362v0m4.821-0.531v0m-4.918-2.121v0m3.665-0.482v0m7.087 4.532v0m-4.387-4.532v0m2.362-0.482v0m-3.664 6.027v0m4.243 0.53v0m-5.497-0.145v0m-3.134-4.484v0m14.272 2.122v0m-2.025-0.579v0m1.543-0.916v0m-1.109 2.218v0m-0.53 1.157v0m-3.906-3.086v0m1.013 0.097v0m-2.749 1.012v0m-0.096-1.302v0m0.82-0.626v0m0.482 2.266v0m-7.522-1.447v0m3.472-1.157v0m-1.592 1.254v0m-0.433-0.868v0m0.867 2.363v0m-1.253 0.53v0m-0.29-1.061v0m-0.53 2.363v0" fill="none" stroke="#000" stroke-linecap="round" stroke-width=".386"/>
    </g>
    <g transform="translate(138.88 458.52)">
     <path d="m0 0v0m-1.302-0.193v0m0.482 1.206v0m0.724 0.964v0m-7.185-0.723v0m4.774-0.434v0m1.784 1.687v0m-2.941-0.964v0m-1.688 1.205v0m4.291 1.206v0m1.109-0.82v0m-0.819 2.411v0m0.771 0.386v0m-4.822-1.543v0m-1.735 1.109v0m1.542 0.048v0m2.508 0.627v0m0.289-0.627v0m-4.436-4.677v0m-2.363-0.289v0m5.497-0.531v0m-1.398 1.784v0m-0.579-1.253v0m-4.773 0.868v0m-0.627 0.337v0m5.015 1.784v0m-3.858 1.302v0m-2.218-0.675v0m0.531-3.52v0m-3.038-0.241v0m3.616 3.086v0m-5.159 1.591v0m3.375 0.145v0m2.797 0.482v0m2.459-1.206v0m-0.675 0.724v0m-6.51 0.53v0m-1.976-2.363v0m4.821-0.53v0m-4.918-2.122v0m3.665-0.482v0m7.088 4.533v0m-4.388-4.533v0m2.411 0v0m-3.713 5.545v0m4.87 0.338v0m-8.535-6.558v0m2.411 6.606v0m-3.134-4.484v0m14.272 2.121v0m-2.025-0.578v0m1.543-0.916v0m-1.109 2.218v0m-0.53 1.157v0m-3.906-3.086v0m1.013 0.096v0m-2.604 0.579v0m-0.241-0.868v0m0.82-0.627v0m0.482 2.266v0m-7.522-1.446v0m3.472-1.157v0m-1.206 1.205v0m-0.819-0.82v0m0.867 2.363v0m-1.253 0.53v0m-0.289-1.06v0m-0.531 2.362v0m15.526-17.647v0m-1.302-0.193v0m0.482 1.205v0m0.724 0.965v0m-7.185-0.723v0m4.774-0.434v0m1.784 1.687v0m-3.327-0.675v0m-1.302 0.916v0m4.291 1.206v0m1.109-0.82v0m-0.819 2.411v0m0.771 0.386v0m-4.822-1.543v0m-1.735 1.109v0m1.542 0.048v0m2.508 0.627v0m0.289-0.627v0m-4.436-4.677v0m-2.363-0.289v0m4.967-0.193v0m-1.447 1.639v0m-0.289-1.832v0m-4.484 1.253v0m-0.627 0.338v0m5.015 1.784v0m-3.858 1.302v0m-2.218-0.675v0m0.531-3.52v0m-3.038-0.241v0m3.616 3.086v0m-5.159 1.591v0m3.375 0.145v0m2.797 0.482v0m2.459-1.206v0m-0.675 0.724v0m-6.51 0.53v0m-1.976-2.363v0m4.821-0.53v0m-4.484-2.122v0m2.99 0v0m7.329 4.051v0m-4.388-4.533v0m2.411 0v0m-3.713 5.545v0m4.87 0.338v0m-8.535-6.558v0m2.411 6.606v0m-3.134-4.484v0m14.272 2.121v0m-2.025-0.578v0m1.543-0.916v0m-1.109 2.218v0m-0.53 1.157v0m-3.906-3.086v0m1.013 0.096v0m-2.604 0.579v0m-0.241-0.868v0m0.82-0.627v0m0.482 2.266v0m-7.522-1.446v0m3.472-1.157v0m-1.591 1.253v0m-0.434-0.868v0m0.867 2.363v0m-0.723 0.096v0m-0.819-0.626v0m-0.531 2.362v0m-1.446 1.254v0m0.193-1.302v0m-1.206 0.482v0m-0.964 0.723v0m0.723-7.184v0m0.434 4.774v0m-1.688 1.784v0m1.302-3.52v0m-1.687-0.579v0m-1.061 3.761v0m0.82 1.109v0m-2.411-0.82v0m-0.386 0.772v0m1.543-4.822v0m-1.109-1.736v0m-0.048 1.543v0m-0.627 2.508v0m0.627 0.289v0m4.677-4.436v0m0.289-2.363v0m0.53 5.497v0m-1.784-1.398v0m1.64-0.868v0m-1.254-4.484v0m-0.337-0.627v0m-1.784 5.014v0m-1.302-3.857v0m0.675-2.218v0m3.52 0.53v0m0.241-3.037v0m-3.086 3.616v0m-1.591-5.159v0m-0.145 3.375v0m-0.482 2.797v0m1.205 2.459v0m-0.723-0.675v0m-0.53-6.51v0m2.362-1.976v0m0.531 4.821v0m3.568-4.773v0m-0.965 3.52v0m-4.532 7.087v0m4.532-4.387v0m0 2.411v0m-5.545-3.713v0m-0.337 4.87v0m18.419-9.113v0m-18.467 2.989v0m4.484-3.134v0m-2.122 14.272v0m0.579-2.025v0m0.916 1.543v0m-2.218-1.109v0m-1.157-0.53v0m3.086-3.906v0m-0.097 1.013v0m-0.578-2.604v0m0.868-0.241v0m0.626 0.82v0m-2.266 0.482v0m1.447-7.522v0m1.157 3.472v0m-1.254-1.592v0m0.868-0.434v0" fill="none" stroke="#000" stroke-linecap="round" stroke-width=".386"/>
    </g>
    <g transform="translate(117.66 440.83)">
     <path d="m0 0v0m-0.53-1.254v0m1.06-0.289v0m-2.362-0.53v0m-0.531 15.333v0m0.193-1.302v0m-1.205 0.482v0m-0.965 0.723v0m0.724-7.184v0m0.434 4.773v0m-1.688 1.784v0m0.916-2.941v0m-1.157-1.687v0m-0.386 5.4v0m2.266-6.702v0m0.29-2.363v0m0.53 5.497v0m-1.784-1.398v0m1.64-0.868v0m-1.254-4.485v0m-0.338-0.626v0m-1.784 5.014v0m2.893-5.545v0m0.241-3.037v0m-3.085 3.616v0m0.096-5.69v0m0.53 4.822v0m2.122-4.918v0m0.482 3.664v0m0 2.7v0m0 2.411v0m-0.434-7.473v0m-1.012-0.627v0m-1.543 12.247v0m0.916 1.543v0m-0.29-5.545v0m-0.096 1.013v0m-0.579-2.604v0m0.868-0.241v0m0.627 0.819v0m-0.82-7.039v0m1.158 3.471v0m-1.254-1.591v0m0.868-0.434v0m-1.832-0.675v0m9.064 25.652v0m0.675-1.736v0m-0.867-1.254v0m-0.338-0.627v0m-3.086 1.158v0m0.675-2.218v0m3.52 0.53v0m0.193-3.713v0m-3.038 4.292v0m-1.591-5.16v0m-0.145 3.376v0m-0.482 2.796v0m1.206 2.459v0m-0.724-0.675v0m-0.53-6.509v0m2.363-1.977v0m0.53 4.822v0m2.122-4.918v0m0.482 3.664v0m0 2.7v0m0 2.411v0m-5.545-3.713v0m-0.386-1.253v0m4.484-3.134v0m-0.916 8.245v0m-0.675-1.591v0m0.868-0.242v0m0.627 0.82v0m-2.266 0.482v0m1.446-7.522v0m1.157 3.472v0m-1.205-0.916v0m0.82-1.109v0m-2.363 0.868v0m-0.53-1.254v0m1.205 0.048v0m-2.507-0.867v0m-1.784 8.052v0m0.385 0.627v0m0.29-2.363v0m-0.868-1.254v0m-0.338-0.627v0m1.109-0.53v0m0.241-3.038v0m-3.085 3.617v0m0.096-5.69v0m0.53 4.822v0m2.122-4.918v0m0.482 3.664v0m0 2.7v0m0 2.411v0m0.048-7.763v0m-1.494-0.337v0m-0.917 8.245v0m-0.096 1.012v0m-0.579-2.603v0m0.868-0.241v0m0.627 0.819v0m-0.82-7.039v0m1.158 3.471v0m-1.254-1.591v0m0.868-0.434v0m-1.832-0.675v0m24.783-1.591v0m0.868 1.543v0m-2.748-0.338v0m-7.088 1.495v0m3.52-2.845v0m2.748 2.459v0m-3.568-1.736v0m2.314-0.867v0m2.701 0v0m2.41 0v0m-7.377-0.675v0m-0.723 2.121v0m6.413 0.723v0m2.362-1.302v0m-8.582 1.495v0m3.471-1.157v0m-1.591 1.254v0m-0.434-0.868v0m-4.436-1.399v0m-0.964 1.495v0m-1.639 0.531v0m-1.109-1.736v0m-0.049 1.543v0m4.677-1.64v0m-0.964 1.736v0m1.639-0.868v0m-3.375-0.096v0m-0.964-1.495v0m-0.723-0.675v0m0.434 2.17v0m4.532-1.977v0m-5.882 1.157v0m3.519-1.012v0m-0.096 1.012v0m-0.868-1.591v0m13.067-8.583v0m-1.254 0.868v0m-0.627 0.338v0m-0.53-1.109v0m-3.038-0.241v0m-2.121-0.049v0m3.616-0.096v0m2.7 0v0m2.411 0v0m-8.1 1.447v0m7.232 0.096v0m-3.568-0.338v0m-2.025 0.386v0m-3.906-1.832v0m-1.494 1.929v0m-4.388-0.82v0m5.786-0.193v0m1.157 0.579v0m-3.375-0.097v0m-0.964-1.495v0m-0.29 1.495v0m-1.35-0.819v0m3.424 0v0m9.209 8.92v0m-2.17 0.337v0m3.665-0.482v0m-2.266-0.675v0m2.941 1.88v0m-4.966-0.964v0m-2.459-0.916v0m-18.564-15.912v0m26.809 1.736v0m0 17.744v0m-27.484 8.486v0m2.652-0.096v0m-0.097-27.821v0m24.1 55.279v0m0.193-1.302v0m-1.206 0.482v0m-0.964 0.723v0m0.723-7.184v0m0.434 4.774v0m-1.687 1.784v0m1.301-3.52v0m-1.542-1.109v0m-1.206 4.291v0m0.82 1.109v0m-2.411-0.82v0m-0.386 0.772v0m1.543-4.822v0m-1.109-1.736v0m-0.048 1.543v0m-0.627 2.508v0m1.157 0.482v0m3.665-3.954v0m0.771-3.038v0m0.531 5.497v0" fill="none" stroke="#000" stroke-linecap="round" stroke-width=".386"/>
    </g>
    <g transform="translate(136.51 488.25)">
     <path d="m0 0v0m1.832-1.35v0m-1.253-4.484v0m-0.338-0.627v0m-1.784 5.014v0m-1.302-3.857v0m0.145-1.639v0m4.05-0.048v0m0.241-3.038v0m-3.086 3.616v0m-1.591-5.159v0m-0.145 3.375v0m-0.482 2.797v0m1.206 2.459v0m-0.724-0.675v0m-0.53-6.51v0m2.363-1.976v0m0.53 4.821v0m2.122-4.918v0m0.482 3.665v0m-4.533 7.087v0m4.533-4.387v0m0.482 2.362v0m-6.027-3.664v0m-0.531 4.243v0m0.145-5.497v0m4.484-3.134v0m-2.121 14.272v0m0.578-2.025v0m0.916 1.543v0m-2.217-1.109v0m-1.158-0.53v0m3.086-3.906v0m-0.096 1.013v0m-1.013-2.749v0m1.302-0.096v0m0.627 0.82v0m-2.266 0.482v0m1.446-7.522v0m1.157 3.472v0m-1.253-1.592v0m0.868-0.433v0m-2.363 0.867v0m-0.53-1.253v0m1.06-0.29v0m-2.362-0.53v0m-14.465 15.526v0m0.193-1.302v0m-1.206 0.482v0m-0.964 0.724v0m0.723-7.185v0m0.434 4.774v0m-1.688 1.784v0m0.965-2.942v0m-1.206-1.687v0m-1.205 4.291v0m0.82 1.109v0m-2.411-0.82v0m-0.386 0.772v0m1.543-4.822v0m-1.109-1.736v0m-0.048 1.543v0m-0.627 2.508v0m0.627 0.289v0m4.677-4.436v0m0.289-2.363v0m0.53 5.497v0m-1.784-1.398v0m1.254-0.579v0m-0.868-4.773v0m-0.337-0.627v0m-1.784 5.014v0m-1.302-3.857v0m0.675-2.218v0m3.52 0.531v0m0.241-3.038v0m-3.086 3.616v0m-1.591-5.159v0m-0.145 3.375v0m-0.482 2.797v0m1.205 2.459v0m-0.723-0.675v0m-0.53-6.51v0m2.362-1.976v0m0.531 4.821v0m2.121-4.918v0m0.482 3.665v0m-4.532 7.087v0m4.532-4.387v0m0 2.411v0m-5.545-3.713v0m-0.337 4.87v0m6.557-8.535v0m-6.605 2.411v0m4.484-3.134v0m-2.122 14.272v0m0.579-2.025v0m0.916 1.543v0m-2.218-1.109v0m-1.157-0.53v0m3.086-3.906v0m-0.097 1.013v0m-0.578-2.604v0m0.868-0.241v0m0.626 0.82v0m-2.266 0.482v0m1.447-7.522v0m1.157 3.472v0m-1.205-1.206v0m0.819-0.819v0m-2.362 0.867v0m-0.531-1.253v0m1.061-0.29v0m-2.363-0.53v0m17.648 15.526v0m0.193-1.302v0m-1.206 0.482v0m-0.964 0.724v0m0.723-7.185v0m0.434 4.774v0m-1.687 1.784v0m0.675-3.327v0m-0.917-1.302v0m-1.205 4.291v0m0.82 1.109v0m-2.411-0.82v0m-0.386 0.772v0m1.543-4.822v0m-1.109-1.736v0m-0.048 1.543v0m-0.627 2.508v0m0.627 0.289v0m4.677-4.436v0m0.289-2.363v0m0.193 4.967v0m-1.639-1.447v0m1.832-0.289v0m-1.254-4.484v0m-0.337-0.627v0m-1.784 5.014v0m-1.302-3.857v0m0.675-2.218v0m3.52 0.531v0m0.241-3.038v0m-3.086 3.616v0m-1.591-5.159v0m-0.145 3.375v0m-0.482 2.797v0m1.205 2.459v0m-0.723-0.675v0m-0.53-6.51v0m2.362-1.976v0m0.531 4.821v0m2.121-4.484v0m0 2.99v0m-4.05 7.328v0m4.532-4.387v0m0 2.411v0m-5.544-3.713v0m-0.338 4.87v0m6.558-8.535v0m-6.606 2.411v0m4.484-3.134v0m-2.122 14.272v0m0.579-2.025v0m0.916 1.543v0m-2.218-1.109v0m-1.157-0.53v0m3.086-3.906v0m-0.097 1.013v0m-0.578-2.604v0m0.868-0.241v0m0.627 0.82v0m-2.267 0.482v0m1.447-7.522v0m1.157 3.472v0m-1.254-1.592v0m0.868-0.433v0m-2.362 0.867v0m-0.097-0.723v0m0.627-0.82v0m-2.363-0.53v0m-1.253-1.446v0m1.302 0.192v0m-0.483-1.205v0m-0.723-0.964v0m7.185 0.723v0m-4.774 0.434v0m-1.784-1.688v0m3.52 1.302v0m0.579-1.687v0m-3.761-1.061v0m-1.109 0.819v0m0.819-2.41v0m-0.771-0.386v0m4.822 1.543v0m1.735-1.109v0m-1.543-0.048v0m-2.507-0.627v0m-0.289 0.627v0" fill="none" stroke="#000" stroke-linecap="round" stroke-width=".386"/>
    </g>
    <g transform="translate(128.89 474.84)">
     <path d="m0 0v0m2.363 0.289v0m-5.497 0.531v0m1.398-1.784v0m0.868 1.639v0m4.484-1.254v0m0.627-0.337v0m-5.014-1.784v0m3.857-1.302v0m2.218 0.675v0m-0.531 3.52v0m3.038 0.241v0m-3.616-3.086v0m5.159-1.591v0m-3.375-0.145v0m-2.797-0.482v0m-2.459 1.205v0m0.675-0.723v0m6.51-0.53v0m1.976 2.362v0m-4.821 0.531v0m4.773 3.568v0m-3.52-0.964v0m-7.087-4.533v0m4.387 4.533v0m-2.411 0v0m3.713-5.545v0m-4.87-0.338v0m9.113 18.419v0m-2.989-18.467v0m3.134 4.484v0m-14.272-2.121v0m2.025 0.578v0m-1.543 0.916v0m1.109-2.218v0m0.53-1.157v0m3.906 3.086v0m-1.013-0.096v0m2.604-0.579v0m0.241 0.868v0m-0.82 0.627v0m-0.482-2.267v0m7.522 1.447v0m-3.472 1.157v0m1.592-1.253v0m0.433 0.867v0m-0.867-2.362v0m1.253-0.531v0m0.29 1.061v0m0.53-2.362v0m-15.333-0.531v0m1.302 0.193v0m-0.482-1.205v0m-0.724-0.965v0m7.185 0.724v0m-4.774 0.433v0m-1.784-1.687v0m2.941 0.916v0m1.688-1.157v0m-5.4-0.386v0m6.702 2.266v0m2.362 0.29v0m-5.496 0.53v0m1.398-1.784v0m0.868 1.639v0m4.484-1.253v0m0.627-0.338v0m-5.015-1.784v0m5.545 2.893v0m3.038 0.241v0m-3.616-3.086v0m5.689 0.097v0m-4.821 0.53v0m4.918 2.122v0m-3.665 0.482v0m-2.7 0v0m-2.411 0v0m7.474-0.434v0m0.627-1.013v0m-12.247-1.543v0m-1.543 0.917v0m5.545-0.29v0m-1.013-0.096v0m2.604-0.579v0m0.241 0.868v0m-0.82 0.627v0m7.04-0.82v0m-3.472 1.157v0m1.591-1.253v0m0.434 0.868v0m0.675-1.833v0m-25.651 9.065v0m1.736 0.675v0m1.253-0.868v0m0.627-0.337v0m-1.157-3.086v0m2.218 0.675v0m-0.53 3.52v0m3.712 0.193v0m-4.291-3.038v0m5.159-1.591v0m-3.375-0.145v0m-2.797-0.482v0m-2.459 1.205v0m0.675-0.723v0m6.51-0.53v0m1.977 2.362v0m-4.822 0.531v0m4.918 2.121v0m-3.664 0.483v0m-2.701 0v0m-2.41 0v0m3.712-5.545v0m1.254-0.386v0m3.134 4.484v0m-8.245-0.916v0m1.591-0.675v0m0.241 0.868v0m-0.82 0.627v0m-0.482-2.267v0m7.522 1.447v0m-3.471 1.157v0m0.916-1.205v0m1.109 0.819v0m-0.868-2.362v0m1.253-0.531v0m-0.048 1.206v0m0.868-2.507v0m-8.052-1.784v0m-0.627 0.385v0m2.363 0.29v0m1.253-0.868v0m0.627-0.338v0m0.531 1.109v0m3.037 0.241v0m-3.616-3.086v0m5.689 0.097v0m-4.821 0.53v0m4.918 2.122v0m-3.665 0.482v0m-2.7 0v0m-2.411 0v0m7.763 0.048v0m0.338-1.495v0m-8.245-0.916v0m-1.013-0.096v0m2.604-0.579v0m0.241 0.868v0m-0.82 0.627v0m7.04-0.82v0m-3.472 1.157v0m1.592-1.253v0m0.434 0.868v0m0.675-1.833v0m1.591 24.784v0m-1.543 0.868v0m0.337-2.748v0m-1.494-7.088v0m2.844 3.519v0m-2.459 2.749v0m1.736-3.568v0m0.868 2.314v0m0 2.7v0m0 2.411v0m0.675-7.377v0m-2.121-0.723v0m-0.724 6.413v0m1.302 2.362v0m-1.495-8.582v0m1.158 3.471v0m-1.254-1.591v0m0.868-0.434v0m1.398-4.436v0m-1.495-0.964v0m-0.53-1.64v0m1.736-1.109v0m-1.543-0.048v0m1.639 4.677v0m-1.736-0.964v0m0.868 1.639v0m0.097-3.375v0m1.495-0.964v0m0.675-0.723v0m-2.17 0.433v0m1.977 4.533v0m-1.158-5.883v0m1.013 3.52v0m-1.013-0.096v0m1.592-0.868v0m8.582 13.067v0m-0.868-1.254v0m-0.337-0.627v0m1.109-0.53v0m0.241-3.038v0m0.048-2.121v0m0.097 3.616v0m0 2.7v0m0 2.411v0m-1.447-8.101v0m-0.096 7.233v0" fill="none" stroke="#000" stroke-linecap="round" stroke-width=".386"/>
    </g>
    <g transform="translate(130.48 488.39)">
     <path d="m0 0v0m-0.386-2.025v0m1.833-3.906v0m-1.929-1.494v0m0.82-4.388v0m0.192 5.786v0m-0.578 1.157v0m0.096-3.375v0m1.495-0.964v0m-1.495-0.29v0m0.82-1.35v0m0 3.424v0m-8.92 9.209v0m-0.338-2.17v0m0.482 3.665v0m0.675-2.266v0m-1.88 2.941v0m0.964-4.967v0m0.916-2.459v0m15.912-18.563v0m-1.736 26.808v0m-17.744 0v0m-8.486-27.483v0m0.097 2.652v0m27.821-0.097v0" fill="none" stroke="#000" stroke-linecap="round" stroke-width=".386"/>
    </g>
   </g>
  </g>
  <g transform="matrix(.35278 0 0 -.35278 85.573 320.09)">
   <g clip-path="url(#clipPath31781)">
    <g transform="translate(140.89 444.92)">
     <path d="m0 0v0m-0.048-3.038v0m1.543 1.109v0m1.639-0.53v0m1.109 1.736v0m0.048-1.543v0m-4.195 0.964v0m-0.771 3.038v0m-0.53-5.497v0m1.976 0.916v0m-1.832 1.35v0m1.254 4.484v0m0.337 0.627v0m1.784-5.014v0m1.302 3.857v0m-0.144 1.639v0m-4.051 0.049v0m-0.241 3.037v0m3.086-3.616v0m1.591 5.159v0m0.145-3.375v0m0.482-2.796v0m-1.205-2.46v0m0.723 0.675v0m0.53 6.51v0m-2.362 1.977v0m-0.531-4.822v0m-2.121 4.918v0m-0.482-3.664v0m4.532-7.088v0m-4.532 4.387v0m-0.483-2.362v0m6.028 3.664v0m0.53-4.243v0m-0.145 5.497v0m-4.484 3.134v0m1.543-12.247v0m1.302-0.434v0m1.157 0.53v0m-3.086 3.906v0m0.097-1.013v0m1.012 2.749v0m-1.302 0.096v0m-0.626-0.819v0m2.266-0.483v0m-1.447 7.522v0m-1.157-3.471v0m1.254 1.591v0m-0.868 0.434v0m2.362-0.868v0m0.531 1.253v0m-1.061 0.29v0m2.363 0.53v0m-0.049 2.893v0m-0.626 0.338v0m1.157 3.085v0m-2.218-0.675v0m0.53-3.519v0m-3.037-0.241v0m3.616 3.085v0m-5.159 1.592v0m3.375 0.144v0m2.796 0.482v0m-4.725 0.049v0m-1.977-2.363v0m4.822-0.53v0m-4.774-3.568v0m3.52 0.964v0m2.7 0v0m-1.301 5.545v0m-4.243-18.081v0m2.989 18.467v0m-3.134-4.485v0m6.654 1.592v0m-0.241-0.868v0m-6.22 0.193v0m3.471-1.158v0m-1.591 1.254v0m-0.434-0.868v0m0.868 2.363v0m-1.253 0.53v0m-0.29-1.061v0m-0.53 2.363v0m6.316 1.109v0m-2.411 0.096v0m-3.037-0.241v0m-2.17 0.338v0m3.664-0.482v0m2.701 0v0m-5.063 0.434v0m6.22-17.841v0m-0.048 2.122v0m-0.097-3.616v0m-0.241 5.255v0m-0.096 3.279v0m0.675 1.639v0m0-3.423v0m-7.763 12.729v0" fill="none" stroke="#000" stroke-linecap="round" stroke-width=".386"/>
    </g>
   </g>
  </g>
  <g transform="matrix(.35278 0 0 -.35278 85.573 320.09)">
   <g clip-path="url(#clipPath31793)">
    <g transform="translate(104.72 493.09)">
     <path d="m0 0v0m-0.193 1.302v0m1.206-0.482v0m0.964-0.724v0m-0.723 7.185v0m-0.434-4.774v0m1.687-1.784v0m-0.964 2.941v0m1.205 1.688v0m1.206-4.291v0m-0.82-1.109v0m2.411 0.819v0m0.386-0.771v0m-1.543 4.822v0m1.109 1.736v0m0.048-1.543v0m0.627-2.508v0m-0.627-0.289v0m-4.677 4.436v0m-0.289 2.363v0m-0.531-5.497v0m1.784 1.398v0m-1.253 0.579v0m0.868 4.773v0m0.337 0.627v0m1.784-5.015v0m1.302 3.858v0m-0.675 2.218v0m-3.52-0.531v0m-0.241 3.038v0m3.086-3.616v0m1.591 5.159v0m0.145-3.375v0m0.482-2.797v0m-1.206-2.459v0m0.724 0.675v0m0.53 6.51v0m-2.363 1.976v0m-0.53-4.821v0m-2.122 4.918v0m-0.482-3.665v0m4.533-7.088v0m-4.533 4.388v0m0-2.411v0m5.545 3.713v0m0.338-4.87v0m-6.558 8.535v0m6.606-2.411v0m-4.484 3.134v0m2.121-14.272v0m-0.578 2.025v0m-0.916-1.543v0m2.218 1.109v0m1.157 0.53v0m-3.086 3.906v0m0.096-1.013v0m0.579 2.604v0m-0.868 0.241v0m-0.627-0.82v0m2.266-0.482v0m-1.446 7.522v0m-1.157-3.472v0m1.205 1.206v0m-0.82 0.819v0m2.363-0.867v0m0.53 1.253v0m-1.06 0.289v0m2.362 0.531v0m-15.67-15.43v0m0.53 0.627v0m-0.675 3.327v0m0.916 1.302v0m1.206-4.291v0m-0.82-1.109v0m2.411 0.819v0m0.386-0.771v0m-1.543 4.822v0m1.109 1.736v0m0.048-1.543v0m0.627-2.508v0m-0.627-0.289v0m-3.52 3.279v0m-0.241 5.4v0m1.784-5.015v0m1.302 3.858v0m-0.675 2.218v0m-0.675-1.109v0m1.591 5.159v0m0.145-3.375v0m0.482-2.797v0m-1.206-2.459v0m0.724 0.675v0m0.53 6.51v0m-2.363 1.976v0m-0.53-4.821v0m1.929-5.835v0m1.012 5.69v0m0.338-4.87v0m0.048 6.124v0m-4.484 3.134v0m2.121-14.272v0m-0.578 2.025v0m-0.916-1.543v0m2.218 1.109v0m1.157 0.53v0m-3.086 3.906v0m0.096-1.013v0m0.579 2.604v0m-0.868 0.241v0m-0.627-0.82v0m2.266-0.482v0m-1.446 7.522v0m0.096-1.881v0m-0.868 0.434v0m2.363-0.867v0m0.096 0.723v0m-0.626 0.819v0m2.362 0.531v0m1.254 1.446v0m-1.302-0.193v0m0.482 1.206v0m0.723 0.964v0m-2.41-1.157v0m1.784 1.688v0m-3.52-1.302v0m-0.579 1.687v0m3.761 1.061v0m1.109-0.819v0m-0.82 2.41v0m0.772 0.386v0m-4.822-1.543v0m-0.193 1.157v0m2.508 0.627v0m0.289-0.627v0m-1.302-5.496v0m-1.398 1.784v0m3.23 2.025v0m-2.025-0.579v0m1.543-0.916v0m-1.109 2.218v0m-0.53 1.157v0m3.616 0.868v0m-1.302-0.193v0m0.482 1.206v0m-1.687-0.193v0m-1.013-0.772v0m14.176-5.4v0m-1.736-0.675v0m-1.253 0.868v0m-0.627 0.337v0m1.157 3.086v0m-2.218-0.675v0m0.53-3.52v0m-3.712-0.192v0m4.291 3.037v0m-5.159 1.591v0m3.375 0.145v0m2.796 0.482v0m2.46-1.205v0m-0.675 0.723v0m-6.51 0.53v0m-1.977-2.362v0m4.822-0.531v0m-4.918-2.121v0m3.664-0.482v0m2.701 0v0m2.41 0v0m-3.712 5.545v0m-1.254 0.385v0m-3.134-4.484v0m8.245 0.916v0m-1.591 0.675v0m-0.241-0.868v0m0.819-0.626v0m0.483 2.266v0m-7.522-1.447v0m3.471-1.157v0m-0.916 1.206v0m-1.109-0.82v0m0.868 2.362v0m-1.253 0.531v0m0.048-1.206v0m-0.868 2.508v0m8.052 1.784v0m0.627-0.386v0m-2.363-0.289v0m-1.253 0.868v0m-1.158-0.772v0m-3.037-0.241v0m-2.17 0.338v0m3.665-0.483v0m2.7 0v0m2.411 0v0m-7.763-0.048v0m3.327 1.254v0m-4.292-22.566v0m1.543-0.868v0m-0.337 2.749v0m1.494 7.088v0m-2.844-3.52v0" fill="none" stroke="#000" stroke-linecap="round" stroke-width=".386"/>
    </g>
    <g transform="translate(103.76 498.3)">
     <path d="m0 0v0m-1.736 3.568v0m-0.868-2.314v0m0-2.701v0m0-2.41v0m-0.675 7.377v0m2.122 0.723v0m0.723-6.413v0m-1.302-2.362v0m1.495 8.582v0m-1.157-3.471v0m1.253 1.591v0m-0.868 0.434v0m-1.398 4.436v0m1.495 0.964v0m0.53 1.639v0m-1.736 1.109v0m1.543 0.049v0m-1.639-4.677v0m1.736 0.964v0m-0.868-1.639v0m-0.097 3.375v0m-1.494 0.964v0m-0.675 0.723v0m2.169-0.434v0m-1.976-4.532v0m1.157 5.882v0m-1.013-3.519v0m1.013 0.096v0m-1.591 0.868v0m0.385-11.572v0m0.338 2.17v0m-0.482-3.665v0m-0.675 2.266v0m1.88-2.941v0m-0.964 4.966v0m-0.916 2.46v0m3.568-8.246v0m8.389 24.832v0m10.486-7.706v0m-1.012-0.819v0m-0.965 0.723v0m0.724-7.184v0m0.433 4.773v0m-1.687 1.784v0m1.302-3.52v0m-1.688-0.578v0m-1.061 3.761v0m0.82 1.109v0m-2.411-0.82v0m-0.386 0.771v0m1.543-4.821v0m-1.109-1.736v0m-0.048 1.543v0m-0.627 2.507v0m0.627 0.289v0m4.677-4.435v0m0.29-2.363v0m0.53 5.497v0m-1.784-1.399v0m1.639-0.868v0m-1.253-4.484v0m-0.338-0.627v0m-1.784 5.015v0m-1.302-3.857v0m0.675-2.218v0m3.52 0.53v0m0.241-3.038v0m-3.086 3.617v0m-1.591-5.16v0m-0.144 3.376v0m-0.483 2.796v0m1.206 2.459v0m-0.723-0.675v0m-0.531-6.509v0m2.363-1.977v0m0.53 4.822v0m2.604-1.254v0m-4.533 7.088v0m4.533-4.388v0m0 2.411v0m-5.545-3.713v0m-0.338 4.87v0m-0.048-6.123v0m4.484-3.134v0m-2.121 14.272v0m0.578-2.025v0m0.917 1.543v0m-2.218-1.109v0m-1.158-0.531v0m3.086-3.905v0m-0.096 1.012v0m-0.579-2.603v0m0.868-0.242v0m0.627 0.82v0m-2.266 0.482v0m1.446-7.522v0m1.157 3.472v0m-1.253-1.591v0m0.868-0.434v0m-2.363 0.868v0m-0.53-1.254v0m1.06-0.289v0m-2.362-0.53v0m-0.531 15.333v0m0.193-1.302v0m-1.205 0.482v0m-0.964 0.723v0m0.723-7.184v0m0.434 4.773v0m-1.688 1.784v0m0.916-2.941v0m-1.157-1.688v0m-0.386 5.401v0m2.267-6.702v0m0.289-2.363v0m0.53 5.497v0m-1.784-1.399v0m1.64-0.867v0m-1.254-4.485v0m-0.338-0.626v0m-1.784 5.014v0m2.893-5.545v0m0.242-3.038v0m-3.086 3.617v0m0.096-5.69v0m0.53 4.822v0m2.122-4.918v0m0.482 3.664v0m0 2.7v0m0 2.411v0m-0.434-7.473v0m-1.012-0.627v0m-1.543 12.247v0m0.916 1.543v0m-0.289-5.545v0m-0.097 1.012v0m-0.579-2.603v0m0.868-0.241v0m0.627 0.819v0m-0.819-7.039v0m1.157 3.471v0m-1.254-1.591v0m0.868-0.434v0m-1.832-0.675v0m8.872 22.662v0m-0.338-0.627v0m-3.086 1.157v0m0.675-2.218v0m3.52 0.531v0m0.193-3.713v0m-3.038 4.291v0m-1.591-5.159v0m-0.144 3.375v0m-0.483 2.797v0m-0.048-4.725v0m2.363-1.977v0m0.53 4.822v0m2.122-4.919v0m0.482 3.665v0m0 2.7v0m-5.545-1.302v0m-0.386-1.253v0m4.484-3.135v0m-1.591 6.654v0m0.868-0.241v0m-0.193-6.22v0m1.157 3.472v0m-1.205-0.916v0m0.82-1.109v0m-2.363 0.868v0m-0.53-1.254v0m1.205 0.048v0m-2.507-0.868v0m-1.977 5.063v0m-0.338-0.627v0m1.109-0.53v0m0.242-3.038v0m-3.086 3.617v0m0.096-5.69v0m0.53 4.822v0m2.122-4.918v0m0.482 3.664v0m0 2.7v0m0.048-5.352v0m-1.494-0.337v0m-1.592 6.654v0m0.868-0.242v0m-0.192-6.22v0m1.157 3.472v0m-1.254-1.591v0m0.868-0.434v0m-1.832-0.675v0m0.964-19.48v0m1.881 0.049v0" fill="none" stroke="#000" stroke-linecap="round" stroke-width=".386"/>
    </g>
   </g>
  </g>
  <g transform="matrix(.35278 0 0 -.35278 85.573 320.09)">
   <g clip-path="url(#clipPath31809)">
    <g transform="translate(129.46 470.12)">
     <path d="m0 0c-0.9-4.954-4.272-7.157-8.295-4.956-4.71 2.578-8.53 10.222-8.53 17.071 0 4.41 1.583 7.416 3.968 8.31 1.319 0.495 2.884 0.343 4.562-0.575l-0.109 24.829c-5.04 2.759-9.739 3.215-13.701 1.729-7.161-2.685-11.914-11.712-11.914-24.954 0-20.57 11.469-43.523 25.615-51.266 12.079-6.61 22.206 4e-3 24.908 14.882z" fill="none" stroke="#000" stroke-linecap="round" stroke-linejoin="round" stroke-width=".77"/>
    </g>
   </g>
  </g>
  <g transform="matrix(.35278 0 0 -.35278 85.573 320.09)">
   <g clip-path="url(#clipPath31823)">
    <path d="m107.64 516.63-9.632-3.504c3.913 1.382 8.528 0.89 13.469-1.814l9.88 3.596c-3.176 1.738-6.217 2.562-9.022 2.562-1.653 0-3.226-0.286-4.695-0.84m-9.864-3.589 0.232 0.085c-0.079-0.028-0.155-0.056-0.232-0.085" fill="url(#linearGradient31837)"/>
   </g>
  </g>
  <g transform="matrix(.35278 0 0 -.35278 85.573 320.09)">
   <g clip-path="url(#clipPath31847)">
    <path d="m136.35 451.54c-1.603-8.607-5.704-14.42-11.231-16.464l10.003 3.644c5.456 2.08 9.504 7.853 11.099 16.373zm-11.354-16.508c0.041 0.014 0.082 0.029 0.123 0.044z" fill="url(#linearGradient31861)"/>
   </g>
  </g>
  <g transform="matrix(.35278 0 0 -.35278 85.573 320.09)">
   <g clip-path="url(#clipPath31871)">
    <g transform="translate(99.657 511.08)">
     <path d="m0 0v0m0.723 0.964v0m-2.411-1.157v0m1.784 1.688v0m-0.337 1.446v0m1.109-0.819v0m-0.82 2.41v0m0.772 0.386v0m-2.508 0.241v0m0.29-0.627v0m0.53-1.687v0m-0.482-1.495v0m-1.109 2.218v0m3.086 2.025v0m-1.302-0.193v0m0.482 1.206v0m-1.687-0.193v0m13.163-6.172v0m-1.736-0.675v0m-1.254 0.868v0m-0.627 0.337v0m1.158 3.086v0m-2.218-0.675v0m0.53-3.52v0m-3.713-0.192v0m4.292 3.037v0m-5.16 1.591v0m3.376 0.145v0m2.796 0.482v0m2.459-1.205v0m-0.675 0.723v0m-6.509 0.53v0m-1.977-2.362v0m4.822-0.531v0m-4.918-2.121v0m5.062 5.063v0m-1.253 0.385v0m-3.134-4.484v0m8.245 0.916v0m-1.591 0.675v0m-0.241-0.867v0m0.819-0.627v0m0.482 2.266v0m-7.521-1.447v0m3.471-1.157v0m-0.916 1.206v0m-1.109-0.82v0m0.868 2.362v0m-1.254 0.531v0m0.049-1.206v0m-0.868 2.508v0m8.052 1.784v0m0.627-0.386v0m-2.363-0.289v0m-1.254 0.868v0m-1.157-0.772v0m-3.037-0.241v0m-2.17 0.338v0m3.664-0.483v0m2.7 0v0m2.411 0v0m-7.763-0.048v0m3.327 1.254v0m5.69-0.723v0m9.039-0.232v0m-0.337-0.627v0m-3.086 1.157v0m0.675-2.218v0m3.52 0.53v0m0.192-3.712v0m-3.037 4.291v0m-1.591-5.159v0m-0.145 3.375v0m-0.482 2.797v0m-0.048-4.726v0m2.362-1.977v0m0.531 4.822v0m2.121-4.918v0m0.482 3.664v0m0 2.701v0m-5.545-1.302v0m-0.385-1.254v0m4.484-3.134v0m-1.591 6.654v0m0.868-0.241v0m-0.193-6.22v0m1.157 3.471v0m-1.206-0.916v0m0.82-1.109v0m-2.362 0.868v0m-0.531-1.253v0m1.206 0.048v0m-2.508-0.868v0m-1.109 6.316v0m-0.868-1.253v0m-0.337-0.627v0m1.109-0.53v0m0.241-3.038v0m-3.086 3.616v0m0.096-5.689v0m0.531 4.821v0m2.121-4.918v0m0.483 3.665v0m0 2.7v0m0.048-5.352v0m-1.495-0.338v0m-1.591 6.654v0m0.868-0.241v0m-0.193-6.22v0m1.157 3.472v0m-1.253-1.592v0m0.867-0.434v0m-1.832-0.675v0" fill="none" stroke="#000" stroke-linecap="round" stroke-width=".386"/>
    </g>
   </g>
  </g>
  <g transform="matrix(.35278 0 0 -.35278 85.573 320.09)">
   <g clip-path="url(#clipPath31883)">
    <g transform="translate(121.42 514.94)">
     <path d="m0 0c-5.046 2.762-9.752 3.216-13.718 1.723l-9.863-3.59c3.962 1.485 8.662 1.03 13.702-1.729z" fill="none" stroke="#000" stroke-linecap="round" stroke-linejoin="round" stroke-width=".385"/>
    </g>
   </g>
  </g>
  <g transform="matrix(.35278 0 0 -.35278 85.573 320.09)">
   <g clip-path="url(#clipPath31895)">
    <g transform="translate(129.56 437.23)">
     <path d="m0 0v0m0.193-1.302v0m-1.206 0.482v0m-0.964 0.724v0m1.157-2.411v0m-1.687 1.784v0m-1.447-0.338v0m0.82 1.109v0m-0.723-1.736v0m1.494-0.482v0m4.195 1.157v0m-0.868-1.253v0m-0.337-0.627v0m1.495 0.627v0m0 2.411v0m-1.543-0.868v0" fill="none" stroke="#000" stroke-linecap="round" stroke-width=".386"/>
    </g>
   </g>
  </g>
  <g transform="matrix(.35278 0 0 -.35278 85.573 320.09)">
   <g clip-path="url(#clipPath31907)">
    <g transform="translate(138.88 437.98)">
     <path d="m0 0v0m-1.302-0.193v0m0.482 1.206v0m0.724 0.964v0m-7.185-0.723v0m4.774-0.434v0m1.784 1.687v0m-3.52-1.302v0m-1.109 1.543v0m4.291 1.206v0m1.109-0.82v0m-0.819 2.411v0m0.771 0.386v0m-4.822-1.543v0m-1.735 1.109v0m1.542 0.048v0m2.508 0.627v0m0.482-1.157v0m-3.954-3.665v0m-3.038-0.771v0m5.497-0.531v0m-0.916 1.977v0m-1.35-1.832v0m-4.484 1.254v0m4.388 2.121v0m-3.858 1.302v0m-0.096 0.868v0m2.459-1.206v0m-0.675 0.724v0m2.17-0.434v0m-4.388-4.533v0m2.362-0.482v0m0.579 6.558v0m5.641-2.508v0m-2.025-0.578v0m1.543-0.916v0m-1.109 2.218v0m-0.53 1.157v0m-3.906-3.086v0m1.013 0.096v0m-2.749 1.013v0m-0.096-1.302v0m0.82-0.627v0m0.482 2.266v0m8.245 4.87v0m-1.302-0.193v0m0.482 1.206v0m0.724 0.964v0m-7.185-0.723v0m4.774-0.434v0m1.784 1.688v0m-3.327-0.675v0m-1.302 0.916v0m4.291 1.205v0m1.109-0.82v0m-0.819 2.411v0m0.771 0.386v0m-4.822-1.543v0m-1.735 1.109v0m1.542 0.048v0m2.508 0.627v0m0.289-0.627v0m-4.436-4.677v0m-2.363-0.289v0m4.967-0.193v0m-1.447 1.639v0m-0.289-1.832v0m-4.484 1.254v0m4.388 2.121v0m-3.858 1.302v0m-0.096 0.868v0m2.459-1.205v0m-0.675 0.723v0m2.17-0.434v0m-4.388-4.532v0m2.411 0v0m1.157 5.882v0m5.014-2.314v0m-2.025-0.579v0m1.543-0.916v0m-1.109 2.218v0m-0.53 1.157v0m-3.906-3.086v0m1.013 0.097v0m-2.604 0.578v0m-0.241-0.868v0m0.82-0.626v0m0.482 2.266v0m3.52-12.585v0m3.712 6.654v0m-1.253 0.868v0m-0.627 0.338v0m-0.53-1.109v0m-3.038-0.242v0m-2.122-0.048v0m3.617-0.096v0m2.7 0v0m2.411 0v0m-8.101 1.446v0m7.233 0.097v0m-3.568-0.338v0m-2.025 0.386v0m-3.906-1.832v0m-0.096 0.916v0m1.157 0.578v0m5.882 7.185v0m-4.484 0v0m8.245-14.176v0" fill="none" stroke="#000" stroke-linecap="round" stroke-width=".386"/>
    </g>
   </g>
  </g>
  <g transform="matrix(.35278 0 0 -.35278 85.573 320.09)">
   <g clip-path="url(#clipPath31919)">
    <g transform="translate(140.89 444.92)">
     <path d="m0 0v0m-0.434-4.773v0m0.386 1.735v0m1.543 1.109v0m1.639-0.53v0m1.109 1.736v0m0.048-1.543v0m0.627-2.507v0m-4.822 3.471v0m-0.771 3.038v0m-0.53-5.497v0m1.976 0.916v0m-1.832 1.35v0m1.254 4.484v0m0.337 0.627v0m1.784-5.014v0m1.302 3.857v0m-0.144 1.639v0m-4.051 0.049v0m-0.241 3.037v0m3.086-3.616v0m1.591 5.159v0m0.145-3.375v0m0.482-2.796v0m-1.205-2.46v0m0.723 0.675v0m0.53 6.51v0m-2.362 1.977v0m-0.531-4.822v0m-2.121 4.918v0m-0.482-3.664v0m4.532-7.088v0m-4.532 4.387v0m-0.483-2.362v0m6.028 3.664v0m0.53-4.243v0m-0.145 5.497v0m-4.484 3.134v0m1.543-12.247v0m1.302-0.434v0m1.157 0.53v0m-3.086 3.906v0m0.097-1.013v0m1.012 2.749v0m-1.302 0.096v0m-0.626-0.819v0m2.266-0.483v0m-1.447 7.522v0m-1.157-3.471v0m1.254 1.591v0m-0.868 0.434v0m2.362-0.868v0m0.531 1.253v0m-1.061 0.29v0m2.363 0.53v0m1.205 2.025v0m-2.411 0.097v0m-3.037-0.241v0m-2.026-1.109v0m3.52 0.964v0m2.7 0v0m-5.544-12.536v0m6.75-1.302v0m-0.241 3.037v0m-0.048 2.122v0m-0.097-3.616v0m-0.241 5.255v0m-0.096 3.279v0m0.675 1.639v0m0-3.423v0" fill="none" stroke="#000" stroke-linecap="round" stroke-width=".386"/>
    </g>
   </g>
  </g>
  <g transform="matrix(.35278 0 0 -.35278 85.573 320.09)">
   <g clip-path="url(#clipPath31931)">
    <g transform="translate(136.42 451.56)">
     <path d="m0 0c-1.615-8.672-5.766-14.506-11.356-16.509l10.128 3.688c5.455 2.08 9.503 7.854 11.099 16.373z" fill="none" stroke="#000" stroke-linecap="round" stroke-linejoin="round" stroke-width=".385"/>
    </g>
    <g transform="translate(111.6 486.61)">
     <path d="m0 0 9.7 3.53-0.014 24.685-9.7-3.53z" fill="#e5e7e8"/>
    </g>
   </g>
  </g>
  <g transform="matrix(.35278 0 0 -.35278 85.573 320.09)">
   <g clip-path="url(#clipPath31947)">
    <g transform="translate(110.93 487.08)">
     <path d="m0 0v0m-0.096 5.69v0m0.289-1.543v0m6.869 1.456v0m0.193-1.302v0m-1.205 0.482v0m-0.965 0.723v0m1.158-2.411v0m-1.688 1.784v0m0.964-2.941v0m-1.205-1.687v0m-1.206 4.291v0m0.82 1.109v0m-2.411-0.82v0m-0.385 0.772v0m1.543-4.822v0m-1.109-1.736v0m-0.049 1.543v0m-0.626 2.507v0m0.626 0.29v0m4.677-4.436v0m0.82 3.134v0m-1.784-1.399v0m1.254-0.578v0m-2.99-0.386v0m-1.253 0v0m-1.35-0.82v0m2.314 5.015v0m0.579-2.025v0m0.916 1.543v0m-2.218-1.109v0m-1.158-0.531v0m2.99-2.893v0m6.027 4.195v0m-1.543 0.868v0m0.338-2.748v0m-1.109-0.82v0m2.603-1.253v0m0 2.7v0m0 2.411v0m-2.169-1.688v0m1.301 2.363v0m-0.337-5.111v0m1.736 1.109v0m-0.724 4.339v0m-1.687 0.82v0" fill="none" stroke="#000" stroke-linecap="round" stroke-width=".386"/>
    </g>
   </g>
  </g>
  <g transform="matrix(.35278 0 0 -.35278 85.573 320.09)">
   <g clip-path="url(#clipPath31959)">
    <g transform="translate(110.89 495.6)">
     <path d="m0 0v0m0 4.195v0m0.048 6.123v0m0 5.401v0m-0.096 3.278v0m11.064-4.86v0m0.193-1.302v0m-1.205 0.482v0m-0.965 0.723v0m0.723-7.184v0m0.434 4.773v0m-1.687 1.784v0m1.302-3.52v0m-1.688-0.578v0m-1.061 3.761v0m0.82 1.109v0m-2.411-0.82v0m-0.386 0.772v0m1.543-4.822v0m-1.109-1.736v0m-0.048 1.543v0m-0.627 2.507v0m0.627 0.29v0m4.677-4.436v0m0.289-2.363v0m0.531 5.497v0m-1.784-1.399v0m1.639-0.867v0m-1.253-4.485v0m-0.338-0.626v0m-1.784 5.014v0m-1.302-3.857v0m0.675-2.218v0m3.52 0.53v0m0.241-3.037v0m-3.086 3.616v0m-1.591-5.159v0m-0.145 3.375v0m-0.482 2.796v0m1.206 2.459v0m-0.724-0.675v0m-0.53-6.509v0m2.363-1.977v0m0.53 4.822v0m2.604-1.254v0m-4.533 7.088v0m4.533-4.388v0m0 2.411v0m-5.545-3.712v0m-0.338 4.869v0m-0.048-6.123v0m4.484-3.134v0m-2.121 14.272v0m0.578-2.025v0m0.916 1.543v0m-2.218-1.109v0m-1.157-0.531v0m3.086-3.905v0m-0.096 1.012v0m-0.579-2.603v0m0.868-0.241v0m0.627 0.819v0m-2.266 0.482v0m1.446-7.521v0m1.157 3.471v0m-1.253-1.591v0m0.868-0.434v0m-2.363 0.868v0m-0.53-1.254v0m1.06-0.289v0m-2.362-0.53v0m-0.531 15.333v0m0.193-1.302v0m-1.205 0.482v0m-0.965 0.723v0m0.724-7.184v0m0.434 4.773v0m-1.688 1.784v0m0.916-2.941v0m-1.157-1.687v0m-0.386 5.4v0m2.266-6.702v0m0.29-2.363v0m0.53 5.497v0m-1.784-1.398v0m1.639-0.868v0m-1.253-4.485v0m-0.338-0.626v0m-1.784 5.014v0m2.893-5.545v0m0.241-3.037v0m-3.085 3.616v0m0.096-5.69v0m0.53 4.822v0m2.122-4.918v0m0.482 3.664v0m0 2.7v0m0 2.411v0m-0.434-7.473v0m-1.012-0.627v0m-1.543 12.247v0m0.916 1.543v0m-0.29-5.545v0m-0.096 1.013v0m-0.579-2.604v0m0.868-0.241v0m0.627 0.819v0m-0.82-7.039v0m1.158 3.471v0m-1.254-1.591v0m0.868-0.434v0m-1.832-0.675v0m6.123 20.975v0m3.713-3.183v0m-4.629-0.868v0m-0.145 3.376v0m-0.53-1.929v0m2.363-1.977v0m2.652-0.096v0m0.482 3.664v0m-5.931 0.145v0m4.484-3.134v0m-0.916 0.192v0m1.157 3.472v0m-1.205-0.916v0m0.82-1.109v0m-2.363 0.868v0m-0.53-1.254v0m1.205 0.049v0m-2.507-0.868v0m-0.965 0.868v0m-2.989-2.074v0m0.53 4.822v0m2.122-4.918v0m0.482 3.664v0m0.048-2.652v0m-1.494-0.337v0m-0.917 0.193v0m1.158 3.471v0m-1.254-1.591v0m0.868-0.434v0m-1.832-0.675v0m0.964-19.48v0m1.88 0.049v0" fill="none" stroke="#000" stroke-linecap="round" stroke-width=".386"/>
    </g>
   </g>
  </g>
  <g transform="matrix(.35278 0 0 -.35278 85.573 320.09)">
   <g clip-path="url(#clipPath31971)">
    <g transform="translate(111.66 486.7)">
     <path d="m0 0 9.7 3.53-0.014 24.685-9.7-3.53" fill="none" stroke="#000" stroke-linecap="round" stroke-linejoin="round" stroke-width=".385"/>
    </g>
    <g transform="translate(119.91 466.66)">
     <path d="m0 0 9.7 3.53 16.691-15.053-9.7-3.53z" fill="#fff"/>
    </g>
   </g>
  </g>
  <g transform="matrix(.35278 0 0 -.35278 85.573 320.09)">
   <g clip-path="url(#clipPath31987)">
    <g transform="translate(138.88 458.52)">
     <path d="m0 0v0m-1.302-0.193v0m0.482 1.206v0m0.724 0.964v0m-7.185-0.723v0m4.774-0.434v0m1.784 1.687v0m-2.941-0.964v0m-1.688 1.205v0m4.291 1.206v0m1.109-0.82v0m-0.819 2.411v0m0.771 0.386v0m-4.822-1.543v0m-1.735 1.109v0m1.542 0.048v0m2.508 0.627v0m0.289-0.627v0m-4.436-4.677v0m-2.363-0.289v0m5.497-0.531v0m-1.398 1.784v0m-0.579-1.253v0m-4.773 0.868v0m-0.627 0.337v0m5.015 1.784v0m-3.858 1.302v0m-2.218-0.675v0m0.531-3.52v0m-3.038-0.241v0m3.616 3.086v0m-5.159 1.591v0m3.375 0.145v0m2.797 0.482v0m2.459-1.206v0m-0.675 0.724v0m-6.51 0.53v0m-1.976-2.363v0m4.821-0.53v0m-4.918-2.122v0m3.665-0.482v0m7.088 4.533v0m-4.388-4.533v0m2.411 0v0m-3.713 5.545v0m4.87 0.338v0m-8.535-6.558v0m2.411 6.606v0m-3.134-4.484v0m14.272 2.121v0m-2.025-0.578v0m1.543-0.916v0m-1.109 2.218v0m-0.53 1.157v0m-3.906-3.086v0m1.013 0.096v0m-2.604 0.579v0m-0.241-0.868v0m0.82-0.627v0m0.482 2.266v0m-7.522-1.446v0m3.472-1.157v0m-1.206 1.205v0m-0.819-0.82v0m0.867 2.363v0m-1.253 0.53v0m-0.289-1.06v0m-0.531 2.362v0m14.465-13.693v0m0.29 1.591v0m0.771 0.386v0m-4.822-1.543v0m-1.735 1.109v0m1.542 0.048v0m2.508 0.627v0m0.289-0.627v0m-7.522-0.675v0m-2.218-0.675v0m-4.05 0.916v0m3.375 0.145v0m2.797 0.482v0m2.459-1.206v0m-0.675 0.724v0m-6.51 0.53v0m8.68-0.964v0m-5.69 1.012v0m4.87 0.338v0m-6.124 0.048v0m11.138-2.363v0m-1.591 0.724v0m-0.53 1.157v0m-4.436-1.64v0m-5.208 0.145v0m-0.723 0.096v0m-1.35 1.736v0m-1.446 1.254v0m0.193-1.302v0m-1.206 0.482v0m-0.964 0.723v0m1.157-2.41v0m-1.688 1.784v0m0.145-1.447v0m1.109 12.633v0m0.675-1.736v0m-0.868-1.253v0m-0.337-0.627v0m1.109-0.531v0m0.192-3.712v0m-0.289-1.495v0m0.482 3.664v0m0 2.701v0m0 2.41v0m-1.446-8.1v0m-0.916 8.245v0m0.193-1.832v0m0.626 0.819v0m-0.819-7.039v0m1.157 3.471v0m-1.206-0.916v0m0.82-1.109v0m16.346-2.459v0m0.868 1.543v0m-2.749-0.337v0m-7.088 1.494v0m3.52-2.844v0m2.749 2.459v0m-3.568-1.736v0m2.314-0.868v0m2.7 0v0m2.411 0v0m-7.377-0.675v0m-0.724 2.121v0m6.413 0.724v0m2.363-1.302v0m-8.583 1.495v0m3.472-1.158v0m-1.591 1.254v0m-0.434-0.868v0m-4.436-1.398v0m-0.964 1.495v0m-1.64 0.53v0m-1.109-1.736v0m-0.048 1.543v0m4.677-1.639v0m-0.964 1.735v0m1.639-0.867v0m-3.375-0.097v0m-0.964-1.495v0m-0.724-0.675v0m0.434 2.17v0m4.533-1.977v0m-5.883 1.157v0m3.52-1.012v0m-0.096 1.012v0m-0.868-1.591v0m11.572 0.386v0m-2.17 0.338v0m3.664-0.483v0m-2.266-0.675v0m2.941 1.881v0m-4.966-0.965v0m-2.459-0.916v0m8.245 3.568v0m-16.354 13.331v0m-0.772-0.386v0m6.558 0.434v0m-1.543-0.048v0m-2.508-0.627v0m-0.289 0.627v0m7.522 0.675v0m6.268-0.241v0m-3.375-0.145v0m-2.797-0.482v0m-1.784 0.482v0m6.51-0.53v0m-8.679 0.964v0m5.689-1.012v0m-4.87-0.338v0m6.124-0.048v0m-9.017 0.482v0m10.897 0.964v0m0.82-1.302v0m-15.333-0.53v0m1.302 0.193v0m-0.482-1.205v0m-0.724-0.965v0m7.185 0.723v0m-4.774 0.434v0m-1.784-1.687v0m2.941 0.916v0m1.688-1.157v0m-5.4-0.386v0m6.702 2.266v0m2.363 0.29v0m-5.497 0.53v0m1.398-1.784v0m0.868 1.639v0m4.484-1.253v0m0.627-0.338v0m-5.015-1.784v0" fill="none" stroke="#000" stroke-linecap="round" stroke-width=".386"/>
    </g>
    <g transform="translate(133.86 468.43)">
     <path d="m0 0v0m3.038 0.241v0m-3.617-3.086v0m5.69 0.097v0m-4.822 0.53v0m4.918 2.122v0m-3.664 0.482v0m-2.7 0v0m-2.411 0v0m7.474-0.434v0m0.626-1.013v0m-12.247-1.543v0m-1.543 0.916v0m5.545-0.289v0m-1.012-0.096v0m2.603-0.579v0m0.242 0.868v0m-0.82 0.627v0m7.04-0.82v0m-3.472 1.157v0m1.591-1.253v0m0.434 0.868v0m0.675-1.833v0m-16.924 5.208v0m-1.447-0.675v0m0.145 1.012v0m0.82-1.302v0m-0.868-0.964v0m2.073-2.989v0m0.097 2.652v0m-1.013 0.53v0m0.338-1.495v0m-0.193-0.916v0m-0.772-1.061v0m19.48 0.965v0m-0.048 1.88v0" fill="none" stroke="#000" stroke-linecap="round" stroke-width=".386"/>
    </g>
   </g>
  </g>
  <g transform="matrix(.35278 0 0 -.35278 85.573 320.09)">
   <g clip-path="url(#clipPath32003)">
    <g transform="translate(140.07 452.1)">
     <path d="m0 0v0m4.677 1.543v0m0.675-1.447v0m-2.363 1.977v0m-2.651 0.097v0m0.964-0.675v0m0.916-0.193v0m-0.771-1.447v0m2.893 0.386v0m-1.061 0.289v0m2.362 0.531v0m1.206 2.025v0m-1.254 0.868v0m-0.627 0.337v0m1.158 3.086v0m-2.218-0.675v0m0.53-3.52v0m-3.038-0.241v0m3.617 3.086v0m-5.16 1.591v0m3.376 0.145v0m2.796 0.482v0m-4.725 0.048v0m-1.977-2.362v0m4.822-0.531v0m-4.774-3.568v0m3.52 0.965v0m2.7 0v0m-1.302 5.545v0m-1.253 0.385v0m-3.134-4.484v0m6.653 1.591v0m-0.241-0.868v0m-6.22 0.193v0m3.472-1.157v0m-1.591 1.254v0m-0.434-0.868v0m0.868 2.362v0m-1.254 0.531v0m-0.289-1.061v0m-0.53 2.363v0m6.316 1.109v0m-1.254 0.868v0m-1.157-0.772v0m-3.038-0.241v0m-2.169 0.337v0m3.664-0.482v0m2.7 0v0m-5.062 0.434v0m6.412-9.161v0m-7.763 9.306v0" fill="none" stroke="#000" stroke-linecap="round" stroke-width=".386"/>
    </g>
   </g>
  </g>
  <g transform="matrix(.35278 0 0 -.35278 85.573 320.09)">
   <g clip-path="url(#clipPath32015)">
    <g transform="translate(119.86 466.64)">
     <path d="m0 0 9.7 3.531 16.69-15.054-9.7-3.53z" fill="none" stroke="#000" stroke-linecap="round" stroke-linejoin="round" stroke-width=".385"/>
    </g>
    <g transform="translate(119.88 466.64)">
     <path d="m0 0c-0.9-4.954-4.272-7.157-8.295-4.956-4.71 2.578-8.53 10.222-8.53 17.071 0 4.41 1.583 7.416 3.968 8.31 1.319 0.495 2.884 0.343 4.562-0.575l-0.109 24.829c-5.04 2.759-9.739 3.215-13.701 1.729-7.161-2.685-11.914-11.712-11.914-24.954 0-20.57 11.468-43.523 25.615-51.266 12.079-6.61 22.206 4e-3 24.908 14.882z" fill="#d1d2d4"/>
    </g>
   </g>
  </g>
  <g transform="matrix(.35278 0 0 -.35278 85.573 320.09)">
   <g clip-path="url(#clipPath32031)">
    <g transform="translate(110.83 437.32)">
     <path d="m0 0v0m-0.771-0.771v0m0.096-1.881v0m0.964 1.109v0m-0.964 1.736v0m7.834-0.28v0m0.193-1.302v0m-1.206 0.482v0m-0.964 0.724v0m1.157-2.411v0m-1.688 1.784v0m0.965-2.941v0m-2.411 2.603v0m0.82 1.109v0m-2.411-0.819v0m-0.386 0.771v0m-0.241-2.507v0m0.627 0.289v0m5.496-1.302v0m-3.809 1.832v0m0.579-2.025v0m0.916 1.543v0m-2.218-1.109v0m16.153 3.279v0m0.193-1.302v0m-1.206 0.482v0m-0.964 0.724v0m1.157-2.411v0m-1.687 1.784v0m-1.447-0.338v0m0.82 1.109v0m-2.411-0.819v0m-0.386 0.771v0m-0.241-2.507v0m0.627 0.289v0m1.687 0.53v0m0.579-2.025v0m0.916 1.543v0m-2.218-1.109v0m-3.713 0.772v0m-1.542 0.868v0m1.832 0.289v0m-2.17-1.688v0m1.302 2.363v0m1.736-1.832v0m0.144 1.494v0m0.675-2.266v0m-1.88 2.941v0m-1.688 0.82v0" fill="none" stroke="#000" stroke-linecap="round" stroke-width=".386"/>
    </g>
   </g>
  </g>
  <g transform="matrix(.35278 0 0 -.35278 85.573 320.09)">
   <g clip-path="url(#clipPath32043)">
    <g transform="translate(85.134 492.53)">
     <path d="m0 0v0m5.979-1.447v0m-4.774 0.434v0m1.736-0.385v0m1.109-1.543v0m-0.53-1.64v0m1.736-1.109v0m-1.543-0.048v0m-2.508-0.627v0m-0.482 1.158v0m3.954 3.664v0m3.038 0.772v0m-5.497 0.53v0m0.916-1.977v0m1.35 1.832v0m4.484-1.253v0m0.627-0.338v0m-5.014-1.784v0m3.857-1.302v0m1.639 0.145v0m0.049 4.05v0m3.037 0.241v0m-3.616-3.086v0m5.159-1.591v0m-3.375-0.145v0m-2.797-0.482v0m-2.459 1.206v0m0.675-0.724v0m6.51-0.53v0m1.977 2.363v0m-4.822 0.53v0m4.918 2.122v0m-3.665 0.482v0m-7.087-4.533v0m4.387 4.533v0m-2.362 0.482v0m3.664-6.027v0m-4.243-0.53v0m5.497 0.144v0m3.134 4.484v0m-14.272-2.121v0m2.025 0.578v0m-1.543 0.916v0m1.109-2.217v0m0.53-1.158v0m3.906 3.086v0m-1.013-0.096v0m2.749-1.013v0m0.096 1.302v0m-0.82 0.627v0m-0.482-2.266v0m7.522 1.446v0m-3.472 1.157v0m1.592-1.253v0m0.434 0.868v0m-0.868-2.363v0m1.253-0.53v0m0.29 1.06v0m0.53-2.362v0m-14.224-14.272v0m5.979-1.447v0m-4.774 0.434v0m1.158-0.723v0m1.687-1.206v0m-0.53-1.639v0m1.736-1.109v0m-1.543-0.048v0m-2.508-0.627v0m-0.289 0.627v0m4.436 4.677v0m2.363 0.289v0m-5.497 0.531v0m1.398-1.785v0m0.579 1.254v0m4.773-0.868v0m0.627-0.337v0m-5.014-1.784v0m3.857-1.302v0m2.218 0.675v0m-0.53 3.52v0m3.037 0.241v0m-3.616-3.086v0m5.159-1.591v0m-3.375-0.145v0m-2.797-0.482v0m-2.459 1.205v0m0.675-0.723v0m6.51-0.53v0m1.977 2.362v0m-4.822 0.531v0m4.918 2.121v0m-3.665 0.482v0m-7.087-4.532v0m4.387 4.532v0m-2.411 0v0m3.713-5.545v0m-4.87-0.337v0m8.535 6.557v0m-2.411-6.605v0m3.134 4.484v0m-14.272-2.122v0m2.025 0.579v0m-1.543 0.916v0m1.109-2.218v0m0.53-1.157v0m3.906 3.086v0m-1.013-0.097v0m2.604-0.578v0m0.241 0.868v0m-0.82 0.626v0m-0.482-2.266v0m7.522 1.447v0m-3.472 1.157v0m1.206-1.205v0m0.82 0.819v0m-0.868-2.362v0m1.253-0.531v0m0.29 1.061v0m0.53-2.363v0m-14.224 17.841v0m5.979-1.447v0m-4.774 0.434v0m1.543-1.012v0m1.302-0.917v0m-0.53-1.639v0m1.736-1.109v0m-1.543-0.048v0m-2.508-0.627v0m-0.289 0.627v0m4.436 4.677v0m2.363 0.289v0m-4.967 0.193v0m1.447-1.639v0m0.289 1.832v0m4.484-1.254v0m0.627-0.337v0m-5.014-1.784v0m3.857-1.302v0m2.218 0.675v0m-0.53 3.52v0m3.037 0.241v0m-3.616-3.086v0m5.159-1.591v0m-3.375-0.145v0m-2.797-0.482v0m-2.459 1.205v0m0.675-0.723v0m6.51-0.53v0m1.977 2.362v0m-4.822 0.531v0m4.484 2.121v0m-2.989 0v0m-7.329-4.05v0m4.387 4.532v0m-2.411 0v0m3.713-5.544v0m-4.87-0.338v0m8.535 6.558v0m-2.411-6.606v0m3.134 4.484v0m-14.272-2.122v0m2.025 0.579v0m-1.543 0.916v0m1.109-2.218v0m0.53-1.157v0m3.906 3.086v0m-1.013-0.097v0m2.604-0.578v0m0.241 0.868v0m-0.82 0.627v0m-0.482-2.267v0m7.522 1.447v0m-3.472 1.157v0m1.592-1.254v0m0.434 0.868v0m-0.868-2.362v0m0.723-0.097v0m0.82 0.627v0m0.53-2.363v0m1.447-1.253v0m-0.193 1.302v0m1.205-0.483v0m0.964-0.723v0m-0.723 7.185v0m-0.434-4.774v0m1.688-1.784v0m-1.302 3.52v0m1.688 0.579v0m1.06-3.761v0m-0.819-1.109v0m2.41 0.819v0m0.386-0.771v0m-1.543 4.822v0m1.109 1.735v0m0.048-1.543v0m0.627-2.507v0m-0.627-0.289v0m-4.677 4.436v0m-0.289 2.362v0m-0.53-5.496v0" fill="none" stroke="#000" stroke-linecap="round" stroke-width=".386"/>
    </g>
    <g transform="translate(102.64 480.96)">
     <path d="m0 0v0m-1.639 0.868v0m1.253 4.484v0m0.338 0.627v0m1.784-5.015v0m1.302 3.858v0m-0.675 2.218v0m-3.52-0.531v0m-0.241 3.038v0m3.086-3.616v0m1.591 5.159v0m0.144-3.375v0m0.483-2.797v0m-1.206-2.459v0m0.723 0.675v0m0.531 6.509v0m-2.363 1.977v0m-0.53-4.821v0m-3.568 4.773v0m0.964-3.52v0m4.532-7.088v0m-4.532 4.388v0m0-2.411v0m5.545 3.713v0m0.338-4.87v0m-18.419 9.113v0m18.467-2.989v0m-4.484 3.134v0m2.121-14.273v0m-0.578 2.026v0m-0.917-1.543v0m2.218 1.109v0m1.158 0.53v0m-3.086 3.906v0m0.096-1.013v0m0.579 2.604v0m-0.868 0.241v0m-0.627-0.82v0m2.266-0.482v0m-1.446 7.522v0m-1.158-3.472v0m1.254 1.591v0m-0.868 0.434v0m2.363-0.868v0m0.53 1.254v0m-1.061 0.289v0m2.363 0.531v0m0.53-15.333v0m-0.192 1.302v0m1.205-0.483v0m0.964-0.723v0m-0.723 7.184v0m-0.434-4.773v0m1.688-1.784v0m-0.916 2.941v0m1.157 1.688v0m0.386-5.4v0m-2.267 6.702v0m-0.289 2.362v0m-0.53-5.496v0m1.784 1.398v0m-1.64 0.868v0m1.254 4.484v0m0.338 0.627v0m1.784-5.015v0m-2.893 5.545v0m-0.242 3.038v0m3.086-3.616v0m-0.096 5.689v0m-0.53-4.822v0m-2.122 4.919v0m-0.482-3.665v0m0-2.7v0m0-2.411v0m0.434 7.474v0m1.012 0.627v0m1.543-12.248v0m-0.916-1.543v0m0.289 5.545v0m0.097-1.012v0m0.578 2.604v0m-0.867 0.241v0m-0.627-0.82v0m0.819 7.04v0m-1.157-3.472v0m1.254 1.591v0m-0.868 0.434v0m1.832 0.675v0m-9.065-25.651v0m-0.675 1.736v0m0.868 1.253v0m0.338 0.627v0m3.086-1.157v0m-0.675 2.218v0m-3.52-0.531v0m-0.193 3.713v0m3.038-4.291v0m1.591 5.159v0m0.144-3.375v0m0.483-2.797v0m-1.206-2.459v0m0.723 0.675v0m0.531 6.51v0m-2.363 1.976v0m-0.53-4.821v0m-2.122 4.918v0m-0.482-3.665v0m0-2.7v0m0-2.411v0m5.545 3.713v0m0.386 1.254v0m-4.484 3.134v0m0.916-8.245v0m0.675 1.591v0m-0.868 0.241v0m-0.627-0.82v0m2.266-0.482v0m-1.446 7.522v0m-1.158-3.472v0m1.206 0.916v0m-0.82 1.109v0m2.363-0.867v0m0.53 1.253v0m-1.205-0.048v0m2.507 0.868v0m1.784-8.052v0m-0.386-0.627v0m-0.289 2.362v0m0.868 1.254v0m0.338 0.627v0m-1.109 0.53v0m-0.242 3.038v0m3.086-3.616v0m-0.096 5.689v0m-0.53-4.821v0m-2.122 4.918v0m-0.482-3.665v0m0-2.7v0m0-2.411v0m-0.048 7.763v0m1.494 0.338v0m0.916-8.245v0m0.097-1.013v0m0.578 2.604v0m-0.867 0.241v0m-0.627-0.82v0m0.819 7.04v0m-1.157-3.472v0m1.254 1.591v0m-0.868 0.434v0m1.832 0.675v0m-24.783 1.592v0m-0.868-1.543v0m2.748 0.337v0m7.088-1.495v0m-3.52 2.845v0m-2.748-2.459v0m3.568 1.736v0m-2.315 0.868v0m-2.7 0v0m-2.411 0v0m7.378 0.675v0m0.723-2.122v0m-6.413-0.723v0m6.22-0.193v0m-3.472 1.157v0m1.592-1.253v0m0.434 0.868v0m4.436 1.398v0m0.964-1.495v0m1.639-0.53v0m1.109 1.736v0m0.048-1.543v0m-4.677 1.639v0m0.965-1.736v0m-1.64 0.868v0m3.376 0.097v0m0.964 1.494v0m0.723 0.675v0m-0.434-2.169v0m-4.532 1.977v0m5.882-1.158v0m-3.52 1.013v0m0.097-1.013v0m0.868 1.591v0m-11.813 7.715v0m0.626-0.337v0m0.531 1.109v0m3.037 0.241v0m2.122 0.048v0m-3.616 0.096v0m-2.7 0v0m5.689-1.446v0m-3.664 0.241v0m2.025-0.386v0m3.905 1.832v0m1.495-1.928v0m4.388 0.819v0m-5.786 0.193v0m-1.157-0.578v0" fill="none" stroke="#000" stroke-linecap="round" stroke-width=".386"/>
    </g>
    <g transform="translate(96.369 484.33)">
     <path d="m0 0v0m0.964 1.495v0m0.29-1.495v0m1.35 0.82v0m-3.424 0v0m-9.209-8.92v0m2.17-0.338v0m-1.399 1.157v0m2.025-0.916v0m2.46 0.916v0m18.563 15.912v0m0.675-27.966v0m-2.652 0.096v0m0.097 27.822v0m-23.087-54.46v0m0.964-0.723v0m-0.723 7.185v0m1.253-6.558v0m-1.301 3.52v0m1.543 1.109v0m1.205-4.291v0m-0.82-1.109v0m2.411 0.819v0m0.386-0.771v0m-1.543 4.821v0m1.109 1.736v0m0.048-1.543v0m0.627-2.507v0m-1.157-0.482v0m-3.665 3.954v0m0.675-1.543v0m-0.578 5.834v0m0.337 0.627v0m1.784-5.015v0m1.302 3.858v0m-0.145 1.639v0m-1.205-0.53v0m1.591 5.159v0m0.145-3.375v0m0.482-2.797v0m-1.205-2.459v0m0.723 0.675v0m0.53 6.509v0m-2.362 1.977v0m-0.531-4.821v0m1.929-5.835v0m1.012 5.69v0m0.531-4.243v0m-0.145 5.496v0m-4.484 3.135v0m2.121-14.273v0m-0.578 2.025v0m-0.916-1.542v0m2.218 1.109v0m1.157 0.53v0m-3.086 3.905v0m0.097-1.012v0m1.012 2.748v0m-1.302 0.097v0m-0.627-0.82v0m2.267-0.482v0m-1.447 7.522v0m-1.157-3.472v0m1.254 1.591v0m-0.868 0.434v0m2.362-0.868v0m0.531 1.254v0m-1.061 0.289v0m2.362 0.531v0m14.466-15.526v0m-0.193 1.302v0m1.205-0.483v0m0.964-0.723v0m-0.723 7.185v0m-0.434-4.774v0m1.688-1.784v0m-0.965 2.941v0m1.206 1.688v0m1.205-4.291v0m-0.819-1.109v0m2.41 0.819v0m0.386-0.771v0m-1.543 4.821v0m1.109 1.736v0m0.048-1.543v0m0.627-2.507v0m-0.627-0.289v0m-4.677 4.436v0m-0.289 2.362v0m-0.53-5.496v0m1.784 1.398v0m-1.254 0.579v0m0.868 4.773v0m0.338 0.627v0m1.784-5.015v0m1.301 3.858v0m-0.675 2.218v0m-3.519-0.531v0m-0.241 3.038v0m3.085-3.616v0m1.592 5.159v0m0.144-3.375v0m0.482-2.797v0m-1.205-2.459v0m0.723 0.675v0m0.531 6.509v0m-2.363 1.977v0m-0.53-4.821v0m-2.122 4.918v0m-0.482-3.665v0m4.532-7.088v0m-4.532 4.388v0m0-2.411v0m5.545 3.713v0m0.337-4.87v0m-6.557 8.534v0m6.606-2.411v0m-4.485 3.135v0m2.122-14.273v0m-0.579 2.025v0m-0.916-1.542v0m2.218 1.109v0m1.157 0.53v0m-3.086 3.905v0m0.097-1.012v0m0.579 2.604v0m-0.868 0.241v0m-0.627-0.82v0m2.266-0.482v0m-1.447 7.522v0m-1.157-3.472v0m1.206 1.206v0m-0.82 0.819v0m2.363-0.868v0m0.53 1.254v0m-1.061 0.289v0m2.363 0.531v0m-17.648-15.526v0m-0.192 1.302v0m1.205-0.483v0m0.964-0.723v0m-0.723 7.185v0m-0.434-4.774v0m1.688-1.784v0m-0.675 3.327v0m0.916 1.302v0m1.205-4.291v0m-0.819-1.109v0m2.41 0.819v0m0.386-0.771v0m-1.543 4.821v0m1.109 1.736v0m0.048-1.543v0m0.627-2.507v0m-0.627-0.289v0m-4.677 4.436v0m-0.289 2.362v0m-0.193-4.966v0m1.64 1.447v0m-1.833 0.289v0m1.254 4.484v0m0.338 0.627v0m1.784-5.015v0m1.301 3.858v0m-0.675 2.218v0m-3.519-0.531v0m-0.242 3.038v0m3.086-3.616v0m1.591 5.159v0m0.145-3.375v0m0.482-2.797v0m-1.205-2.459v0m0.723 0.675v0m0.531 6.509v0m-2.363 1.977v0m-0.53-4.821v0m-2.122 4.484v0m0-2.99v0m4.05-7.329v0m-4.532 4.388v0m0-2.411v0m5.545 3.713v0m0.337-4.87v0m-6.557 8.534v0m6.605-2.411v0m-4.484 3.135v0m2.122-14.273v0m-0.579 2.025v0m-0.916-1.542v0m2.218 1.109v0m1.157 0.53v0m-3.086 3.905v0m0.097-1.012v0m0.578 2.604v0m-0.867 0.241v0m-0.627-0.82v0m2.266-0.482v0m-1.447 7.522v0m-1.157-3.472v0m1.254 1.591v0" fill="none" stroke="#000" stroke-linecap="round" stroke-width=".386"/>
    </g>
    <g transform="translate(95.028 451.96)">
     <path d="m0 0v0m2.363-0.868v0m0.096 0.723v0m-0.627 0.82v0m2.363 0.53v0m1.254 1.447v0m-1.302-0.193v0m0.482 1.205v0m0.723 0.965v0m-7.184-0.723v0m4.773-0.434v0m1.784 1.687v0m-3.52-1.302v0m-0.578 1.688v0m3.761 1.061v0m1.109-0.82v0m-0.82 2.411v0m0.772 0.386v0m-4.822-1.543v0m-1.736 1.109v0m1.543 0.048v0m2.507 0.627v0m0.29-0.627v0m-4.436-4.677v0m-2.363-0.289v0m5.497-0.531v0m-1.399 1.784v0m-0.868-1.639v0m-4.484 1.253v0m-0.627 0.338v0m5.015 1.784v0m-3.857 1.302v0m-2.218-0.675v0m0.53-3.52v0m-3.038-0.241v0m3.617 3.086v0m-1.784 1.736v0m2.796 0.482v0m2.459-1.206v0m-0.675 0.724v0m-6.509 0.53v0m2.845-2.893v0m-1.254-2.604v0m7.088 4.533v0m-4.388-4.533v0m2.411 0v0m-3.713 5.545v0m4.87 0.338v0m-6.123 0.048v0m11.138-2.363v0m-2.025-0.578v0m1.543-0.916v0m-1.109 2.218v0m-0.531 1.157v0m-3.905-3.086v0m1.012 0.096v0m-2.603 0.579v0m-0.241-0.868v0m0.819-0.627v0m0.482 2.266v0m-4.05-2.603v0m-1.591 1.253v0m-0.434-0.868v0m0.868 2.363v0m-1.254 0.53v0m-0.289-1.06v0m14.803 2.893v0m-1.302-0.193v0m0.482 1.205v0m0.723 0.965v0m-7.184-0.724v0m4.773-0.434v0m1.784 1.688v0m-2.941-0.916v0m-1.687 1.157v0m5.4 0.386v0m-6.702-2.266v0m-2.363-0.29v0m5.497-0.53v0m-1.398 1.784v0m-0.868-1.639v0m-4.485 1.253v0m-0.626 0.338v0m5.014 1.784v0m-5.545-2.893v0m-3.037-0.241v0m3.616 3.085v0m-0.868-0.626v0m-1.254-2.604v0m2.7 0v0m2.411 0v0m4.147 2.989v0m1.543-0.916v0m-5.545 0.29v0m1.013 0.096v0m-2.604 0.579v0m-0.241-0.868v0m0.819-0.627v0m-3.568-0.338v0m-1.591 1.254v0m-0.434-0.868v0m-0.675 1.832v0m25.652-9.064v0m-1.736-0.675v0m-1.254 0.867v0m-0.627 0.338v0m1.158 3.086v0m-2.218-0.675v0m0.53-3.52v0m-3.713-0.193v0m4.292 3.038v0m-5.16 1.591v0m3.376 0.145v0m2.796 0.482v0m2.459-1.206v0m-0.675 0.724v0m-6.509 0.53v0m-1.977-2.363v0m4.822-0.53v0m-4.918-2.122v0m3.664-0.482v0m2.7 0v0m2.411 0v0m-3.713 5.545v0m-1.253 0.386v0m-3.134-4.484v0m8.245 0.916v0m-1.592 0.675v0m-0.241-0.868v0m0.82-0.627v0m0.482 2.266v0m-7.522-1.446v0m3.472-1.157v0m-0.916 1.205v0m-1.109-0.82v0m0.868 2.363v0m-1.254 0.53v0m0.048-1.205v0m-0.867 2.507v0m8.052 1.784v0m0.627-0.385v0m-2.363-0.29v0m-1.254 0.868v0m-0.627 0.338v0m-0.53-1.109v0m-3.038-0.241v0m3.617 3.085v0m-5.69-0.096v0m4.822-0.53v0m-4.918-2.122v0m3.664-0.482v0m2.7 0v0m2.411 0v0m-7.763-0.048v0m-0.337 1.494v0m8.245 0.917v0m1.012 0.096v0m-2.603 0.579v0m-0.241-0.868v0m0.819-0.627v0m-7.039 0.82v0m3.471-1.158v0m-1.591 1.254v0m-0.434-0.868v0m-0.675 1.832v0m-1.591-24.783v0m1.543-0.868v0m-0.338 2.748v0m1.495 7.088v0m-2.845-3.52v0m2.459-2.748v0m-1.736 3.568v0m-0.867-2.314v0m0-2.701v0m0-2.41v0m-0.675 7.377v0m2.121 0.723v0m0.723-6.413v0m-1.302-2.362v0m1.495 8.582v0m-1.157-3.471v0m1.254 1.591v0m-0.868 0.434v0m-1.399 4.436v0m1.495 0.964v0m0.531 1.639v0m-1.736 1.109v0m1.543 0.049v0m-1.64-4.677v0m1.736 0.964v0m-0.868-1.639v0m-0.096 3.375v0m-1.495 0.964v0m-0.675 0.723v0m2.17-0.434v0m-1.977-4.532v0m1.157 5.882v0m-1.012-3.519v0m1.012 0.096v0m-1.591 0.868v0" fill="none" stroke="#000" stroke-linecap="round" stroke-width=".386"/>
    </g>
    <g transform="translate(91.315 438.65)">
     <path d="m0 0v0m0.868 1.254v0m0.337 0.626v0m-1.109 0.531v0m-0.241 3.037v0m-0.048 2.122v0m-0.096-3.616v0m0-2.7v0m0-2.411v0m1.446 8.1v0m0.097-7.232v0m-0.338 3.568v0m0.386 2.025v0m-1.832 3.905v0m1.928 1.495v0m-0.819 4.388v0m-0.193-5.786v0m0.578-1.157v0m-0.096 3.375v0m-1.495 0.964v0m1.495 0.289v0m-0.82 1.351v0m0-3.424v0m8.92-9.209v0m0.338 2.169v0m-0.482-3.664v0m-0.675 2.266v0m1.88-2.941v0m-0.964 4.966v0m-0.916 2.459v0m-14.176-8.245v0m17.744 0v0m8.486 27.484v0m-0.097-2.652v0m20.178-22.749v0m4.773-0.434v0m-1.736 0.385v0m-1.109 1.543v0m0.531 1.64v0m-1.736 1.109v0m1.543 0.048v0m2.507 0.627v0m0.482-1.157v0m-3.953-3.665v0m-3.038-0.771v0m5.497-0.531v0m-0.916 1.977v0m-1.351-1.832v0m-4.484 1.253v0m-0.627 0.338v0m5.015 1.784v0m-3.857 1.302v0m-1.64-0.145v0m-0.048-4.05v0m-3.038-0.241v0m3.617 3.086v0m-5.16 1.591v0m3.376 0.145v0m2.796 0.482v0m2.459-1.206v0m-0.675 0.724v0m-6.509 0.53v0m-1.977-2.363v0m4.822-0.53v0m-4.918-2.122v0m3.664-0.482v0m7.088 4.533v0m-4.388-4.533v0m2.363-0.482v0m-3.665 6.027v0m4.244 0.531v0m-5.497-0.145v0m-3.134-4.484v0m14.272 2.121v0m-2.025-0.578v0m1.543-0.916v0m-1.109 2.218v0m-0.531 1.157v0m-3.905-3.086v0m1.012 0.096v0m-2.748 1.013v0m-0.096-1.302v0m0.819-0.627v0m0.482 2.266v0m-7.521-1.446v0m3.471-1.157v0m-1.591 1.253v0m-0.434-0.868v0m0.868 2.363v0m-1.254 0.53v0m-0.289-1.06v0m-0.53 2.362v0m8.245 15.719v0m4.773-0.434v0m-1.157 0.723v0m-1.688 1.206v0m0.531 1.639v0m-1.736 1.109v0m1.543 0.048v0m2.507 0.627v0m0.29-0.627v0m-4.436-4.677v0m-2.363-0.289v0m5.497-0.53v0m-1.399 1.784v0m-0.578-1.254v0m-4.774 0.868v0m-0.627 0.337v0m5.015 1.784v0m-3.857 1.302v0m-2.218-0.675v0m0.53-3.52v0m-3.038-0.241v0m3.617 3.086v0m-5.16 1.591v0m3.376 0.145v0m2.796 0.482v0m2.459-1.205v0m-0.675 0.723v0m-6.509 0.53v0m-1.977-2.362v0m4.822-0.531v0m-4.918-2.121v0m3.664-0.482v0m7.088 4.532v0m-4.388-4.532v0m2.411 0v0m-3.713 5.545v0m4.87 0.337v0m-8.534-6.557v0m2.411 6.605v0m-3.134-4.484v0m14.272 2.122v0m-2.025-0.579v0m1.543-0.916v0m-1.109 2.218v0m-0.531 1.157v0m-3.905-3.086v0m1.012 0.097v0m-2.603 0.578v0m-0.241-0.868v0m0.819-0.626v0m0.482 2.266v0m-7.521-1.447v0m3.471-1.157v0m-1.205 1.206v0m-0.82-0.82v0m0.868 2.362v0m-1.254 0.531v0m-0.289-1.061v0m-0.53 2.363v0m8.245-16.394v0m4.773-0.434v0m-1.543 1.013v0m-1.302 0.916v0m0.531 1.639v0m-1.736 1.109v0m1.543 0.048v0m2.507 0.627v0m0.29-0.627v0m-4.436-4.677v0m-2.363-0.289v0m4.966-0.193v0m-1.446 1.639v0m-0.29-1.832v0m-4.484 1.254v0m-0.627 0.337v0m5.015 1.784v0m-3.857 1.302v0m-2.218-0.675v0m0.53-3.52v0m-3.038-0.241v0m3.617 3.086v0m-5.16 1.591v0m3.376 0.145v0m2.796 0.482v0m2.459-1.205v0m-0.675 0.723v0m-6.509 0.53v0m-1.977-2.362v0m4.822-0.531v0m-4.484-2.121v0m2.989 0v0m7.329 4.05v0m-4.388-4.532v0m2.411 0v0m-3.713 5.545v0m4.87 0.337v0m-8.534-6.557v0m2.411 6.605v0m-3.134-4.484v0m14.272 2.122v0m-2.025-0.579v0m1.543-0.916v0m-1.109 2.218v0m-0.531 1.157v0m-3.905-3.086v0m1.012 0.097v0m-2.603 0.578v0m-0.241-0.868v0" fill="none" stroke="#000" stroke-linecap="round" stroke-width=".386"/>
    </g>
    <g transform="translate(130.15 448.78)">
     <path d="m0 0v0m0.482 2.266v0m-7.522-1.446v0m3.472-1.158v0m-1.591 1.254v0m-0.434-0.868v0m0.868 2.363v0m-0.724 0.096v0m-0.819-0.627v0m-0.531 2.363v0m-1.446 1.254v0m0.193-1.302v0m-1.206 0.482v0m-0.964 0.723v0m0.723-7.184v0m0.434 4.773v0m-1.687 1.784v0m1.301-3.519v0m-1.687-0.579v0m-1.061 3.761v0m0.82 1.109v0m-2.411-0.82v0m-0.386 0.772v0m1.543-4.822v0m-1.109-1.736v0m-0.048 1.543v0m-0.627 2.507v0m0.627 0.29v0m4.677-4.436v0m0.289-2.363v0m0.531 5.497v0m-1.784-1.398v0m1.639-0.868v0m-1.254-4.484v0m-0.337-0.627v0m-1.784 5.014v0m-1.302-3.857v0m0.675-2.218v0m3.52 0.53v0m0.241-3.037v0m-3.086 3.616v0m-1.591-5.159v0m-0.145 3.375v0m-0.482 2.796v0m1.206 2.46v0m-0.724-0.676v0m-0.53-6.509v0m2.362-1.977v0m0.531 4.822v0m3.568-4.773v0m-0.964 3.519v0m-4.533 7.088v0m4.533-4.387v0m0 2.41v0m-5.545-3.712v0m-0.338 4.87v0m18.419-9.113v0m-18.467 2.989v0m4.484-3.134v0m-2.121 14.272v0m0.578-2.025v0m0.916 1.543v0m-2.218-1.109v0m-1.157-0.53v0m3.086-3.906v0m-0.096 1.013v0m-0.579-2.604v0m0.868-0.241v0m0.627 0.819v0m-2.267 0.483v0m1.447-7.522v0m1.157 3.471v0m-1.253-1.591v0m0.867-0.434v0m-2.362 0.868v0m-0.531-1.253v0m1.061-0.29v0m-2.362-0.53v0m-0.531 15.333v0m0.193-1.302v0m-1.205 0.482v0m-0.965 0.723v0m0.724-7.184v0m0.434 4.774v0m-1.688 1.784v0m0.916-2.942v0m-1.157-1.687v0m-0.386 5.4v0m2.266-6.702v0m0.29-2.363v0m0.53 5.497v0m-1.784-1.398v0m1.639-0.868v0m-1.253-4.484v0m-0.338-0.627v0m-1.784 5.014v0m2.893-5.545v0m0.241-3.037v0m-3.086 3.616v0m0.097-5.69v0m0.53 4.822v0m2.122-4.918v0m0.482 3.664v0m0 2.701v0m0 2.41v0m-0.434-7.473v0m-1.013-0.627v0m-1.543 12.247v0m0.917 1.543v0m-0.29-5.545v0m-0.096 1.013v0m-0.579-2.604v0m0.868-0.241v0m0.627 0.82v0m-0.82-7.04v0m1.157 3.472v0m-1.253-1.592v0m0.868-0.434v0m-1.833-0.675v0m9.065 25.652v0m0.675-1.736v0m-0.868-1.254v0m-0.337-0.626v0m-3.086 1.157v0m0.675-2.218v0m3.52 0.53v0m0.193-3.713v0m-3.038 4.292v0m-1.591-5.159v0m-0.145 3.375v0m-0.482 2.796v0m1.206 2.459v0m-0.724-0.675v0m-0.53-6.509v0m2.362-1.977v0m0.531 4.822v0m2.121-4.918v0m0.483 3.664v0m0 2.7v0m0 2.411v0m-5.545-3.713v0m-0.386-1.253v0m4.484-3.134v0m-0.916 8.245v0m-0.675-1.591v0m0.868-0.241v0m0.627 0.819v0m-2.267 0.482v0m1.447-7.521v0m1.157 3.471v0m-1.205-0.916v0m0.819-1.109v0m-2.362 0.868v0m-0.531-1.254v0m1.206 0.049v0m-2.507-0.868v0m-1.784 8.052v0m0.385 0.627v0m0.29-2.363v0m-0.868-1.254v0m-0.338-0.626v0m1.109-0.531v0m0.241-3.037v0m-3.086 3.616v0m0.097-5.69v0m0.53 4.822v0m2.122-4.918v0m0.482 3.664v0m0 2.7v0m0 2.411v0m0.048-7.763v0m-1.495-0.337v0m-0.916 8.245v0m-0.096 1.013v0m-0.579-2.604v0m0.868-0.241v0m0.627 0.819v0m-0.82-7.039v0m1.157 3.471v0m-1.253-1.591v0m0.868-0.434v0m-1.833-0.675v0m24.784-1.591v0m-1.88 1.205v0m-7.088 1.495v0m3.519-2.845v0m2.749 2.459v0m-3.568-1.735v0m2.314-0.868v0m2.7 0v0m-4.966-0.675v0m-0.723 2.121v0m6.413 0.724v0m-6.22 0.192v0m3.471-1.157v0m-1.591 1.254v0m-0.434-0.868v0m-4.436-1.398v0m-0.964 1.494v0m-1.64 0.531v0" fill="none" stroke="#000" stroke-linecap="round" stroke-width=".386"/>
    </g>
    <g transform="translate(122.92 455.44)">
     <path d="m0 0v0m-0.048 1.543v0m4.677-1.639v0m-0.965 1.735v0m1.64-0.868v0m-3.375-0.096v0m-0.965-1.495v0m-0.723-0.675v0m0.434 2.17v0m4.532-1.977v0m-5.882 1.157v0m3.52-1.012v0m-0.097 1.012v0m-0.868-1.591v0m11.814-7.715v0m-0.627 0.338v0m-0.531-1.109v0m-3.037-0.241v0m-2.122-0.048v0m3.616-0.097v0m2.701 0v0m-5.69 1.447v0m3.665-0.241v0m-2.026 0.385v0m-3.905-1.832v0m-1.495 1.929v0m-4.388-0.82v0m5.786-0.193v0m1.158 0.579v0m-3.376-0.097v0m-0.964-1.494v0m-0.289 1.494v0m-1.35-0.819v0m3.423 0v0m9.21 8.92v0m-2.17 0.337v0m1.398-1.157v0m-2.025 0.916v0m-2.459-0.916v0m-18.564-15.911v0m-0.675 27.965v0m2.652-0.096v0m-0.096-27.821v0m22.122 55.183v0m-0.53-0.627v0m-0.241-4.629v0m-1.206 4.291v0m0.82 1.109v0m-2.411-0.819v0m-0.385 0.771v0m1.543-4.822v0m-1.109-1.735v0m-0.049 1.543v0m-0.627 2.507v0m1.158 0.482v0m3.664-3.954v0m-0.675 1.543v0m0.579-5.834v0m-0.338-0.627v0m-1.784 5.015v0m-1.302-3.858v0m0.145-1.639v0m1.205 0.53v0m-1.591-5.159v0m-0.144 3.375v0m-0.483 2.797v0m1.206 2.459v0m-0.723-0.675v0m-0.531-6.509v0m2.363-1.977v0m0.53 4.821v0m-1.928 5.835v0m-1.013-5.69v0m-0.53 4.243v0m0.144-5.497v0m4.484-3.134v0m-2.121 14.272v0m0.579-2.025v0m0.916 1.543v0m-2.218-1.109v0m-1.158-0.53v0m3.086-3.906v0m-0.096 1.013v0m-1.013-2.748v0m1.302-0.097v0m0.627 0.82v0m-2.266 0.482v0m1.446-7.522v0m1.158 3.472v0m-1.254-1.591v0m0.868-0.434v0m-2.363 0.868v0m-0.53-1.254v0m1.061-0.289v0m-2.363-0.531v0m-14.465 15.526v0m0.193-1.302v0m-1.206 0.482v0m-0.964 0.724v0m0.723-7.185v0m0.434 4.774v0m-1.687 1.784v0m0.964-2.941v0m-1.206-1.688v0m-1.205 4.291v0m0.82 1.109v0m-2.411-0.819v0m-0.386 0.771v0m1.543-4.822v0m-1.109-1.735v0m-0.048 1.543v0m-0.627 2.507v0m0.627 0.289v0m4.677-4.436v0m0.289-2.363v0m0.531 5.497v0m-1.784-1.398v0m1.253-0.579v0m-0.868-4.773v0m-0.337-0.627v0m-1.784 5.015v0m-1.302-3.858v0m0.675-2.218v0m3.52 0.531v0m0.241-3.038v0m-3.086 3.616v0m-1.591-5.159v0m-0.145 3.375v0m-0.482 2.797v0m1.205 2.459v0m-0.723-0.675v0m-0.53-6.509v0m2.362-1.977v0m0.531 4.821v0m2.121-4.918v0m0.483 3.665v0m-4.533 7.088v0m4.533-4.388v0m0 2.411v0m-5.545-3.713v0m-0.338 4.87v0m6.558-8.534v0m-6.606 2.41v0m4.484-3.134v0m-2.122 14.272v0m0.579-2.025v0m0.916 1.543v0m-2.218-1.109v0m-1.157-0.53v0m3.086-3.906v0m-0.097 1.013v0m-0.578-2.604v0m0.868-0.241v0m0.627 0.82v0m-2.267 0.482v0m1.447-7.522v0m1.157 3.472v0m-1.205-1.206v0m0.819-0.819v0m-2.362 0.868v0m-0.531-1.254v0m1.061-0.289v0m-2.362-0.531v0m17.647 15.526v0m0.193-1.302v0m-1.206 0.482v0m-0.964 0.724v0m0.723-7.185v0m0.434 4.774v0m-1.687 1.784v0m0.675-3.327v0m-0.916-1.302v0m-1.206 4.291v0m0.82 1.109v0m-2.411-0.819v0m-0.386 0.771v0m1.543-4.822v0m-1.109-1.735v0m-0.048 1.543v0m-0.627 2.507v0m0.627 0.289v0m4.677-4.436v0m0.289-2.363v0m0.193 4.967v0m-1.639-1.447v0m1.832-0.289v0m-1.254-4.484v0m-0.337-0.627v0m-1.784 5.015v0m-1.302-3.858v0m0.675-2.218v0m3.52 0.531v0m0.241-3.038v0m-3.086 3.616v0m-1.591-5.159v0m-0.145 3.375v0m-0.482 2.797v0m1.206 2.459v0m-0.724-0.675v0m-0.53-6.509v0" fill="none" stroke="#000" stroke-linecap="round" stroke-width=".386"/>
    </g>
    <g transform="translate(126.14 476.15)">
     <path d="m0 0v0m0.53 4.822v0m2.122-4.484v0m0 2.989v0m-4.05 7.329v0m4.532-4.388v0m0 2.411v0m-5.545-3.713v0m-0.337 4.87v0m6.557-8.534v0m-6.606 2.411v0m4.485-3.134v0m-2.122 14.272v0m0.579-2.025v0m0.916 1.543v0m-2.218-1.109v0m-1.157-0.531v0m3.085-3.905v0m-0.096 1.012v0m-0.579-2.603v0m0.868-0.242v0m0.627 0.82v0m-2.266 0.482v0m1.446-7.522v0m1.158 3.472v0m-1.254-1.591v0m0.868-0.434v0m-2.363 0.868v0m-0.096-0.723v0m0.627-0.82v0m-2.363-0.53v0m-1.254-1.447v0m1.302 0.193v0m-0.482-1.206v0m-0.723-0.964v0m7.184 0.723v0m-4.773 0.434v0m-1.784-1.687v0m3.519 1.302v0m0.579-1.688v0m-3.761-1.061v0m-1.109 0.82v0m0.82-2.411v0m-0.772-0.386v0m4.822 1.543v0m1.736-1.109v0m-1.543-0.048v0m-2.507-0.627v0m-0.29 0.627v0m4.436 4.677v0m2.363 0.289v0m-5.497 0.531v0m1.399-1.784v0m0.867 1.639v0m4.485-1.253v0m0.626-0.338v0m-5.014-1.784v0m3.857-1.302v0m2.218 0.675v0m-0.53 3.52v0m3.037 0.241v0m-3.616-3.086v0m1.784-1.736v0m-2.796-0.482v0m-2.459 1.206v0m0.675-0.724v0m6.509-0.53v0m-2.845 2.893v0m1.254 2.604v0m-7.088-4.533v0m4.388 4.533v0m-2.411 0v0m3.712-5.545v0m-4.869-0.338v0m6.123-0.048v0m-11.138 2.363v0m2.025 0.578v0m-1.543 0.916v0m1.109-2.218v0m0.531-1.157v0m3.905 3.086v0m-1.012-0.096v0m2.603-0.579v0m0.241 0.868v0m-0.819 0.627v0m-0.482-2.266v0m4.05 2.603v0m1.591-1.253v0m0.434 0.868v0m-0.868-2.363v0m1.254-0.53v0m-14.514-1.833v0m1.302 0.193v0m-0.482-1.205v0m-0.723-0.965v0m7.184 0.724v0m-4.773 0.434v0m-1.784-1.688v0m2.941 0.916v0m1.687-1.157v0m-5.4-0.386v0m6.702 2.266v0m2.363 0.29v0m-5.497 0.53v0m1.398-1.784v0m0.868 1.639v0m4.484-1.253v0m0.627-0.338v0m-5.014-1.784v0m5.545 2.893v0m3.037 0.241v0m-3.616-3.086v0m0.868 0.627v0m1.254 2.604v0m-2.701 0v0m-2.41 0v0m-4.147-2.989v0m-1.543 0.916v0m5.545-0.29v0m-1.013-0.096v0m2.604-0.579v0m0.241 0.868v0m-0.819 0.627v0m3.568 0.338v0m1.591-1.254v0m0.434 0.868v0m-24.977 7.232v0m1.736 0.675v0m1.254-0.867v0m0.627-0.338v0m-1.158-3.086v0m2.218 0.675v0m-0.53 3.52v0m3.713 0.193v0m-4.292-3.038v0m5.16-1.591v0m-3.376-0.145v0m-2.796-0.482v0m-2.459 1.206v0m0.675-0.724v0m6.509-0.53v0m1.977 2.363v0m-4.822 0.53v0m4.918 2.122v0m-3.664 0.482v0m-2.7 0v0m-2.411 0v0m3.713-5.545v0m1.253-0.386v0m3.134 4.484v0m-8.245-0.916v0m1.591-0.675v0m0.242 0.868v0m-0.82 0.627v0m-0.482-2.266v0m7.522 1.446v0m-3.472 1.157v0m0.916-1.205v0m1.109 0.82v0m-0.868-2.363v0m1.254-0.53v0m-0.048 1.205v0m0.867-2.507v0m-8.052-1.784v0m-0.627 0.385v0m2.363 0.29v0m1.254-0.868v0m0.626-0.338v0m0.531 1.109v0m3.038 0.241v0m-3.617-3.086v0m5.69 0.097v0m-4.822 0.53v0m4.918 2.122v0m-3.664 0.482v0m-2.7 0v0m-2.411 0v0m7.763 0.048v0m0.337-1.494v0m-8.245-0.917v0m-1.012-0.096v0m2.603-0.579v0m0.241 0.868v0m-0.819 0.627v0m7.039-0.82v0m-3.471 1.158v0m1.591-1.254v0m0.434 0.868v0m0.675-1.832v0m1.591 24.783v0m-1.543 0.868v0m0.338-2.748v0m-1.495-7.088v0m2.845 3.52v0m-2.459 2.748v0m1.735-3.568v0m0.868 2.314v0m0 2.7v0m0 2.411v0m0.675-7.377v0" fill="none" stroke="#000" stroke-linecap="round" stroke-width=".386"/>
    </g>
    <g transform="translate(120.11 483.23)">
     <path d="m0 0v0m-0.723 6.413v0m1.302 2.362v0m-1.495-8.582v0m1.157 3.471v0m-1.254-1.591v0m0.868-0.434v0m1.399-4.436v0m-1.495-0.964v0m-0.53-1.639v0m1.735-1.109v0m-1.543-0.049v0m1.64 4.678v0m-1.736-0.965v0m0.868 1.64v0m0.096-3.376v0m1.495-0.964v0m0.675-0.723v0m-2.17 0.434v0m1.977 4.532v0m-1.157-5.882v0m1.013 3.52v0m-1.013-0.097v0m1.591-0.868v0m8.583 13.067v0m-0.868-1.254v0m-0.338-0.627v0m1.109-0.53v0m0.241-3.038v0m0.049-2.121v0m0.096 3.616v0m0 2.7v0m0 2.411v0m-1.446-8.1v0m-0.097 7.232v0m0.338-3.568v0m-0.386-2.025v0m1.832-3.905v0m-1.929-1.495v0m0.82-4.388v0m0.193 5.786v0m-0.579 1.157v0m0.097-3.375v0m1.495-0.964v0m-1.495-0.29v0m0.82-1.35v0m0 3.424v0m-8.921 9.209v0m-0.337-2.17v0m0.482 3.665v0m0.675-2.266v0m-1.88 2.941v0m0.964-4.966v0m0.916-2.459v0m-3.568 8.245v0m-8.486-27.484v0m0.096 2.652v0" fill="none" stroke="#000" stroke-linecap="round" stroke-width=".386"/>
    </g>
   </g>
  </g>
  <g transform="matrix(.35278 0 0 -.35278 85.573 320.09)">
   <g clip-path="url(#clipPath32087)">
    <g transform="translate(86.156 493.19)">
     <path d="m0 0v0m-0.723 7.184v0m1.253-6.557v0m-1.301 3.52v0m1.542 1.109v0m1.206-4.292v0m-0.82-1.109v0m2.411 0.82v0m0.386-0.771v0m-1.543 4.821v0m1.109 1.736v0m0.048-1.543v0m0.627-2.507v0m-1.157-0.482v0m-3.665 3.953v0m0.675-1.542v0m-0.578 5.834v0m0.337 0.627v0m1.784-5.015v0m1.302 3.857v0m-0.145 1.64v0m-1.205-0.531v0m1.591 5.16v0m0.145-3.376v0m0.482-2.796v0m-1.206-2.459v0m0.724 0.675v0m0.53 6.509v0m-2.362 1.977v0m-0.531-4.822v0m1.929-5.834v0m1.012 5.69v0m0.531-4.243v0m-0.145 5.496v0m-4.484 3.134v0m2.121-14.272v0m-0.578 2.025v0m-0.916-1.543v0m2.218 1.109v0m1.157 0.531v0m-3.086 3.905v0m0.096-1.012v0m1.013 2.748v0m-1.302 0.097v0m-0.627-0.82v0m2.267-0.482v0m-1.447 7.522v0m-1.157-3.472v0m1.253 1.591v0m-0.867 0.434v0m2.362-0.868v0m0.531 1.254v0m-1.061 0.289v0m2.362 0.53v0m14.466-15.525v0m-0.193 1.301v0m1.205-0.482v0m0.964-0.723v0m-0.723 7.184v0m-0.434-4.773v0m1.688-1.784v0m-0.965 2.941v0m1.206 1.688v0m1.205-4.292v0m-0.819-1.109v0m2.41 0.82v0m0.386-0.771v0m-1.543 4.821v0m1.109 1.736v0m0.048-1.543v0m0.627-2.507v0m-0.627-0.289v0m-4.677 4.435v0m-0.289 2.363v0m-0.53-5.497v0m1.784 1.399v0m-1.254 0.578v0m0.868 4.774v0m0.338 0.627v0m1.784-5.015v0m1.301 3.857v0m-0.675 2.218v0m-3.519-0.53v0m-0.242 3.038v0m3.086-3.617v0m1.592 5.16v0m0.144-3.376v0m0.482-2.796v0m-1.205-2.459v0m0.723 0.675v0m0.531 6.509v0m-2.363 1.977v0m-0.53-4.822v0m-2.122 4.918v0m-0.482-3.664v0m4.532-7.088v0m-4.532 4.388v0m0-2.411v0m5.545 3.713v0m0.337-4.87v0m-6.557 8.534v0m6.606-2.411v0m-4.485 3.134v0m2.122-14.272v0m-0.579 2.025v0m-0.916-1.543v0m2.218 1.109v0m1.157 0.531v0m-3.086 3.905v0m0.097-1.012v0m0.578 2.603v0m-0.867 0.242v0m-0.627-0.82v0m2.266-0.482v0m-1.447 7.522v0m-1.157-3.472v0m1.206 1.205v0m-0.82 0.82v0m2.363-0.868v0m0.53 1.254v0m-1.061 0.289v0m2.363 0.53v0m-17.648-15.525v0m-0.192 1.301v0m1.205-0.482v0m0.964-0.723v0m-0.723 7.184v0m-0.434-4.773v0m1.688-1.784v0m-0.675 3.327v0m0.916 1.302v0m1.205-4.292v0m-0.819-1.109v0m2.41 0.82v0m0.386-0.771v0m-1.543 4.821v0m1.109 1.736v0m0.048-1.543v0m0.627-2.507v0m-0.627-0.289v0m-4.677 4.435v0m-0.289 2.363v0m-0.193-4.966v0m1.64 1.446v0m-1.833 0.29v0m1.254 4.484v0m0.337 0.627v0m1.785-5.015v0m1.301 3.857v0m-0.675 2.218v0m-3.52-0.53v0m-0.241 3.038v0m3.086-3.617v0m1.591 5.16v0m0.145-3.376v0m0.482-2.796v0m-1.205-2.459v0m0.723 0.675v0m0.53 6.509v0m-2.362 1.977v0m-0.531-4.822v0m-2.121 4.484v0m0-2.989v0m4.05-7.329v0m-4.532 4.388v0m0-2.411v0m5.545 3.713v0m0.337-4.87v0m-6.557 8.534v0m6.605-2.411v0m-4.484 3.134v0m2.122-14.272v0m-0.579 2.025v0m-0.916-1.543v0m2.218 1.109v0m1.157 0.531v0m-3.086 3.905v0m0.097-1.012v0m0.578 2.603v0m-0.867 0.242v0m-0.627-0.82v0m2.266-0.482v0m-1.447 7.522v0m-1.157-3.472v0m1.254 1.591v0m-0.868 0.434v0m2.363-0.868v0m0.096 0.723v0m-0.627 0.82v0m2.363 0.53v0m1.253 1.447v0m-1.301-0.193v0m0.482 1.205v0m0.723 0.965v0m-7.184-0.723v0m4.773-0.434v0m1.784 1.687v0m-3.52-1.302v0m-0.578 1.688v0m3.761 1.061v0" fill="none" stroke="#000" stroke-linecap="round" stroke-width=".386"/>
    </g>
    <g transform="translate(100.52 513.2)">
     <path d="m0 0v0m-4.87 1.254v0m-1.832-3.52v0m-2.363-0.29v0m5.497-0.53v0m-1.398 1.784v0m-0.868-1.639v0m-4.484 1.253v0m-0.627 0.338v0m5.014 1.784v0m-6.075 0.627v0m0.53-3.52v0m-3.037-0.241v0m3.616 3.086v0m3.472 1.012v0m-4.34-1.639v0m-1.254-2.604v0m2.701 0v0m2.41 0v0m6.172 3.568v0m-2.025-0.578v0m1.543-0.916v0m-1.109 2.217v0m-4.436-1.928v0m1.013 0.096v0m-2.604 0.579v0m-0.241-0.868v0m0.82-0.627v0m0.482 2.266v0m-4.051-2.603v0m-1.591 1.253v0m-0.434-0.868v0m0.868 2.363v0m-1.543-0.53v0m25.459-2.459v0m-1.736-0.676v0m-1.254 0.868v0m-0.626 0.338v0m-1.061 2.411v0m0.53-3.52v0m-3.713-0.193v0m4.292 3.038v0m3.471 1.012v0m-9.161-1.109v0m4.822-0.53v0m-4.918-2.122v0m3.664-0.482v0m2.7 0v0m2.411 0v0m-8.1 1.447v0m8.245 0.916v0m-1.591 0.675v0m-0.241-0.868v0m0.819-0.627v0m0.483 2.266v0m-7.522-1.446v0m3.471-1.157v0m-0.916 1.205v0m-1.109-0.82v0m0.868 2.363v0m-1.205-0.675v0m-2.122-18.033v0m1.543-0.868v0m-0.337 2.748v0m1.494 7.088v0m-2.845-3.52v0m2.46-2.748v0m-1.736 3.568v0m-0.868-2.314v0m0-2.701v0m0-2.41v0m-0.675 7.377v0m2.121 0.723v0m0.724-6.413v0m-1.302-2.362v0m1.494 8.582v0m-1.157-3.471v0m1.254 1.591v0m-0.868 0.434v0m-1.398 4.436v0m1.494 0.964v0m0.531 1.639v0m-1.736 1.109v0m1.543 0.049v0m-1.639-4.678v0m1.735 0.965v0m-0.868-1.64v0m-0.096 3.376v0m-1.495 0.964v0m-0.675 0.723v0m2.17-0.434v0m-1.977-4.532v0m1.157 5.882v0m-1.012-3.519v0m1.012 0.096v0m-1.591 0.868v0m-8.582-13.067v0m0.867 1.254v0m0.338 0.626v0m-1.109 0.531v0m-0.241 3.038v0m-0.048 2.121v0m-0.097-3.616v0m0-2.7v0m0-2.411v0m1.447 8.1v0m0.096-7.232v0m-0.337 3.568v0m0.385 2.025v0m-1.832 3.905v0m1.929 1.495v0m-0.82 4.388v0m-0.193-5.786v0m0.579-1.157v0m-0.097 3.375v0m-1.494 0.964v0m1.494 0.29v0m-0.819 1.35v0m0-3.424v0m8.92-9.209v0m0.337 2.17v0m-0.482-3.665v0m-0.675 2.266v0m1.881-2.941v0m-0.965 4.966v0m-0.916 2.459v0m3.568-8.245v0m9.136 16.982v0m-0.434-5.931v0m0.048-4.966v0m0.097-5.69v0m0.144 12.826v0m-0.048-5.593v0m-0.386-5.69v0m0.29 16.201v0m-0.29 1.543v0" fill="none" stroke="#000" stroke-linecap="round" stroke-width=".386"/>
    </g>
   </g>
  </g>
  <g transform="matrix(.35278 0 0 -.35278 85.573 320.09)">
   <g clip-path="url(#clipPath32103)">
    <g transform="translate(119.88 466.64)">
     <path d="m0 0c-0.9-4.954-4.272-7.157-8.295-4.956-4.71 2.578-8.53 10.222-8.53 17.071 0 4.41 1.583 7.416 3.968 8.31 1.319 0.495 2.884 0.343 4.562-0.575l-0.109 24.829c-5.04 2.759-9.739 3.215-13.701 1.729-7.161-2.685-11.914-11.712-11.914-24.954 0-20.57 11.468-43.523 25.615-51.266 12.079-6.61 22.206 4e-3 24.908 14.882z" fill="none" stroke="#000" stroke-linecap="round" stroke-linejoin="round" stroke-width=".385"/>
    </g>
    <g transform="translate(125.08 435.06)">
     <path d="m0 0 10.127 3.687c5.455 2.08 9.503 7.854 11.099 16.373l-0.043 2e-3 -16.69 15.054-9.7-3.531 0.021-0.019c-0.904-4.943-4.273-7.138-8.29-4.939-4.711 2.578-8.53 10.222-8.53 17.071 0 4.409 1.583 7.416 3.967 8.31 1.32 0.495 2.885 0.343 4.563-0.575l0.066 0.214 9.7 3.53-0.014 24.674 0.082 0.03c-5.046 2.762-9.752 3.216-13.718 1.723l-9.863-3.59-0.064-0.024c-7.161-2.685-11.914-11.712-11.914-24.954 0-20.569 11.469-43.523 25.616-51.265 4.867-2.664 9.416-3.181 13.291-1.875" fill="none" stroke="#000" stroke-linecap="round" stroke-linejoin="round" stroke-width=".77"/>
    </g>
    <g transform="translate(115.48 492.07)">
     <path d="m0 0c-0.365-1.003-1.279-1.592-2.04-1.315-0.762 0.277-1.083 1.315-0.718 2.319 0.365 1.003 1.279 1.592 2.04 1.315 0.762-0.278 1.084-1.316 0.718-2.319" fill="#fff"/>
    </g>
    <g transform="translate(115.48 492.07)">
     <path d="m0 0c-0.365-1.003-1.279-1.592-2.04-1.315-0.762 0.277-1.083 1.315-0.718 2.319 0.365 1.003 1.279 1.592 2.04 1.315 0.762-0.278 1.084-1.316 0.718-2.319z" fill="none" stroke="#000" stroke-linecap="round" stroke-linejoin="round" stroke-width=".385"/>
    </g>
    <g transform="translate(120.28 493.81)">
     <path d="m0 0c-0.365-1.003-1.279-1.592-2.04-1.315-0.762 0.277-1.083 1.316-0.718 2.319s1.279 1.592 2.04 1.315c0.762-0.277 1.083-1.316 0.718-2.319" fill="#fff"/>
    </g>
    <g transform="translate(120.28 493.81)">
     <path d="m0 0c-0.365-1.003-1.279-1.592-2.04-1.315-0.762 0.277-1.083 1.316-0.718 2.319s1.279 1.592 2.04 1.315c0.762-0.277 1.083-1.316 0.718-2.319z" fill="none" stroke="#000" stroke-linecap="round" stroke-linejoin="round" stroke-width=".385"/>
    </g>
    <g transform="translate(130.48 464.18)">
     <path d="m0 0c0.925-0.533 2.003-0.396 2.408 0.307 0.403 0.702-0.019 1.704-0.944 2.237-0.926 0.532-2.004 0.395-2.409-0.309-0.404-0.701 0.019-1.702 0.945-2.235" fill="#fff"/>
    </g>
    <g transform="translate(130.48 464.18)">
     <path d="m0 0c0.925-0.533 2.003-0.396 2.408 0.307 0.403 0.702-0.019 1.704-0.944 2.237-0.926 0.532-2.004 0.395-2.409-0.309-0.404-0.701 0.019-1.702 0.945-2.235z" fill="none" stroke="#000" stroke-linecap="round" stroke-linejoin="round" stroke-width=".385"/>
    </g>
    <g transform="translate(125.69 462.42)">
     <path d="M 0,0 C 0.925,-0.533 2.003,-0.395 2.408,0.308 2.811,1.01 2.389,2.011 1.464,2.544 0.538,3.076 -0.54,2.939 -0.945,2.236 -1.349,1.534 -0.926,0.532 0,0" fill="#fff"/>
    </g>
    <g transform="translate(125.69 462.42)">
     <path d="m0 0c0.925-0.533 2.003-0.395 2.408 0.308 0.403 0.702-0.019 1.703-0.944 2.236-0.926 0.532-2.004 0.395-2.409-0.308-0.404-0.702 0.019-1.704 0.945-2.236z" fill="none" stroke="#000" stroke-linecap="round" stroke-linejoin="round" stroke-width=".385"/>
    </g>
   </g>
  </g>
 </g>
</svg>
