<svg width="25.2mm" height="29.633mm" version="1.1" viewBox="0 0 25.2 29.633" xmlns="http://www.w3.org/2000/svg">
 <defs>
  <clipPath id="clipPath32921">
   <path d="m75.26 241.89h71.433v84h-71.433z"/>
  </clipPath>
  <clipPath id="clipPath32897">
   <path d="m104.6 323.07-9.794-3.564c3.747 1.324 8.167 0.853 12.901-1.737 13.55-7.416 24.534-29.399 24.534-49.101 0-12.676-4.547-21.318-11.397-23.895l9.76 3.552c6.993 2.458 11.652 11.155 11.652 23.989 0 19.7-10.984 41.685-24.534 49.1-3.042 1.665-5.954 2.454-8.641 2.454-1.578 0-3.078-0.272-4.481-0.798m-10.016-3.645 0.222 0.081c-0.074-0.027-0.148-0.053-0.222-0.081m26.005-74.745c0.085 0.03 0.17 0.061 0.255 0.093z"/>
  </clipPath>
  <linearGradient id="linearGradient32911" x1=".020004" x2="1" gradientTransform="matrix(27.611 -75.86 -35.733 -13.006 128.3 332.53)" gradientUnits="userSpaceOnUse">
   <stop stop-color="#fff" offset="0"/>
   <stop stop-color="#e5e7e8" offset=".10001"/>
   <stop stop-color="#e6e8e9" offset=".89999"/>
   <stop offset="1"/>
  </linearGradient>
  <clipPath id="clipPath32885">
   <path d="m75.26 241.89h71.433v84h-71.433z"/>
  </clipPath>
  <clipPath id="clipPath32873">
   <path d="m93.288 306.49c-3.501-1.312-6.143-4.885-7.318-10.165h18.341c-1e-3 0.117-2e-3 0.236-2e-3 0.353 0 2.564 0.267 4.89 0.761 6.948-0.847 0.65-1.714 1.223-2.597 1.705-2.128 1.166-4.167 1.718-6.048 1.718-1.105 0-2.155-0.19-3.137-0.559"/>
  </clipPath>
  <clipPath id="clipPath32845">
   <path d="m85.99 296.42c-0.449-1.985-0.69-4.212-0.69-6.654 0-13.792 7.689-29.181 17.173-34.372 7.722-4.225 14.253-0.389 16.414 8.625-8.195 6.292-14.489 19.963-14.577 32.401z"/>
  </clipPath>
  <clipPath id="clipPath32823">
   <path d="m93.288 306.49c-4.802-1.8-7.988-7.852-7.988-16.73 0-13.792 7.689-29.181 17.173-34.372 7.722-4.225 14.253-0.39 16.414 8.624-8.253 6.338-14.578 20.158-14.578 32.666 0 2.564 0.267 4.89 0.761 6.948-0.847 0.65-1.714 1.222-2.597 1.705-2.128 1.165-4.168 1.718-6.049 1.718-1.104 0-2.154-0.191-3.136-0.559"/>
  </clipPath>
  <linearGradient id="linearGradient32835" x1=".39327" x2=".61798" gradientTransform="matrix(-20.274 55.702 27.733 10.094 95.744 245.12)" gradientUnits="userSpaceOnUse">
   <stop stop-color="#fff" offset="0"/>
   <stop stop-color="#bcbec0" offset=".5"/>
   <stop offset="1"/>
  </linearGradient>
  <clipPath id="clipPath32811">
   <path d="m75.26 241.89h71.433v84h-71.433z"/>
  </clipPath>
  <clipPath id="clipPath32787">
   <path d="m89.404 317.71c-6.395-2.399-10.785-10.076-11.349-21.384h7.964c1.173 5.291 3.817 8.87 7.322 10.185 2.657 0.996 5.807 0.69 9.186-1.159 3.416-1.87 6.599-5.062 9.274-9.026h7.966c-4.431 8.789-10.52 16.05-17.24 19.728-3.042 1.664-5.955 2.454-8.643 2.454-1.577 0-3.077-0.272-4.48-0.798"/>
  </clipPath>
  <clipPath id="clipPath32775">
   <path d="m123.42 250.23c2.311 4.176 3.644 9.858 3.644 16.723 0 6.864-1.334 14.006-3.644 20.711z"/>
  </clipPath>
  <clipPath id="clipPath32735">
   <path d="m111.74 296.42c4.785-7.051 7.96-16.573 7.96-25.433 0-13.792-7.689-20.763-17.174-15.572-9.484 5.191-17.174 20.578-17.174 34.37 0 2.434 0.24 4.655 0.686 6.635h-7.98c-0.044-0.849-0.066-1.718-0.066-2.607 0-19.702 10.985-41.685 24.534-49.1 1.126-0.616 2.236-1.113 3.323-1.494h10.21c3.016 1.254 5.563 3.707 7.446 7.178v37.012c-1.061 3.119-2.335 6.147-3.784 9.011z"/>
  </clipPath>
  <clipPath id="clipPath32723">
   <path d="m105.6 243.3c3.916-1.431 7.546-1.363 10.664 0z"/>
  </clipPath>
  <clipPath id="clipPath32707">
   <path d="m75.26 241.89h71.433v84h-71.433z"/>
  </clipPath>
  <clipPath id="clipPath32691">
   <path d="m123.42 296.33h18.671c-4.129 11.083-10.907 20.783-18.671 25.771z"/>
  </clipPath>
  <clipPath id="clipPath32667">
   <path d="m108.67 324.72-19.044-6.932c3.748 1.325 8.168 0.855 12.902-1.736 6.72-3.678 12.809-10.938 17.24-19.727h3.741v25.714c-0.566 0.367-1.139 0.709-1.715 1.025-3.042 1.665-5.955 2.454-8.642 2.454-1.578 0-3.078-0.272-4.482-0.798m-19.265-7.012 0.221 0.08c-0.074-0.026-0.147-0.053-0.221-0.08"/>
  </clipPath>
  <clipPath id="clipPath32643">
   <path d="m123.42 296.42v-8.757c2.31-6.704 3.642-13.843 3.642-20.707 0-6.862-1.333-12.542-3.642-16.718v-4.355l11.255 4.097c6.992 2.458 11.652 11.157 11.652 23.988 0 7.462-1.576 15.251-4.269 22.452z"/>
  </clipPath>
  <clipPath id="clipPath32627">
   <path d="m119.72 296.42c1.45-2.866 2.724-5.896 3.786-9.017v9.017zm-3.658-53.201h0.035l7.409 2.697v4.484c-1.882-3.472-4.43-5.926-7.444-7.181"/>
  </clipPath>
  <clipPath id="clipPath32615">
   <path d="m116.27 243.3c-0.2-0.087-0.402-0.17-0.606-0.246l0.677 0.246zm-0.861-0.339c0.085 0.03 0.17 0.061 0.255 0.093z"/>
  </clipPath>
  <clipPath id="clipPath32591">
   <path d="m108.67 324.72-19.044-6.932c3.747 1.325 8.167 0.855 12.902-1.736 13.55-7.416 24.534-29.399 24.534-49.102 0-12.674-4.547-21.317-11.397-23.895l19.01 6.919c6.992 2.458 11.652 11.157 11.652 23.988 0 19.703-10.985 41.687-24.533 49.102-3.042 1.665-5.955 2.454-8.642 2.454-1.578 0-3.078-0.272-4.482-0.798m-19.265-7.012 0.221 0.08c-0.074-0.026-0.148-0.053-0.221-0.08m26.005-74.746c0.086 0.03 0.17 0.061 0.255 0.093z"/>
  </clipPath>
  <linearGradient id="linearGradient32605" x1=".020004" x2="1" gradientTransform="matrix(27.611 -75.86 -44.982 -16.372 132.37 334.17)" gradientUnits="userSpaceOnUse">
   <stop stop-color="#fff" offset="0"/>
   <stop stop-color="#bcbdc0" offset=".10001"/>
   <stop stop-color="#bcbec0" offset=".89999"/>
   <stop offset="1"/>
  </linearGradient>
 </defs>
 <g transform="translate(-119.82 -137.07)">
  <path d="m119.82 166.7h25.2v-29.633h-25.2z" fill="#fff"/>
  <g transform="matrix(.35278 0 0 -.35278 93.266 252.04)">
   <g clip-path="url(#clipPath32591)">
    <path d="m108.67 324.72-19.044-6.932c3.747 1.325 8.167 0.855 12.902-1.736 13.55-7.416 24.534-29.399 24.534-49.102 0-12.674-4.547-21.317-11.397-23.895l19.01 6.919c6.992 2.458 11.652 11.157 11.652 23.988 0 19.703-10.985 41.687-24.533 49.102-3.042 1.665-5.955 2.454-8.642 2.454-1.578 0-3.078-0.272-4.482-0.798m-19.265-7.012 0.221 0.08c-0.074-0.026-0.148-0.053-0.221-0.08m26.005-74.746c0.086 0.03 0.17 0.061 0.255 0.093z" fill="url(#linearGradient32605)"/>
   </g>
  </g>
  <g transform="matrix(.35278 0 0 -.35278 93.266 252.04)">
   <g clip-path="url(#clipPath32615)">
    <g transform="translate(116.48 243.27)">
     <path d="m0 0v0m-1.478-0.831v0" fill="none" stroke="#000" stroke-linecap="round" stroke-width=".369"/>
    </g>
   </g>
  </g>
  <g transform="matrix(.35278 0 0 -.35278 93.266 252.04)">
   <g clip-path="url(#clipPath32627)">
    <g transform="translate(123.37 243.85)">
     <path d="m0 0v0m-1.247-0.185v0m0.462 1.155v0m0.693 0.923v0m-6.881-0.692v0m4.572-0.416v0m1.708 1.616v0m-3.371-1.246v0m-1.062 1.477v0m4.11 1.155v0m1.062-0.785v0m-0.785 2.309v0m0.739 0.369v0m-4.618-1.478v0m-1.663 1.063v0m1.478 0.046v0m2.402 0.6v0m0.461-1.108v0m-3.786-3.51v0m2.355-1.247v0m-0.878 1.894v0m-1.293-1.755v0m-0.092 3.232v0m-1.432 0.924v0m-0.646 0.693v0m2.078-0.416v0m-1.94-4.803v0m0.554 6.281v0m5.404-2.402v0m-1.94-0.554v0m1.478-0.877v0m-1.062 2.124v0m-0.508 1.109v0m-3.741-2.956v0m0.97 0.092v0m-1.478 1.293v0m7.897 15.748v0m-1.247-0.185v0m0.462 1.155v0m0.693 0.924v0m-6.881-0.693v0m4.572-0.416v0m1.708 1.617v0m-2.817-0.924v0m-1.616 1.155v0m4.11 1.154v0m1.062-0.785v0m-0.785 2.309v0m0.739 0.369v0m-4.618-1.477v0m-1.663 1.062v0m1.478 0.046v0m2.402 0.6v0m0.277-0.6v0m-4.249-4.48v0m3.002-0.785v0m-1.339 1.709v0m-0.555-1.201v0m-0.369 2.864v0m-1.432 0.923v0m-0.646 0.693v0m2.078-0.416v0m-1.894-4.341v0m1.109 5.634v0m4.803-2.216v0m-1.94-0.554v0m1.478-0.878v0m-1.062 2.124v0m-0.508 1.109v0m-3.741-2.956v0m0.97 0.093v0m-1.478 1.293v0m7.897-15.009v0m-1.247-0.185v0m0.462 1.155v0m0.693 0.923v0m-6.881-0.693v0m4.572-0.415v0m1.708 1.616v0m-3.186-0.646v0m-1.247 0.877v0m4.11 1.155v0m1.062-0.786v0m-0.785 2.31v0m0.739 0.369v0m-4.618-1.478v0m-1.663 1.062v0m1.478 0.047v0m2.402 0.6v0m0.277-0.6v0m-4.249-4.48v0m2.494-0.462v0m-1.386 1.57v0m-0.277-1.755v0m-0.092 3.233v0m-1.432 0.924v0m-0.646 0.692v0m2.078-0.415v0m-1.894-4.341v0m1.109 5.634v0m4.803-2.217v0m-1.94-0.554v0m1.478-0.877v0m-1.062 2.124v0m-0.508 1.108v0m-3.741-2.955v0m0.97 0.092v0m-1.478 1.293v0m3.371-12.053v0m2.125 16.071v0m0.831 1.478v0m-2.632-0.324v0m-3.418-1.293v0m2.632 2.356v0m-1.2-2.494v0m2.586 0v0m2.309 0v0m-1.616 2.078v0m2.262-1.247v0m-4.895 0.323v0m-1.524 1.201v0m-0.415-0.831v0m6.511-10.945v0m-1.201 0.831v0m-0.6 0.323v0m-0.508-1.062v0m-2.909-0.231v0m1.431-0.138v0m2.586 0v0m2.31 0v0m-7.759 1.385v0m6.927 0.093v0m-3.417-0.324v0m-1.94 0.37v0m3.649 7.342v0m-2.079 0.324v0m3.51-0.462v0m-2.17-0.647v0m2.817 1.801v0m-4.757-0.923v0m-2.355-0.878v0m7.897-13.577v0m0 16.995v0m-0.794 34.334v0m0.185-1.247v0m-1.155 0.462v0m-0.923 0.693v0m0.692-6.881v0m0.416 4.572v0m-1.616 1.708v0m1.247-3.371v0m-1.478-1.062v0m-1.155 4.11v0m0.785 1.062v0m-2.309-0.785v0m-0.369 0.739v0m1.478-4.618v0m-1.063-1.663v0m-0.046 1.478v0m-0.6 2.402v0m1.108 0.462v0m3.51-3.787v0m0.739-2.91v0m0.508 5.265v0m-1.894-0.878v0m1.755-1.293v0m-1.2-4.294v0m-0.324-0.601v0m-1.708 4.803v0m-1.247-3.694v0m0.138-1.571v0m3.88-0.046v0m0.23-2.909v0m-2.955 3.463v0m-1.524-4.941v0m-0.139 3.233v0m-0.461 2.678v0m1.154 2.355v0m-0.693-0.646v0m-0.508-6.235v0m2.263-1.893v0m0.508 4.618v0m2.032-4.71v0m0.462 3.509v0m-4.341 6.789v0m4.341-4.202v0m0.462 2.262v0m-5.773-3.509v0m-0.508 4.064v0m0.139-5.265v0m4.295-3.002v0m-2.032 13.67v0m0.554-1.94v0m0.877 1.478v0m-2.124-1.062v0m-1.108-0.508v0m2.955-3.741v0m-0.092 0.97v0m-0.97-2.632v0m1.247-0.093v0" fill="none" stroke="#000" stroke-linecap="round" stroke-width=".369"/>
    </g>
    <g transform="translate(121.28 287.88)">
     <path d="m0 0v0m-2.171 0.462v0m1.386-7.204v0m1.108 3.325v0m-1.2-1.524v0m0.831-0.416v0m-2.263 0.831v0m-0.508-1.2v0m1.016-0.278v0m-2.263-0.508v0m-1.154-1.939v0m1.2-0.831v0m0.601-0.324v0m-1.109-2.955v0m2.125 0.646v0m-0.508 3.371v0m2.909 0.231v0m-3.464-2.955v0m4.942-1.524v0m-3.233-0.139v0m-2.678-0.462v0m4.525-0.046v0m1.894 2.263v0m-4.618 0.508v0m4.572 3.418v0m-3.372-0.924v0m-2.586 0v0m1.247-5.311v0m4.064 17.318v0m-2.863-17.687v0m3.002 4.294v0m-6.373-1.523v0m0.231 0.831v0m-0.786 0.6v0m-0.461-2.17v0m7.204 1.385v0m-3.325 1.108v0m1.524-1.2v0m0.415 0.831v0m-0.831-2.263v0m1.201-0.508v0m0.277 1.016v0m0.508-2.263v0m-6.05-1.062v0m1.201-0.831v0m0.6-0.324v0m0.508 1.063v0m2.91 0.231v0m-3.464-2.956v0m5.45 0.092v0m-4.619 0.508v0m4.711 2.032v0m-3.51 0.462v0m-2.586 0v0m4.849-0.416v0m0.6-0.969v0m-6.373-1.524v0m0.231 0.831v0m-0.785 0.6v0m6.743-0.785v0m-3.325 1.109v0m1.524-1.201v0m0.415 0.831v0m0.647-1.755v0m-5.773 25.169v0m-0.831-1.201v0m0.739-1.108v0m0.231-2.909v0m0.046-2.032v0m0.092 3.463v0m0 2.586v0m0 2.309v0m-1.154-4.248v0m1.385-5.681v0m-1.062-5.634v0m0.185 5.542v0m-0.555 1.108v0m0.093-3.232v0m1.431-0.924v0m-1.431-0.277v0m0.785-1.293v0m0 3.279v0m7.481-13.993v0m-1.662 25.677v0m1.616-23.876v0" fill="none" stroke="#000" stroke-linecap="round" stroke-width=".369"/>
    </g>
   </g>
  </g>
  <g transform="matrix(.35278 0 0 -.35278 93.266 252.04)">
   <g clip-path="url(#clipPath32643)">
    <g transform="translate(123.76 295.91)">
     <path d="m0 0v0m1.247 0.185v0m-0.462-1.155v0m-0.693-0.923v0m6.881 0.692v0m-4.572 0.416v0m-1.708-1.616v0m3.371 1.246v0m1.062-1.477v0m-4.11-1.155v0m-1.062 0.785v0m0.785-2.309v0m-0.739-0.369v0m4.618 1.478v0m1.663-1.063v0m-1.478-0.046v0m-2.402-0.6v0m-0.461 1.108v0m3.786 3.51v0m2.91 0.739v0m-5.265 0.508v0m0.878-1.894v0m1.293 1.755v0m4.295-1.2v0m0.6-0.324v0m-4.803-1.708v0m3.695-1.247v0m1.57 0.138v0m0.046 3.879v0m2.909 0.231v0m-3.463-2.955v0m4.941-1.524v0m-3.233-0.139v0m-2.678-0.462v0m-2.355 1.155v0m0.646-0.693v0m6.235-0.508v0m1.893 2.263v0m-4.618 0.508v0m4.711 2.032v0m-3.51 0.462v0m-6.789-4.341v0m4.203 4.341v0m-2.263 0.462v0m3.51-5.773v0m-4.064-0.508v0m5.264 0.139v0m3.002 4.294v0m-13.67-2.031v0m1.94 0.554v0m-1.478 0.877v0m1.062-2.124v0m0.508-1.109v0m3.741 2.956v0m-0.97-0.092v0m2.633-0.97v0m0.092 1.247v0m-0.785 0.6v0m-0.462-2.17v0m7.204 1.385v0m-3.325 1.108v0m1.524-1.2v0m0.416 0.831v0m-0.831-2.263v0m1.2-0.508v0m0.277 1.016v0m0.508-2.263v0m-14.87-13.854v0m1.247 0.185v0m-0.462-1.155v0m-0.693-0.924v0m6.881 0.693v0m-4.572 0.416v0m-1.708-1.617v0m2.817 0.924v0m1.616-1.155v0m-4.11-1.154v0m-1.062 0.785v0m0.785-2.309v0m-0.739-0.369v0m4.618 1.477v0m1.663-1.062v0m-1.478-0.046v0m-2.402-0.6v0m-0.277 0.6v0m4.249 4.48v0m2.263 0.277v0m-5.265 0.508v0m1.34-1.709v0m0.554 1.201v0m4.572-0.832v0m0.6-0.323v0m-4.803-1.709v0m3.695-1.246v0m2.124 0.646v0m-0.508 3.371v0m2.909 0.231v0m-3.463-2.955v0m4.941-1.524v0m-3.233-0.139v0m-2.678-0.462v0m-2.355 1.155v0m0.646-0.693v0m6.235-0.508v0m1.893 2.263v0m-4.618 0.508v0m4.711 2.032v0m-3.51 0.462v0m-6.789-4.341v0m4.203 4.341v0m-2.309 0v0m3.556-5.311v0m-4.665-0.323v0m8.174 6.28v0m-2.309-6.327v0m3.002 4.295v0m-13.67-2.032v0m1.94 0.554v0m-1.478 0.878v0m1.062-2.124v0m0.508-1.109v0m3.741 2.956v0m-0.97-0.093v0m2.494-0.554v0m0.231 0.832v0m-0.785 0.6v0m-0.462-2.171v0m7.204 1.386v0m-3.325 1.108v0m1.155-1.154v0m0.785 0.785v0m-0.831-2.263v0m1.2-0.508v0m0.277 1.016v0m0.508-2.263v0m-14.87 16.902v0m1.247 0.185v0m-0.462-1.155v0m-0.693-0.923v0m6.881 0.693v0m-4.572 0.415v0m-1.708-1.616v0m3.186 0.646v0m1.247-0.877v0m-4.11-1.155v0m-1.062 0.786v0m0.785-2.31v0m-0.739-0.369v0m4.618 1.478v0m1.663-1.062v0m-1.478-0.047v0m-2.402-0.6v0m-0.277 0.6v0m4.249 4.48v0m2.263 0.277v0m-4.757 0.185v0m1.386-1.57v0m0.277 1.755v0m4.295-1.201v0m0.6-0.323v0m-4.803-1.709v0m3.695-1.247v0m2.124 0.647v0m-0.508 3.371v0m2.909 0.231v0m-3.463-2.956v0m4.941-1.524v0m-3.233-0.138v0m-2.678-0.462v0m-2.355 1.154v0m0.646-0.692v0m6.235-0.508v0m1.893 2.262v0m-4.618 0.508v0m4.295 2.032v0m-2.863 0v0m-7.02-3.879v0m4.203 4.341v0m-2.309 0v0m3.556-5.311v0m-4.665-0.323v0m8.174 6.281v0m-2.309-6.327v0m3.002 4.295v0m-13.67-2.032v0m1.94 0.554v0m-1.478 0.877v0m1.062-2.124v0m0.508-1.108v0m3.741 2.955v0m-0.97-0.092v0m2.494-0.554v0m0.231 0.831v0m-0.785 0.6v0m-0.462-2.17v0m7.204 1.385v0m-3.325 1.109v0m1.524-1.201v0m0.416 0.831v0m-0.831-2.263v0" fill="none" stroke="#000" stroke-linecap="round" stroke-width=".369"/>
    </g>
    <g transform="translate(137.33 283.16)">
     <path d="m0 0v0m0.785 0.6v0m0.508-2.263v0m1.386-1.2v0m-0.185 1.247v0m1.154-0.462v0m0.924-0.693v0m-0.693 6.881v0m-0.415-4.572v0m1.616-1.709v0m-1.247 3.372v0m1.616 0.554v0m1.016-3.602v0m-0.785-1.062v0m2.309 0.785v0m0.37-0.739v0m-1.478 4.618v0m1.062 1.662v0m0.046-1.477v0m0.601-2.402v0m-0.601-0.277v0m-4.479 4.249v0m-0.277 2.263v0m-0.508-5.265v0m1.708 1.339v0m-1.57 0.831v0m1.201 4.295v0m0.323 0.601v0m1.709-4.803v0m1.247 3.694v0m-0.647 2.125v0m-3.371-0.508v0m-0.231 2.909v0m2.956-3.463v0m1.524 4.941v0m0.138-3.233v0m0.462-2.678v0m-1.154-2.356v0m0.692 0.647v0m0.508 6.234v0m-2.263 1.894v0m-0.508-4.618v0m-3.417 4.572v0m0.924-3.371v0m4.341-6.789v0m-4.341 4.202v0m0-2.309v0m5.31 3.556v0m0.324-4.664v0m-17.642 8.728v0m17.688-2.863v0m-4.295 3.002v0m2.032-13.67v0m-0.554 1.94v0m-0.878-1.478v0m2.125 1.062v0m1.108 0.508v0m-2.956 3.741v0m0.093-0.97v0m0.554 2.494v0m-0.831 0.231v0m-0.601-0.785v0m2.171-0.462v0m-1.386 7.204v0m-1.108-3.325v0m1.201 1.524v0m-0.831 0.416v0m2.262-0.832v0m0.508 1.201v0m-1.016 0.277v0m2.263 0.508v0m0.508-14.686v0m-0.184 1.247v0m0.739 7.389v0m-0.508-5.264v0m0.138 2.17v0m0.462 5.403v0m-0.231 2.91v0m0.323 2.078v0m-0.462-3.51v0m0-2.586v0m0-2.309v0m0.416 7.158v0m-5.819-24.892v0m-0.646 1.663v0m0.831 1.201v0m0.323 0.6v0m2.956-1.108v0m-0.647 2.124v0m-3.371-0.508v0m-0.185 3.556v0m2.91-4.11v0m1.524 4.941v0m0.138-3.232v0m0.462-2.679v0m-1.154-2.355v0m0.692 0.646v0m0.508 6.235v0m-2.263 1.893v0m-0.508-4.618v0m-2.032 4.711v0m-0.461-3.51v0m0-2.586v0m0-2.309v0m5.31 3.556v0m0.37 1.2v0m-4.295 3.002v0m0.877-7.897v0m0.647 1.524v0m-0.831 0.231v0m-0.601-0.785v0m2.171-0.462v0m-1.386 7.204v0m-1.108-3.325v0m1.155 0.878v0m-0.785 1.062v0m2.262-0.831v0m0.508 1.2v0m-1.154-0.046v0m2.401 0.831v0m1.063-6.049v0m0.092 2.309v0m-0.231 2.909v0m0.323 2.078v0m-0.462-3.509v0m0-2.587v0m0-2.309v0m-0.046 7.436v0m-20.412 0.923v0m-0.831-1.478v0m2.632 0.324v0m6.789-1.432v0m-3.371 2.725v0m-2.633-2.356v0m3.418 1.663v0m-2.217 0.831v0m-2.586 0v0m-2.309 0v0m7.066 0.647v0m0.692-2.032v0m-6.142-0.693v0m-2.263 1.247v0m8.221-1.432v0m-3.326 1.109v0m1.524-1.201v0m0.416 0.831v0m4.249 1.339v0m0.923-1.431v0m1.571-0.508v0m1.062 1.662v0m0.046-1.477v0m-4.48 1.57v0m0.924-1.663v0m-1.57 0.832v0m3.232 0.092v0m0.924 1.432v0m0.693 0.646v0m-0.416-2.078v0m-4.341 1.893v0m5.634-1.108v0m-3.371 0.97v0m0.092-0.97v0m0.832 1.524v0m-12.515 8.22v0m1.2-0.831v0m0.601-0.323v0m0.508 1.062v0m2.909 0.231v0m2.032 0.046v0m-3.464 0.092v0m-2.586 0v0m-2.309 0v0m7.759-1.385v0m-6.928-0.093v0m3.418 0.324v0m1.939-0.37v0m3.741 1.755v0m1.432-1.847v0m4.202 0.785v0m-5.541 0.185v0m-1.109-0.554v0m3.233 0.092v0m0.923 1.432v0m0.278-1.432v0m1.293 0.785v0m-3.279 0v0m-8.821-8.544v0m2.078-0.323v0m-3.509 0.462v0m2.17 0.647v0m-2.817-1.802v0m4.757 0.924v0m2.355 0.878v0m-7.897 13.577v0m0-16.995v0m23.783-8.035v0m-21.789-19.325v0m-0.415-4.572v0m0.369 1.662v0m1.478 1.062v0" fill="none" stroke="#000" stroke-linecap="round" stroke-width=".369"/>
    </g>
    <g transform="translate(128.29 248.14)">
     <path d="m0 0v0m1.062 1.663v0m0.046-1.478v0m0.601-2.402v0m-1.109-0.462v0m-3.509 3.787v0m-0.739 2.91v0m-0.508-5.265v0m1.893 0.878v0m-1.755 1.293v0m1.201 4.294v0m0.323 0.601v0m1.709-4.803v0m1.247 3.694v0m-0.139 1.571v0m-3.879 0.046v0m-0.231 2.909v0m2.956-3.463v0m1.524 4.941v0m0.138-3.233v0m0.462-2.678v0m-1.154-2.355v0m0.692 0.646v0m0.508 6.235v0m-2.263 1.893v0m-0.508-4.618v0m-2.032 4.71v0m-0.461-3.509v0m4.341-6.789v0m-4.341 4.202v0m-0.462-2.262v0m5.772 3.509v0m0.508-4.064v0m-0.138 5.265v0m-4.295 3.002v0m2.032-13.67v0m-0.554 1.94v0m-0.878-1.478v0m2.125 1.062v0m1.108 0.508v0m-2.956 3.741v0m0.093-0.97v0m0.97 2.632v0m-1.247 0.093v0m-0.601-0.785v0m2.171-0.462v0m-1.386 7.204v0m-1.108-3.325v0m1.201 1.524v0m-0.831 0.416v0m2.262-0.832v0m0.508 1.201v0m-1.016 0.277v0m2.263 0.508v0m15.055-7.897v0m-0.415-4.572v0m0.693 1.109v0m1.154 1.616v0m-1.801 1.247v0m-0.277 2.263v0m-0.508-5.265v0m1.709 1.339v0m-1.201 0.555v0m0.831 4.571v0m0.323 0.601v0m-1.062 0.508v0m-0.231 2.909v0m2.864 1.986v0m-0.508-4.618v0m-2.032 4.71v0m-0.462-3.509v0m0-2.587v0m0-2.309v0m-0.647 7.066v0m2.032 0.693v0m1.478-11.73v0m-0.877-1.478v0m0.277 5.311v0m0.092-0.97v0m0.554 2.494v0m-0.831 0.231v0m-0.6-0.785v0m0.785 6.742v0m-1.109-3.325v0m1.155 1.155v0m-0.785 0.785v0m-11.684-6.743v0m-0.416-4.572v0m0.97 1.478v0m0.878 1.247v0m1.57-0.508v0m1.062 1.663v0m0.046-1.478v0m0.6-2.402v0m-0.6-0.277v0m-4.48 4.249v0m-0.277 2.263v0m-0.184-4.757v0m1.57 1.386v0m-1.755 0.277v0m1.201 4.294v0m0.323 0.601v0m1.709-4.803v0m1.247 3.694v0m-0.647 2.125v0m-3.371-0.508v0m-0.231 2.909v0m2.955-3.463v0m1.524 4.941v0m0.139-3.233v0m0.462-2.678v0m-1.155-2.355v0m0.693 0.646v0m0.508 6.235v0m-2.263 1.893v0m-0.508-4.618v0m-2.032 4.295v0m0-2.863v0m3.879-7.02v0m-4.341 4.202v0m0-2.309v0m5.311 3.556v0m0.323-4.664v0m-6.28 8.174v0m6.327-2.309v0m-4.295 3.002v0m2.032-13.67v0m-0.554 1.94v0m-0.878-1.478v0m2.124 1.062v0m1.109 0.508v0m-2.956 3.741v0m0.093-0.97v0m0.554 2.494v0m-0.832 0.231v0m-0.6-0.785v0m2.171-0.462v0m-1.386 7.204v0m-1.108-3.325v0m1.201 1.524v0m-0.832 0.416v0m2.263-0.832v0m0.093 0.693v0m-0.601 0.785v0m2.263 0.508v0m1.201 1.386v0m-1.247-0.185v0m0.462 1.154v0m0.692 0.924v0m-6.881-0.693v0m4.572-0.415v0m1.709 1.616v0m-3.371-1.247v0m-0.554 1.617v0m3.602 1.016v0m1.062-0.786v0m-0.785 2.309v0m0.739 0.37v0m-4.618-1.478v0m-1.663 1.062v0m1.478 0.046v0m2.401 0.601v0m0.277-0.601v0m-4.248-4.479v0m-2.263-0.277v0m5.265-0.508v0m-1.34 1.709v0m-0.831-1.571v0m-4.295 1.201v0m-0.6 0.323v0m4.803 1.709v0m-3.695 1.247v0m-2.124-0.647v0m0.508-3.371v0m-2.91-0.231v0m3.464 2.956v0m-4.941 1.524v0m3.232 0.138v0m2.679 0.462v0m2.355-1.154v0m-0.646 0.692v0m-6.235 0.508v0m-1.893-2.262v0m4.618-0.508v0m-4.572-3.418v0m3.371 0.924v0m6.789 4.341v0m-4.203-4.341v0m2.309 0v0m-3.556 5.311v0m4.665 0.323v0m-8.729-17.641v0m2.864 17.687v0m-3.002-4.295v0m13.669 2.032v0m-1.939-0.554v0m1.478-0.877v0m-1.063 2.124v0m-0.508 1.108v0m-3.74-2.955v0" fill="none" stroke="#000" stroke-linecap="round" stroke-width=".369"/>
    </g>
    <g transform="translate(133.28 262.41)">
     <path d="m0 0v0m-2.494 0.554v0m-0.231-0.831v0m0.785-0.6v0m0.462 2.17v0m-7.204-1.385v0m3.325-1.109v0m-1.524 1.201v0m-0.416-0.831v0m0.832 2.263v0m-1.201 0.508v0m-0.277-1.016v0m-0.508 2.263v0m14.685 0.507v0m-1.246-0.184v0m0.461 1.154v0m0.693 0.924v0m-6.881-0.693v0m4.572-0.415v0m1.709 1.616v0m-2.817-0.878v0m-1.617 1.109v0m5.173 0.369v0m-6.42-2.17v0m-2.262-0.277v0m5.264-0.508v0m-1.339 1.708v0m-0.831-1.57v0m-4.295 1.201v0m-0.6 0.323v0m4.802 1.709v0m-5.31-2.771v0m-2.91-0.231v0m3.464 2.956v0m-5.45-0.093v0m4.618-0.508v0m-4.71-2.032v0m3.51-0.461v0m2.586 0v0m2.309 0v0m-7.158 0.415v0m-0.601 0.97v0m11.731 1.478v0m1.477-0.878v0m-5.311 0.277v0m0.97 0.093v0m-2.494 0.554v0m-0.23-0.831v0m0.785-0.601v0m-6.743 0.785v0m3.325-1.108v0m-1.524 1.201v0m-0.415-0.831v0m-0.647 1.754v0m21.705-8.497v0m-0.6 0.323v0m-1.016 2.309v0m0.508-3.371v0m-3.556-0.185v0m4.11 2.91v0m-4.941 1.524v0m3.232 0.138v0m-1.847 0.508v0m-1.893-2.262v0m4.618-0.508v0m-4.711-2.032v0m3.51-0.462v0m2.586 0v0m-1.247 5.311v0m-1.2 0.369v0m-3.002-4.295v0m0.185 0.878v0m3.325-1.109v0m-0.878 1.155v0m-1.062-0.785v0m0.831 2.263v0m-1.2 0.508v0m0.046-1.155v0m-0.831 2.402v0m4.849 1.893v0m-0.601 0.323v0m-0.508-1.062v0m-2.909-0.231v0m3.463 2.956v0m-5.449-0.093v0m4.618-0.508v0m-4.71-2.032v0m3.509-0.461v0m2.587 0v0m-5.127-0.047v0m-0.323 1.432v0m0.185 0.877v0m3.325-1.108v0m-1.524 1.201v0m-0.416-0.831v0m-0.646 1.754v0m-1.524-23.737v0m1.478-0.831v0m-0.324 2.632v0m1.432 6.789v0m-2.725-3.371v0m2.355-2.633v0m-1.662 3.418v0m-0.831-2.217v0m0-2.586v0m-0.647 4.757v0m2.032 0.692v0m0.693-6.142v0m0.185 5.958v0m-1.109-3.325v0m1.201 1.524v0m-0.831 0.415v0m-1.34 4.249v0m1.432 0.924v0m0.508 1.57v0m-1.662 1.062v0m1.477 0.046v0m-1.57-4.48v0m1.663 0.924v0m-0.832-1.57v0m-0.092 3.233v0m-1.432 0.923v0m-0.646 0.693v0m2.078-0.416v0m-1.893-4.341v0m1.108 5.634v0m-0.97-3.371v0m0.97 0.093v0m-1.524 0.831v0m-7.389-11.315v0m0.323 0.601v0m-1.062 0.508v0m-0.231 2.909v0m-0.046 2.032v0m-0.092-3.463v0m0-2.587v0m1.385 5.45v0m-0.231-3.51v0m0.37 1.94v0m-1.755 3.74v0m1.847 1.432v0m-0.785 4.202v0m-0.185-5.541v0m0.554-1.109v0m-0.092 3.233v0m-1.432 0.924v0m1.432 0.277v0m-0.785 1.293v0m0-3.279v0m8.543-8.821v0m0.324 2.078v0m-1.109-1.339v0m0.878 1.94v0m-0.878 2.355v0m-15.239 17.78v0m0.046-1.801v0" fill="none" stroke="#000" stroke-linecap="round" stroke-width=".369"/>
    </g>
   </g>
  </g>
  <g transform="matrix(.35278 0 0 -.35278 93.266 252.04)">
   <g clip-path="url(#clipPath32667)">
    <g transform="translate(91.563 325.75)">
     <path d="m0 0v0m0.831 0.092v0m-1.154-2.355v0m0.692 0.647v0m-2.493-0.324v0m0.646 1.524v0m-0.831 0.231v0m-0.6-0.785v0m2.17-0.462v0m3.602-0.739v0m-0.369-0.6v0m-0.277 2.263v0m-0.277-1.108v0m2.262-0.139v0m0.093-0.97v0m0.554 2.494v0m-0.831 0.231v0m-0.601-0.785v0m1.524-2.124v0m-2.54 0.092v0m-3.316-26.298v0m-0.185 1.246v0m1.155-0.461v0m0.923-0.693v0m-0.692 6.881v0m-0.416-4.572v0m1.616-1.709v0m-0.923 2.817v0m1.154 1.617v0m1.155-4.11v0m-0.785-1.063v0m2.309 0.785v0m0.369-0.738v0m-1.477 4.618v0m1.062 1.662v0m0.046-1.478v0m0.6-2.401v0m-0.6-0.277v0m-4.48 4.249v0m-0.277 2.262v0m-0.508-5.264v0m1.709 1.339v0m-1.201 0.554v0m0.831 4.572v0m0.324 0.601v0m1.708-4.803v0m1.247 3.694v0m-0.646 2.125v0m-3.371-0.508v0m-0.231 2.909v0m2.955-3.464v0m1.524 4.942v0m0.139-3.233v0m0.462-2.678v0m-1.155-2.356v0m0.693 0.647v0m0.508 6.234v0m-2.263 1.894v0m-0.508-4.618v0m-2.032 4.71v0m-0.462-3.51v0m4.341-6.788v0m-4.341 4.202v0m0-2.309v0m5.311 3.556v0m0.323-4.664v0m-6.28 8.174v0m6.326-2.309v0m-4.294 3.002v0m2.032-13.67v0m-0.555 1.94v0m-0.877-1.478v0m2.124 1.062v0m1.109 0.508v0m-2.956 3.741v0m0.092-0.97v0m0.555 2.494v0m-0.832 0.23v0m-0.6-0.785v0m2.17-0.461v0m-1.385 7.204v0m-1.108-3.325v0m1.154 1.154v0m-0.785 0.785v0m2.263-0.831v0m0.508 1.201v0m-1.016 0.277v0m2.263 0.508v0m0.138 2.586v0m-1.662-0.646v0m-1.201 0.831v0m-0.6 0.323v0m1.108 2.956v0m-2.124-0.647v0m0.508-3.371v0m-3.556-0.185v0m4.11 2.91v0m-1.709 1.662v0m2.679 0.462v0m2.355-1.155v0m-0.647 0.693v0m-6.234 0.508v0m2.725-2.771v0m-1.201-2.494v0m2.586 0v0m2.309 0v0m-3.556 5.311v0m-1.2 0.37v0m4.895-3.418v0m-1.524 0.647v0m-0.231-0.831v0m0.785-0.601v0m0.462 2.171v0m-3.879-2.494v0m-0.878 1.155v0m-1.062-0.786v0m0.831 2.263v0m-1.201 0.508v0m0.047-1.154v0m-0.832 2.401v0m7.713 1.709v0m0.6-0.37v0m-2.263-0.277v0m-1.201 0.832v0m-0.6 0.323v0m-0.508-1.062v0m-2.909-0.231v0m3.463 2.955v0m-0.831-0.6v0m-1.201-2.494v0m2.586 0v0m2.309 0v0m0.139 2.263v0m0.97 0.093v0m-2.494 0.554v0m-0.231-0.832v0m0.785-0.6v0m-3.417-0.323v0m-1.524 1.201v0m-0.416-0.832v0m-0.646 1.755v0m-0.046-24.568v0m-0.324 2.632v0m1.432 6.789v0m-0.37-6.004v0m-1.108 4.064v0m0.693-6.142v0m0.184 5.957v0m0.093-1.801v0m-0.831 0.416v0m0.092 5.172v0m0.508 1.57v0m-0.185 1.109v0m0.093-3.556v0m-0.231-12.238v0m8.128 26.323v0m-0.093-2.54v0m26.299-22.99v0m-1.247-0.184v0m0.462 1.154v0m0.693 0.924v0m-6.881-0.693v0m4.572-0.415v0m1.708 1.616v0m-3.371-1.247v0m-1.062 1.478v0m4.11 1.154v0m1.062-0.785v0m-0.785 2.309v0m0.739 0.37v0m-4.618-1.478v0m-1.663 1.062v0m1.478 0.046v0m2.402 0.601v0m0.461-1.109v0m-3.787-3.509v0m-2.909-0.739v0m5.265-0.508v0m-0.878 1.893v0m-1.293-1.755v0m-4.295 1.201v0m-0.6 0.323v0m4.803 1.709v0m-3.695 1.247v0m-1.57-0.139v0m-0.046-3.879v0m-2.909-0.231v0m3.463 2.956v0m-4.941 1.524v0m3.232 0.138v0m2.679 0.462v0m2.355-1.154v0m-0.646 0.692v0m-6.235 0.508v0m-1.893-2.263v0m4.618-0.508v0m-4.711-2.032v0m3.51-0.461v0m6.789 4.341v0m-4.203-4.341v0" fill="none" stroke="#000" stroke-linecap="round" stroke-width=".369"/>
    </g>
    <g transform="translate(115.79 296.78)">
     <path d="m0 0v0m-3.51 5.773v0m4.064 0.508v0m-5.264-0.139v0m-3.002-4.295v0m13.669 2.032v0m-1.939-0.554v0m1.478-0.877v0m-1.063 2.124v0m-0.508 1.108v0m-3.74-2.955v0m0.97 0.092v0m-2.633 0.97v0m-0.092-1.247v0m0.785-0.6v0m0.462 2.17v0m-7.205-1.385v0m3.326-1.109v0m-1.524 1.201v0m-0.416-0.831v0m0.831 2.263v0m-1.201 0.508v0m-0.277-1.016v0m-0.508 2.263v0m14.871 13.854v0m-1.247-0.185v0m0.462 1.155v0m0.692 0.923v0m-6.881-0.692v0m4.572-0.416v0m1.709 1.616v0m-2.817-0.923v0m-1.616 1.154v0m4.11 1.155v0m1.062-0.785v0m-0.785 2.309v0m0.739 0.369v0m-4.618-1.478v0m-1.663 1.063v0m1.478 0.046v0m2.401 0.6v0m0.277-0.6v0m-4.248-4.48v0m-2.263-0.277v0m5.264-0.508v0m-1.339 1.709v0m-0.554-1.201v0m-4.572 0.831v0m-0.6 0.324v0m4.803 1.708v0m-3.695 1.247v0m-2.124-0.646v0m0.508-3.372v0m-2.91-0.23v0m3.464 2.955v0m-4.941 1.524v0m3.232 0.139v0m2.679 0.461v0m2.355-1.154v0m-0.647 0.693v0m-6.234 0.508v0m-1.893-2.263v0m4.618-0.508v0m-4.711-2.032v0m3.51-0.462v0m6.789 4.341v0m-4.203-4.341v0m2.309 0v0m-3.556 5.311v0m4.665 0.323v0m-8.175-6.281v0m2.31 6.327v0m-3.002-4.295v0m13.669 2.032v0m-1.939-0.554v0m1.478-0.877v0m-1.063 2.124v0m-0.508 1.108v0m-3.74-2.955v0m0.97 0.092v0m-2.494 0.554v0m-0.231-0.831v0m0.785-0.6v0m0.462 2.17v0m-7.205-1.385v0m3.326-1.108v0m-1.155 1.154v0m-0.785-0.785v0m0.831 2.263v0m-1.201 0.508v0m-0.277-1.016v0m-0.508 2.263v0m14.871-16.903v0m-1.247-0.184v0m0.462 1.154v0m0.692 0.924v0m-6.881-0.693v0m4.572-0.415v0m1.709 1.616v0m-3.187-0.647v0m-1.246 0.878v0m4.11 1.154v0m1.062-0.785v0m-0.785 2.309v0m0.739 0.37v0m-4.618-1.478v0m-1.663 1.062v0m1.478 0.046v0m2.401 0.601v0m0.277-0.601v0m-4.248-4.479v0m-2.263-0.277v0m4.756-0.185v0m-1.385 1.57v0m-0.277-1.755v0m-4.295 1.201v0m-0.6 0.323v0m4.803 1.709v0m-3.695 1.247v0m-2.124-0.647v0m0.508-3.371v0m-2.91-0.231v0m3.464 2.956v0m-4.941 1.524v0m3.232 0.138v0m2.679 0.462v0m2.355-1.155v0m-0.647 0.693v0m-6.234 0.508v0m-1.893-2.263v0m4.618-0.508v0m-4.295-2.032v0m2.863 0v0m7.02 3.88v0m-4.203-4.341v0m2.309 0v0m-3.556 5.31v0m4.665 0.324v0m-8.175-6.281v0m2.31 6.327v0m-3.002-4.295v0m13.669 2.032v0m-1.939-0.554v0m1.478-0.878v0m-1.063 2.125v0m-0.508 1.108v0m-3.74-2.956v0m0.97 0.093v0m-2.494 0.554v0m-0.231-0.831v0m0.785-0.601v0m0.462 2.171v0m-7.205-1.386v0m3.326-1.108v0m-1.524 1.201v0m-0.416-0.831v0m0.831 2.262v0m-0.693 0.093v0m-0.785-0.601v0m-0.508 2.263v0m-1.385 1.201v0m0.185-1.247v0m-1.155 0.462v0m-0.924 0.693v0m0.693-6.881v0m0.416 4.572v0m-1.616 1.708v0m1.246-3.371v0m-1.616-0.554v0m-1.016 3.602v0m0.785 1.062v0m-2.309-0.785v0m-0.369 0.739v0m1.477-4.618v0m-1.062-1.663v0m-0.046 1.478v0m-0.6 2.402v0m0.6 0.277v0m4.48-4.249v0m0.277-2.263v0m0.508 5.265v0m-1.709-1.34v0m1.57-0.831v0m-1.201-4.295v0m-0.323-0.6v0m-1.708 4.803v0m-1.247-3.695v0m0.646-2.124v0m3.371 0.508v0m0.231-2.909v0m-2.955 3.463v0m-1.524-4.941v0m-0.139 3.232v0m-0.462 2.679v0m1.155 2.355v0m-0.693-0.646v0m-0.508-6.235v0m2.263-1.893v0m0.508 4.618v0m3.417-4.572v0" fill="none" stroke="#000" stroke-linecap="round" stroke-width=".369"/>
    </g>
    <g transform="translate(106.83 300.15)">
     <path d="m0 0v0m-4.341 6.789v0m4.341-4.203v0m0 2.309v0m-5.311-3.556v0m-0.323 4.665v0m17.641-8.729v0m-17.687 2.864v0m4.295-3.002v0m-2.032 13.669v0m0.554-1.939v0m0.877 1.478v0m-2.124-1.063v0m-1.108-0.508v0m2.955-3.74v0m-0.092 0.97v0m-0.554-2.494v0m0.831-0.231v0m0.6 0.785v0m-2.17 0.462v0m1.385-7.204v0m1.108 3.325v0m-1.2-1.524v0m0.831-0.416v0m-2.263 0.831v0m-0.508-1.201v0m1.016-0.277v0m-2.263-0.508v0m-0.508 14.686v0m0.185-1.247v0m-1.155 0.462v0m-0.923 0.693v0m0.693-6.881v0m0.415 4.572v0m-1.616 1.708v0m0.877-2.817v0m-1.108-1.616v0m-0.37 5.172v0m2.171-6.419v0m0.277-2.263v0m0.508 5.265v0m-1.709-1.339v0m1.571-0.832v0m-1.201-4.295v0m-0.323-0.6v0m-1.709 4.803v0m2.771-5.311v0m0.231-2.909v0m-2.956 3.463v0m0.092-5.449v0m0.508 4.618v0m2.032-4.71v0m0.462 3.509v0m0 2.586v0m0 2.309v0m-0.415-7.158v0m-0.97-0.6v0m-1.478 11.73v0m0.877 1.478v0m-0.277-5.311v0m-0.092 0.97v0m-0.554-2.494v0m0.831-0.231v0m0.6 0.785v0m-0.785-6.742v0m1.109 3.325v0m-1.201-1.524v0m0.831-0.416v0m-1.755-0.646v0m8.682 24.568v0m0.647-1.662v0m-0.831-1.201v0m-0.324-0.601v0m-2.955 1.109v0m0.646-2.125v0m3.372 0.508v0m0.184-3.555v0m-2.909 4.11v0m-1.524-4.942v0m-0.139 3.233v0m-0.461 2.678v0m1.154 2.356v0m-0.693-0.647v0m-0.508-6.234v0m2.263-1.894v0m0.508 4.618v0m2.032-4.71v0m0.462 3.51v0m0 2.586v0m0 2.309v0m-5.311-3.556v0m-0.369-1.201v0m4.295-3.002v0m-0.878 7.897v0m-0.646-1.524v0m0.831-0.23v0m0.6 0.785v0m-2.17 0.461v0m1.385-7.204v0m1.108 3.325v0m-1.154-0.877v0m0.785-1.062v0m-2.263 0.831v0m-0.508-1.201v0m1.155 0.046v0m-2.402-0.831v0m-1.708 7.712v0m0.369 0.601v0m0.277-2.263v0m-0.831-1.201v0m-0.323-0.6v0m1.062-0.508v0m0.231-2.91v0m-2.956 3.464v0m0.092-5.449v0m0.508 4.618v0m2.032-4.711v0m0.462 3.51v0m0 2.586v0m0 2.309v0m0.046-7.435v0m-1.431-0.323v0m-0.878 7.897v0m-0.092 0.97v0m-0.554-2.494v0m0.831-0.231v0m0.6 0.785v0m-0.785-6.743v0m1.109 3.326v0m-1.201-1.524v0m0.831-0.416v0m-1.755-0.647v0m23.737-1.524v0m0.832 1.478v0m-2.633-0.323v0m-6.788 1.432v0m3.371-2.725v0m2.632 2.355v0m-3.417-1.662v0m2.217-0.832v0m2.586 0v0m2.309 0v0m-7.066-0.646v0m-0.693 2.032v0m6.142 0.692v0m2.263-1.246v0m-8.22 1.431v0m3.325-1.108v0m-1.524 1.201v0m-0.415-0.832v0m-4.249-1.339v0m-0.924 1.432v0m-1.57 0.508v0m-1.062-1.663v0m-0.046 1.478v0m4.479-1.57v0m-0.923 1.662v0m1.57-0.831v0m-3.233-0.092v0m-0.923-1.432v0m-0.693-0.647v0m0.415 2.079v0m4.341-1.894v0m-5.634 1.109v0m3.372-0.97v0m-0.093 0.97v0m-0.831-1.524v0m12.515-8.221v0m-1.201 0.832v0m-0.6 0.323v0m-0.508-1.062v0m-2.909-0.231v0m-2.032-0.046v0m3.463-0.093v0m2.586 0v0m2.309 0v0m-7.758 1.386v0m6.927 0.092v0m-3.417-0.323v0m-1.94 0.369v0m-3.741-1.755v0m-1.431 1.848v0m-4.203-0.786v0m5.542-0.184v0m1.108 0.554v0m-3.232-0.092v0m-0.924-1.432v0m-0.277 1.432v0m-1.293-0.785v0m3.279 0v0m8.82 8.543v0m-2.078 0.323v0m3.51-0.462v0m-2.17-0.646v0m2.817 1.801v0m-4.757-0.924v0m-2.355-0.877v0m-17.78-15.24v0m25.677 1.663v0m0 16.994v0" fill="none" stroke="#000" stroke-linecap="round" stroke-width=".369"/>
    </g>
    <g transform="translate(97.504 323.15)">
     <path d="m0 0v0m2.54-0.092v0m-0.092-26.647v0m8.442 29.393v0m-0.693-0.924v0m6.881 0.693v0m-4.572 0.416v0m-1.708-1.617v0m2.817 0.878v0m1.616-1.109v0m-5.172-0.369v0m6.419 2.171v0m2.263 0.277v0m-3.925-1.201v0m5.126 0.369v0m0.6-0.323v0m-4.803-1.709v0m5.311 2.771v0m-0.554-2.724v0m5.449 0.092v0m-4.618 0.508v0m4.711 2.032v0m-1.247 0.046v0m0.6-0.97v0m-11.73-1.478v0m-1.478 0.878v0m5.311-0.277v0m-0.97-0.093v0m2.494-0.554v0m0.231 0.832v0m-0.785 0.6v0m6.742-0.785v0m-3.325 1.108v0m1.524-1.201v0m0.416 0.832v0m0.646-1.755v0m-24.383 2.355v0m-0.601 0.37v0m2.263 0.277v0m1.201-0.832v0m0.6-0.323v0m0.508 1.062v0m-0.554-2.724v0m5.449 0.092v0m-4.618 0.508v0m4.711 2.032v0m-0.647-0.924v0m-7.897-0.877v0m-0.969-0.093v0m2.493-0.554v0m0.231 0.832v0m-0.785 0.6v0m6.743-0.785v0m-3.325 1.108v0m1.524-1.201v0m0.415 0.832v0m0.647-1.755v0m18.657 0.923v0m-26.785-0.646v0m0.092 2.54v0m26.647-0.092v0" fill="none" stroke="#000" stroke-linecap="round" stroke-width=".369"/>
    </g>
   </g>
  </g>
  <g transform="matrix(.35278 0 0 -.35278 93.266 252.04)">
   <g clip-path="url(#clipPath32691)">
    <g transform="translate(124.09 296.63)">
     <path d="m0 0v0m-0.185 1.247v0m1.155-0.462v0m0.923-0.693v0m-0.692 6.881v0m-0.416-4.572v0m1.616-1.708v0m-1.246 3.371v0m1.477 1.062v0m1.155-4.11v0m-0.785-1.062v0m2.309 0.785v0m0.369-0.739v0m-1.478 4.618v0m1.063 1.663v0m0.046-1.478v0m0.6-2.402v0m-1.108-0.461v0m-3.51 3.786v0m-0.739 2.91v0m-0.508-5.265v0m1.894 0.878v0m-1.755 1.293v0m1.2 4.295v0m0.324 0.6v0m1.708-4.803v0m1.247 3.695v0m-0.138 1.57v0m-3.879 0.046v0m-0.231 2.909v0m2.955-3.463v0m1.524 4.941v0m0.139-3.233v0m0.462-2.678v0m-1.155-2.355v0m0.693 0.646v0m0.508 6.235v0m-2.263 1.893v0m-0.508-4.618v0m-2.032 4.71v0m-0.462-3.509v0m4.341-6.789v0m-4.341 4.203v0m-0.462-2.263v0m5.773 3.509v0m0.508-4.063v0m-0.139 5.264v0m-4.294 3.002v0m2.031-13.67v0m-0.554 1.94v0m-0.877-1.478v0m2.124 1.062v0m1.109 0.508v0m-2.956 3.741v0m0.092-0.97v0m0.97 2.633v0m-1.247 0.092v0m-0.6-0.785v0m2.17-0.462v0m-1.385 7.204v0m-1.108-3.325v0m1.2 1.524v0m-0.831 0.416v0m2.263-0.831v0m0.508 1.2v0m-1.016 0.277v0m2.263 0.508v0m2.771-14.87v0m-0.185 1.247v0m1.155-0.462v0m0.923-0.693v0m-0.693 6.881v0m-0.415-4.572v0m1.616-1.708v0m-0.646 3.186v0m0.877 1.247v0m1.155-4.11v0m-0.786-1.062v0m2.31 0.785v0m0.369-0.739v0m-1.478 4.618v0m1.062 1.663v0m0.047-1.478v0m0.6-2.402v0m-0.6-0.277v0m-4.48 4.249v0m-0.277 2.263v0m-0.185-4.757v0m1.57 1.386v0m-1.755 0.277v0m1.201 4.295v0m0.323 0.6v0m1.709-4.803v0m1.247 3.695v0m-0.647 2.124v0m-3.371-0.508v0m-0.231 2.909v0m2.956-3.463v0m1.524 4.941v0m0.138-3.233v0m0.462-2.678v0m-1.154-2.355v0m0.692 0.646v0m0.508 6.235v0m-2.262 1.893v0m-0.508-4.618v0m-2.032 4.295v0m0-2.863v0m3.879-7.02v0m-4.341 4.203v0m0-2.309v0m5.311 3.555v0m0.323-4.664v0m-6.281 8.174v0m6.327-2.309v0m-4.295 3.002v0m2.032-13.67v0m-0.554 1.94v0m-0.877-1.478v0m2.124 1.062v0m1.108 0.508v0m-2.955 3.741v0m0.092-0.97v0m0.554 2.494v0m-0.831 0.231v0m-0.6-0.785v0m2.17-0.462v0m-1.385 7.204v0m-1.109-3.325v0m1.201 1.524v0m-0.831 0.416v0m2.263-0.831v0m0.092 0.692v0m-0.6 0.785v0m2.263 0.508v0m1.2 1.386v0m-1.247-0.185v0m0.462 1.155v0m0.693 0.923v0m-6.881-0.693v0m4.572-0.415v0m1.709 1.616v0m-3.372-1.247v0m-0.554 1.617v0m3.602 1.016v0m1.062-0.785v0m-0.785 2.309v0m0.739 0.369v0m-4.618-1.478v0m-1.662 1.062v0m1.477 0.047v0m2.402 0.6v0m0.277-0.6v0m-4.249-4.48v0m-2.263-0.277v0m5.265-0.508v0m-1.339 1.709v0m-0.832-1.571v0m-4.294 1.201v0m-0.601 0.323v0m4.803 1.709v0m-3.694 1.247v0m-2.125-0.646v0m0.508-3.372v0m-2.909-0.231v0m3.463 2.956v0m-4.941 1.524v0m3.233 0.139v0m2.678 0.461v0m2.356-1.154v0m-0.647 0.693v0m-6.234 0.508v0m-1.894-2.263v0m4.618-0.508v0m-4.572-3.418v0m3.372 0.924v0m6.788 4.341v0m-4.202-4.341v0m2.309 0v0m-3.556 5.311v0m4.664 0.323v0m-8.728-17.641v0m2.863 17.687v0m-3.002-4.295v0m13.67 2.032v0m-1.94-0.554v0m1.478-0.877v0m-1.062 2.124v0m-0.508 1.108v0m-3.741-2.955v0m0.97 0.092v0m-2.494 0.554v0m-0.231-0.831v0m0.785-0.6v0m0.462 2.17v0m-7.204-1.385v0m3.325-1.109v0m-1.524 1.201v0m-0.416-0.831v0m0.832 2.263v0" fill="none" stroke="#000" stroke-linecap="round" stroke-width=".369"/>
    </g>
    <g transform="translate(125.61 317.46)">
     <path d="m0 0v0m-0.277-1.016v0m-0.508 2.263v0m14.686 0.508v0m-1.247-0.185v0m0.461 1.155v0m0.693 0.923v0m-6.881-0.692v0m4.572-0.416v0m1.709 1.616v0m-2.817-0.877v0m-1.617 1.108v0m5.173 0.37v0m-6.419-2.171v0m-2.263-0.277v0m5.264-0.508v0m-1.339 1.709v0m-0.831-1.57v0m-4.295 1.2v0m-0.6 0.324v0m4.802 1.708v0m-5.31-2.771v0m-2.91-0.23v0m3.464 2.955v0m-5.45-0.092v0m4.618-0.508v0m-4.71-2.032v0m3.51-0.462v0m2.586 0v0m2.309 0v0m-7.158 0.416v0m-0.6 0.969v0m11.73 1.478v0m1.477-0.877v0m-5.31 0.277v0m0.969 0.092v0m-2.493 0.554v0m-0.231-0.831v0m0.785-0.6v0m-6.743 0.785v0m3.325-1.109v0m-1.524 1.201v0m-0.415-0.831v0m-0.647 1.755v0m17.041-9.421v0m-0.831 4.433v0m1.385 0.647v0m-1.893-2.263v0m-0.093-2.54v0m0.647 0.924v0m0.185 0.877v0m1.016 2.032v0m0.046-1.155v0m-0.831 2.402v0m0.831 0.924v0m-1.986 2.863v0m-0.092-2.54v0m0.97-0.508v0m-0.324 1.431v0m0.185 0.878v0m1.385-0.739v0m-0.646 1.755v0m-1.524-23.737v0m1.478-0.832v0m-0.324 2.633v0m-1.293 3.417v0m0.693 0.785v0m-0.831-2.216v0m0-2.587v0m0-2.309v0m-0.647 7.066v0m2.032 0.693v0m0.693-6.142v0m-1.247-2.263v0m1.432 8.22v0m-1.109-3.325v0m1.201 1.524v0m-0.831 0.416v0m-1.339 4.248v0m1.431 0.924v0m0.508 1.57v0m-1.662 1.062v0m1.477 0.046v0m-1.57-4.479v0m1.663 0.923v0m-0.831-1.57v0m-0.093 3.233v0m-1.431 0.924v0m-0.647 0.692v0m2.078-0.415v0m-1.893-4.341v0m1.108 5.634v0m-0.97-3.371v0m0.97 0.092v0m-1.524 0.831v0m-8.22-12.515v0m0.831 1.201v0m0.323 0.6v0m-1.062 0.508v0m-0.231 2.91v0m-0.046 2.032v0m-0.092-3.464v0m0-2.586v0m0-2.309v0m1.385 7.758v0m0.093-6.927v0m-0.324 3.417v0m0.37 1.94v0m-1.755 3.741v0m1.847 1.431v0m-0.785 4.203v0m-0.185-5.542v0m0.554-1.108v0m-0.092 3.232v0m-1.432 0.924v0m1.432 0.277v0m-0.785 1.293v0m0-3.279v0m8.544-8.82v0m0.323 2.078v0m-0.462-3.51v0m-0.647 2.171v0m1.802-2.817v0m-0.924 4.756v0m-0.878 2.355v0m-15.239 17.78v0m1.662-25.677v0m16.995 0v0m-18.611 23.876v0" fill="none" stroke="#000" stroke-linecap="round" stroke-width=".369"/>
    </g>
   </g>
  </g>
  <g transform="matrix(.35278 0 0 -.35278 93.266 252.04)">
   <g clip-path="url(#clipPath32707)">
    <g transform="translate(134.67 249.98)">
     <path d="m0 0c6.992 2.458 11.651 11.157 11.651 23.989 0 19.702-10.984 41.685-24.533 49.101-4.827 2.642-9.328 3.079-13.123 1.656l-19.266-7.012c3.795 1.423 8.296 0.986 13.124-1.656 13.549-7.416 24.534-29.399 24.534-49.101 0-12.832-4.66-21.531-11.653-23.989z" fill="none" stroke="#000" stroke-width=".369"/>
    </g>
    <g transform="translate(102.53 316.06)">
     <path d="m0 0c-4.827 2.642-9.328 3.079-13.123 1.656-6.859-2.572-11.411-11.218-11.411-23.901 0-19.702 10.984-41.685 24.534-49.101 13.55-7.415 24.534 2.543 24.534 22.246 0 19.701-10.984 41.684-24.534 49.1m0-60.644c-9.485 5.191-17.174 20.579-17.174 34.371 0 8.878 3.187 14.93 7.988 16.73 2.656 0.996 5.807 0.691 9.186-1.159 9.485-5.191 17.174-20.579 17.174-34.37s-7.689-20.763-17.174-15.572" fill="#ccc"/>
    </g>
   </g>
  </g>
  <g transform="matrix(.35278 0 0 -.35278 93.266 252.04)">
   <g clip-path="url(#clipPath32723)">
    <g transform="translate(114.44 243.13)">
     <path d="m0 0v0m0.185-1.247v0m-1.155 0.462v0m-0.923 0.693v0m-0.508-0.601v0m-1.386-0.323v0m0.785 1.062v0m-2.309-0.785v0m-0.369 0.739v0m1.985-1.616v0m-5.726 0.046v0m1.755 0.277v0m-0.831 0.646v0m10.252-0.323v0m0.277 1.109v0m-1.478-0.832v0m-7.25-0.277v0m-1.155 0.647v0m-1.616 0.785v0" fill="none" stroke="#000" stroke-linecap="round" stroke-width=".369"/>
    </g>
   </g>
  </g>
  <g transform="matrix(.35278 0 0 -.35278 93.266 252.04)">
   <g clip-path="url(#clipPath32735)">
    <g transform="translate(77.616 294.71)">
     <path d="m0 0v0m1.663 0.647v0m1.2-0.832v0m0.601-0.323v0m-1.109-2.956v0m1.57 0.139v0m0.047 3.879v0m2.909 0.231v0m-3.464-2.956v0m4.942-1.523v0m-3.233-0.139v0m-2.678-0.462v0m-2.356 1.155v0m0.647-0.693v0m6.234-0.508v0m1.894 2.263v0m-4.618 0.508v0m4.71 2.032v0m-3.51 0.462v0m-2.586 0v0m-2.263 0.461v0m3.51-5.772v0m-4.064-0.508v0m5.265 0.138v0m3.002 4.295v0m-7.897-0.877v0m1.662-1.062v0m0.093 1.246v0m-0.786 0.601v0m-0.461-2.171v0m7.204 1.386v0m-3.325 1.108v0m1.524-1.201v0m0.415 0.832v0m-0.831-2.263v0m1.201-0.508v0m0.277 1.016v0m0.508-2.263v0m-7.897-15.055v0m1.663 0.646v0m1.2-0.831v0m0.601-0.323v0m-1.109-2.956v0m2.125 0.647v0m-0.508 3.371v0m2.909 0.231v0m-3.464-2.956v0m4.942-1.524v0m-3.233-0.138v0m-2.678-0.462v0m-2.356 1.154v0m0.647-0.692v0m6.234-0.508v0m1.894 2.263v0m-4.618 0.508v0m4.71 2.032v0m-3.51 0.461v0m-2.586 0v0m-2.309 0v0m3.556-5.31v0m3.51 5.957v0m-2.309-6.327v0m3.002 4.295v0m-7.897-0.877v0m1.524-0.647v0m0.231 0.831v0m-0.786 0.601v0m-0.461-2.171v0m7.204 1.386v0m-3.325 1.108v0m1.154-1.155v0m0.785 0.785v0m-0.831-2.262v0m1.201-0.508v0m0.277 1.016v0m0.508-2.263v0m-7.897 15.701v0m1.663 0.647v0m1.2-0.831v0m0.601-0.324v0m-1.109-2.955v0m2.125 0.646v0m-0.508 3.371v0m2.909 0.231v0m-3.464-2.955v0m4.942-1.524v0m-3.233-0.139v0m-2.678-0.462v0m-2.356 1.155v0m0.647-0.693v0m6.234-0.508v0m1.894 2.263v0m-4.618 0.508v0m4.295 2.032v0m-2.864 0v0m-2.817 0.462v0m-2.309 0v0m3.556-5.311v0m3.51 5.957v0m-2.309-6.326v0m3.002 4.294v0m-7.897-0.877v0m1.524-0.647v0m0.231 0.832v0m-0.786 0.6v0m-0.461-2.17v0m7.204 1.385v0m-3.325 1.108v0m1.524-1.2v0m0.415 0.831v0m-0.831-2.263v0m0.693-0.092v0m0.785 0.6v0m0.508-2.263v0m1.385-1.201v0m-0.184 1.247v0m1.154-0.461v0m0.924-0.693v0m-0.693 6.881v0m-0.416-4.572v0m1.617-1.709v0m-1.247 3.371v0m1.616 0.555v0m1.016-3.603v0m-0.785-1.062v0m2.309 0.785v0m0.37-0.739v0m-1.478 4.619v0m1.062 1.662v0m0.046-1.478v0m0.601-2.401v0m-0.601-0.277v0m-4.479 4.248v0m-0.277 2.263v0m-0.508-5.264v0m1.708 1.339v0m-1.57 0.831v0m1.201 4.295v0m0.323 0.6v0m1.709-4.802v0m1.247 3.694v0m-0.647 2.124v0m-3.371-0.508v0m-0.231 2.91v0m2.956-3.464v0m1.524 4.942v0m0.138-3.233v0m0.462-2.679v0m-1.155-2.355v0m0.693 0.647v0m0.508 6.234v0m-2.263 1.894v0m-0.508-4.618v0m-3.417 4.571v0m0.924-3.371v0m4.341-6.788v0m-4.341 4.202v0m0-2.309v0m5.31 3.556v0m0.324-4.664v0m0.046 5.865v0m-4.295 3.001v0m2.032-13.669v0m-0.554 1.939v0m-0.878-1.477v0m2.125 1.062v0m1.108 0.508v0m-2.956 3.74v0m0.093-0.969v0m0.554 2.493v0m-0.831 0.231v0m-0.601-0.785v0m2.171-0.462v0m-1.386 7.205v0m-1.108-3.325v0m1.201 1.524v0m-0.832 0.415v0m2.263-0.831v0m0.508 1.201v0m-1.016 0.277v0m2.263 0.508v0m0.508-14.686v0m-0.184 1.247v0m1.154-0.462v0m0.924-0.692v0m-0.693 6.881v0m-0.416-4.572v0m1.617-1.709v0m-0.878 2.817v0m1.109 1.616v0m0.369-5.172v0m-2.17 6.419v0m-0.278 2.263v0m-0.508-5.265v0m1.709 1.34v0m-1.57 0.831v0m1.201 4.295v0m0.323 0.6v0m1.709-4.803v0m-2.771 5.311v0" fill="none" stroke="#000" stroke-linecap="round" stroke-width=".369"/>
    </g>
    <g transform="translate(93.641 294.34)">
     <path d="m0 0v0m2.956-3.464v0m-0.093 5.45v0m-0.508-4.618v0m-2.032 4.71v0m-0.462-3.51v0m0-2.586v0m0-2.309v0m0.416 7.158v0m0.97 0.601v0m1.478-11.73v0m-0.878-1.478v0m0.277 5.311v0m0.093-0.97v0m0.554 2.494v0m-0.831 0.231v0m-0.601-0.786v0m0.785 6.743v0m-1.108-3.325v0m1.201 1.524v0m-0.832 0.415v0m1.755 0.647v0m-8.682-24.568v0m-0.646 1.662v0m0.831 1.201v0m0.323 0.6v0m2.956-1.108v0m-0.647 2.124v0m-3.371-0.508v0m-0.185 3.556v0m2.91-4.11v0m1.524 4.941v0m0.138-3.232v0m0.462-2.679v0m-1.154-2.355v0m0.692 0.646v0m0.508 6.235v0m-2.263 1.893v0m-0.508-4.618v0m-2.032 4.711v0m-0.461-3.51v0m0-2.586v0m0-2.309v0m5.31 3.556v0m0.37 1.2v0m-4.295 3.002v0m0.878-7.897v0m0.646 1.524v0m-0.831 0.231v0m-0.601-0.785v0m2.171-0.462v0m-1.385 7.205v0m-1.109-3.326v0m1.155 0.878v0m-0.785 1.062v0m2.263-0.831v0m0.507 1.201v0m-1.154-0.047v0m2.401 0.832v0m1.709-7.713v0m-0.369-0.6v0m-0.277 2.263v0m0.831 1.201v0m0.323 0.6v0m-1.062 0.508v0m-0.231 2.909v0m2.956-3.463v0m-0.093 5.449v0m-0.508-4.618v0m-2.032 4.71v0m-0.462-3.509v0m0-2.586v0m0-2.31v0m-0.046 7.436v0m1.432 0.323v0m0.877-7.897v0m0.093-0.97v0m0.554 2.494v0m-0.831 0.231v0m-0.601-0.785v0m0.785 6.742v0m-1.108-3.325v0m1.201 1.524v0m-0.832 0.416v0m1.755 0.646v0m-15.147-1.062v0m-3.371 2.725v0m0.785-0.693v0m-0.046 1.478v0m0.692-2.032v0m-0.184-0.877v0m-1.801-0.093v0m0.415 0.831v0m4.249 1.34v0m0.923-1.432v0m1.571-0.508v0m1.062 1.663v0m0.046-1.478v0m-4.48 1.57v0m0.924-1.663v0m-1.57 0.832v0m3.233 0.092v0m0.923 1.432v0m0.693 0.646v0m-0.416-2.078v0m-4.341 1.893v0m5.634-1.108v0m-3.371 0.97v0m0.092-0.97v0m0.832 1.524v0m-5.265 8.405v0m-0.6-1.293v0m2.17 1.616v0m1.432-1.847v0m4.202 0.785v0m-5.541 0.185v0m-1.109-0.554v0m3.233 0.092v0m0.924 1.432v0m0.277-1.432v0m1.293 0.785v0m-3.279 0v0m-3.787-7.758v0m17.78 15.24v0m0.646-26.786v0m-2.54 0.093v0m0.093 26.646v0m-3.409-52.945v0m-0.185 1.247v0m1.155-0.462v0m0.923-0.692v0m-0.692 6.881v0m-0.416-4.572v0m1.616-1.709v0m-0.923 2.817v0m1.154 1.617v0m1.155-4.111v0m-0.785-1.062v0m2.309 0.785v0m0.369-0.739v0m-1.478 4.619v0m1.063 1.662v0m0.046-1.478v0m0.6-2.401v0m-0.6-0.277v0m-4.48 4.248v0m-0.277 2.263v0m-0.508-5.264v0m1.709 1.339v0m-1.201 0.554v0m0.831 4.572v0m0.324 0.6v0m1.708-4.802v0m1.247 3.694v0m-0.646 2.124v0m-3.372-0.508v0m-0.23 2.91v0m2.955-3.464v0m1.524 4.942v0m0.139-3.233v0m0.461-2.679v0m-1.154-2.355v0m0.693 0.647v0m0.508 6.234v0m-2.263 1.894v0m-0.508-4.619v0m-2.032 4.711v0m-0.462-3.51v0m4.341-6.788v0m-4.341 4.202v0m0-2.309v0m5.311 3.556v0m0.323-4.664v0m-6.281 8.174v0m6.327-2.309v0m-4.295 3.001v0m2.032-13.669v0m-0.554 1.939v0m-0.877-1.477v0m2.124 1.062v0m1.108 0.508v0m-2.955 3.74v0m0.092-0.969v0m0.554 2.493v0m-0.831 0.231v0m-0.6-0.785v0m2.17-0.462v0m-1.385 7.205v0m-1.109-3.325v0m1.155 1.154v0m-0.785 0.785v0m2.263-0.831v0m0.508 1.201v0m-1.016 0.277v0m2.263 0.508v0m-16.903-14.871v0m-0.184 1.247v0m1.154-0.462v0m0.924-0.692v0m-0.693 6.881v0" fill="none" stroke="#000" stroke-linecap="round" stroke-width=".369"/>
    </g>
    <g transform="translate(80.35 245.92)">
     <path d="m0 0v0m1.616-1.709v0m-0.646 3.187v0m0.877 1.247v0m1.155-4.11v0m-0.785-1.063v0m2.309 0.785v0m0.369-0.738v0m-1.478 4.618v0m1.063 1.662v0m0.046-1.478v0m0.6-2.401v0m-0.6-0.277v0m-4.48 4.249v0m-0.277 2.262v0m-0.185-4.756v0m1.571 1.385v0m-1.755 0.277v0m1.2 4.295v0m0.324 0.601v0m1.708-4.803v0m1.247 3.694v0m-0.646 2.125v0m-3.372-0.509v0m-0.23 2.91v0m2.955-3.464v0m1.524 4.942v0m0.139-3.233v0m0.461-2.678v0m-1.154-2.356v0m0.693 0.647v0m0.508 6.234v0m-2.263 1.894v0m-0.508-4.618v0m-2.032 4.294v0m0-2.863v0m3.879-7.019v0m-4.341 4.202v0m0-2.309v0m5.311 3.556v0m0.323-4.664v0m-6.281 8.174v0m6.327-2.309v0m-4.295 3.002v0m2.032-13.67v0m-0.554 1.94v0m-0.877-1.478v0m2.124 1.062v0m1.108 0.508v0m-2.955 3.741v0m0.092-0.97v0m0.554 2.494v0m-0.831 0.23v0m-0.6-0.785v0m2.17-0.461v0m-1.385 7.204v0m-1.108-3.325v0m1.2 1.524v0m-0.831 0.415v0m2.263-0.831v0m0.092 0.693v0m-0.6 0.785v0m2.263 0.508v0m1.2 1.385v0m-1.246-0.184v0m0.461 1.154v0m0.693 0.924v0m-6.881-0.693v0m4.572-0.416v0m1.709 1.617v0m-3.371-1.247v0m-0.555 1.616v0m3.602 1.016v0m1.063-0.785v0m-0.785 2.309v0m0.738 0.37v0m-4.618-1.478v0m-1.662 1.062v0m1.478 0.046v0m2.401 0.601v0m0.277-0.601v0m-4.249-4.479v0m-2.262-0.277v0m5.264-0.508v0m-1.339 1.708v0m-0.831-1.57v0m-0.093 3.233v0m-3.694 1.247v0m2.263-0.324v0m-0.647 0.693v0m2.078-0.416v0m-1.893-4.341v0m1.108 5.635v0m4.803-2.217v0m-1.939-0.554v0m1.477-0.878v0m-1.062 2.125v0m-0.508 1.108v0m-3.741-2.956v0m0.97 0.093v0m-2.494 0.554v0m-0.23-0.831v0m0.785-0.601v0m0.461 2.171v0m7.713 2.401v0m-1.247-0.185v0m0.462 1.155v0m0.692 0.924v0m-6.881-0.693v0m4.572-0.416v0m1.709 1.617v0m-2.817-0.878v0m-1.616 1.109v0m5.172 0.369v0m-6.419-2.171v0m-2.263-0.277v0m5.265-0.508v0m-1.34 1.709v0m-0.831-1.57v0m-0.092 3.233v0m-1.894-3.141v0m3.972 2.864v0m1.478-0.878v0m-5.311 0.277v0m0.97 0.093v0m-2.494 0.554v0m-0.231-0.832v0m0.785-0.6v0m18.565-6.881v0m-1.663-0.646v0m-1.2 0.831v0m-0.601 0.323v0m1.109 2.956v0m-2.125-0.647v0m0.508-3.371v0m-3.556-0.185v0m4.11 2.91v0m-4.941 1.524v0m3.233 0.138v0m2.678 0.462v0m2.355-1.155v0m-0.646 0.693v0m-6.235 0.508v0m-1.893-2.263v0m4.618-0.508v0m-4.71-2.032v0m3.509-0.462v0m2.587 0v0m2.309 0v0m-3.556 5.311v0m-1.201 0.37v0m-3.002-4.295v0m7.897 0.877v0m-1.524 0.647v0m-0.231-0.831v0m0.785-0.601v0m0.462 2.171v0m-7.204-1.386v0m3.325-1.108v0m-0.877 1.154v0m-1.063-0.785v0m0.832 2.263v0m-1.201 0.508v0m0.046-1.154v0m-0.831 2.401v0m7.712 1.709v0m0.6-0.37v0m-2.262-0.277v0m-1.201 0.832v0m-0.601 0.323v0m-0.508-1.062v0m-2.909-0.231v0m3.464 2.955v0m-5.45-0.092v0m4.618-0.508v0m-4.71-2.032v0m3.51-0.462v0m2.586 0v0m2.309 0v0m-7.435-0.046v0m-0.324 1.432v0m7.897 0.877v0m0.97 0.093v0m-2.494 0.554v0m-0.23-0.832v0m0.785-0.6v0m-6.743 0.785v0m3.325-1.108v0m-1.524 1.201v0m-0.415-0.832v0m-0.647 1.755v0m-1.524-23.737v0m1.478-0.831v0m-0.323 2.632v0m1.431 6.789v0m-2.724-3.372v0m2.355-2.632v0m-1.663 3.418v0m-0.831-2.217v0m0-2.586v0" fill="none" stroke="#000" stroke-linecap="round" stroke-width=".369"/>
    </g>
    <g transform="translate(87.231 244.81)">
     <path d="m0 0v0m-0.647 7.066v0m2.032 0.692v0m0.693-6.142v0m-1.247-2.263v0m1.432 8.221v0m-1.108-3.325v0m1.2 1.524v0m-0.831 0.415v0m-1.339 4.249v0m1.431 0.924v0m0.508 1.57v0m-1.662 1.062v0m1.478 0.046v0m-1.571-4.479v0m1.663 0.923v0m-0.831-1.57v0m-0.093 3.233v0m-1.431 0.923v0m-0.647 0.693v0m2.078-0.416v0m-1.893-4.341v0m1.108 5.634v0m-0.97-3.371v0m0.97 0.093v0m-1.524 0.831v0m-8.22-12.515v0m0.831 1.2v0m0.324 0.601v0m-1.063 0.508v0m-0.231 2.909v0m-0.046 2.032v0m-0.092-3.463v0m0-2.587v0m0-2.309v0m1.385 7.759v0m0.093-6.927v0m-0.324 3.417v0m0.37 1.94v0m-1.755 3.74v0m1.847 1.432v0m-0.785 4.202v0m-0.185-5.541v0m0.555-1.109v0m-0.093 3.233v0m-1.431 0.924v0m1.431 0.277v0m-0.785 1.293v0m0-3.279v0m8.544-8.821v0m0.323 2.078v0m-0.462-3.509v0m-0.646 2.17v0m1.801-2.817v0m-0.924 4.757v0m-0.877 2.355v0m3.417-7.897v0m8.128 26.323v0m-0.092-2.54v0m26.298-22.989v0m-1.247-0.185v0m0.462 1.155v0m0.693 0.923v0m-6.881-0.692v0m4.572-0.416v0m1.709 1.616v0m-3.372-1.247v0m-1.062 1.478v0m4.11 1.155v0m1.063-0.785v0m-0.786 2.309v0m0.739 0.369v0m-4.618-1.478v0m-1.662 1.062v0m1.478 0.047v0m2.401 0.6v0m0.462-1.108v0m-3.787-3.51v0m-2.91-0.739v0m5.265-0.508v0m-0.877 1.893v0m-1.293-1.754v0m-4.295 1.2v0m-0.601 0.324v0m4.803 1.708v0m-3.694 1.247v0m-1.57-0.138v0m-0.047-3.88v0m-2.909-0.231v0m3.464 2.956v0m-4.942 1.524v0m3.233 0.139v0m2.678 0.461v0m2.356-1.154v0m-0.647 0.693v0m-6.234 0.508v0m-1.894-2.263v0m4.618-0.508v0m-4.71-2.032v0m3.51-0.462v0m6.788 4.341v0m-4.202-4.341v0m2.263-0.462v0m-3.51 5.773v0m4.064 0.508v0m-5.265-0.139v0m-3.002-4.295v0m13.67 2.032v0m-1.94-0.554v0m1.478-0.877v0m-1.062 2.124v0m-0.508 1.108v0m-3.741-2.955v0m0.97 0.092v0m-2.632 0.97v0m-0.093-1.247v0m0.786-0.6v0m0.461 2.17v0m-7.204-1.385v0m3.325-1.109v0m-1.524 1.201v0m-0.415-0.831v0m0.831 2.263v0m-1.201 0.508v0m-0.277-1.016v0m-0.508 2.263v0m14.87 13.854v0m-1.247-0.185v0m0.462 1.155v0m0.693 0.923v0m-6.881-0.692v0m4.572-0.416v0m1.709 1.616v0m-2.817-0.923v0m-1.617 1.154v0m4.11 1.155v0m1.063-0.785v0m-0.786 2.309v0m0.739 0.369v0m-4.618-1.477v0m-1.662 1.062v0m1.478 0.046v0m2.401 0.6v0m0.277-0.6v0m-4.249-4.48v0m-2.263-0.277v0m5.265-0.508v0m-1.339 1.709v0m-0.554-1.201v0m-4.572 0.831v0m-0.601 0.324v0m4.803 1.708v0m-3.694 1.247v0m-2.125-0.646v0m0.508-3.371v0m-2.909-0.231v0m3.464 2.955v0m-4.942 1.524v0m3.233 0.139v0m2.678 0.462v0m2.356-1.155v0m-0.647 0.693v0m-6.234 0.508v0m-1.894-2.263v0m4.618-0.508v0m-4.71-2.032v0m3.51-0.462v0m6.788 4.341v0m-4.202-4.341v0m2.309 0v0m-3.556 5.311v0m4.664 0.323v0m-8.174-6.28v0m2.309 6.326v0m-3.002-4.294v0m13.67 2.032v0m-1.94-0.555v0m1.478-0.877v0m-1.062 2.124v0m-0.508 1.109v0m-3.741-2.956v0m0.97 0.092v0m-2.494 0.555v0m-0.231-0.832v0m0.786-0.6v0m0.461 2.17v0m-7.204-1.385v0m3.325-1.108v0m-1.154 1.154v0m-0.785-0.785v0m0.831 2.263v0m-1.201 0.508v0m-0.277-1.016v0m-0.508 2.263v0m14.87-16.902v0m-1.247-0.185v0m0.462 1.154v0m0.693 0.924v0m-6.881-0.693v0m4.572-0.415v0" fill="none" stroke="#000" stroke-linecap="round" stroke-width=".369"/>
    </g>
    <g transform="translate(122.67 254.84)">
     <path d="m0 0v0m-3.187-0.647v0m-1.246 0.878v0m4.11 1.154v0m1.062-0.785v0m-0.785 2.309v0m0.739 0.37v0m-4.618-1.478v0m-1.663 1.062v0m1.478 0.046v0m2.401 0.601v0m0.277-0.601v0m-4.248-4.479v0m-2.263-0.277v0m4.756-0.185v0m-1.385 1.57v0m-0.277-1.755v0m-4.295 1.201v0m-0.6 0.323v0m4.803 1.709v0m-3.695 1.247v0m-2.124-0.647v0m0.508-3.371v0m-2.91-0.231v0m3.464 2.956v0m-4.941 1.524v0m3.232 0.138v0m2.679 0.462v0m2.355-1.154v0m-0.647 0.692v0m-6.234 0.508v0m-1.893-2.263v0m4.618-0.508v0m-4.295-2.032v0m2.863 0v0m7.02 3.88v0m-4.203-4.341v0m2.309 0v0m-3.556 5.31v0m4.665 0.324v0m-8.175-6.281v0m2.31 6.327v0m-3.002-4.295v0m13.669 2.032v0m-1.939-0.554v0m1.478-0.878v0m-1.063 2.125v0m-0.508 1.108v0m-3.74-2.955v0m0.97 0.092v0m-2.494 0.554v0m-0.231-0.831v0m0.785-0.601v0m0.462 2.171v0m-7.205-1.385v0m3.326-1.109v0m-1.524 1.201v0m-0.416-0.831v0m0.831 2.263v0m-0.693 0.092v0m-0.785-0.6v0m-0.508 2.262v0m-1.385 1.201v0m0.185-1.247v0m-1.155 0.462v0m-0.924 0.693v0m0.693-6.881v0m0.416 4.572v0m-1.616 1.708v0m1.246-3.371v0m-1.616-0.554v0m-1.016 3.602v0m0.785 1.062v0m-2.309-0.785v0m-0.369 0.739v0m1.477-4.618v0m-1.062-1.663v0m-0.046 1.478v0m-0.6 2.402v0m0.6 0.277v0m4.48-4.249v0m0.277-2.263v0m0.508 5.265v0m-1.709-1.339v0m1.57-0.832v0m-1.201-4.294v0m-0.323-0.601v0m-1.708 4.803v0m-1.247-3.694v0m0.646-2.125v0m3.371 0.508v0m0.231-2.909v0m-2.955 3.463v0m-1.524-4.941v0m-0.139 3.233v0m-0.462 2.678v0m1.155 2.355v0m-0.693-0.646v0m-0.508-6.235v0m2.263-1.893v0m0.508 4.618v0m3.417-4.572v0m-0.923 3.371v0m-4.341 6.789v0m4.341-4.202v0m0 2.309v0m-5.311-3.556v0m-0.323 4.664v0m17.641-8.728v0m-17.687 2.863v0m4.294-3.002v0m-2.032 13.67v0m0.555-1.94v0m0.877 1.478v0m-2.124-1.062v0m-1.109-0.508v0m2.956-3.741v0m-0.092 0.97v0m-0.555-2.494v0m0.832-0.231v0m0.6 0.785v0m-2.17 0.462v0m1.385-7.204v0m1.108 3.325v0m-1.2-1.524v0m0.831-0.416v0m-2.263 0.832v0m-0.508-1.201v0m1.016-0.277v0m-2.263-0.508v0m-0.508 14.685v0m0.185-1.247v0m-1.155 0.462v0m-0.923 0.693v0m0.692-6.881v0m0.416 4.572v0m-1.616 1.709v0m0.877-2.817v0m-1.108-1.617v0m-0.37 5.173v0m2.171-6.42v0m0.277-2.262v0m0.508 5.264v0m-1.709-1.339v0m1.57-0.831v0m-1.2-4.295v0m-0.324-0.601v0m-1.708 4.803v0m2.771-5.311v0m0.23-2.909v0m-2.955 3.464v0m0.092-5.45v0m0.508 4.618v0m2.032-4.71v0m0.462 3.51v0m0 2.586v0m0 2.309v0m-0.416-7.158v0m-0.969-0.601v0m-1.478 11.73v0m0.877 1.478v0m-0.277-5.311v0m-0.092 0.97v0m-0.554-2.494v0m0.831-0.23v0m0.6 0.785v0m-0.785-6.743v0m1.108 3.325v0m-1.2-1.524v0m0.831-0.415v0m-1.755-0.647v0m8.682 24.568v0m0.647-1.662v0m-0.832-1.201v0m-0.323-0.6v0m-2.955 1.108v0m0.646-2.124v0m3.371 0.508v0m0.185-3.556v0m-2.909 4.11v0m-1.524-4.941v0m-0.139 3.232v0m-0.462 2.679v0m1.155 2.355v0m-0.693-0.646v0m-0.508-6.235v0m2.263-1.893v0m0.508 4.618v0m2.032-4.711v0m0.462 3.51v0m0 2.586v0m0 2.309v0m-5.311-3.556v0m-0.369-1.2v0m4.294-3.002v0m-0.877 7.897v0m-0.647-1.524v0m0.832-0.231v0m0.6 0.785v0m-2.17 0.462v0" fill="none" stroke="#000" stroke-linecap="round" stroke-width=".369"/>
    </g>
    <g transform="translate(104.57 261.35)">
     <path d="m0 0v0m1.108 3.325v0m-1.154-0.877v0m0.785-1.063v0m-2.263 0.832v0m-0.508-1.201v0m1.155 0.046v0m-2.402-0.831v0m-1.709 7.712v0m0.37 0.601v0m0.277-2.263v0m-0.831-1.201v0m-0.324-0.6v0m1.063-0.508v0m0.231-2.91v0m-2.956 3.464v0m0.092-5.45v0m0.508 4.619v0m2.032-4.711v0m0.462 3.51v0m0 2.586v0m0 2.309v0m0.046-7.435v0m-1.431-0.323v0m-0.878 7.897v0m-0.092 0.969v0m-0.554-2.493v0m0.831-0.231v0m0.6 0.785v0m-0.785-6.743v0m1.109 3.325v0m-1.201-1.524v0m0.831-0.415v0m-1.755-0.647v0m23.737-1.524v0m0.832 1.478v0m-2.633-0.323v0m-6.788 1.431v0m3.371-2.724v0m2.632 2.355v0m-3.417-1.663v0m2.216-0.831v0m2.587 0v0m2.309 0v0m-7.066-0.646v0m-0.693 2.032v0m6.142 0.692v0m2.263-1.247v0m-8.22 1.432v0m3.325-1.108v0m-1.524 1.2v0m-0.416-0.831v0m-4.248-1.339v0m-0.924 1.431v0m-1.57 0.508v0m-1.062-1.662v0m-0.046 1.478v0m4.479-1.57v0m-0.923 1.662v0m1.57-0.831v0m-3.233-0.093v0m-0.924-1.431v0m-0.692-0.647v0m0.415 2.078v0m4.341-1.893v0m-5.634 1.108v0m3.371-0.969v0m-0.092 0.969v0m-0.831-1.524v0m12.515-8.22v0m-1.201 0.831v0m-0.6 0.324v0m-0.508-1.063v0m-2.91-0.23v0m-2.032-0.047v0m3.464-0.092v0m2.586 0v0m2.309 0v0m-7.758 1.385v0m6.927 0.093v0m-3.417-0.323v0m-1.94 0.369v0m-3.741-1.755v0m-1.431 1.847v0m-4.203-0.785v0m5.542-0.184v0m1.108 0.554v0m-3.232-0.093v0m-0.924-1.431v0m-0.277 1.431v0m-1.293-0.785v0m3.279 0v0m8.82 8.544v0m-2.078 0.323v0m3.51-0.462v0m-2.171-0.646v0m2.817 1.801v0m-4.756-0.924v0m-2.355-0.877v0m-17.78-15.24v0m25.677 1.663v0m0 16.994v0m-26.324 8.128v0m2.54-0.092v0m-0.092-26.647v0m23.082 52.945v0m0.185-1.246v0m-1.155 0.461v0m-0.924 0.693v0m0.693-6.881v0m0.416 4.572v0m-1.617 1.709v0m1.247-3.371v0m-1.478-1.063v0m-1.154 4.11v0m0.785 1.063v0m-2.309-0.785v0m-0.369 0.738v0m1.477-4.618v0m-1.062-1.662v0m-0.046 1.478v0m-0.6 2.401v0m1.108 0.462v0m3.51-3.787v0m0.739-2.909v0m0.508 5.264v0m-1.894-0.877v0m1.755-1.293v0m-1.201-4.295v0m-0.323-0.6v0m-1.709 4.802v0m-1.246-3.694v0m0.138-1.57v0m3.879-0.046v0m0.231-2.91v0m-2.955 3.464v0m-1.524-4.942v0m-0.139 3.233v0m-0.462 2.678v0m1.155 2.356v0m-0.693-0.647v0m-0.508-6.234v0m2.263-1.894v0m0.508 4.618v0m2.032-4.71v0m0.462 3.51v0m-4.341 6.788v0m4.341-4.202v0m0.462 2.263v0m-5.773-3.51v0m-0.508 4.064v0m0.138-5.265v0m4.295-3.002v0m-2.032 13.67v0m0.555-1.939v0m0.877 1.477v0m-2.124-1.062v0m-1.109-0.508v0m2.956-3.741v0m-0.093 0.97v0m-0.969-2.632v0m1.247-0.092v0m0.6 0.785v0m-2.171 0.461v0m1.386-7.204v0m1.108 3.325v0m-1.201-1.524v0m0.832-0.415v0m-2.263 0.831v0m-0.508-1.201v0m1.016-0.277v0m-2.263-0.508v0m-13.854 14.87v0m0.184-1.246v0m-1.154 0.461v0m-0.924 0.693v0m0.693-6.881v0m0.416 4.572v0m-1.617 1.709v0m0.924-2.817v0m-1.155-1.617v0m-1.154 4.11v0m0.785 1.063v0m-2.309-0.785v0m-0.37 0.738v0m1.478-4.618v0m-1.062-1.662v0m-0.046 1.478v0m-0.601 2.401v0m0.601 0.277v0m4.479-4.249v0m0.277-2.262v0m0.508 5.264v0m-1.708-1.339v0m1.2-0.554v0m-0.831-4.572v0m-0.323-0.6v0m-1.709 4.802v0m-1.247-3.694v0m0.647-2.124v0" fill="none" stroke="#000" stroke-linecap="round" stroke-width=".369"/>
    </g>
    <g transform="translate(102.71 285.3)">
     <path d="m0 0v0m0.231-2.909v0m-2.956 3.463v0m-1.524-4.941v0m-0.138 3.232v0m-0.462 2.679v0m1.154 2.355v0m-0.692-0.646v0m-0.508-6.235v0m2.263-1.893v0m0.508 4.618v0m2.032-4.711v0m0.461 3.51v0m-4.341 6.789v0m4.341-4.203v0m0 2.309v0m-5.31-3.556v0m-0.324 4.665v0m6.281-8.174v0m-6.327 2.309v0m4.295-3.002v0m-2.032 13.67v0m0.554-1.94v0m0.878 1.478v0m-2.125-1.062v0m-1.108-0.508v0m2.956-3.741v0m-0.093 0.97v0m-0.554-2.494v0m0.831-0.231v0m0.601 0.785v0m-2.171 0.462v0m1.386-7.204v0m1.108 3.325v0m-1.155-1.155v0m0.785-0.785v0m-2.262 0.831v0m-0.508-1.2v0m1.016-0.277v0m-2.263-0.508v0m16.902 14.87v0m0.185-1.247v0m-1.155 0.462v0m-0.923 0.693v0m0.692-6.881v0m0.416 4.571v0m-1.616 1.709v0m0.646-3.186v0m-0.877-1.247v0m-1.155 4.11v0m0.785 1.062v0m-2.309-0.785v0m-0.369 0.739v0m1.478-4.618v0m-1.063-1.663v0m-0.046 1.478v0m-0.6 2.401v0m0.6 0.278v0m4.48-4.249v0m0.277-2.263v0m0.185 4.757v0m-1.571-1.386v0m1.755-0.277v0m-1.2-4.295v0m-0.324-0.6v0m-1.708 4.803v0m-1.247-3.695v0m0.646-2.124v0m3.371 0.508v0m0.231-2.909v0m-2.955 3.463v0m-1.524-4.941v0m-0.139 3.232v0m-0.462 2.679v0m1.155 2.355v0m-0.693-0.646v0m-0.508-6.235v0m2.263-1.893v0m0.508 4.618v0m2.032-4.295v0m0 2.863v0m-3.879 7.02v0m4.341-4.203v0m0 2.309v0m-5.311-3.556v0m-0.323 4.665v0m6.28-8.174v0m-6.326 2.309v0m4.294-3.002v0m-2.031 13.67v0m0.554-1.94v0m0.877 1.478v0m-2.124-1.062v0m-1.109-0.508v0m2.956-3.741v0m-0.092 0.97v0m-0.554-2.494v0m0.831-0.231v0m0.6 0.785v0m-2.17 0.462v0m1.385-7.204v0m1.108 3.325v0m-1.2-1.524v0m0.831-0.416v0m-2.263 0.831v0m-0.092-0.692v0m0.6-0.785v0m-2.263-0.508v0m-1.201-1.386v0m1.247 0.185v0m-0.461-1.155v0m-0.693-0.923v0m6.881 0.692v0m-4.572 0.416v0m-1.709-1.616v0m3.371 1.247v0m0.555-1.617v0m-3.603-1.016v0m-1.062 0.785v0m0.785-2.309v0m-0.739-0.369v0m4.619 1.478v0m1.662-1.063v0m-1.478-0.046v0m-2.401-0.6v0m-0.277 0.6v0m4.248 4.48v0m2.263 0.277v0m-5.264 0.508v0m1.339-1.709v0m0.831 1.57v0m4.295-1.2v0m0.6-0.324v0m-4.802-1.708v0m3.694-1.247v0m2.124 0.646v0m-0.508 3.372v0m2.91 0.23v0m-3.464-2.955v0m4.942-1.524v0m-3.233-0.139v0m-2.679-0.461v0m-2.355 1.154v0m0.647-0.693v0m6.234-0.508v0m1.894 2.263v0m-4.618 0.508v0m4.571 3.418v0m-3.371-0.924v0m-6.788-4.341v0m4.202 4.341v0m-2.309 0v0m3.556-5.311v0m-4.664-0.323v0m8.728 17.641v0m-2.863-17.687v0m3.001 4.295v0m-13.669-2.032v0m1.939 0.554v0m-1.477 0.877v0m1.062-2.124v0m0.508-1.108v0m3.74 2.955v0m-0.969-0.092v0m2.493-0.554v0m0.231 0.831v0m-0.785 0.6v0m-0.462-2.17v0m7.205 1.385v0m-3.325 1.109v0m1.524-1.201v0m0.415 0.831v0m-0.831-2.263v0m1.201-0.508v0m0.277 1.016v0m0.508-2.263v0m-14.686-0.508v0m1.247 0.185v0m-0.462-1.154v0m-0.692-0.924v0m6.881 0.693v0m-4.572 0.415v0m-1.709-1.616v0m2.817 0.877v0m1.616-1.108v0m-5.172-0.369v0m6.419 2.17v0m2.263 0.277v0m-5.265 0.508v0m1.34-1.709v0m0.831 1.571v0m4.295-1.201v0m0.6-0.323v0m-4.803-1.709v0m5.311 2.771v0m2.91 0.231v0m-3.464-2.956v0m5.449 0.092v0m-4.618 0.508v0m4.711 2.032v0" fill="none" stroke="#000" stroke-linecap="round" stroke-width=".369"/>
    </g>
    <g transform="translate(120.03 273.38)">
     <path d="m0 0v0m-2.586 0v0m-2.309 0v0m7.158-0.416v0m0.6-0.969v0m-11.73-1.478v0m-1.478 0.877v0m5.311-0.277v0m-0.97-0.092v0m2.494-0.554v0m0.231 0.831v0m-0.785 0.6v0m6.743-0.785v0m-3.326 1.108v0m1.524-1.2v0m0.416 0.831v0m0.647-1.755v0m-24.569 8.682v0m1.663 0.647v0m1.2-0.832v0m0.601-0.323v0m-1.109-2.955v0m2.125 0.646v0m-0.508 3.371v0m3.556 0.185v0m-4.11-2.909v0m4.941-1.524v0m-3.233-0.139v0m-2.678-0.462v0m-2.355 1.155v0m0.646-0.693v0m6.235-0.508v0m1.893 2.263v0m-4.618 0.508v0m4.71 2.032v0m-3.509 0.462v0m-2.587 0v0m-2.309 0v0m3.556-5.311v0m1.201-0.369v0m3.002 4.294v0m-7.897-0.877v0m1.524-0.647v0m0.231 0.832v0m-0.785 0.6v0m-0.462-2.171v0m7.204 1.386v0m-3.325 1.108v0m0.877-1.154v0m1.063 0.785v0m-0.832-2.263v0m1.201-0.508v0m-0.046 1.154v0m0.831-2.401v0m-7.712-1.709v0m-0.6 0.37v0m2.262 0.277v0m1.201-0.831v0m0.601-0.324v0m0.508 1.063v0m2.909 0.23v0m-3.464-2.955v0m5.45 0.092v0m-4.618 0.508v0m4.71 2.032v0m-3.51 0.462v0m-2.586 0v0m-2.309 0v0m7.435 0.046v0m0.324-1.431v0m-7.897-0.878v0m-0.97-0.092v0m2.494-0.554v0m0.23 0.831v0m-0.785 0.6v0m6.743-0.785v0m-3.325 1.108v0m1.524-1.2v0m0.415 0.831v0m0.647-1.755v0m1.524 23.737v0m-1.478 0.832v0m0.323-2.633v0m-1.431-6.788v0m2.724 3.371v0m-2.355 2.632v0m1.663-3.417v0m0.831 2.216v0m0 2.587v0m0 2.309v0m0.647-7.066v0m-2.032-0.693v0m-0.693 6.142v0m1.247 2.263v0m-1.432-8.22v0m1.108 3.325v0m-1.2-1.524v0m0.831-0.416v0m1.339-4.248v0m-1.431-0.924v0m-0.508-1.57v0m1.662-1.062v0m-1.478-0.046v0m1.571 4.479v0m-1.663-0.924v0m0.831 1.571v0m0.093-3.233v0m1.431-0.924v0m0.647-0.692v0m-2.078 0.415v0m1.893 4.341v0m-1.108-5.634v0m0.97 3.371v0m-0.97-0.092v0m1.524-0.831v0m8.22 12.515v0m-0.831-1.201v0m-0.324-0.6v0m1.063-0.508v0m0.23-2.91v0m0.047-2.032v0m0.092 3.464v0m0 2.586v0m0 2.309v0m-1.385-7.758v0m-0.093 6.927v0m0.324-3.417v0m-0.37-1.94v0m1.755-3.741v0m-1.847-1.431v0m0.785-4.203v0m0.185 5.542v0m-0.555 1.108v0m0.093-3.232v0m1.431-0.924v0m-1.431-0.277v0m0.785-1.293v0m0 3.279v0m-8.544 8.82v0m-0.323-2.078v0m0.462 3.51v0m0.646-2.171v0m-1.801 2.817v0m0.924-4.756v0m0.877-2.356v0m15.24-17.779v0m-1.662 25.677v0m-16.995 0v0m-8.128-26.324v0m0.092 2.54v0m26.647-0.092v0" fill="none" stroke="#000" stroke-linecap="round" stroke-width=".369"/>
    </g>
   </g>
  </g>
  <g transform="matrix(.35278 0 0 -.35278 93.266 252.04)">
   <g clip-path="url(#clipPath32775)">
    <g transform="translate(123.76 276.24)">
     <path d="m0 0v0m1.247 0.185v0m-0.462-1.155v0m-0.693-0.923v0m2.309 1.108v0m-1.708-1.616v0m2.817 0.923v0m-2.494-2.309v0m-1.062 0.785v0m0.785-2.309v0m-0.739-0.369v0m2.401-0.231v0m-0.277 0.6v0m1.247 5.265v0m-1.755-3.648v0m1.94 0.554v0m-1.478 0.877v0m1.062-2.124v0m0.508-1.109v0m-3.648 16.579v0m1.247 0.185v0m-0.462-1.154v0m-0.693-0.924v0m2.309 1.108v0m-1.708-1.616v0m3.186 0.647v0m-2.863-2.032v0m-1.062 0.785v0m0.785-2.309v0m-0.739-0.37v0m2.401-0.231v0m-0.277 0.601v0m1.755 4.941v0m-2.263-3.325v0m1.94 0.554v0m-1.478 0.878v0m1.062-2.125v0m0.508-1.108v0m-1.247-2.448v0m-0.831-1.477v0m2.032 1.754v0m-2.309 0v0m1.616-2.078v0m-2.262 1.247v0m1.524 9.421v0m0.6-0.323v0m-2.078-0.046v0m3.417 0.323v0m-1.709-7.712v0m-1.431 0.138v0m2.17 0.647v0m-2.817-1.801v0m-0.785-1.617v0m1.995-27.36v0m-0.647 1.662v0m0.831 1.201v0m0.324 0.6v0m-1.063 0.508v0m-0.23 2.91v0m2.955-3.464v0m-0.092 5.45v0m-0.508-4.619v0m-2.032 4.711v0m-0.462-3.51v0m0-2.586v0m-0.462-2.263v0m1.847 7.712v0m0.878-7.897v0m0.092-0.969v0m0.97 2.632v0m-1.247 0.092v0m-0.6-0.785v0m0.785 6.743v0m-1.108-3.325v0m1.2 1.524v0m-0.831 0.415v0m1.755 0.647v0m-1.801 2.309v0m-1.478 4.479v0m3.233 0.139v0m-1.848 0.508v0m-1.893-2.263v0m0.046-3.925v0m3.371 0.923v0m0.139 5.681v0m-3.002-4.295v0m0.185 0.877v0m1.801 0.093v0m-0.416-0.832v0m0.832 2.263v0m-1.201 0.508v0m-0.277-1.016v0m-0.508 2.263v0m0.831 0.924v0m-1.986 2.863v0m-0.092-2.54v0m3.51-0.462v0m-2.263 0.416v0m-0.601 0.97v0m0.185 0.877v0m3.325-1.108v0m-1.524 1.2v0m-0.415-0.831v0m-0.647 1.755v0m-1.662-0.924v0m0.046-1.801v0" fill="none" stroke="#000" stroke-linecap="round" stroke-width=".369"/>
    </g>
   </g>
  </g>
  <g transform="matrix(.35278 0 0 -.35278 93.266 252.04)">
   <g clip-path="url(#clipPath32787)">
    <g transform="translate(90.648 296.63)">
     <path d="m0 0v0m-0.185 1.247v0m1.155-0.462v0m0.923-0.693v0m-0.692 6.881v0m-0.416-4.572v0m1.616-1.708v0m-0.923 2.817v0m1.154 1.616v0m1.155-4.11v0m-0.785-1.062v0m2.309 0.785v0m0.369-0.739v0m-1.478 4.618v0m1.063 1.663v0m0.046-1.478v0m0.6-2.402v0m-0.6-0.277v0m-4.48 4.249v0m-0.277 2.263v0m-0.508-5.265v0m1.709 1.339v0m-1.201 0.555v0m0.831 4.572v0m0.324 0.6v0m1.708-4.803v0m1.247 3.695v0m-0.646 2.124v0m-3.371-0.508v0m-0.231 2.909v0m2.955-3.463v0m1.524 4.941v0m0.139-3.233v0m0.462-2.678v0m-1.155-2.355v0m0.693 0.646v0m0.508 6.235v0m-2.263 1.893v0m-0.508-4.618v0m-2.032 4.71v0m-0.462-3.509v0m4.341-6.789v0m-4.341 4.203v0m0-2.309v0m5.311 3.555v0m0.323-4.664v0m-6.28 8.174v0m6.326-2.309v0m-4.294 3.002v0m2.031-13.67v0m-0.554 1.94v0m-0.877-1.478v0m2.124 1.062v0m1.109 0.508v0m-2.956 3.741v0m0.092-0.97v0m0.555 2.494v0m-0.832 0.231v0m-0.6-0.785v0m2.17-0.462v0m-1.385 7.204v0m-1.108-3.325v0m1.154 1.155v0m-0.785 0.785v0m2.263-0.831v0m0.508 1.2v0m-1.016 0.277v0m2.263 0.508v0m-16.902-14.87v0m-0.185 1.247v0m1.154-0.462v0m0.924-0.693v0m-0.693 6.881v0m-0.415-4.572v0m1.616-1.708v0m-0.647 3.186v0m0.878 1.247v0m1.154-4.11v0m-0.785-1.062v0m2.309 0.785v0m0.37-0.739v0m-1.478 4.618v0m1.062 1.663v0m0.046-1.478v0m0.601-2.402v0m-0.601-0.277v0m-4.479 4.249v0m-0.277 2.263v0m-0.185-4.757v0m1.57 1.386v0m-1.755 0.277v0m1.201 4.295v0m0.323 0.6v0m1.709-4.803v0m1.247 3.695v0m-0.647 2.124v0m-3.371-0.508v0m-0.231 2.909v0m2.956-3.463v0m1.524 4.941v0m0.138-3.233v0m0.462-2.678v0m-1.154-2.355v0m0.692 0.646v0m0.508 6.235v0m-2.263 1.893v0m-0.508-4.618v0m-2.032 4.295v0m0-2.863v0m3.88-7.02v0m-4.341 4.203v0m0-2.309v0m5.31 3.555v0m0.324-4.664v0m-6.281 8.174v0m6.327-2.309v0m-4.295 3.002v0m2.032-13.67v0m-0.554 1.94v0m-0.878-1.478v0m2.125 1.062v0m1.108 0.508v0m-2.956 3.741v0m0.093-0.97v0m0.554 2.494v0m-0.831 0.231v0m-0.601-0.785v0m2.171-0.462v0m-1.386 7.204v0m-1.108-3.325v0m1.201 1.524v0m-0.831 0.416v0m2.262-0.831v0m0.093 0.692v0m-0.601 0.785v0m2.263 0.508v0m1.201 1.386v0m-1.247-0.185v0m0.462 1.155v0m0.693 0.923v0m-6.881-0.693v0m4.572-0.415v0m1.708 1.616v0m-3.371-1.247v0m-0.554 1.617v0m3.602 1.016v0m1.062-0.785v0m-0.785 2.309v0m0.739 0.369v0m-4.618-1.478v0m-1.663 1.062v0m1.478 0.047v0m2.402 0.6v0m0.277-0.6v0m-4.249-4.48v0m-2.263-0.277v0m5.265-0.508v0m-1.339 1.709v0m-0.832-1.571v0m-0.092 3.233v0m-1.432 0.924v0m-0.646 0.693v0m2.078-0.416v0m-1.893-4.341v0m1.108 5.634v0m4.803-2.217v0m-1.94-0.554v0m1.478-0.877v0m-1.062 2.124v0m-0.508 1.108v0m-3.741-2.955v0m0.97 0.092v0m-2.494 0.554v0m-0.231-0.831v0m0.785-0.6v0m0.462 2.17v0m7.712 2.402v0m-1.247-0.185v0m-2.124 0.231v0m13.577-5.173v0m-1.662-0.646v0m-1.201 0.831v0m-0.6 0.323v0m1.108 2.956v0m-2.124-0.646v0m0.508-3.372v0m-3.556-0.184v0m4.11 2.909v0m-4.941 1.524v0m3.232 0.139v0m2.679 0.461v0m2.355-1.154v0m-0.647 0.693v0m-6.234 0.508v0m-1.893-2.263v0m4.618-0.508v0m-4.711-2.032v0m3.51-0.462v0m2.586 0v0m2.309 0v0" fill="none" stroke="#000" stroke-linecap="round" stroke-width=".369"/>
    </g>
    <g transform="translate(92.495 318.48)">
     <path d="m0 0v0m-1.201 0.369v0m-3.001-4.294v0m7.897 0.877v0m-1.524 0.647v0m-0.231-0.832v0m0.785-0.6v0m0.462 2.17v0m-7.205-1.385v0m3.325-1.108v0m-0.877 1.154v0m-1.062-0.785v0m0.831 2.263v0m-1.201 0.508v0m0.046-1.155v0m-0.831 2.402v0m-1.201-19.673v0m1.478-0.832v0m-0.323 2.633v0m1.432 6.788v0m-2.725-3.371v0m2.355-2.632v0m-1.662 3.417v0m-0.832-2.216v0m0-2.587v0m0-2.309v0m-0.646 7.066v0m2.032 0.693v0m0.692-6.142v0m-1.246-2.263v0m1.431 8.22v0m-1.108-3.325v0m1.201 1.524v0m-0.832 0.416v0m-1.339 4.248v0m1.432 0.924v0m0.508 1.57v0m-1.663 1.062v0m1.478 0.046v0m-1.57-4.479v0m1.662 0.923v0m-0.831-1.57v0m-0.092 3.233v0m-1.432 0.924v0m-0.646 0.692v0m2.078-0.415v0m-1.894-4.341v0m1.109 5.634v0m-0.97-3.371v0m0.97 0.092v0m-1.524 0.831v0m-8.221-12.515v0m0.832 1.201v0m0.323 0.6v0m-1.062 0.508v0m-0.231 2.91v0m-0.046 2.032v0m-0.093-3.464v0m0-2.586v0m0-2.309v0m1.386 7.758v0m0.092-6.927v0m-0.323 3.417v0m0.369 1.94v0m0.093 5.172v0m-0.785 4.203v0m-0.185-5.542v0m0.554-1.108v0m-0.092 3.232v0m0 1.201v0m-0.785 1.293v0m0-3.279v0m8.543-8.82v0m0.323 2.078v0m-0.461-3.51v0m-0.647 2.171v0m1.801-2.817v0m-0.924 4.756v0m-0.877 2.355v0m3.417-7.897v0m27.361 1.995v0m2.91-0.046v0m-1.062 1.478v0m0.508 1.57v0m-1.663 1.062v0m1.478 0.046v0m-0.924-4.018v0m-2.909-0.739v0m5.264-0.508v0m-0.877 1.894v0m-1.293-1.755v0m-4.295 1.201v0m-0.6 0.323v0m4.803 1.709v0m-3.695 1.246v0m-1.57-0.138v0m-0.046-3.879v0m-2.91-0.231v0m3.464 2.955v0m-4.941 1.524v0m3.232 0.139v0m2.679 0.462v0m2.355-1.155v0m-0.647 0.693v0m-6.234 0.508v0m-1.893-2.263v0m4.618-0.508v0m-4.711-2.032v0m3.51-0.462v0m6.789 4.341v0m-4.203-4.341v0m2.263-0.462v0m-3.51 5.773v0m4.064 0.508v0m-5.264-0.138v0m-3.002-4.295v0m11.73 1.478v0m0.415 1.246v0m-0.508 1.109v0m-3.74-2.956v0m0.969 0.093v0m-2.632 0.969v0m-0.092-1.247v0m0.785-0.6v0m0.462 2.171v0m-7.205-1.386v0m3.325-1.108v0m-1.523 1.201v0m-0.416-0.832v0m0.831 2.263v0m-1.201 0.508v0m-0.277-1.016v0m-0.508 2.263v0m7.897 15.055v0m3.464 0.277v0m-1.616 1.155v0m-1.247-1.801v0m-2.263-0.277v0m5.264-0.508v0m-1.339 1.708v0m-0.554-1.2v0m-4.572 0.831v0m-0.6 0.323v0m-0.508-1.062v0m-2.91-0.231v0m-2.078 0.323v0m3.51-0.462v0m2.586 0v0m2.309 0v0m-7.066-0.646v0m-0.692 2.032v0m7.897 0.877v0m0.969 0.093v0m-2.724-0.277v0m0.785-0.601v0m-6.743 0.785v0m3.325-1.108v0m-1.154 1.155v0m-0.785-0.786v0m6.742-11.683v0m3.094 0.554v0m-1.246 0.877v0m0.508 1.57v0m-1.663 1.063v0m1.478 0.046v0m-1.57-4.48v0m-2.263-0.277v0m4.756-0.185v0m-1.385 1.571v0m-0.277-1.755v0m-4.295 1.2v0m-0.6 0.324v0m4.803 1.708v0m-3.695 1.247v0m-2.124-0.646v0m0.508-3.372v0m-2.91-0.23v0m3.464 2.955v0m-4.941 1.524v0m3.232 0.139v0m2.679 0.461v0m2.355-1.154v0m-0.647 0.693v0m-6.234 0.508v0m-1.893-2.263v0m4.618-0.508v0m-4.295-2.032v0m2.863 0v0m7.02 3.879v0m-4.203-4.341v0m2.309 0v0m-3.556 5.311v0m4.664 0.323v0m-8.174-6.281v0m2.31 6.327v0m-3.002-4.295v0m11.73 1.478v0m0.415 1.247v0m-0.508 1.108v0m-3.74-2.955v0" fill="none" stroke="#000" stroke-linecap="round" stroke-width=".369"/>
    </g>
    <g transform="translate(116.95 308.19)">
     <path d="m0 0v0m-2.494 0.554v0m-0.231-0.831v0m0.785-0.6v0m0.462 2.17v0m-7.204-1.385v0m3.325-1.109v0m-1.524 1.201v0m-0.416-0.831v0m0.832 2.263v0m-0.693 0.092v0m-0.785-0.6v0m-0.508 2.262v0m-1.386 1.201v0m0.185-1.247v0m-1.154 0.462v0m-0.924 0.693v0m0.693-6.881v0m0.415 4.572v0m-1.616 1.708v0m1.247-3.371v0m-1.616-0.554v0m-1.016 3.602v0m0.785 1.062v0m-2.309-0.785v0m-0.37 0.739v0m1.478-4.618v0m-1.062-1.662v0m-0.046 1.477v0m-0.601 2.402v0m0.601 0.277v0m4.479-4.249v0m0.277-2.263v0m0.508 5.265v0m-1.708-1.339v0m1.57-0.832v0m-1.201-4.294v0m-0.323-0.601v0m-1.709 4.803v0m-1.247-3.694v0m0.647-2.125v0m3.371 0.508v0m0.231-2.909v0m-2.956 3.463v0m-1.524-4.941v0m-0.138 3.233v0m-0.462 2.678v0m1.154 2.355v0m-0.692-0.646v0m-0.508-6.235v0m2.263-1.893v0m0.508 4.618v0m3.417-4.572v0m-0.924 3.371v0m-4.341 6.789v0m4.341-4.202v0m0 2.309v0m-5.311-3.556v0m-0.323 4.664v0m17.641-8.728v0m-17.687 2.863v0m4.295-3.002v0m-2.032 13.67v0m0.554-1.94v0m0.878 1.478v0m-2.125-1.062v0m-1.108-0.508v0m2.955-3.741v0m-0.092 0.97v0m-0.554-2.494v0m0.831-0.231v0m0.601 0.785v0m-2.171 0.462v0m1.385-7.204v0m1.109 3.325v0m-1.201-1.524v0m0.831-0.416v0m-2.263 0.832v0m-0.508-1.201v0m1.016-0.277v0m-2.262-0.508v0m-0.508 14.685v0m0.184-1.246v0m-1.154 0.461v0m-0.924 0.693v0m0.693-6.881v0m0.416 4.572v0m-1.617 1.709v0m0.878-2.817v0m-1.109-1.617v0m-0.369 5.173v0m2.17-6.42v0m0.277-2.262v0m0.508 5.264v0m-1.708-1.339v0m1.57-0.831v0m-1.201-4.295v0m-0.323-0.6v0m-1.709 4.802v0m2.771-5.31v0m0.231-2.91v0m-2.956 3.464v0m0.093-5.45v0m0.508 4.618v0m2.032-4.71v0m0.462 3.51v0m0 2.586v0m0 2.309v0m-0.416-7.158v0m-0.97-0.6v0m-1.478 11.73v0m0.878 1.477v0m-0.277-5.311v0m-0.093 0.97v0m-0.554-2.494v0m0.831-0.23v0m0.601 0.785v0m-0.785-6.743v0m1.108 3.325v0m-1.201-1.524v0m0.832-0.415v0m-1.755-0.647v0m8.174 21.105v0m-2.309-1.016v0m3.371 0.508v0m0.185-3.556v0m-2.91 4.11v0m-1.524-4.941v0m-0.138 3.232v0m-0.508-1.847v0m2.263-1.893v0m0.508 4.618v0m2.032-4.711v0m0.461 3.51v0m-5.311 1.339v0m-0.369-1.2v0m4.295-3.002v0m-0.878 0.185v0m1.109 3.325v0m-1.155-0.878v0m0.785-1.062v0m-2.263 0.831v0m-0.508-1.2v0m1.155 0.046v0m-2.401-0.831v0m-2.217 4.248v0m1.062-0.508v0m0.231-2.909v0m-2.956 3.463v0m0.093-5.449v0m0.508 4.618v0m2.032-4.71v0m0.462 3.509v0m0.046-2.54v0m-1.432-0.323v0m-0.877 0.185v0m1.108 3.325v0m-1.201-1.524v0m0.832-0.416v0m-1.755-0.646v0m21.936-0.37v0m-6.789 1.432v0m3.371-2.725v0m2.633 2.356v0m-3.418-1.663v0m2.217-0.831v0m2.586 0v0m-4.757-0.647v0m-0.692 2.032v0m6.142 0.693v0m-5.958 0.185v0m3.325-1.109v0m-1.524 1.201v0m-0.415-0.831v0m-4.249-1.34v0m-0.923 1.432v0m-1.571 0.508v0m-1.062-1.662v0m-0.046 1.477v0m4.48-1.57v0m-0.924 1.663v0m1.57-0.832v0m-3.233-0.092v0m-0.923-1.432v0m-0.693-0.646v0m0.416 2.078v0m4.341-1.893v0m-5.634 1.108v0m3.371-0.97v0m-0.092 0.97v0m-0.832-1.524v0m10.206-8.128v0m-2.909-0.231v0m-2.032-0.046v0m3.464-0.092v0m-2.864 1.385v0m3.51-0.231v0m-1.94 0.37v0m-3.74-1.755v0m-1.432 1.847v0" fill="none" stroke="#000" stroke-linecap="round" stroke-width=".369"/>
    </g>
    <g transform="translate(107.94 304.35)">
     <path d="m0 0v0m5.542-0.185v0m1.108 0.554v0m-3.233-0.092v0m-0.923-1.432v0m-0.277 1.432v0m-1.293-0.785v0m3.278 0v0m6.743 8.867v0m1.339-1.109v0m-1.939 0.878v0m-2.356-0.878v0m-17.779-15.239v0m1.801 0.046v0" fill="none" stroke="#000" stroke-linecap="round" stroke-width=".369"/>
    </g>
   </g>
  </g>
  <g transform="matrix(.35278 0 0 -.35278 93.266 252.04)">
   <g clip-path="url(#clipPath32811)">
    <g transform="translate(102.53 316.06)">
     <path d="m0 0c-4.827 2.642-9.328 3.079-13.123 1.656-6.859-2.572-11.411-11.218-11.411-23.901 0-19.702 10.984-41.685 24.534-49.101 13.55-7.415 24.534 2.543 24.534 22.246 0 19.701-10.984 41.684-24.534 49.1zm0-60.644c-9.485 5.191-17.174 20.579-17.174 34.371 0 8.878 3.187 14.93 7.988 16.73 2.656 0.996 5.807 0.691 9.186-1.159 9.485-5.191 17.174-20.579 17.174-34.37s-7.689-20.763-17.174-15.572z" fill="none" stroke="#000" stroke-width=".369"/>
    </g>
   </g>
  </g>
  <g transform="matrix(.35278 0 0 -.35278 93.266 252.04)">
   <g clip-path="url(#clipPath32823)">
    <path d="m93.288 306.49c-4.802-1.8-7.988-7.852-7.988-16.73 0-13.792 7.689-29.181 17.173-34.372 7.722-4.225 14.253-0.39 16.414 8.624-8.253 6.338-14.578 20.158-14.578 32.666 0 2.564 0.267 4.89 0.761 6.948-0.847 0.65-1.714 1.222-2.597 1.705-2.128 1.165-4.168 1.718-6.049 1.718-1.104 0-2.154-0.191-3.136-0.559" fill="url(#linearGradient32835)"/>
   </g>
  </g>
  <g transform="matrix(.35278 0 0 -.35278 93.266 252.04)">
   <g clip-path="url(#clipPath32845)">
    <g transform="translate(85.975 291.02)">
     <path d="m0 0v0m-1.385-0.647v0m1.893 2.263v0m0.092 2.54v0m-0.646-0.923v0m-0.185-0.878v0m-1.016-2.032v0m0.277 1.016v0m0.508-2.263v0m0.462-18.749v0m-1.385-0.647v0m1.893 2.263v0m0.092 2.54v0m-1.339 1.108v0m0.693-2.032v0m-0.185-0.877v0m-1.016-2.032v0m0.277 1.016v0m0.508-2.263v0m0.462 12.007v0m-1.385-0.646v0m1.893 2.263v0m-0.323 2.54v0m-0.924 1.108v0m0.693-2.032v0m-0.185-0.877v0m-0.739-1.016v0m0.508-2.263v0m1.386-1.201v0m-0.185 1.247v0m1.154-0.462v0m0.924-0.693v0m-0.693 6.881v0m-0.415-4.572v0m1.616-1.708v0m-1.247 3.371v0m1.617 0.554v0m1.015-3.602v0m-0.785-1.062v0m2.309 0.785v0m0.37-0.739v0m-1.478 4.618v0m1.062 1.663v0m0.046-1.478v0m0.601-2.402v0m-0.601-0.277v0m-4.479 4.249v0m-0.277 2.263v0m-0.508-5.265v0m1.709 1.339v0m-1.571 0.832v0m1.201 4.295v0m0.323 0.6v0m1.709-4.803v0m1.247 3.695v0m-0.647 2.124v0m-3.371-0.508v0m-0.231 2.909v0m2.956-3.463v0m1.524 4.941v0m0.138-3.233v0m0.462-2.678v0m-1.154-2.355v0m0.692 0.646v0m0.508 6.235v0m-2.263 1.893v0m-0.507-4.618v0m-3.418 4.572v0m0.924-3.371v0m4.341-6.789v0m-4.341 4.203v0m0-2.309v0m5.311 3.555v0m0.323-4.664v0m0.046 5.865v0m-4.295 3.002v0m2.032-13.67v0m-0.554 1.94v0m-0.877-1.478v0m2.124 1.062v0m1.108 0.508v0m-2.955 3.741v0m0.092-0.97v0m0.554 2.494v0m-0.831 0.231v0m-0.6-0.785v0m2.17-0.462v0m-1.385 7.204v0m-1.109-3.325v0m1.201 1.524v0m-0.831 0.416v0m2.263-0.831v0m0.508 1.2v0m-1.016 0.277v0m2.262 0.508v0m0.508-14.685v0m-0.184 1.247v0m1.154-0.462v0m0.924-0.693v0m-0.693 6.881v0m-0.415-4.572v0m1.616-1.709v0m-0.878 2.817v0m1.109 1.617v0m0.369-5.173v0m-2.17 6.42v0m-0.277 2.263v0m-0.508-5.265v0m1.708 1.339v0m-1.57 0.831v0m1.201 4.295v0m0.323 0.601v0m1.709-4.803v0m-2.771 5.311v0m-0.231 2.909v0m2.956-3.464v0m-0.093 5.45v0m-0.508-4.618v0m-2.032 4.71v0m-0.461-3.51v0m0-2.586v0m0-2.309v0m0.415 7.158v0m0.97 0.601v0m1.478-11.73v0m-0.878-1.478v0m0.277 5.311v0m0.093-0.97v0m0.554 2.494v0m-0.831 0.231v0m-0.601-0.786v0m0.785 6.743v0m-1.108-3.325v0m1.201 1.524v0m-0.831 0.415v0m1.754 0.647v0m-8.682-24.568v0m-0.646 1.662v0m0.831 1.201v0m0.323 0.6v0m2.956-1.108v0m-0.647 2.124v0m-3.371-0.508v0m-0.185 3.556v0m2.91-4.11v0m1.524 4.941v0m0.138-3.232v0m0.462-2.679v0m-1.154-2.355v0m0.692 0.647v0m0.508 6.234v0m-2.263 1.893v0m-0.507-4.618v0m-2.032 4.711v0m-0.462-3.51v0m0-2.586v0m0-2.309v0m5.311 3.556v0m0.369 1.2v0m-4.295 3.002v0m0.878-7.897v0m0.646 1.524v0m-0.831 0.231v0m-0.6-0.785v0m2.17-0.462v0m-1.385 7.205v0m-1.109-3.326v0m1.155 0.878v0m-0.785 1.062v0m2.263-0.831v0m0.508 1.201v0m-1.155-0.047v0m2.401 0.832v0m1.709-7.713v0m-0.369-0.6v0m-0.277 2.263v0m0.831 1.201v0m0.323 0.6v0m-1.062 0.508v0m-0.231 2.909v0m2.956-3.463v0m-0.093 5.449v0m-0.508-4.618v0m-2.032 4.711v0m-0.461-3.51v0m0-2.586v0m0-2.309v0m-0.047 7.435v0m1.432 0.323v0m0.877-7.897v0m0.093-0.97v0m0.554 2.494v0m-0.831 0.231v0m-0.601-0.785v0m0.785 6.742v0m-1.108-3.325v0m1.201 1.524v0m-0.831 0.416v0m1.754 0.646v0m-11.914-0.323v0" fill="none" stroke="#000" stroke-linecap="round" stroke-width=".369"/>
    </g>
    <g transform="translate(85.929 279.19)">
     <path d="m0 0v0m0.046-1.478v0m-0.97 2.263v0m0.693 0.647v0m-0.416-2.079v0m1.294 0.786v0m-0.508 9.19v0m-0.924 0.508v0m10.714 7.481v0m0.647-26.785v0m-2.54 0.092v0m0.092 26.647v0m-2.023-43.109v0m0.323 0.601v0m2.309 1.016v0m-3.371-0.508v0m-0.231 2.909v0m2.955-3.463v0m1.524 4.941v0m0.139-3.233v0m0.462-2.678v0m0.046 4.526v0m-2.263 1.893v0m-0.508-4.618v0m-2.032 4.71v0m-0.462-3.509v0m0-2.587v0m5.311 1.247v0m-5.957 3.51v0m6.327-2.309v0m-4.295 3.002v0m0.877-0.185v0m-1.108-3.325v0m1.154 1.155v0m-0.785 0.785v0m2.263-0.832v0m0.508 1.201v0m-1.016 0.277v0m2.263 0.508v0m-11.869-2.771v0m0.462-2.678v0m0.046 4.526v0m0.047-2.864v0m0.369 1.201v0m-0.139 2.586v0m1.201 1.386v0m-1.247-0.185v0m0.462 1.154v0m0.693 0.924v0m-0.601 0.508v0m-0.323 1.385v0m1.062-0.785v0m-0.785 2.309v0m0.739 0.37v0m-1.616-1.986v0m1.431 2.632v0m-1.246-0.184v0m0.461 1.154v0m0.693 0.924v0m-0.6 0.508v0m0.739 0.6v0m10.16-8.128v0m-1.663-0.646v0m-1.201 0.831v0m-0.6 0.323v0m1.108 2.956v0m-2.124-0.647v0m0.508-3.371v0m-3.556-0.185v0m4.11 2.91v0m-4.941 1.524v0m3.232 0.138v0m2.679 0.462v0m2.355-1.154v0m-0.646 0.692v0m-6.235 0.508v0m-1.893-2.263v0m4.618-0.508v0m-4.711-2.031v0m3.51-0.462v0m2.586 0v0m2.309 0v0m-3.556 5.311v0m-1.2 0.369v0m-3.002-4.295v0m7.897 0.878v0m-1.524 0.646v0m-0.231-0.831v0m0.785-0.601v0m0.462 2.171v0m-7.204-1.385v0m3.325-1.109v0m-0.878 1.155v0m-1.062-0.785v0m0.831 2.263v0m-1.2 0.508v0m0.046-1.155v0m-0.831 2.401v0m7.712 1.709v0m0.6-0.369v0m-2.263-0.277v0m-1.2 0.831v0m-0.601 0.323v0m-0.508-1.062v0m-2.909-0.231v0m3.463 2.956v0m-5.449-0.093v0m4.618-0.508v0m-4.71-2.032v0m3.509-0.461v0m2.587 0v0m2.309 0v0m-7.436-0.047v0m-0.323 1.432v0m7.897 0.877v0m0.97 0.093v0m-2.494 0.554v0m-0.231-0.831v0m0.785-0.601v0m-6.742 0.785v0m3.325-1.108v0m-1.524 1.201v0m-0.416-0.832v0m-0.646 1.755v0m1.062-15.147v0m-2.679 0.739v0m1.432 0.923v0m0.508 1.571v0m-1.662 1.062v0m1.477 0.046v0m-1.57-4.48v0m1.663 0.924v0m-0.832-1.57v0m-0.092 3.233v0m-1.432 0.923v0m-0.646 0.693v0m2.078-0.416v0m-1.893-4.341v0m1.108 5.634v0m-0.97-3.371v0m0.97 0.092v0m-1.524 0.832v0m11.13 12.376v0m-0.093-2.54v0m19.326-2.115v0m1.847 1.431v0m0.508 1.57v0m-1.663 1.063v0m1.478 0.046v0m-1.57-4.48v0m-2.263-0.277v0m3.926 1.201v0m-0.555-1.201v0m-4.572 0.831v0m-0.6 0.324v0m4.803 1.708v0m-3.695 1.247v0m-2.124-0.646v0m0.508-3.372v0m-2.909-0.23v0m3.463 2.955v0m-4.941 1.524v0m3.233 0.139v0m2.678 0.461v0m2.355-1.154v0m-0.646 0.693v0m-6.235 0.508v0m-1.893-2.263v0m4.618-0.508v0m-4.71-2.032v0m3.509-0.462v0m6.789 4.341v0m-4.203-4.341v0m2.31 0v0m-3.556 5.311v0m4.664 0.323v0m-8.174-6.281v0m2.309 6.327v0m-3.002-4.295v0m7.897 0.878v0m0.97 0.092v0m-2.494 0.554v0m-0.231-0.831v0m0.785-0.6v0m0.462 2.17v0m-7.204-1.385v0m3.325-1.108v0m-1.155 1.154v0m-0.785-0.785v0m0.832 2.263v0m-1.201 0.508v0m-0.277-1.016v0m-0.508 2.263v0m7.897-15.702v0m3.094 0.554v0m-1.247 0.878v0m0.508 1.57v0m-1.663 1.062v0m1.478 0.046v0m-1.57-4.479v0" fill="none" stroke="#000" stroke-linecap="round" stroke-width=".369"/>
    </g>
    <g transform="translate(114.73 253)">
     <path d="m0 0v0m3.371 1.385v0m-4.572-0.554v0m-0.6 0.324v0m4.803 1.708v0m-3.695 1.247v0m-2.124-0.646v0m0.508-3.372v0m0.554 2.725v0m-4.941 1.524v0m3.232 0.139v0m2.679 0.461v0m2.355-1.154v0m-0.646 0.693v0m-6.235 0.508v0m-1.893-2.263v0m4.618-0.508v0m-4.295-2.032v0m2.863 0v0m7.02 3.879v0m-5.45 0.97v0m4.665 0.323v0m-5.865 0.046v0m-3.002-4.295v0m7.897 0.878v0m0.97 0.092v0m-2.494 0.554v0m-0.231-0.831v0m0.785-0.6v0m0.462 2.17v0m-7.204-1.385v0m3.325-1.109v0m-1.524 1.201v0m-0.416-0.831v0m0.831 2.263v0m-0.692 0.092v0m-0.785-0.6v0m-0.508 2.263v0m-1.386 1.2v0m0.185-1.247v0m-1.155 0.462v0m-0.923 0.693v0m1.108-2.309v0m-1.616 1.709v0m1.247-3.372v0m-1.617-0.554v0m-1.016 3.602v0m0.785 1.063v0m-2.309-0.786v0m-0.369 0.739v0m1.478-4.618v0m-1.063-1.662v0m-0.046 1.478v0m-0.6 2.401v0m0.6 0.277v0m4.48-4.249v0m0.785 3.002v0m-1.709-1.339v0m1.57-0.831v0m-3.232-0.093v0m-1.201 0v0m-1.293-0.785v0m2.217 4.803v0m0.554-1.94v0m0.877 1.478v0m-2.124-1.062v0m-1.108-0.508v0m2.863-2.771v0m-3.695 6.235v0m0.185-1.247v0m-1.155 0.462v0m-0.923 0.692v0m1.108-2.309v0m-1.616 1.709v0m0.877-2.817v0m-1.108-1.616v0m-0.37 5.172v0m2.956-3.418v0m-1.709-1.339v0m1.571-0.831v0m-3.233-0.092v0m0.277 2.078v0m0.877 1.478v0m7.389 12.284v0m0.647-1.663v0m-0.831-1.201v0m-0.324-0.6v0m-2.955 1.108v0m0.646-2.124v0m3.372 0.508v0m0.184-3.556v0m-2.909 4.11v0m-1.524-4.941v0m-0.139 3.233v0m-0.461 2.678v0m1.154 2.355v0m-0.693-0.646v0m-0.508-6.235v0m2.263-1.893v0m0.508 4.618v0m2.032-4.71v0m0.462 3.509v0m0 2.586v0m0 2.31v0m-5.311-3.556v0m-0.369-1.201v0m4.295-3.002v0m-0.878 7.897v0m-0.646-1.524v0m0.831-0.231v0m0.6 0.785v0m-2.17 0.462v0m1.385-7.204v0m1.108 3.325v0m-1.154-0.878v0m0.785-1.062v0m-2.263 0.832v0m-0.508-1.201v0m1.155 0.046v0m-2.402-0.831v0m-1.708 7.712v0m0.369 0.6v0m0.277-2.263v0m-0.831-1.2v0m-0.323-0.601v0m1.062-0.508v0m0.231-2.909v0m-2.956 3.464v0m0.092-5.45v0m0.508 4.618v0m2.032-4.71v0m0.462 3.51v0m0 2.586v0m0 2.309v0m0.046-7.435v0m-1.431-0.324v0m-0.878 7.897v0m-0.092 0.97v0m-0.554-2.494v0m0.831-0.231v0m0.6 0.786v0m-0.785-6.743v0m1.109 3.325v0m-1.201-1.524v0m0.831-0.415v0m-1.755-0.647v0m21.936-0.369v0m-6.788 1.431v0m3.371-2.725v0m2.632 2.356v0m-3.417-1.663v0m2.217-0.831v0m-2.171-0.647v0m-0.693 2.032v0m0.185 0.878v0m3.325-1.109v0m-1.524 1.201v0m-0.415-0.831v0m-4.249-1.339v0m-0.924 1.431v0m-1.57 0.508v0m-1.062-1.662v0m-0.046 1.478v0m4.479-1.571v0m-0.923 1.663v0m1.57-0.831v0m-3.233-0.093v0m-0.923-1.431v0m-0.693-0.647v0m0.415 2.078v0m4.341-1.893v0m-5.634 1.108v0m3.372-0.97v0m-0.093 0.97v0m-0.831-1.524v0m9.005 0.693v0m-0.6-0.231v0m-2.355-0.877v0m-18.427 11.545v0m2.54-0.092v0m19.203 25.282v0m-1.524 0.277v0m-0.369 0.739v0m1.477-4.618v0m-1.062-1.662v0m-0.046 1.477v0m-0.6 2.402v0m1.108 0.462v0m1.386-3.695v0m-1.247-3.694v0m0.138-1.57v0m-0.369-4.434v0m-0.139 3.233v0m-0.462 2.678v0m1.155 2.356v0m-0.693-0.647v0m-0.508-6.234v0m0.924 8.312v0m-0.97-5.449v0m-0.508 4.064v0" fill="none" stroke="#000" stroke-linecap="round" stroke-width=".369"/>
    </g>
    <g transform="translate(117.08 283.96)">
     <path d="m0 0v0m2.263 10.668v0m-0.693-1.524v0m-1.108-0.508v0m1.893-5.403v0m-0.323 1.154v0m-0.139-4.987v0m-0.508-1.201v0m1.016-0.277v0m-2.262-0.508v0m-13.855 14.87v0m0.185-1.247v0m-1.155 0.462v0m-0.923 0.693v0m0.692-6.881v0m0.416 4.572v0m-1.616 1.708v0m0.923-2.817v0m-1.154-1.616v0m-1.155 4.11v0m0.785 1.062v0m-2.309-0.785v0m-0.369 0.739v0m1.478-4.618v0m-1.062-1.662v0m-0.047 1.477v0m-0.6 2.402v0m0.6 0.277v0m4.48-4.249v0m0.277-2.263v0m0.508 5.265v0m-1.709-1.339v0m1.201-0.554v0m-0.831-4.572v0m-0.324-0.601v0m-1.708 4.803v0m-1.247-3.694v0m0.646-2.125v0m3.372 0.508v0m0.231-2.909v0m-2.956 3.463v0m-1.524-4.941v0m-0.139 3.233v0m-0.461 2.678v0m1.154 2.355v0m-0.693-0.646v0m-0.508-6.235v0m2.263-1.893v0m0.508 4.618v0m2.032-4.71v0m0.462 3.509v0m-4.341 6.789v0m4.341-4.202v0m0 2.309v0m-5.311-3.556v0m-0.323 4.664v0m6.281-8.174v0m-6.327 2.309v0m4.295-3.002v0m-2.032 13.67v0m0.554-1.94v0m0.877 1.478v0m-2.124-1.062v0m-1.108-0.508v0m2.955-3.741v0m-0.092 0.97v0m-0.554-2.494v0m0.831-0.231v0m0.6 0.785v0m-2.17 0.462v0m1.385-7.204v0m1.109 3.325v0m-1.155-1.155v0m0.785-0.785v0m-2.263 0.832v0m-0.508-1.201v0m1.016-0.277v0m-2.263-0.508v0m16.903 14.87v0m0.184-1.247v0m-1.154 0.462v0m-0.924 0.693v0m0.693-6.881v0m0.416 4.572v0m-1.617 1.708v0m0.647-3.186v0m-0.878-1.247v0m-1.154 4.11v0m0.785 1.062v0m-2.309-0.785v0m-0.37 0.739v0m1.478-4.618v0m-1.062-1.662v0m-0.046 1.477v0m-0.601 2.402v0m0.601 0.277v0m4.479-4.249v0m0.277-2.263v0m0.185 4.757v0m-1.57-1.385v0m1.755-0.278v0m-1.201-4.294v0m-0.323-0.601v0m-1.709 4.803v0m-1.247-3.694v0m0.647-2.125v0m3.371 0.508v0m0.231-2.909v0m-2.956 3.463v0m-1.524-4.941v0m-0.138 3.233v0m-0.462 2.678v0m1.155 2.355v0m-0.693-0.646v0m-0.508-6.235v0m2.263-1.893v0m0.508 4.618v0m2.032-4.295v0m0 2.864v0m-3.879 7.019v0m4.341-4.202v0m0 2.309v0m-5.311-3.556v0m-0.324 4.664v0m6.281-8.174v0m-6.327 2.309v0m4.295-3.002v0m-2.032 13.67v0m0.554-1.94v0m0.878 1.478v0m-2.125-1.062v0m-1.108-0.508v0m2.956-3.741v0m-0.093 0.97v0m-0.554-2.494v0m0.831-0.231v0m0.601 0.785v0m-2.171 0.462v0m1.386-7.204v0m1.108 3.325v0m-1.201-1.524v0m0.832-0.416v0m-2.263 0.832v0m-0.093-0.693v0m0.601-0.785v0m-2.263-0.508v0m-1.201-1.386v0m1.247 0.185v0m-0.462-1.154v0m-0.693-0.924v0m6.882 0.693v0m-4.572 0.415v0m-1.709-1.616v0m3.371 1.247v0m0.554-1.616v0m-3.602-1.016v0m-1.062 0.785v0m0.785-2.309v0m-0.739-0.37v0m4.618 1.478v0m1.663-1.062v0m-1.478-0.046v0m-2.401-0.601v0m-0.278 0.601v0m4.249 4.479v0m2.263 0.277v0m-5.265 0.508v0m1.34-1.709v0m0.831 1.571v0m4.295-1.201v0m0.6-0.323v0m-4.803-1.709v0m3.695-1.247v0m2.124 0.647v0m-0.508 3.371v0m-0.554-2.725v0m1.709-1.662v0m-2.679-0.462v0m-2.355 1.154v0m0.646-0.692v0m3.51 2.263v0m-5.588-1.848v0m4.203 4.341v0m-2.309 0v0m3.556-5.311v0m-4.665-0.323v0m-4.803 2.217v0m1.94 0.554v0m-1.478 0.878v0m1.062-2.125v0m0.508-1.108v0m3.741 2.955v0m-0.97-0.092v0m2.494-0.554v0m0.231 0.831v0m-0.785 0.6v0m-0.462-2.17v0m3.879 2.494v0m-11.591-4.895v0m1.247 0.184v0" fill="none" stroke="#000" stroke-linecap="round" stroke-width=".369"/>
    </g>
    <g transform="translate(108.39 272.69)">
     <path d="m0 0v0m-0.693-0.924v0m6.881 0.693v0m-4.572 0.416v0m-1.708-1.617v0m2.817 0.878v0m1.616-1.109v0m-5.172-0.369v0m6.419 2.171v0m2.263 0.277v0m-5.265 0.508v0m1.339-1.709v0m0.832 1.57v0m4.295-1.201v0m0.6-0.323v0m-4.803-1.709v0m5.311 2.771v0m-0.554-2.724v0m0.831 0.6v0m-1.385 2.494v0m-2.31 0v0m-3.971-2.864v0m-1.478 0.878v0m5.311-0.277v0m-0.97-0.093v0m2.494-0.554v0m0.231 0.832v0m-0.785 0.6v0m3.417 0.323v0m-21.982 6.558v0m1.662 0.646v0m1.201-0.831v0m0.6-0.323v0m-1.108-2.956v0m2.124 0.647v0m-0.508 3.371v0m3.556 0.185v0m-4.11-2.91v0m4.942-1.524v0m-3.233-0.138v0m-2.679-0.462v0m-2.355 1.155v0m0.647-0.693v0m6.234-0.508v0m1.894 2.263v0m-4.618 0.508v0m4.71 2.032v0m-3.51 0.462v0m-2.586 0v0m-2.309 0v0m3.556-5.311v0m1.201-0.37v0m3.001 4.295v0m-7.897-0.877v0m1.524-0.647v0m0.231 0.831v0m-0.785 0.601v0m-0.461-2.171v0m7.204 1.386v0m-3.325 1.108v0m0.877-1.155v0m1.062 0.786v0m-0.831-2.263v0m1.201-0.508v0m-0.046 1.154v0m0.831-2.401v0m-7.712-1.709v0m-0.601 0.37v0m2.263 0.277v0m1.201-0.832v0m0.6-0.323v0m0.508 1.062v0m2.91 0.231v0m-3.464-2.955v0m5.449 0.092v0m-4.618 0.508v0m4.711 2.032v0m-3.51 0.462v0m-2.586 0v0m-2.309 0v0m7.435 0.046v0m0.323-1.432v0m-7.897-0.877v0m-0.97-0.093v0m2.494-0.554v0m0.231 0.832v0m-0.785 0.6v0m6.742-0.785v0m-3.325 1.108v0m1.524-1.201v0m0.416 0.832v0m0.647-1.755v0m1.524 23.737v0m-1.478 0.831v0m0.323-2.632v0m-1.432-6.789v0m2.725 3.371v0m-2.355 2.633v0m1.662-3.418v0m0.832 2.217v0m0 2.586v0m0 2.309v0m0.646-7.065v0m-2.032-0.693v0m-0.692 6.142v0m1.246 2.263v0m-1.431-8.22v0m1.108 3.325v0m-1.201-1.524v0m0.832-0.416v0m1.339-4.249v0m-1.432-0.923v0m-0.508-1.57v0m1.663-1.063v0m-1.478-0.046v0m1.57 4.48v0m-1.662-0.924v0m0.831 1.57v0m0.092-3.232v0m1.432-0.924v0m0.646-0.693v0m-2.078 0.416v0m1.894 4.341v0m-1.109-5.634v0m0.97 3.371v0m-0.97-0.092v0m1.524-0.831v0m8.221 12.515v0m-0.832-1.201v0m-0.323-0.6v0m1.062-0.508v0m0.231-2.91v0m0.046-2.032v0m0.093 3.464v0m0 2.586v0m0 2.309v0m-1.386-7.759v0m-0.092 6.928v0m0.323-3.418v0m-0.369-1.939v0m1.755-3.741v0m-1.848-1.432v0m0.785-4.202v0m0.185 5.542v0m-0.554 1.108v0m0.092-3.233v0m1.432-0.923v0m-1.432-0.277v0m0.785-1.293v0m0 3.278v0m-8.543 8.821v0m-0.323-2.078v0m0.461 3.51v0m0.647-2.171v0m-1.801 2.817v0m0.924-4.757v0m0.877-2.355v0m-3.417 7.897v0m-8.128-26.323v0m0.092 2.54v0" fill="none" stroke="#000" stroke-linecap="round" stroke-width=".369"/>
    </g>
   </g>
  </g>
  <g transform="matrix(.35278 0 0 -.35278 93.266 252.04)">
   <g clip-path="url(#clipPath32873)">
    <g transform="translate(90.648 296.63)">
     <path d="m0 0v0m-0.185 1.247v0m1.155-0.462v0m0.923-0.693v0m-0.692 6.881v0m-0.416-4.572v0m1.616-1.708v0m-0.923 2.817v0m1.154 1.616v0m1.155-4.11v0m-0.785-1.062v0m2.309 0.785v0m0.369-0.739v0m-1.478 4.618v0m1.063 1.663v0m0.046-1.478v0m0.6-2.402v0m-0.6-0.277v0m-4.48 4.249v0m-0.277 2.263v0m-0.508-5.265v0m1.709 1.339v0m-1.201 0.555v0m0.831 4.572v0m0.324 0.6v0m1.708-4.803v0m1.247 3.695v0m-4.017 1.616v0m2.724-0.554v0m2.125-0.97v0m-1.155-2.355v0m0.693 0.646v0m-0.416-2.078v0m-4.341 4.203v0m0-2.309v0m5.311 3.555v0m0.323-4.664v0m-2.217-4.803v0m-0.554 1.94v0m-0.877-1.478v0m2.124 1.062v0m1.109 0.508v0m-2.956 3.741v0m0.092-0.97v0m0.555 2.494v0m-0.832 0.231v0m-0.6-0.785v0m2.17-0.462v0m-9.328-7.897v0m0.231 2.401v0m0 4.018v0m2.032-4.018v0m1.477-0.831v0m-0.323 2.632v0m1.432 6.789v0m-2.725-3.371v0m2.355-2.632v0m-1.662 3.417v0m-0.831-2.217v0m0-2.586v0m0-2.309v0m-0.647 7.066v0m2.032 0.693v0m0.693-6.143v0m-1.247-2.262v0m1.431 8.22v0m-1.108-3.325v0m1.201 1.524v0m-0.831 0.415v0m-1.155 3.372v0m0.831-0.647v0m-1.985 0.092v0m-0.047-7.897v0m0.324 2.079v0m-0.462-3.51v0m-0.647 2.17v0m1.801-2.817v0m-0.923 4.757v0m-0.878 2.355v0m3.418-7.897v0m12.813 10.123v0m-0.046 1.477v0m3.926-5.033v0m-0.324-0.601v0m-1.708 4.803v0m-1.247-3.694v0m0.646-2.125v0m0.647 1.062v0m-1.524-4.941v0m-0.139 3.233v0m-0.461 2.678v0m1.154 2.355v0m-0.693-0.646v0m-0.508-6.235v0m2.263-1.893v0m0.508 4.618v0m-1.847 5.588v0m-0.97-5.449v0m-0.323 4.664v0m-0.046-5.865v0m4.295-3.002v0m-0.878 7.897v0m-0.092 0.97v0m-0.554-2.494v0m0.831-0.231v0m0.6 0.785v0m-2.17 0.462v0m1.385-7.204v0m1.109 3.325v0m-1.201-1.524v0m0.831-0.416v0m-2.263 0.832v0m-0.508-1.201v0m1.016-0.277v0m-2.263-0.508v0m-1.708 7.712v0m-1.432 1.847v0m1.801-1.247v0m0.277-2.262v0m-1.201 3.925v0m1.571-0.831v0m-1.201-4.295v0m-0.323-0.601v0m-1.709 4.803v0m2.771-5.311v0m0.231-2.909v0m-2.956 3.464v0m0.092-5.45v0m0.508 4.618v0m2.032-4.71v0m0.462 3.51v0m0 2.586v0m0 2.309v0m-0.415-7.158v0m-0.97-0.601v0m-0.878 7.897v0m-0.092 0.97v0m-0.554-2.494v0m0.831-0.23v0m0.6 0.785v0m-0.785-6.743v0m1.109 3.325v0m-1.201-1.524v0m0.831-0.415v0m-1.755-0.647v0m0.924-1.662v0m1.801 0.046v0" fill="none" stroke="#000" stroke-linecap="round" stroke-width=".369"/>
    </g>
   </g>
  </g>
  <g transform="matrix(.35278 0 0 -.35278 93.266 252.04)">
   <g clip-path="url(#clipPath32885)">
    <g transform="translate(104.31 296.68)">
     <path d="m0 0c0 2.564 0.267 4.89 0.761 6.948-0.847 0.65-1.714 1.222-2.597 1.705-3.379 1.849-6.53 2.155-9.186 1.159-4.801-1.8-7.987-7.853-7.987-16.73 0-13.792 7.688-29.181 17.173-34.372 7.722-4.226 14.252-0.389 16.414 8.624-8.253 6.337-14.578 20.158-14.578 32.666z" fill="none" stroke="#000" stroke-linecap="round" stroke-linejoin="round" stroke-width=".369"/>
    </g>
   </g>
  </g>
  <g transform="matrix(.35278 0 0 -.35278 93.266 252.04)">
   <g clip-path="url(#clipPath32897)">
    <path d="m104.6 323.07-9.794-3.564c3.747 1.324 8.167 0.853 12.901-1.737 13.55-7.416 24.534-29.399 24.534-49.101 0-12.676-4.547-21.318-11.397-23.895l9.76 3.552c6.993 2.458 11.652 11.155 11.652 23.989 0 19.7-10.984 41.685-24.534 49.1-3.042 1.665-5.954 2.454-8.641 2.454-1.578 0-3.078-0.272-4.481-0.798m-10.016-3.645 0.222 0.081c-0.074-0.027-0.148-0.053-0.222-0.081m26.005-74.745c0.085 0.03 0.17 0.061 0.255 0.093z" fill="url(#linearGradient32911)"/>
   </g>
  </g>
  <g transform="matrix(.35278 0 0 -.35278 93.266 252.04)">
   <g clip-path="url(#clipPath32921)">
    <g transform="translate(120.43 244.62)">
     <path d="m0 0c6.993 2.458 11.652 11.157 11.652 23.989 0 19.702-10.984 41.685-24.534 49.101-4.827 2.642-9.328 3.079-13.123 1.656" fill="none" stroke="#000" stroke-width=".369"/>
    </g>
    <g transform="translate(121.79 323.07)">
     <path d="m0 0c-4.827 2.642-9.328 3.079-13.123 1.656l-19.265-7.012c0.474 0.178 0.959 0.327 1.455 0.446-0.495-0.119-0.98-0.268-1.454-0.446-6.858-2.571-11.41-11.217-11.41-23.9 0-19.702 10.984-41.686 24.534-49.102 4.778-2.615 9.237-3.067 13.008-1.695-0.043-0.015-0.085-0.033-0.128-0.049l19.265 7.013c6.992 2.457 11.651 11.156 11.651 23.988 0 19.702-10.984 41.685-24.533 49.101zm-10.267-68.879c-0.063-0.021-0.125-0.043-0.188-0.063 0.063 0.021 0.126 0.04 0.188 0.063zm0.352 0.136c3.307 1.342 5.822 4.73 7.011 9.692-8.253 6.336-14.577 20.157-14.577 32.665 0 2.563 0.267 4.889 0.76 6.948v0c-0.847 0.65-1.714 1.222-2.596 1.706-3.362 1.839-6.497 2.15-9.145 1.172 4e-3 2e-3 8e-3 4e-3 0.012 5e-3 2.657 0.997 5.808 0.691 9.187-1.158 9.485-5.191 17.174-20.58 17.174-34.371 0-8.776-3.117-14.783-7.826-16.659zm4.26-11.074c-0.066-0.028-0.132-0.055-0.197-0.081 0.065 0.026 0.131 0.053 0.197 0.081zm0.572 0.258c-0.033-0.016-0.067-0.03-0.1-0.046 0.033 0.016 0.067 0.03 0.1 0.046z" fill="none" stroke="#000" stroke-linecap="round" stroke-linejoin="round" stroke-width=".738"/>
    </g>
   </g>
  </g>
 </g>
</svg>
